<svg width="121" height="122" viewBox="0 0 121 122" fill="none" xmlns="http://www.w3.org/2000/svg">
<circle cx="15" cy="15" r="15" fill="url(#paint0_linear_460_51303)"/>
<circle cx="14.9998" cy="15" r="11.5909" fill="#96661B"/>
<circle cx="14.9999" cy="15" r="9.40909" fill="url(#paint1_linear_460_51303)"/>
<g clip-path="url(#clip0_460_51303)">
<path d="M11.8571 10.8919C11.7995 10.7257 11.6142 10.6426 11.448 10.7001C11.2818 10.7576 11.1987 10.943 11.2562 11.1092C11.3265 11.301 11.4032 11.4863 11.4927 11.6653C11.6142 11.448 11.7612 11.2498 11.9274 11.0645C11.9018 11.0069 11.8763 10.9494 11.8571 10.8919Z" fill="#96661B"/>
<path d="M18.8628 11.1092C18.9203 10.943 18.8372 10.7577 18.6711 10.7002C18.5049 10.6426 18.3195 10.7257 18.262 10.8919C18.2428 10.9495 18.2172 11.007 18.1917 11.0645C18.3578 11.2499 18.5049 11.448 18.6263 11.6654C18.7158 11.4864 18.7925 11.301 18.8628 11.1092Z" fill="#96661B"/>
<path d="M17.6163 13.4615C17.6163 13.3675 17.5939 13.2773 17.5558 13.1947C17.2741 13.4881 16.9607 13.749 16.623 13.9797C16.7284 14.0518 16.8471 14.1007 16.9771 14.1007C17.3295 14.1007 17.6163 13.8139 17.6163 13.4615Z" fill="#96661B"/>
<path d="M13.8186 13.4261C14.1117 13.0611 14.5561 12.8223 15.0596 12.8223C15.5631 12.8223 16.0075 13.0611 16.3007 13.4261C17.1467 12.8372 17.8141 12.023 18.1917 11.0645C17.4311 10.1824 16.3125 9.60498 15.0596 9.60498C13.8068 9.60498 12.6881 10.1824 11.9275 11.0645C12.3051 12.023 12.9725 12.8372 13.8186 13.4261Z" fill="#96661B"/>
<path d="M19.2145 18.6327V13.7811C19.2145 13.0077 19.0035 12.2854 18.6264 11.6653C18.454 12.0284 18.2319 12.3631 17.9889 12.682C18.1597 12.9032 18.2557 13.1746 18.2557 13.4615C18.2557 14.1666 17.6823 14.7399 16.9773 14.7399C16.8795 14.7399 16.7842 14.7258 16.6909 14.7044C16.7239 14.9758 16.7875 15.2437 16.9098 15.4884L17.2632 16.195C17.3697 16.4073 17.214 16.6575 16.9773 16.6575H16.5091L15.3256 18.4328C15.2805 18.5006 15.1691 18.5752 15.0596 18.5752C14.9549 18.5752 14.8418 18.5051 14.7937 18.4328L13.6102 16.6575H13.142C12.9054 16.6575 12.7496 16.4073 12.8561 16.195L13.2094 15.4884C13.3318 15.2437 13.3954 14.9758 13.4284 14.7044C13.3351 14.7258 13.2398 14.7399 13.142 14.7399C12.437 14.7399 11.8636 14.1666 11.8636 13.4615C11.8636 13.1746 11.9596 12.9032 12.1305 12.682C11.8875 12.3631 11.6653 12.0284 11.4929 11.6653C11.1158 12.2854 10.9048 13.0077 10.9048 13.7811V18.6327C10.9048 19.1185 10.7067 19.6192 10.3615 19.9707C10.2656 20.0602 10.2401 20.1945 10.2912 20.3159C10.3423 20.4374 10.4574 20.5141 10.5852 20.5141H11.2244C11.8764 20.5141 12.4453 20.1178 12.6882 19.5553L13.5575 20.4182C13.679 20.546 13.8835 20.546 14.0049 20.4182L15.0596 19.3699L16.1144 20.4182C16.2293 20.546 16.4468 20.5461 16.5618 20.4182L17.4311 19.5553C17.674 20.1178 18.2429 20.5141 18.8949 20.5141H19.5341C19.6619 20.5141 19.777 20.4374 19.8281 20.3159C19.8792 20.1945 19.8537 20.0602 19.7578 19.9707C19.4126 19.6192 19.2145 19.1185 19.2145 18.6327Z" fill="#96661B"/>
<path d="M13.782 15.7778C13.9906 15.36 14.1008 14.8925 14.1008 14.4256C14.1008 13.897 14.5309 13.4668 15.0596 13.4668C15.5883 13.4668 16.0184 13.897 16.0184 14.4256C16.0184 14.8925 16.1286 15.36 16.3371 15.7778L16.4668 16.045H16.338C16.2306 16.045 16.1303 16.099 16.0712 16.1886L15.0596 17.7229L14.048 16.1886C13.9889 16.099 13.8886 16.045 13.7812 16.045H13.6523L13.782 15.7778Z" fill="#96661B"/>
<path d="M13.1419 14.1007C13.2719 14.1007 13.3906 14.0518 13.4959 13.9797C13.1583 13.7491 12.8449 13.4882 12.5632 13.1947C12.5251 13.2773 12.5027 13.3675 12.5027 13.4615C12.5027 13.8139 12.7895 14.1007 13.1419 14.1007Z" fill="#96661B"/>
</g>
<g clip-path="url(#clip1_460_51303)">
<path d="M60 119C93.1371 119 120 92.1371 120 59C120 25.8629 93.1371 -1 60 -1C26.8629 -1 0 25.8629 0 59C0 92.1371 26.8629 119 60 119Z" fill="url(#paint2_linear_460_51303)"/>
<path d="M60.7712 -1C58.914 -1 57.0788 -0.912289 55.2656 -0.747831C63.3686 -0.153038 66.0182 10.2764 59.3405 14.7579C55.1501 17.5674 50.657 20.2535 45.9245 22.7725C42.8567 24.4061 41.6075 28.2545 43.1621 31.3518C44.2049 33.4294 46.2877 34.619 48.4558 34.619C49.3941 34.619 50.3516 34.3942 51.243 33.9228C57.1008 30.8255 62.6395 27.476 67.7626 23.9484C70.7314 21.9009 74.7815 22.46 77.1065 25.2092C78.2235 26.5276 78.7628 28.1284 78.7628 29.7154C78.7628 31.889 77.7531 34.0407 75.8271 35.4166C73.2682 37.2421 70.5828 39.0238 67.7846 40.7478C65.3001 42.2773 64.117 45.3088 65.0827 48.0525C66.4309 51.8789 70.8882 53.3289 74.2147 51.2814C82.6699 46.0736 90.2308 40.3614 96.5233 34.4025C99.3765 31.6999 104.059 32.7195 105.548 36.3513C105.562 36.3869 105.578 36.4253 105.592 36.4609C106.404 38.4536 105.988 40.7369 104.527 42.3184C102.824 44.1631 100.642 46.4683 99.5141 47.5235C93.3894 53.2631 85.911 58.7698 77.4834 63.7611C76.2012 59.0192 71.7082 55.5875 66.4694 55.9246C61.0436 56.2782 56.7074 60.7405 56.5175 66.154C56.424 68.8401 57.3347 71.3152 58.9003 73.2339C56.9027 74.1028 54.9024 74.9306 52.9049 75.7117C49.7903 76.9287 48.0679 80.3522 49.1492 83.5043C50.2938 86.8346 53.9862 88.5313 57.2577 87.2567C60.3668 86.048 63.4759 84.7378 66.5768 83.3317C83.7457 75.5308 98.8758 65.5016 109.837 54.7323C109.939 56.1412 109.989 57.5665 109.989 59C109.989 60.4116 109.939 61.8095 109.843 63.1937C101.314 71.8716 89.5952 80.1412 76.1737 86.8867C60.5016 94.7615 44.5296 99.55 31.1053 100.4C30.888 100.413 30.6706 100.427 30.4533 100.438C24.733 100.751 19.8025 100.282 16 99.1307C20.9883 104.651 26.9892 109.242 33.7137 112.616C37.9426 112.257 42.3559 111.575 46.8958 110.582C58.1051 108.135 70.0656 103.823 81.7729 97.9383C81.8554 97.8972 81.938 97.8561 82.0205 97.815C87.2757 95.1617 91.8651 102.294 87.2565 105.953C78.3143 113.047 67.3031 117.662 55.2656 118.748C57.0788 118.912 58.914 119 60.7712 119C94.036 119 121 92.1384 121 59C121 25.8616 94.036 -1 60.7712 -1ZM85.2259 25.5381C81.2666 25.5381 78.0585 22.3422 78.0585 18.3979C78.0585 14.4536 81.2666 11.2577 85.2259 11.2577C89.1852 11.2577 92.3962 14.4536 92.3962 18.3979C92.3962 22.3422 89.1852 25.5381 85.2259 25.5381ZM99.7342 97.6862C95.7749 97.6862 92.564 94.4902 92.564 90.5459C92.564 86.6016 95.7749 83.4029 99.7342 83.4029C103.694 83.4029 106.902 86.6016 106.902 90.5459C106.902 94.4902 103.694 97.6862 99.7342 97.6862Z" fill="url(#paint3_linear_460_51303)"/>
<g opacity="0.05" clip-path="url(#clip2_460_51303)">
<path d="M61.6917 15.4625L64.2948 10.9759L64.6946 10.2867L64.2948 9.50688L62.0404 5.1113L64.5638 0.762929L61.3364 -1L58.6421 4.25344L58.2021 5.1113L58.6421 5.86917L61.2053 10.2867L58.9111 14.7606L58.5511 15.4625L58.9111 16.0827L61.5543 20.6382L59.1802 25.2675L58.9001 25.8135L59.1802 26.296L61.9032 30.9886L59.4489 35.7746L59.249 36.1645L59.4489 36.509L62.2522 41.3404L59.718 46.2825L59.598 46.5165L59.718 46.7233L62.6012 51.6927L59.987 56.7913L59.9469 56.8694L59.987 56.9382L62.9501 62.046L60.2959 56.8694L63.2192 51.8304L63.2991 51.6927L63.2192 51.5368L60.6448 46.5165L63.4879 41.616L63.648 41.3404L63.4879 41.0286L60.9938 36.1645L63.757 31.4022L63.997 30.9886L63.757 30.5206L61.3428 25.8135L64.0257 21.1897L64.3459 20.6384L64.026 20.0146L61.6917 15.4625Z" fill="#F2F2F2"/>
<path d="M69.191 15.8653L72.4811 11.8552L72.9865 11.2392L72.7172 10.4054L71.1982 5.70457L74.3871 1.8181L71.4849 -0.440495L67.9816 4.312L67.4098 5.08782L67.7221 5.90689L69.5426 10.6786L66.5594 14.7258L66.0915 15.3607L66.3471 16.0307L68.224 20.9518L65.1372 25.1395L64.773 25.6333L64.9719 26.1546L66.906 31.2239L63.7148 35.5533L63.4547 35.906L63.5969 36.2782L65.5875 41.4973L62.2923 45.9681L62.1364 46.1797L62.2216 46.4031L64.2689 51.771L60.8698 56.3834L60.8179 56.4541L60.8461 56.5285L62.9504 62.046L61.1621 56.5101L64.8569 52.0063L64.9579 51.8831L64.9041 51.7164L63.1696 46.348L66.7631 41.9679L66.9651 41.7216L66.8575 41.3879L65.1768 36.1864L68.6693 31.9298L68.9723 31.5602L68.8106 31.0598L67.184 26.0259L70.5749 21.8933L70.9793 21.4005L70.7638 20.7334L69.191 15.8653Z" fill="#F2F2F2"/>
<path d="M76.528 17.4679L80.4196 14.0386L81.0173 13.5118L80.8854 12.6452L80.1413 7.76163L83.9131 4.43783L81.4113 1.74239L77.1903 5.87023L76.5011 6.54422L76.6778 7.4026L77.7081 12.4049L74.1136 15.9205L73.5496 16.4718L73.6944 17.1743L74.7566 22.333L71.037 25.9702L70.5984 26.3991L70.711 26.9455L71.8056 32.2598L67.9605 36.0202L67.6472 36.3267L67.7274 36.7169L68.8541 42.1879L64.8835 46.0712L64.6954 46.2551L64.7437 46.4891L65.9024 52.1163L61.8064 56.1228L61.7437 56.184L61.7597 56.2621L62.9504 62.046L62.0747 56.2948L66.4447 52.4432L66.5642 52.3377L66.5378 52.1643L65.6882 46.587L69.9387 42.8414L70.1777 42.6306L70.1249 42.284L69.3017 36.8799L73.4325 33.2398L73.7912 32.9238L73.7118 32.4039L72.915 27.1739L76.9258 23.6399L77.404 23.2183L77.2985 22.5253L76.528 17.4679Z" fill="#F2F2F2"/>
<path d="M83.512 20.2285L87.9036 17.4689L88.5783 17.045L88.5873 16.1687L88.6374 11.2287L92.894 8.55432L90.8578 5.49195L86.0286 8.88776L85.2402 9.44225L85.2766 10.318L85.49 15.4209L81.3774 18.3131L80.7322 18.7668L80.7623 19.4833L80.982 24.7457L76.7265 27.7382L76.2248 28.0908L76.248 28.6482L76.4748 34.0695L72.0756 37.1632L71.7171 37.4154L71.7337 37.8135L71.9666 43.3943L67.4239 46.5893L67.2089 46.7405L67.2189 46.9795L67.4587 52.7196L62.7722 56.016L62.7007 56.0664L62.7039 56.146L62.9499 62.046L63.0095 56.2289L67.9414 53.1293L68.0764 53.0444L68.0783 52.8692L68.1355 47.2277L72.9323 44.2136L73.2021 44.044L73.2058 43.6934L73.2614 38.2274L77.9232 35.2982L78.3278 35.0439L78.3333 34.5179L78.3866 29.2278L82.913 26.3841L83.4529 26.0451L83.46 25.344L83.512 20.2285Z" fill="#F2F2F2"/>
<path d="M89.9623 24.0751L94.7403 22.0571L95.4744 21.7471L95.6239 20.8838L96.4669 16.016L101.098 14.0602L99.5798 10.7103L94.2679 13.2862L93.4007 13.707L93.296 14.5772L92.687 19.6481L88.1632 21.8418L87.4537 22.1861L87.3682 22.8981L86.7397 28.1275L82.0587 30.3972L81.5069 30.6649L81.4402 31.2186L80.7931 36.6058L75.9542 38.9525L75.5599 39.1438L75.5124 39.5395L74.8458 45.0855L69.8489 47.5089L69.6126 47.6237L69.5838 47.8611L68.8985 53.5653L63.7433 56.0656L63.6645 56.1038L63.655 56.183L62.9502 62.046L63.9433 56.3138L69.3092 54.047L69.4559 53.985L69.4859 53.8123L70.4487 48.2533L75.6675 46.0491L75.961 45.9251L76.0209 45.5795L76.9538 40.1934L82.0254 38.0514L82.4659 37.8654L82.5556 37.3471L83.4582 32.1343L88.3824 30.0548L88.9698 29.8068L89.0892 29.1159L89.9623 24.0751Z" fill="#F2F2F2"/>
<path d="M95.7107 28.9086L100.751 27.6843L101.525 27.4963L101.812 26.6679L103.425 21.9988L108.31 20.8125L107.35 17.2624L101.694 18.9515L100.77 19.2271L100.527 20.0694L99.1111 24.9765L94.2938 26.415L93.5381 26.6408L93.3392 27.3298L91.879 32.3901L86.8945 33.8785L86.3066 34.0539L86.152 34.5899L84.648 39.803L79.4949 41.342L79.075 41.4673L78.9645 41.85L77.4159 47.2169L72.0946 48.8063L71.8427 48.8814L71.7762 49.1112L70.1833 54.6311L64.6937 56.2708L64.6098 56.2959L64.5876 56.3724L62.9502 62.046L64.8511 56.5478L70.5115 55.1726L70.6663 55.1349L70.7235 54.9695L72.5669 49.6375L78.0719 48.3L78.3816 48.2249L78.496 47.8935L80.282 42.7271L85.6319 41.428L86.0966 41.3151L86.2683 40.8181L87.9965 35.8179L93.191 34.5564L93.8103 34.406L94.0395 33.7434L95.7107 28.9086Z" fill="#F2F2F2"/>
<path d="M100.608 34.6026L105.78 34.204L106.574 34.1428L106.99 33.3715L109.332 29.0223L114.345 28.6361L113.967 24.9778L108.113 25.736L107.157 25.8599L106.782 26.6521L104.596 31.268L99.6102 31.9137L98.8281 32.0153L98.5211 32.6634L96.267 37.4236L91.1081 38.0915L90.4996 38.1701L90.2609 38.6745L87.939 43.5781L82.6057 44.269L82.171 44.3255L82.0006 44.6855L79.6099 49.7337L74.1026 50.4473L73.8417 50.4811L73.7394 50.6971L71.2806 55.8896L65.5989 56.6259L65.5119 56.6372L65.4778 56.7092L62.9502 62.046L65.7097 56.9247L71.5174 56.4768L71.6762 56.4647L71.7593 56.3104L74.4352 51.3437L80.0836 50.9082L80.4012 50.8839L80.5676 50.5752L83.1601 45.7629L88.6493 45.34L89.1259 45.3031L89.3754 44.8401L91.8843 40.1826L97.2139 39.7724L97.8493 39.7233L98.1819 39.1063L100.608 34.6026Z" fill="#F2F2F2"/>
<path d="M104.527 41.0096L109.696 41.4472L110.49 41.5142L111.024 40.8196L114.035 36.9034L119.044 37.3278L119.259 33.6563L113.359 33.464L112.395 33.4327L111.898 34.1541L108.999 38.359L103.974 38.1954L103.186 38.1698L102.779 38.7602L99.7895 43.0962L94.5903 42.9266L93.977 42.9068L93.6605 43.366L90.5811 47.8331L85.2059 47.658L84.768 47.6437L84.5417 47.9719L81.3713 52.5703L75.8207 52.3899L75.558 52.3812L75.4222 52.5782L72.1613 57.308L66.435 57.1221L66.3474 57.1192L66.3023 57.1846L62.9502 62.046L66.4965 57.4347L72.3005 57.9256L72.4596 57.939L72.5664 57.8L76.0051 53.3279L81.6501 53.8057L81.9677 53.8326L82.1813 53.5548L85.5132 49.2215L90.9991 49.686L91.4755 49.7264L91.796 49.3096L95.0204 45.1155L100.347 45.5669L100.982 45.6207L101.409 45.0649L104.527 41.0096Z" fill="#F2F2F2"/>
<path d="M107.367 47.9629L112.397 49.2252L113.17 49.419L113.809 48.8192L117.41 45.4379L122.286 46.6613L123.088 43.0722L117.295 41.9344L116.349 41.7485L115.742 42.3808L112.206 46.0654L107.272 45.0965L106.499 44.9446L106.002 45.4619L102.355 49.2613L97.2503 48.2586L96.6484 48.1404L96.2622 48.5427L92.5052 52.4571L87.2279 51.4207L86.7979 51.3363L86.522 51.6238L82.6542 55.6533L77.2047 54.5833L76.9467 54.5324L76.7811 54.7049L72.8027 58.8494L67.1807 57.7459L67.0947 57.7291L67.0396 57.7863L62.9502 62.046L67.1912 58.0643L72.841 59.4814L72.9956 59.5202L73.1235 59.4002L77.2361 55.5388L82.7307 56.9174L83.0399 56.9949L83.2955 56.7549L87.2801 53.0132L92.6202 54.353L93.0839 54.4694L93.4672 54.1096L97.3234 50.4882L102.508 51.7892L103.126 51.9446L103.637 51.4645L107.367 47.9629Z" fill="#F2F2F2"/>
<path d="M109.052 55.2824L113.815 57.3365L114.546 57.652L115.273 57.1627L119.37 54.4034L123.986 56.3945L125.355 52.981L119.82 50.9271L118.916 50.5919L118.215 51.1184L114.133 54.1868L109.419 52.4379L108.68 52.1635L108.107 52.5943L103.897 55.7585L99.0196 53.9486L98.4443 53.7352L97.9986 54.0705L93.6616 57.3302L88.6195 55.4594L88.2085 55.3072L87.8902 55.5464L83.4252 58.9021L78.2183 56.9704L77.9717 56.8789L77.7807 57.0226L73.1884 60.4741L67.8166 58.4814L67.7343 58.4511L67.6707 58.4988L62.9502 62.046L67.7757 58.7974L73.1245 61.104L73.2709 61.1671L73.4163 61.0692L78.0957 57.9185L83.2978 60.162L83.5903 60.2884L83.8813 60.0924L88.4151 57.0398L93.4706 59.22L93.9095 59.4094L94.3458 59.1158L98.7334 56.1611L103.642 58.2783L104.227 58.5307L104.809 58.1393L109.052 55.2824Z" fill="#F2F2F2"/>
<path d="M109.539 62.7773L113.91 65.57L114.582 65.999L115.378 65.6328L119.865 63.5678L124.101 66.2746L126 63.1252L120.867 60.2087L120.029 59.7326L119.253 60.1399L114.731 62.5124L110.359 60.0291L109.673 59.6394L109.039 59.9726L104.375 62.4193L99.8518 59.8492L99.3184 59.5461L98.8244 59.8054L94.0203 62.3259L89.344 59.6692L88.9632 59.4529L88.6103 59.6379L83.6642 62.2328L78.8352 59.4893L78.6068 59.3596L78.395 59.4706L73.3079 62.1394L68.3259 59.3097L68.2497 59.2662L68.1793 59.3034L62.9502 62.046L68.2349 59.6149L73.1438 62.7509L73.278 62.8366L73.4374 62.7635L78.562 60.4055L83.3361 63.4557L83.6046 63.6275L83.9232 63.4808L88.8885 61.1961L93.5281 64.1606L93.9308 64.4181L94.4085 64.1981L99.214 61.9867L103.719 64.8652L104.256 65.2084L104.893 64.9153L109.539 62.7773Z" fill="#F2F2F2"/>
<path d="M108.817 70.2532L112.682 73.712L113.276 74.2433L114.121 74.0096L118.881 72.6927L122.628 76.045L125.008 73.2414L120.41 69.5383L119.659 68.9337L118.828 69.2107L113.983 70.8259L110.068 67.6725L109.453 67.1776L108.773 67.4045L103.777 69.07L99.7254 65.8067L99.2475 65.4218L98.7184 65.5983L93.5716 67.3142L89.3831 63.9409L89.0418 63.666L88.6638 63.7921L83.3651 65.5584L79.0397 62.075L78.835 61.9099L78.6081 61.9856L73.1583 63.8024L68.6957 60.209L68.6274 60.1538L68.552 60.1792L62.9502 62.046L68.5567 60.4957L72.8982 64.3795L73.0169 64.4858L73.1857 64.4392L78.6227 62.9353L82.8449 66.7128L83.0823 66.9254L83.4202 66.832L88.6881 65.3748L92.7911 69.046L93.1475 69.3647L93.6542 69.2246L98.7527 67.8141L102.736 71.3788L103.211 71.804L103.887 71.617L108.817 70.2532Z" fill="#F2F2F2"/>
<path d="M106.903 77.5162L110.162 81.5509L110.663 82.1708L111.534 82.0758L116.445 81.5409L119.604 85.4516L122.403 83.0669L118.46 78.6729L117.816 77.9557L116.951 78.0955L111.91 78.9114L108.552 75.1697L108.025 74.5828L107.317 74.6973L102.118 75.5385L98.6435 71.6666L98.2339 71.2099L97.6831 71.2991L92.3277 72.1659L88.7353 68.1631L88.4425 67.8371L88.0492 67.9007L82.5358 68.7928L78.826 64.6597L78.6504 64.464L78.4145 64.5022L72.7437 65.4197L68.9162 61.1557L68.8577 61.0906L68.7791 61.1032L62.9502 62.046L68.7329 61.4166L72.3942 65.9475L72.4941 66.0715L72.6685 66.0525L78.2763 65.4418L81.8368 69.8488L82.037 70.0967L82.3855 70.0587L87.8192 69.4668L91.2793 73.7497L91.5797 74.1217L92.1025 74.0647L97.3611 73.4915L100.72 77.6499L101.121 78.1459L101.818 78.0699L106.903 77.5162Z" fill="#F2F2F2"/>
<path d="M103.847 84.3769L106.416 88.8833L106.811 89.5755L107.686 89.6216L112.619 89.8825L115.109 94.2502L118.255 92.3461L115.068 87.3757L114.548 86.5643L113.672 86.5635L108.565 86.5587L105.851 82.3259L105.426 81.662L104.709 81.6614L99.4421 81.6564L96.6347 77.2764L96.3036 76.7599L95.7458 76.7594L90.3205 76.7546L87.4178 72.2266L87.1812 71.8578L86.7829 71.8573L81.1978 71.852L78.2001 67.1765L78.0582 66.9552L77.819 66.955L72.0745 66.9494L68.9816 62.126L68.9344 62.0521H68.8548L62.9502 62.046L68.759 62.3539L71.6446 67.4142L71.7237 67.5527L71.8986 67.5619L77.5317 67.8603L80.3382 72.7819L80.4962 73.0589L80.8462 73.0773L86.3042 73.3662L89.0312 78.1493L89.2681 78.5645L89.7932 78.5925L95.0756 78.8715L97.7232 83.5159L98.0389 84.0696L98.739 84.1068L103.847 84.3769Z" fill="#F2F2F2"/>
<path d="M99.7286 90.6578L101.541 95.5182L101.819 96.265L102.675 96.4512L107.502 97.5011L109.258 102.212L112.669 100.838L110.323 95.4206L109.94 94.5361L109.075 94.3945L104.035 93.5693L102.037 88.9556L101.723 88.2317L101.015 88.1159L95.8183 87.2649L93.7507 82.4908L93.5067 81.9276L92.9563 81.8376L87.6024 80.9611L85.4646 76.0257L85.2906 75.6235L84.8973 75.5591L79.3855 74.6564L77.1778 69.5599L77.0733 69.3188L76.8375 69.28L71.1682 68.3517L68.8906 63.0941L68.8556 63.0136L68.777 63.0007L62.9502 62.046L68.634 63.2832L70.6694 68.7416L70.7251 68.8909L70.8963 68.9281L76.4084 70.1276L78.3879 75.4362L78.4992 75.7348L78.8416 75.8094L84.1825 76.9714L86.1058 82.1304L86.2728 82.5786L86.7866 82.6902L91.9555 83.8148L93.8227 88.8239L94.0453 89.4212L94.7303 89.5702L99.7286 90.6578Z" fill="#F2F2F2"/>
<path d="M94.6551 96.1954L95.6627 101.284L95.8175 102.066L96.6328 102.387L101.228 104.199L102.205 109.131L105.792 108.323L104.346 102.598L104.11 101.664L103.279 101.385L98.4378 99.7611L97.2062 94.8859L97.0132 94.1214L96.3335 93.8932L91.3405 92.2182L90.0665 87.1739L89.9164 86.5791L89.3876 86.4015L84.2439 84.6763L82.9267 79.4614L82.8194 79.0367L82.4417 78.9098L77.1464 77.1334L75.7862 71.7483L75.7215 71.4935L75.495 71.4175L70.0488 69.5902L68.6451 64.0348L68.6234 63.9498L68.548 63.9245L62.9502 62.046L68.3615 64.1804L69.4936 69.8949L69.5247 70.0511L69.6877 70.1155L74.9355 72.1849L76.0365 77.7425L76.0985 78.0554L76.4245 78.1838L81.5093 80.1889L82.5788 85.5901L82.6717 86.0591L83.1609 86.252L88.0822 88.1921L89.1204 93.4364L89.2441 94.0618L89.8964 94.319L94.6551 96.1954Z" fill="#F2F2F2"/>
<path d="M88.7577 100.846L88.9349 106.03L88.9624 106.826L89.7152 107.275L93.9599 109.802L94.1316 114.826L97.8021 114.605L97.2946 108.723L97.2118 107.762L96.4363 107.354L91.9186 104.973L91.4863 99.9634L91.4185 99.1776L90.7842 98.8433L86.1251 96.3877L85.678 91.2041L85.6253 90.5929L85.1318 90.3328L80.3321 87.8036L79.8697 82.4449L79.832 82.0083L79.4796 81.8226L74.5386 79.2184L74.0609 73.6846L74.0382 73.4226L73.8267 73.3113L68.7448 70.6328L68.2515 64.924L68.2442 64.8367L68.1735 64.7995L62.9502 62.046L67.9485 65.0221L68.1479 70.8443L68.1534 71.0034L68.304 71.0931L73.1512 73.979L73.345 79.6413L73.3559 79.96L73.6571 80.1391L78.3539 82.9353L78.5419 88.438L78.5583 88.916L79.0101 89.1848L83.5558 91.8905L83.738 97.2334L83.7599 97.8707L84.3624 98.2292L88.7577 100.846Z" fill="#F2F2F2"/>
<path d="M82.19 104.488L81.5322 109.634L81.4312 110.424L82.1025 110.988L85.8861 114.164L85.2483 119.15L88.9067 119.522L89.3509 113.635L89.4234 112.673L88.7237 112.146L84.647 109.07L85.0249 104.056L85.0843 103.269L84.5117 102.837L80.3076 99.6653L80.699 94.4773L80.7451 93.8653L80.2999 93.5295L75.9689 90.2619L76.3733 84.8984L76.4063 84.4613L76.0882 84.2215L71.6295 80.8571L72.0471 75.3188L72.0669 75.0566L71.8759 74.9125L67.2901 71.4521L67.7203 65.7383L67.7269 65.651L67.6634 65.603L62.9502 62.046L67.4054 65.7866L66.6671 71.565L66.6471 71.7233L66.7811 71.8359L71.102 75.4628L70.3838 81.0829L70.3432 81.3992L70.6117 81.6245L74.7984 85.1387L74.1002 90.6003L74.0395 91.0746L74.4423 91.4128L78.4942 94.8136L77.8161 100.116L77.7351 100.749L78.2721 101.2L82.19 104.488Z" fill="#F2F2F2"/>
<path d="M75.1225 107.029L73.6468 112.001L73.4202 112.765L73.9921 113.429L77.2165 117.172L75.7859 121.991L79.3372 122.946L80.7211 117.206L80.9472 116.269L80.3413 115.636L76.8117 111.945L77.9902 107.057L78.1751 106.29L77.6794 105.772L74.0395 101.965L75.2592 96.9076L75.4029 96.3112L75.0173 95.9081L71.2674 91.9871L72.5282 86.7582L72.6308 86.3321L72.3554 86.0443L68.4953 82.0075L69.7969 76.6079L69.8584 76.3523L69.6933 76.1795L65.7229 72.0274L67.0654 66.4569L67.086 66.3717L67.0309 66.3142L62.9502 62.046L66.7468 66.4537L65.0898 72.0388L65.0445 72.1915L65.1589 72.3242L68.8408 76.5984L67.2292 82.0299L67.1385 82.3357L67.3674 82.6011L70.9351 86.7423L69.3686 92.0208L69.2325 92.4793L69.5756 92.8776L73.0288 96.8854L71.5074 102.01L71.3262 102.622L71.7838 103.153L75.1225 107.029Z" fill="#F2F2F2"/>
<path d="M67.7388 108.4L65.4834 113.071L65.137 113.789L65.5949 114.536L68.1761 118.748L65.99 123.275L69.3419 124.788L71.6298 119.345L72.0033 118.457L71.5072 117.734L68.6163 113.524L70.5645 108.889L70.8702 108.162L70.4642 107.57L67.4829 103.229L69.4994 98.4326L69.737 97.867L69.4213 97.4072L66.3501 92.9346L68.4341 87.9761L68.6039 87.5722L68.3784 87.2438L65.2167 82.639L67.3687 77.5188L67.4708 77.2764L67.3352 77.0793L64.0836 72.3432L66.3034 67.0607L66.3374 66.98L66.2923 66.9143L62.9502 62.046L65.9895 67.0064L63.4569 72.2527L63.3875 72.3962L63.4793 72.5455L66.4268 77.3558L63.9636 82.4581L63.8251 82.7451L64.0081 83.044L66.8642 87.7047L64.4703 92.6629L64.2624 93.0934L64.5373 93.5419L67.3015 98.0522L64.9769 102.866L64.6997 103.44L65.0661 104.038L67.7388 108.4Z" fill="#F2F2F2"/>
<path d="M60.2307 108.567L57.2542 112.815L56.7971 113.468L57.1289 114.279L59 118.851L56.1152 122.968L59.1804 125L62.3128 119.996L62.8243 119.179L62.4508 118.386L60.2737 113.766L62.9411 109.504L63.3597 108.835L63.054 108.186L60.8089 103.422L63.5694 99.0122L63.8949 98.4922L63.657 97.9876L61.344 93.0794L64.1977 88.5206L64.4301 88.1492L64.2602 87.7885L61.8795 82.7359L64.826 78.0277L64.9655 77.805L64.8634 77.5887L62.4147 72.3915L65.4542 67.5345L65.5007 67.4601L65.4666 67.3881L62.9501 62.046L65.153 67.4303L61.8106 72.2015L61.7194 72.3321L61.7856 72.4943L63.9223 77.7156L60.6715 82.3557L60.4887 82.6166L60.6213 82.9411L62.6916 88.0001L59.5323 92.5094L59.258 92.9011L59.4571 93.3876L61.4612 98.2838L58.3933 102.662L58.0275 103.184L58.2931 103.833L60.2307 108.567Z" fill="#F2F2F2"/>
<path d="M52.7931 107.526L49.173 111.241L48.6169 111.811L48.8142 112.665L49.9268 117.478L46.418 121.079L49.1168 123.577L53.0125 119.141L53.6487 118.416L53.4071 117.574L52.0005 112.664L55.3181 108.886L55.8385 108.293L55.6409 107.604L54.1902 102.541L57.6234 98.6315L58.0282 98.1707L57.8745 97.6344L56.38 92.4184L59.9286 88.3771L60.2177 88.0479L60.108 87.6648L58.5697 82.2951L62.2342 78.1216L62.4077 77.924L62.3421 77.6942L60.7597 72.1712L64.54 67.8656L64.5977 67.7996L64.5759 67.7231L62.95 62.046L64.2593 67.7144L60.1942 71.8866L60.0829 72.0008L60.1225 72.1715L61.3925 77.6684L57.4387 81.7258L57.2164 81.954L57.2952 82.2956L58.5259 87.6216L54.6832 91.5645L54.3495 91.9071L54.468 92.4194L55.6594 97.574L51.9285 101.402L51.4835 101.858L51.6412 102.542L52.7931 107.526Z" fill="#F2F2F2"/>
<path d="M45.6198 105.303L41.45 108.388L40.8093 108.862L40.8671 109.737L41.1917 114.666L37.1504 117.656L39.4129 120.555L43.9707 116.802L44.7148 116.19L44.6119 115.319L44.0122 110.247L47.8934 107.051L48.5022 106.55L48.418 105.838L47.7995 100.607L51.8158 97.3004L52.2895 96.9105L52.2241 96.3565L51.5866 90.9683L55.7385 87.5495L56.0769 87.271L56.0299 86.8753L55.3742 81.3282L59.6617 77.7979L59.8645 77.6307L59.8365 77.3932L59.1621 71.6877L63.5848 68.0455L63.6524 67.9896L63.6431 67.9104L62.9502 62.046L63.3322 67.8511L58.6496 71.316L58.5214 71.4107L58.533 71.5856L58.9036 77.2152L54.3492 80.5846L54.0931 80.7743L54.1161 81.1241L54.4753 86.5785L50.0494 89.853L49.6648 90.1374L49.6996 90.662L50.0475 95.9411L45.7498 99.12L45.2373 99.4991L45.2835 100.199L45.6198 105.303Z" fill="#F2F2F2"/>
<path d="M38.8964 101.957L34.2851 104.332L33.5766 104.697L33.493 105.569L33.0219 110.487L28.5527 112.788L30.3202 116.013L35.4216 113.042L36.2546 112.557L36.2926 111.681L36.5154 106.578L40.8596 104.047L41.5411 103.65L41.5723 102.934L41.8023 97.6721L46.2976 95.0537L46.8275 94.7448L46.852 94.1876L47.0883 88.767L51.7355 86.0596L52.114 85.8391L52.1314 85.4411L52.3752 79.8605L57.174 77.0648L57.4011 76.9324L57.4117 76.6937L57.6623 70.9538L62.6128 68.0695L62.6885 68.0252L62.6919 67.9458L62.9502 62.046L62.3947 67.8371L57.2162 70.5046L57.0746 70.5776L57.0577 70.752L56.5194 76.3679L51.4831 78.962L51.1998 79.1079L51.1663 79.4569L50.6446 84.8982L45.75 87.419L45.3251 87.6379L45.275 88.1613L44.7704 93.4277L40.0179 95.8749L39.4514 96.1666L39.3844 96.8646L38.8964 101.957Z" fill="#F2F2F2"/>
<path d="M32.7978 97.574L27.865 99.177L27.1072 99.4234L26.8846 100.271L25.6296 105.049L20.8486 106.603L22.0754 110.07L27.5877 107.956L28.4877 107.611L28.666 106.753L29.7055 101.753L34.3999 99.9526L35.1363 99.6703L35.2822 98.9681L36.3544 93.8115L41.2118 91.9494L41.7847 91.7299L41.8981 91.1836L43.0022 85.8713L48.024 83.9459L48.4331 83.7889L48.5141 83.399L49.6511 77.9301L54.8367 75.9416L55.082 75.8474L55.1308 75.6134L56.3003 69.9886L61.6497 67.9371L61.7317 67.9057L61.7478 67.8276L62.9503 62.046L61.4716 67.6727L55.9321 69.4734L55.7807 69.5227L55.7361 69.6921L54.3026 75.1486L48.915 76.8997L48.6117 76.9984L48.5228 77.3373L47.1338 82.6243L41.8979 84.326L41.4431 84.4737L41.3097 84.9823L39.9658 90.0991L34.8821 91.751L34.2757 91.948L34.0976 92.626L32.7978 97.574Z" fill="#F2F2F2"/>
<path d="M27.4823 92.268L22.3561 93.0576L21.5688 93.1789L21.2127 93.9798L19.2065 98.4941L14.238 99.2593L14.8919 102.879L20.6722 101.678L21.616 101.482L21.9299 100.664L23.759 95.8954L28.6816 94.8732L29.4537 94.7129L29.7106 94.0433L31.597 89.1257L36.6905 88.0682L37.2913 87.9437L37.491 87.4227L39.4341 82.3568L44.6999 81.2634L45.1287 81.1742L45.2714 80.8022L47.2723 75.5871L52.7098 74.4575L52.9672 74.4042L53.0527 74.181L55.1105 68.8168L60.7202 67.6516L60.8059 67.6337L60.8344 67.5593L62.9501 62.046L60.587 67.362L54.8299 68.2494L54.6724 68.2737L54.6012 68.4338L52.3099 73.5891L46.711 74.452L46.3961 74.5005L46.2537 74.8207L44.0336 79.8159L38.5922 80.654L38.1198 80.7268L37.9062 81.2074L35.7578 86.042L30.4749 86.8555L29.8448 86.9526L29.5599 87.5931L27.4823 92.268Z" fill="#F2F2F2"/>
<path d="M23.0887 86.1768L17.9021 86.1327L17.1053 86.1259L16.6255 86.8592L13.9201 90.9926L8.89331 90.9496L8.9574 94.6266L14.8551 94.3707L15.8184 94.329L16.2596 93.5717L18.8311 89.1589L23.8536 88.9408L24.6415 88.9068L25.0026 88.2871L27.6547 83.7364L32.8518 83.5111L33.4646 83.4845L33.7455 83.0025L36.4772 78.3147L41.8501 78.0815L42.2879 78.0622L42.4884 77.7182L45.3009 72.8921L50.8491 72.651L51.1118 72.6397L51.2323 72.4331L54.125 67.4694L59.8489 67.2203L59.9365 67.2166L59.9766 67.1478L62.9502 62.046L59.764 66.9133L53.9391 66.8642L53.7797 66.8629L53.6837 67.0093L50.594 71.7296L44.9292 71.6816L44.6106 71.679L44.4186 71.9723L41.4249 76.5457L35.9199 76.4987L35.4417 76.4948L35.1537 76.9348L32.2568 81.3612L26.9117 81.3153L26.2741 81.31L25.8901 81.8965L23.0887 86.1768Z" fill="#F2F2F2"/>
<path d="M19.7301 79.4587L14.6181 78.5819L13.8326 78.4471L13.2413 79.0939L9.90707 82.7388L4.95257 81.8888L4.42505 85.5284L10.2874 86.2235L11.2446 86.3369L11.8019 85.6603L15.0486 81.7181L20.0413 82.3098L20.8244 82.4027L21.2802 81.8492L24.6287 77.7839L29.7947 78.3965L30.4037 78.4687L30.7585 78.038L34.2077 73.85L39.5483 74.4828L39.9833 74.5345L40.2365 74.2269L43.7878 69.9155L49.3028 70.5692L49.5639 70.6L49.7158 70.4154L53.3684 65.981L59.0577 66.655L59.1448 66.6653L59.1954 66.6038L62.9501 62.046L59.0232 66.3382L53.2821 65.3537L53.1252 65.3268L53.0068 65.4561L49.1991 69.6187L43.6155 68.6609L43.3014 68.6071L43.0648 68.8659L39.3753 72.899L33.9492 71.9681L33.4779 71.8874L33.1231 72.2754L29.5526 76.1787L24.2842 75.2747L23.6559 75.1671L23.1827 75.6844L19.7301 79.4587Z" fill="#F2F2F2"/>
<path d="M17.4946 72.2886L12.5897 70.6016L11.8364 70.3426L11.1488 70.8857L7.27227 73.9476L2.51876 72.3126L1.41333 75.8202L7.0879 77.4481L8.01449 77.714L8.67311 77.1355L12.5111 73.7664L17.3437 75.1526L18.1018 75.37L18.6407 74.897L22.5987 71.4223L27.5991 72.8571L28.1888 73.0262L28.6079 72.6582L32.6849 69.0785L37.8546 70.5615L38.2759 70.6824L38.5752 70.4193L42.7727 66.7347L48.111 68.2657L48.364 68.338L48.5436 68.1805L52.8608 64.3904L58.3682 65.9697L58.4526 65.994L58.5124 65.9412L62.9502 62.046L58.3851 65.6516L52.8767 63.7575L52.7258 63.7055L52.5884 63.8142L48.1614 67.3108L42.8041 65.4685L42.5029 65.3651L42.2278 65.5822L37.9385 68.9703L32.7321 67.1797L32.28 67.0243L31.8675 67.3501L27.7164 70.6293L22.6617 68.8907L22.059 68.6833L21.5088 69.1178L17.4946 72.2886Z" fill="#F2F2F2"/>
<path d="M16.4397 64.852L11.8695 62.399L11.1674 62.0223L10.4014 62.4478L6.08366 64.8472L1.65431 62.4697L0 65.7542L5.33933 68.2726L6.21132 68.6838L6.95434 68.219L11.2835 65.5102L15.8307 67.6548L16.5439 67.9911L17.1519 67.6107L21.6166 64.8172L26.3216 67.0367L26.8765 67.2984L27.3492 67.0024L31.9484 64.1244L36.8127 66.4187L37.2089 66.6057L37.5467 66.3944L42.2815 63.4317L47.3046 65.8006L47.5425 65.9127L47.7451 65.7861L52.6152 62.739L57.7973 65.1825L57.8767 65.22L57.9442 65.1778L62.9501 62.046L57.8651 64.8712L52.7325 62.1167L52.592 62.0413L52.4387 62.1265L47.5077 64.8665L42.516 62.1872L42.2351 62.0365L41.9289 62.2069L37.1508 64.8617L32.3 62.2578L31.8788 62.0318L31.419 62.2871L26.7953 64.8567L22.0856 62.3285L21.5237 62.027L20.911 62.3676L16.4397 64.852Z" fill="#F2F2F2"/>
<path d="M16.5931 57.3429L12.4763 54.1874L11.844 53.7028L11.0195 53.9998L6.3723 55.6741L2.38264 52.6157L0.222168 55.5918L5.08752 58.9354L5.88197 59.4814L6.69013 59.1419L11.3983 57.1637L15.542 60.0111L16.1919 60.4577L16.8529 60.18L21.7085 58.1403L25.9956 61.0869L26.5013 61.4343L27.0156 61.2182L32.0173 59.1166L36.4498 62.1624L36.8109 62.4106L37.1783 62.2563L42.3275 60.0929L46.9048 63.2381L47.1216 63.3872L47.3419 63.2946L52.6382 61.0695L57.3606 64.3139L57.4329 64.3635L57.5062 64.3328L62.9502 62.046L57.4774 64.0174L52.854 60.4741L52.7274 60.3773L52.5625 60.4366L47.2553 62.3486L42.7587 58.9024L42.5058 58.7085L42.1761 58.8272L37.0338 60.6798L32.6641 57.3307L32.2848 57.0398L31.79 57.2181L26.8133 59.0113L22.571 55.759L22.0651 55.3713L21.4054 55.6089L16.5931 57.3429Z" fill="#F2F2F2"/>
<path d="M17.9506 49.9556L14.3943 46.1799L13.8481 45.5998L12.9866 45.7605L8.13077 46.6666L4.68394 43.007L2.07349 45.5972L6.33878 49.6791L7.03511 50.3455L7.88732 50.1403L12.8521 48.9442L16.4844 52.4205L17.0544 52.9657L17.7515 52.798L22.8714 51.5647L26.6297 55.1618L27.0731 55.586L27.6154 55.4552L32.8896 54.1845L36.7753 57.9032L37.0918 58.206L37.4793 58.1126L42.9091 56.805L46.9217 60.6448L47.1118 60.8265L47.3442 60.7706L52.9291 59.4252L57.0688 63.3864L57.1322 63.447L57.2097 63.4283L62.9502 62.046L57.2319 63.1125L53.2374 58.8723L53.1283 58.7563L52.956 58.7884L47.4104 59.823L43.526 55.6989L43.3076 55.467L42.9629 55.5314L37.5898 56.5338L33.8151 52.5257L33.4872 52.1778L32.9703 52.2741L27.7702 53.2446L24.1052 49.3531L23.6682 48.8891L22.979 49.0175L17.9506 49.9556Z" fill="#F2F2F2"/>
<path d="M20.4772 42.8828L17.5737 38.5845L17.1274 37.9243L16.2515 37.9443L11.3133 38.0585L8.49923 33.8924L5.50659 36.0297L9.06052 40.7439L9.64079 41.5137L10.5149 41.448L15.6073 41.0652L18.6343 45.0799L19.109 45.7096L19.8241 45.6558L25.0756 45.2614L28.2072 49.4156L28.5768 49.9055L29.133 49.8635L34.5428 49.4568L37.7807 53.7513L38.0445 54.1014L38.4417 54.0713L44.0113 53.6529L47.355 58.0875L47.5133 58.2975L47.7517 58.2796L53.4801 57.8493L56.9298 62.424L56.9828 62.4939L57.0622 62.4881L62.9502 62.046L57.1348 62.1798L53.8734 57.3531L53.7842 57.221L53.6091 57.2249L47.9696 57.3553L44.7979 52.6605L44.6195 52.3965L44.269 52.4047L38.8047 52.5307L35.7226 47.9682L35.4549 47.5722L34.9292 47.5844L29.6411 47.7065L26.6487 43.2766L26.2918 42.7485L25.591 42.7646L20.4772 42.8828Z" fill="#F2F2F2"/>
<path d="M24.1069 36.3075L21.9314 31.5985L21.5972 30.8752L20.7294 30.7544L15.8369 30.0735L13.7287 25.5096L10.4314 27.1383L13.1822 32.3622L13.6314 33.2153L14.5044 33.2907L19.5924 33.7313L21.9348 38.1799L22.3025 38.8779L23.0168 38.9396L28.2635 39.3941L30.6872 43.9976L30.9732 44.5405L31.5289 44.5885L36.9339 45.0562L39.4399 49.8153L39.6441 50.2028L40.041 50.2373L45.6053 50.719L48.1934 55.6332L48.3158 55.8659L48.5539 55.8867L54.2773 56.3821L56.9474 61.452L56.9882 61.5295L57.0676 61.5364L62.95 62.046L57.1887 61.2438L54.7449 55.9556L54.6782 55.811L54.5047 55.7867L48.9174 55.0091L46.5412 49.8659L46.4074 49.5765L46.0603 49.5283L40.6466 48.7749L38.3374 43.7765L38.1369 43.3426L37.6163 43.27L32.3769 42.5412L30.1349 37.6879L29.8677 37.1091L29.1732 37.0126L24.1069 36.3075Z" fill="#F2F2F2"/>
<path d="M28.7461 30.4009L27.3553 25.4036L27.1416 24.6359L26.3044 24.3772L21.5847 22.9192L20.2369 18.0757L16.7212 19.1535L18.5968 24.7515L18.9033 25.6658L19.7529 25.8805L24.7037 27.1327L26.3015 31.9L26.5521 32.6479L27.2471 32.8238L32.3528 34.1151L34.0058 39.0483L34.2007 39.6299L34.7414 39.7669L40.0011 41.0969L41.71 46.1966L41.8492 46.612L42.2356 46.7099L47.6502 48.0795L49.4152 53.3456L49.4989 53.5949L49.7304 53.6537L55.2998 55.0624L57.1208 60.4952L57.1487 60.5783L57.226 60.5978L62.9502 62.046L57.3924 60.3285L55.8302 54.7165L55.7872 54.563L55.62 54.5113L50.2303 52.846L48.711 47.3878L48.6253 47.0808L48.2906 46.9771L43.0683 45.3638L41.5921 40.0594L41.4639 39.5986L40.9614 39.4434L35.9072 37.8823L34.4742 32.732L34.3033 32.1179L33.6333 31.9108L28.7461 30.4009Z" fill="#F2F2F2"/>
<path d="M34.2734 25.3163L33.7034 20.1604L33.6158 19.3685L32.8312 18.9786L28.4071 16.7812L27.8548 11.7842L24.2114 12.283L25.1636 18.1097L25.319 19.0612L26.1232 19.4097L30.8086 21.4411L31.6197 26.4034L31.7471 27.1818L32.4049 27.467L37.2368 29.5618L38.0758 34.6965L38.1747 35.3019L38.6864 35.5237L43.6641 37.6816L44.5319 42.9899L44.6026 43.4222L44.9681 43.5808L50.0922 45.8027L50.9885 51.2841L51.031 51.5436L51.2502 51.6386L56.5209 53.9238L57.4457 59.5788L57.4596 59.6653L57.533 59.6969L62.9501 62.046L57.7405 59.458L57.0999 53.6677L57.0822 53.5092L56.9253 53.4313L51.8732 50.9216L51.2504 45.2904L51.2153 44.9736L50.9015 44.8174L46.0063 42.3861L45.401 36.9131L45.3485 36.438L44.8777 36.2041L40.1397 33.851L39.5526 28.5374L39.4827 27.9038L38.8547 27.592L34.2734 25.3163Z" fill="#F2F2F2"/>
<path d="M40.5459 21.1861L40.8116 16.0054L40.8522 15.2096L40.1403 14.6989L36.1266 11.8193L36.3843 6.79825L32.708 6.70513L32.712 12.6094L32.7125 13.5733L33.4502 14.0465L37.7488 16.8045L37.7522 21.8323L37.7527 22.6211L38.3562 23.0083L42.7887 25.8526L42.7921 31.0551L42.7924 31.6687L43.2619 31.9699L47.8284 34.8996L47.8321 40.2781L47.8324 40.7162L48.1676 40.9315L52.8686 43.9477L52.8726 49.5019L52.8728 49.7649L53.0741 49.8939L57.9091 52.9963L57.9133 58.7265L57.9136 58.814L57.9806 58.857L62.9501 62.046L58.224 58.6544L58.5216 52.8365L58.5297 52.6774L58.3873 52.5751L53.8039 49.2864L54.0938 43.6283L54.1102 43.3099L53.8253 43.1054L49.3843 39.9191L49.6663 34.42L49.6906 33.9426L49.2635 33.636L44.9653 30.5523L45.2391 25.2134L45.2718 24.5769L44.7023 24.168L40.5459 21.1861Z" fill="#F2F2F2"/>
<path d="M47.4004 18.1171L48.4948 13.0465L48.6628 12.2675L48.0422 11.6489L44.5431 8.1618L45.6039 3.24733L41.9904 2.5649L41.0459 8.39315L40.8918 9.34465L41.5439 9.93027L45.3434 13.343L44.5391 18.3062L44.4128 19.0847L44.9464 19.564L48.8646 23.0833L48.0321 28.2188L47.934 28.8245L48.3489 29.1972L52.3855 32.8225L51.5251 38.1319L51.4552 38.5645L51.7514 38.8307L55.9067 42.5631L55.0187 48.0457L54.9765 48.3053L55.1545 48.4649L59.4282 52.3039L58.5122 57.9601L58.4982 58.0467L58.5576 58.0999L62.9502 62.046L58.8303 57.9393L60.0586 52.2445L60.0924 52.0889L59.9681 51.9652L55.9724 47.9827L57.1675 42.4444L57.2348 42.1328L56.9863 41.8854L53.1148 38.0269L54.2764 32.6447L54.3772 32.1773L54.0048 31.8061L50.2578 28.0718L51.3859 22.8461L51.5204 22.223L51.0237 21.7282L47.4004 18.1171Z" fill="#F2F2F2"/>
<path d="M54.6587 16.1893L56.5533 11.3603L56.8442 10.6185L56.331 9.90811L53.4378 5.90426L55.2741 1.22404L51.8172 -0.0300326L49.9487 5.57056L49.6436 6.48513L50.1932 7.16783L53.395 11.1466L51.804 15.9163L51.5545 16.6644L52.004 17.2231L55.306 21.3261L53.6593 26.2614L53.4652 26.8434L53.8149 27.2781L57.2167 31.5046L55.5149 36.6069L55.3762 37.0226L55.6259 37.3328L59.1276 41.6844L57.3705 46.9531L57.2871 47.2027L57.4369 47.3889L61.0388 51.8647L59.226 57.3001L59.1983 57.3835L59.2482 57.4455L62.9501 62.046L59.5433 57.3305L61.6706 51.9074L61.7286 51.7589L61.626 51.617L58.3218 47.0441L60.3911 41.7698L60.5074 41.4733L60.3022 41.189L57.1009 36.7586L59.1118 31.6328L59.2864 31.1878L58.9783 30.7615L55.8797 26.4738L57.8326 21.4973L58.0655 20.9038L57.6548 20.3356L54.6587 16.1893Z" fill="#F2F2F2"/>
</g>
<circle cx="60" cy="60" r="35" fill="url(#paint4_linear_460_51303)"/>
<ellipse cx="60" cy="60" rx="27.0455" ry="27.0455" fill="#92B1CF"/>
<circle cx="59.9997" cy="60" r="21.9545" fill="url(#paint5_linear_460_51303)"/>
<path d="M62.194 50.8297C61.0648 50.9857 60.2374 51.2865 58.3927 52.2C57.2859 52.7458 55.933 53.3363 55.374 53.5034C54.4573 53.7708 54.2001 53.8042 52.5231 53.8042C50.779 53.8153 50.6336 53.793 49.9293 53.5145C49.5156 53.3474 48.9901 53.0912 48.7553 52.9241L48.3305 52.6456L48.2858 52.8907C48.2299 53.2806 48.487 54.3055 48.8001 54.9182C49.1914 55.6869 50.164 56.6784 50.9467 57.0906C52.6684 58.0041 54.4573 57.9818 56.1902 57.046C56.5703 56.8344 56.8834 56.7007 56.8834 56.7564C56.8834 56.9458 55.9778 58.0041 55.5529 58.3049C55.3181 58.472 54.9268 58.7059 54.6697 58.8173C54.2896 58.9956 54.1889 59.0959 54.133 59.4189C54.0659 59.7754 54.133 60.9006 54.2672 61.7807L54.3343 62.1817L53.4958 62.5939C52.2547 63.2178 51.0361 63.4852 49.7727 63.4295C48.8783 63.396 48.6435 63.3403 47.9615 62.995C47.2013 62.6274 47.1789 62.6162 47.3802 62.8947C47.7603 63.4295 49.0125 64.5435 49.7839 65.0337C50.8349 65.7132 51.8411 66.092 53.1603 66.3148C54.133 66.4819 54.5243 66.4819 56.6598 66.3705C59.3207 66.2146 60.1033 66.2814 61.1095 66.7381C61.4225 66.883 61.6909 67.0278 61.6909 67.0612C61.6909 67.0835 61.3107 67.1169 60.8412 67.1169C59.9915 67.1169 58.225 67.5068 58.225 67.6962C58.225 67.8745 60.2933 68.7991 61.2437 69.0442C62.5294 69.3673 64.3853 69.3673 65.6598 69.0331C69.4388 68.0416 72.1444 65.0003 72.6587 61.1791C72.7705 60.2767 72.7481 59.3409 72.5692 58.1823L72.5021 57.7702H67.2698L62.0263 60.0463V60.0539V60.0616L67.5158 62.3377L67.3145 62.6831C67.0015 63.2178 66.1853 63.8974 65.3803 64.2761C64.6983 64.5992 64.5642 64.6215 63.4238 64.6215C62.317 64.6215 62.1269 64.5881 61.5455 64.3207C60.707 63.9308 60.1256 63.4629 59.6449 62.8056C58.2921 60.9452 58.4374 58.4943 60.0138 56.8344C61.4673 55.297 63.7927 54.8959 65.5928 55.8763L66.1965 56.2105H69.0475C72.2674 56.2105 72.0326 56.3108 71.3841 55.2301C69.7518 52.5119 66.5431 50.7183 63.4238 50.774C62.9319 50.774 62.384 50.8074 62.194 50.8297Z" fill="#92B1CF"/>
</g>
<circle cx="99.5" cy="103.5" r="12.5" transform="rotate(45 99.5 103.5)" fill="url(#paint6_linear_460_51303)"/>
<circle cx="99.5" cy="103.5" r="9.65909" transform="rotate(45 99.5 103.5)" fill="#96661B"/>
<circle cx="99.5" cy="103.5" r="7.84091" transform="rotate(45 99.5 103.5)" fill="url(#paint7_linear_460_51303)"/>
<g clip-path="url(#clip3_460_51303)">
<path d="M100.069 99.2273C100.133 99.0955 100.072 98.9373 99.9406 98.8732C99.8088 98.8092 99.6506 98.8695 99.5866 99.0013C99.515 99.1557 99.451 99.3102 99.3982 99.4684C99.5979 99.4119 99.8013 99.3817 100.008 99.3704C100.027 99.3215 100.046 99.2725 100.069 99.2273Z" fill="#96661B"/>
<path d="M104.069 103.484C104.201 103.419 104.261 103.261 104.197 103.129C104.133 102.998 103.975 102.937 103.843 103.001C103.798 103.024 103.749 103.043 103.7 103.062C103.689 103.269 103.658 103.472 103.602 103.672C103.76 103.619 103.915 103.555 104.069 103.484Z" fill="#96661B"/>
<path d="M101.948 104.135C102.003 104.08 102.043 104.013 102.07 103.942C101.731 103.949 101.392 103.918 101.057 103.855C101.077 103.96 101.118 104.059 101.195 104.135C101.402 104.343 101.74 104.343 101.948 104.135Z" fill="#96661B"/>
<path d="M99.7314 101.876C100.119 101.834 100.522 101.955 100.818 102.252C101.115 102.549 101.236 102.951 101.194 103.339C102.04 103.49 102.913 103.404 103.7 103.062C103.771 102.094 103.453 101.094 102.714 100.356C101.976 99.6178 100.977 99.2989 100.009 99.3704C99.6663 100.158 99.5799 101.031 99.7314 101.876Z" fill="#96661B"/>
<path d="M99.8426 108.124L102.701 105.265C103.157 104.809 103.458 104.259 103.602 103.672C103.286 103.784 102.958 103.851 102.627 103.895C102.597 104.126 102.494 104.343 102.325 104.512C101.909 104.927 101.234 104.927 100.818 104.512C100.76 104.454 100.713 104.39 100.67 104.322C100.53 104.501 100.409 104.697 100.337 104.913L100.129 105.538C100.067 105.726 99.8276 105.781 99.6881 105.642L99.4123 105.366L97.6688 105.715C97.6023 105.728 97.4927 105.706 97.4282 105.642C97.3665 105.58 97.3411 105.472 97.3554 105.401L97.7041 103.658L97.4282 103.382C97.2888 103.242 97.3444 103.003 97.5323 102.941L98.1569 102.733C98.3732 102.661 98.5685 102.54 98.7479 102.4C98.6803 102.357 98.6158 102.309 98.5582 102.252C98.1427 101.836 98.1427 101.161 98.5582 100.745C98.7272 100.576 98.9437 100.473 99.1747 100.443C99.2195 100.112 99.2858 99.7839 99.3981 99.4684C98.8106 99.6115 98.2606 99.9128 97.8049 100.369L94.9461 103.227C94.6598 103.514 94.248 103.692 93.8375 103.696C93.7282 103.692 93.6341 103.756 93.5926 103.858C93.5512 103.959 93.5738 104.072 93.6491 104.148L94.0258 104.524C94.41 104.909 94.9787 105.01 95.4533 104.822L95.4571 105.843C95.4533 105.99 95.5738 106.11 95.7207 106.106L96.9599 106.11L96.9637 107.349C96.9561 107.492 97.0842 107.62 97.2273 107.613L98.2481 107.617C98.0598 108.091 98.1614 108.66 98.5456 109.044L98.9223 109.421C98.9976 109.496 99.1106 109.519 99.2123 109.477C99.314 109.436 99.378 109.342 99.3743 109.233C99.378 108.822 99.5563 108.41 99.8426 108.124Z" fill="#96661B"/>
<path d="M98.3241 103.241C98.6931 103.117 99.0335 102.907 99.3086 102.632C99.6202 102.32 100.127 102.32 100.439 102.632C100.75 102.943 100.75 103.45 100.439 103.762C100.163 104.037 99.953 104.377 99.8297 104.746L99.7486 104.98L99.6727 104.904C99.6094 104.841 99.5185 104.814 99.4308 104.832L97.9307 105.14L98.2387 103.639C98.2567 103.552 98.2294 103.461 98.1661 103.398L98.0902 103.322L98.3241 103.241Z" fill="#96661B"/>
<path d="M98.9351 101.875C99.0117 101.952 99.1105 101.993 99.215 102.013C99.152 101.678 99.121 101.339 99.1279 101C99.0568 101.027 98.9905 101.066 98.9351 101.122C98.7274 101.33 98.7274 101.668 98.9351 101.875Z" fill="#96661B"/>
</g>
<path d="M112.5 17C115.538 17 118 14.5376 118 11.5C118 8.46243 115.538 6 112.5 6C109.462 6 107 8.46243 107 11.5C107 14.5376 109.462 17 112.5 17Z" fill="url(#paint8_linear_460_51303)"/>
<path d="M119 4C120.105 4 121 3.10457 121 2C121 0.895431 120.105 0 119 0C117.895 0 117 0.895431 117 2C117 3.10457 117.895 4 119 4Z" fill="url(#paint9_linear_460_51303)"/>
<path d="M9 103C6.23858 103 4 105.239 4 108C4 110.761 6.23858 113 9 113C11.7614 113 14 110.761 14 108C14 105.239 11.7614 103 9 103Z" fill="url(#paint10_linear_460_51303)"/>
<path d="M3 115C1.89543 115 1 115.895 1 117C1 118.105 1.89543 119 3 119C4.10457 119 5 118.105 5 117C5 115.895 4.10457 115 3 115Z" fill="url(#paint11_linear_460_51303)"/>
<defs>
<linearGradient id="paint0_linear_460_51303" x1="15" y1="0" x2="15" y2="30" gradientUnits="userSpaceOnUse">
<stop stop-color="#F1AC44"/>
<stop offset="1" stop-color="#DA8500"/>
</linearGradient>
<linearGradient id="paint1_linear_460_51303" x1="14.9999" y1="5.59091" x2="14.9999" y2="24.4091" gradientUnits="userSpaceOnUse">
<stop stop-color="#F1AC44"/>
<stop offset="1" stop-color="#DA8500"/>
</linearGradient>
<linearGradient id="paint2_linear_460_51303" x1="28.0673" y1="109.965" x2="69.0238" y2="7.43642" gradientUnits="userSpaceOnUse">
<stop stop-color="#6068BC"/>
<stop offset="1" stop-color="#333F74"/>
</linearGradient>
<linearGradient id="paint3_linear_460_51303" x1="40.5589" y1="109.965" x2="85.4742" y2="11.581" gradientUnits="userSpaceOnUse">
<stop stop-color="#6A73D1"/>
<stop offset="1" stop-color="#2B3563"/>
</linearGradient>
<linearGradient id="paint4_linear_460_51303" x1="60" y1="20.625" x2="60" y2="95" gradientUnits="userSpaceOnUse">
<stop stop-color="#B6DCFF"/>
<stop offset="1" stop-color="#EAF6FF"/>
</linearGradient>
<linearGradient id="paint5_linear_460_51303" x1="59.9997" y1="35.3012" x2="59.9997" y2="81.9546" gradientUnits="userSpaceOnUse">
<stop stop-color="#B6DCFF"/>
<stop offset="1" stop-color="#EAF6FF"/>
</linearGradient>
<linearGradient id="paint6_linear_460_51303" x1="99.5" y1="91" x2="99.5" y2="116" gradientUnits="userSpaceOnUse">
<stop stop-color="#F1AC44"/>
<stop offset="1" stop-color="#DA8500"/>
</linearGradient>
<linearGradient id="paint7_linear_460_51303" x1="99.5" y1="95.6591" x2="99.5" y2="111.341" gradientUnits="userSpaceOnUse">
<stop stop-color="#F1AC44"/>
<stop offset="1" stop-color="#DA8500"/>
</linearGradient>
<linearGradient id="paint8_linear_460_51303" x1="109.573" y1="16.1718" x2="113.327" y2="6.77334" gradientUnits="userSpaceOnUse">
<stop stop-color="#6068BC"/>
<stop offset="1" stop-color="#333F74"/>
</linearGradient>
<linearGradient id="paint9_linear_460_51303" x1="117.936" y1="3.69883" x2="119.301" y2="0.281214" gradientUnits="userSpaceOnUse">
<stop stop-color="#6068BC"/>
<stop offset="1" stop-color="#333F74"/>
</linearGradient>
<linearGradient id="paint10_linear_460_51303" x1="11.6611" y1="103.753" x2="8.24801" y2="112.297" gradientUnits="userSpaceOnUse">
<stop stop-color="#6068BC"/>
<stop offset="1" stop-color="#333F74"/>
</linearGradient>
<linearGradient id="paint11_linear_460_51303" x1="4.06442" y1="115.301" x2="2.69921" y2="118.719" gradientUnits="userSpaceOnUse">
<stop stop-color="#6068BC"/>
<stop offset="1" stop-color="#333F74"/>
</linearGradient>
<clipPath id="clip0_460_51303">
<rect width="10.9091" height="10.9091" fill="white" transform="translate(9.60498 9.60498)"/>
</clipPath>
<clipPath id="clip1_460_51303">
<rect width="120" height="120" rx="60" fill="white"/>
</clipPath>
<clipPath id="clip2_460_51303">
<rect width="126" height="126" fill="white" transform="translate(0 -1)"/>
</clipPath>
<clipPath id="clip3_460_51303">
<rect width="9.09091" height="9.09091" fill="white" transform="translate(99.5 97.1419) rotate(45)"/>
</clipPath>
</defs>
</svg>
