<svg width="121" height="121" viewBox="0 0 121 121" fill="none" xmlns="http://www.w3.org/2000/svg">
<path d="M1.37284 27.6629C6.61634 27.7549 11.86 27.8009 17.1035 27.8009L17.1035 9.30201C11.7358 9.30201 6.36799 9.29257 1.00031 9.27371C1.0211 15.1804 1.0817 21.0872 1.18195 26.9936C1.18596 27.2322 1.25443 27.4619 1.37284 27.6629Z" fill="url(#paint0_linear_460_51761)"/>
<path d="M32.8359 27.6639C32.9543 27.4627 33.0228 27.2329 33.0268 26.9945C33.1267 21.0879 33.1868 15.1812 33.207 9.27458C27.8397 9.29344 22.4726 9.30305 17.1052 9.30287C17.1052 15.4692 17.1052 21.6356 17.1052 27.8019C22.3489 27.8019 27.5924 27.756 32.8359 27.6639Z" fill="url(#paint1_linear_460_51761)"/>
<path d="M17.1033 36.9984C17.3295 36.999 17.5557 36.9401 17.7585 36.8199C22.5655 33.9726 27.4353 31.0719 32.3424 28.161C32.5493 28.0384 32.718 27.8655 32.8359 27.664C27.6445 24.7082 22.3898 21.67 17.1035 18.604C15.1396 21.7046 13.1877 24.8015 11.2596 27.8868C13.2268 30.9278 15.1787 33.9676 17.1033 36.9984Z" fill="url(#paint2_linear_460_51761)"/>
<path d="M1.8643 28.1608C6.7716 31.0715 11.6412 33.9725 16.4484 36.8198C16.6512 36.9397 16.8773 36.9998 17.1035 37L17.1035 18.6038C11.8171 21.6698 6.56237 24.7082 1.37092 27.6638C1.48881 27.8657 1.65734 28.038 1.8643 28.1608Z" fill="url(#paint3_linear_460_51761)"/>
<path d="M17.1036 18.604C22.4497 15.5033 27.8284 12.3743 33.2073 9.27371C27.8503 6.21088 22.4716 3.10073 17.1036 1.40783e-06C15.1318 3.10073 13.156 6.20267 11.188 9.29816C13.1638 12.3989 15.1396 15.5033 17.1036 18.604Z" fill="url(#paint4_linear_460_51761)"/>
<path d="M1.00007 9.27371C6.35692 6.21088 11.7356 3.10073 17.1033 0.000173569C17.1033 6.20145 17.1033 12.4027 17.1033 18.604C11.7573 15.5033 6.37875 12.3743 1.00007 9.27371Z" fill="url(#paint5_linear_460_51761)"/>
<g clip-path="url(#clip0_460_51761)">
<path d="M60 120C93.1371 120 120 93.1371 120 60C120 26.8629 93.1371 0 60 0C26.8629 0 0 26.8629 0 60C0 93.1371 26.8629 120 60 120Z" fill="url(#paint6_linear_460_51761)"/>
<path d="M60.7712 0C58.914 0 57.0788 0.0877108 55.2656 0.252169C63.3686 0.846962 66.0182 11.2764 59.3405 15.7579C55.1501 18.5674 50.657 21.2535 45.9245 23.7725C42.8567 25.4061 41.6075 29.2545 43.1621 32.3518C44.2049 34.4294 46.2877 35.619 48.4558 35.619C49.3941 35.619 50.3516 35.3942 51.243 34.9228C57.1008 31.8255 62.6395 28.476 67.7626 24.9484C70.7314 22.9009 74.7815 23.46 77.1065 26.2092C78.2235 27.5276 78.7628 29.1284 78.7628 30.7154C78.7628 32.889 77.7531 35.0407 75.8271 36.4166C73.2682 38.2421 70.5828 40.0238 67.7846 41.7478C65.3001 43.2773 64.117 46.3088 65.0827 49.0525C66.4309 52.8789 70.8882 54.3289 74.2147 52.2814C82.6699 47.0736 90.2308 41.3614 96.5233 35.4025C99.3765 32.6999 104.059 33.7195 105.548 37.3513C105.562 37.3869 105.578 37.4253 105.592 37.4609C106.404 39.4536 105.988 41.7369 104.527 43.3184C102.824 45.1631 100.642 47.4683 99.5141 48.5235C93.3894 54.2631 85.911 59.7698 77.4834 64.7611C76.2012 60.0192 71.7082 56.5875 66.4694 56.9246C61.0436 57.2782 56.7074 61.7405 56.5175 67.154C56.424 69.8401 57.3347 72.3152 58.9003 74.2339C56.9027 75.1028 54.9024 75.9306 52.9049 76.7117C49.7903 77.9287 48.0679 81.3522 49.1492 84.5043C50.2938 87.8346 53.9862 89.5313 57.2577 88.2567C60.3668 87.048 63.4759 85.7378 66.5768 84.3317C83.7457 76.5308 98.8758 66.5016 109.837 55.7323C109.939 57.1412 109.989 58.5665 109.989 60C109.989 61.4116 109.939 62.8095 109.843 64.1937C101.314 72.8716 89.5952 81.1412 76.1737 87.8867C60.5016 95.7615 44.5296 100.55 31.1053 101.4C30.888 101.413 30.6706 101.427 30.4533 101.438C24.733 101.751 19.8025 101.282 16 100.131C20.9883 105.651 26.9892 110.242 33.7137 113.616C37.9426 113.257 42.3559 112.575 46.8958 111.582C58.1051 109.135 70.0656 104.823 81.7729 98.9383C81.8554 98.8972 81.938 98.8561 82.0205 98.815C87.2757 96.1617 91.8651 103.294 87.2565 106.953C78.3143 114.047 67.3031 118.662 55.2656 119.748C57.0788 119.912 58.914 120 60.7712 120C94.036 120 121 93.1384 121 60C121 26.8616 94.036 0 60.7712 0ZM85.2259 26.5381C81.2666 26.5381 78.0585 23.3422 78.0585 19.3979C78.0585 15.4536 81.2666 12.2577 85.2259 12.2577C89.1852 12.2577 92.3962 15.4536 92.3962 19.3979C92.3962 23.3422 89.1852 26.5381 85.2259 26.5381ZM99.7342 98.6862C95.7749 98.6862 92.564 95.4902 92.564 91.5459C92.564 87.6016 95.7749 84.4029 99.7342 84.4029C103.694 84.4029 106.902 87.6016 106.902 91.5459C106.902 95.4902 103.694 98.6862 99.7342 98.6862Z" fill="url(#paint7_linear_460_51761)" fill-opacity="0.65"/>
<g opacity="0.05" clip-path="url(#clip1_460_51761)">
<path d="M61.6917 16.4625L64.2948 11.9759L64.6946 11.2867L64.2948 10.5069L62.0404 6.1113L64.5638 1.76293L61.3364 0L58.6421 5.25344L58.2021 6.1113L58.6421 6.86917L61.2053 11.2867L58.9111 15.7606L58.5511 16.4625L58.9111 17.0827L61.5543 21.6382L59.1802 26.2675L58.9001 26.8135L59.1802 27.296L61.9032 31.9886L59.4489 36.7746L59.249 37.1645L59.4489 37.509L62.2522 42.3404L59.718 47.2825L59.598 47.5165L59.718 47.7233L62.6012 52.6927L59.987 57.7913L59.9469 57.8694L59.987 57.9382L62.9501 63.046L60.2959 57.8694L63.2192 52.8304L63.2991 52.6927L63.2192 52.5368L60.6448 47.5165L63.4879 42.616L63.648 42.3404L63.4879 42.0286L60.9938 37.1645L63.757 32.4022L63.997 31.9886L63.757 31.5206L61.3428 26.8135L64.0257 22.1897L64.3459 21.6384L64.026 21.0146L61.6917 16.4625Z" fill="#F2F2F2"/>
<path d="M69.1907 16.8654L72.4809 12.8552L72.9863 12.2392L72.717 11.4054L71.198 6.70457L74.3868 2.81811L71.4847 0.559509L67.9814 5.31201L67.4096 6.08782L67.7219 6.9069L69.5423 11.6787L66.5592 15.7258L66.0913 16.3607L66.3469 17.0308L68.2238 21.9518L65.137 26.1395L64.7727 26.6333L64.9716 27.1546L66.9058 32.2239L63.7145 36.5533L63.4545 36.906L63.5966 37.2782L65.5872 42.4973L62.2921 46.9681L62.1362 47.1797L62.2214 47.4031L64.2687 52.771L60.8696 57.3834L60.8176 57.4541L60.8459 57.5285L62.9501 63.046L61.1618 57.5101L64.8566 53.0063L64.9576 52.8831L64.9038 52.7164L63.1693 47.348L66.7628 42.9679L66.9649 42.7216L66.8572 42.3879L65.1766 37.1864L68.669 32.9298L68.9721 32.5603L68.8104 32.0598L67.1838 27.0259L70.5747 22.8933L70.979 22.4005L70.7636 21.7334L69.1907 16.8654Z" fill="#F2F2F2"/>
<path d="M76.5278 18.4679L80.4193 15.0386L81.017 14.5118L80.8851 13.6452L80.141 8.76162L83.9128 5.43782L81.4111 2.74239L77.1901 6.87022L76.5009 7.54421L76.6776 8.4026L77.7078 13.4049L74.1133 16.9205L73.5494 17.4718L73.6942 18.1743L74.7564 23.333L71.0368 26.9702L70.5982 27.3991L70.7108 27.9454L71.8054 33.2598L67.9603 37.0202L67.6469 37.3267L67.7271 37.7169L68.8539 43.1879L64.8832 47.0712L64.6952 47.2551L64.7434 47.4891L65.9021 53.1163L61.8062 57.1228L61.7434 57.184L61.7595 57.2621L62.9501 63.046L62.0744 57.2948L66.4444 53.4432L66.5639 53.3376L66.5375 53.1643L65.688 47.587L69.9385 43.8414L70.1775 43.6306L70.1247 43.284L69.3015 37.8799L73.4323 34.2398L73.791 33.9238L73.7116 33.4039L72.9148 28.1739L76.9255 24.6399L77.4037 24.2183L77.2982 23.5253L76.5278 18.4679Z" fill="#F2F2F2"/>
<path d="M83.5123 21.2285L87.9039 18.4689L88.5786 18.045L88.5876 17.1687L88.6377 12.2287L92.8943 9.55432L90.858 6.49194L86.0288 9.88775L85.2404 10.4422L85.2768 11.318L85.4902 16.4209L81.3776 19.3131L80.7325 19.7668L80.7625 20.4833L80.9823 25.7457L76.7267 28.7381L76.225 29.0908L76.2483 29.6482L76.4751 35.0694L72.0758 38.1632L71.7174 38.4154L71.734 38.8135L71.9669 44.3943L67.4241 47.5893L67.2091 47.7405L67.2192 47.9795L67.4589 53.7196L62.7724 57.016L62.7009 57.0664L62.7041 57.146L62.9502 63.046L63.0098 57.2289L67.9416 54.1293L68.0767 54.0443L68.0785 53.8692L68.1357 48.2277L72.9325 45.2136L73.2023 45.044L73.206 44.6934L73.2617 39.2274L77.9234 36.2982L78.328 36.0439L78.3336 35.5179L78.3868 30.2278L82.9132 27.3841L83.4532 27.0451L83.4603 26.344L83.5123 21.2285Z" fill="#F2F2F2"/>
<path d="M89.9623 25.0751L94.7403 23.0571L95.4744 22.7472L95.6239 21.8838L96.4669 17.016L101.098 15.0602L99.5798 11.7103L94.2679 14.2863L93.4007 14.707L93.296 15.5773L92.687 20.6481L88.1632 22.8419L87.4537 23.1861L87.3682 23.8981L86.7397 29.1275L82.0587 31.3972L81.5069 31.6649L81.4402 32.2186L80.7931 37.6058L75.9542 39.9525L75.5599 40.1438L75.5124 40.5395L74.8458 46.0855L69.8489 48.5089L69.6126 48.6237L69.5838 48.8611L68.8985 54.5653L63.7433 57.0656L63.6645 57.1038L63.655 57.183L62.9502 63.046L63.9433 57.3138L69.3092 55.047L69.4559 54.985L69.4859 54.8123L70.4487 49.2533L75.6675 47.0491L75.961 46.9251L76.0209 46.5795L76.9538 41.1934L82.0254 39.0514L82.4659 38.8654L82.5556 38.3471L83.4582 33.1343L88.3824 31.0548L88.9698 30.8068L89.0892 30.1159L89.9623 25.0751Z" fill="#F2F2F2"/>
<path d="M95.7107 29.9086L100.751 28.6843L101.525 28.4962L101.812 27.6679L103.425 22.9988L108.31 21.8125L107.35 18.2624L101.694 19.9515L100.77 20.2271L100.527 21.0694L99.1111 25.9765L94.2938 27.415L93.5381 27.6408L93.3392 28.3298L91.879 33.3901L86.8945 34.8785L86.3066 35.0539L86.152 35.5899L84.648 40.803L79.4949 42.342L79.075 42.4673L78.9645 42.85L77.4159 48.2169L72.0946 49.8062L71.8427 49.8814L71.7762 50.1112L70.1833 55.6311L64.6937 57.2708L64.6098 57.2959L64.5876 57.3724L62.9502 63.046L64.8511 57.5478L70.5115 56.1726L70.6663 56.1349L70.7235 55.9695L72.5669 50.6375L78.0719 49.3L78.3816 49.2248L78.496 48.8935L80.282 43.7271L85.6319 42.428L86.0966 42.315L86.2683 41.8181L87.9965 36.8179L93.191 35.5564L93.8103 35.406L94.0395 34.7434L95.7107 29.9086Z" fill="#F2F2F2"/>
<path d="M100.608 35.6026L105.78 35.204L106.574 35.1428L106.99 34.3714L109.332 30.0223L114.345 29.6361L113.967 25.9778L108.113 26.736L107.157 26.8599L106.782 27.6521L104.596 32.268L99.6102 32.9137L98.8281 33.0153L98.5211 33.6634L96.267 38.4236L91.1081 39.0915L90.4996 39.1701L90.2609 39.6745L87.939 44.5781L82.6057 45.269L82.171 45.3255L82.0006 45.6855L79.6099 50.7337L74.1026 51.4473L73.8417 51.4811L73.7394 51.6971L71.2806 56.8896L65.5989 57.6259L65.5119 57.6372L65.4778 57.7092L62.9502 63.046L65.7097 57.9247L71.5174 57.4768L71.6762 57.4647L71.7593 57.3104L74.4352 52.3437L80.0836 51.9081L80.4012 51.8839L80.5676 51.5752L83.1601 46.7629L88.6493 46.34L89.1259 46.3031L89.3754 45.8401L91.8843 41.1826L97.2139 40.7724L97.8493 40.7233L98.1819 40.1063L100.608 35.6026Z" fill="#F2F2F2"/>
<path d="M104.527 42.0096L109.696 42.4472L110.49 42.5142L111.024 41.8196L114.035 37.9034L119.044 38.3278L119.259 34.6563L113.359 34.464L112.395 34.4326L111.898 35.1541L108.999 39.359L103.974 39.1954L103.186 39.1698L102.779 39.7602L99.7895 44.0962L94.5903 43.9266L93.977 43.9068L93.6605 44.366L90.5811 48.8331L85.2059 48.658L84.768 48.6437L84.5417 48.9719L81.3713 53.5703L75.8207 53.3899L75.558 53.3812L75.4222 53.5782L72.1613 58.308L66.435 58.1221L66.3474 58.1192L66.3023 58.1846L62.9502 63.046L66.4965 58.4347L72.3005 58.9256L72.4596 58.939L72.5664 58.8L76.0051 54.3279L81.6501 54.8057L81.9677 54.8326L82.1813 54.5548L85.5132 50.2215L90.9991 50.686L91.4755 50.7264L91.796 50.3096L95.0204 46.1155L100.347 46.5669L100.982 46.6207L101.409 46.0649L104.527 42.0096Z" fill="#F2F2F2"/>
<path d="M107.367 48.9629L112.397 50.2252L113.17 50.4191L113.809 49.8192L117.41 46.4379L122.286 47.6614L123.088 44.0722L117.295 42.9344L116.349 42.7485L115.742 43.3808L112.206 47.0654L107.272 46.0965L106.499 45.9446L106.002 46.4619L102.355 50.2613L97.2503 49.2586L96.6484 49.1404L96.2622 49.5427L92.5052 53.4572L87.2279 52.4207L86.7979 52.3363L86.522 52.6238L82.6542 56.6533L77.2047 55.5833L76.9467 55.5324L76.7811 55.7049L72.8027 59.8494L67.1807 58.7459L67.0947 58.7291L67.0396 58.7863L62.9502 63.046L67.1912 59.0643L72.841 60.4814L72.9956 60.5202L73.1235 60.4002L77.2361 56.5388L82.7307 57.9174L83.0399 57.9949L83.2955 57.7549L87.2801 54.0132L92.6202 55.353L93.0839 55.4694L93.4672 55.1096L97.3234 51.4882L102.508 52.7892L103.126 52.9446L103.637 52.4645L107.367 48.9629Z" fill="#F2F2F2"/>
<path d="M109.052 56.2824L113.815 58.3365L114.546 58.652L115.273 58.1627L119.37 55.4034L123.986 57.3945L125.355 53.981L119.82 51.9271L118.916 51.5919L118.215 52.1184L114.133 55.1868L109.419 53.4379L108.68 53.1635L108.107 53.5943L103.897 56.7585L99.0196 54.9486L98.4443 54.7352L97.9986 55.0705L93.6616 58.3302L88.6195 56.4594L88.2085 56.3072L87.8902 56.5464L83.4252 59.9021L78.2183 57.9704L77.9717 57.8788L77.7807 58.0226L73.1884 61.4741L67.8166 59.4814L67.7343 59.451L67.6707 59.4988L62.9502 63.046L67.7757 59.7974L73.1245 62.104L73.2709 62.1671L73.4163 62.0692L78.0957 58.9184L83.2978 61.162L83.5903 61.2884L83.8813 61.0924L88.4151 58.0398L93.4706 60.22L93.9095 60.4094L94.3458 60.1158L98.7334 57.1611L103.642 59.2783L104.227 59.5307L104.809 59.1392L109.052 56.2824Z" fill="#F2F2F2"/>
<path d="M109.539 63.7773L113.91 66.57L114.582 66.999L115.378 66.6328L119.865 64.5678L124.101 67.2746L126 64.1252L120.867 61.2087L120.029 60.7326L119.253 61.1399L114.731 63.5124L110.359 61.0291L109.673 60.6394L109.039 60.9726L104.375 63.4193L99.8518 60.8492L99.3184 60.5461L98.8244 60.8054L94.0203 63.3259L89.344 60.6692L88.9632 60.4529L88.6103 60.6379L83.6642 63.2328L78.8352 60.4893L78.6068 60.3596L78.395 60.4706L73.3079 63.1394L68.3259 60.3097L68.2497 60.2662L68.1793 60.3034L62.9502 63.046L68.2349 60.6149L73.1438 63.7509L73.278 63.8366L73.4374 63.7635L78.562 61.4055L83.3361 64.4557L83.6046 64.6275L83.9232 64.4808L88.8885 62.1961L93.5281 65.1606L93.9308 65.418L94.4085 65.198L99.214 62.9867L103.719 65.8652L104.256 66.2084L104.893 65.9153L109.539 63.7773Z" fill="#F2F2F2"/>
<path d="M108.817 71.2532L112.682 74.712L113.276 75.2433L114.121 75.0096L118.881 73.6927L122.628 77.045L125.008 74.2414L120.41 70.5383L119.659 69.9337L118.828 70.2107L113.983 71.8259L110.068 68.6725L109.453 68.1776L108.773 68.4045L103.777 70.07L99.7254 66.8067L99.2475 66.4218L98.7184 66.5983L93.5716 68.3142L89.3831 64.9409L89.0418 64.666L88.6638 64.7921L83.3651 66.5584L79.0397 63.075L78.835 62.9099L78.6081 62.9856L73.1583 64.8024L68.6957 61.209L68.6274 61.1538L68.552 61.1792L62.9502 63.046L68.5567 61.4957L72.8982 65.3795L73.0169 65.4858L73.1857 65.4392L78.6227 63.9353L82.8449 67.7128L83.0823 67.9254L83.4202 67.832L88.6881 66.3748L92.7911 70.046L93.1475 70.3647L93.6542 70.2246L98.7527 68.8141L102.736 72.3788L103.211 72.804L103.887 72.617L108.817 71.2532Z" fill="#F2F2F2"/>
<path d="M106.903 78.5162L110.162 82.5509L110.663 83.1708L111.534 83.0758L116.445 82.5409L119.604 86.4516L122.403 84.0669L118.46 79.6729L117.816 78.9557L116.951 79.0955L111.91 79.9114L108.552 76.1697L108.025 75.5828L107.317 75.6973L102.118 76.5385L98.6435 72.6666L98.2339 72.2099L97.6831 72.2991L92.3277 73.1659L88.7353 69.1631L88.4425 68.8371L88.0492 68.9007L82.5358 69.7928L78.826 65.6597L78.6504 65.464L78.4145 65.5022L72.7437 66.4197L68.9162 62.1557L68.8577 62.0906L68.7791 62.1032L62.9502 63.046L68.7329 62.4166L72.3942 66.9475L72.4941 67.0715L72.6685 67.0525L78.2763 66.4418L81.8368 70.8488L82.037 71.0967L82.3855 71.0588L87.8192 70.4668L91.2793 74.7497L91.5797 75.1217L92.1025 75.0647L97.3611 74.4915L100.72 78.6499L101.121 79.1459L101.818 79.0699L106.903 78.5162Z" fill="#F2F2F2"/>
<path d="M103.847 85.3769L106.416 89.8833L106.811 90.5755L107.686 90.6216L112.619 90.8825L115.109 95.2502L118.255 93.3461L115.068 88.3757L114.548 87.5643L113.672 87.5635L108.565 87.5587L105.851 83.3259L105.426 82.6619L104.709 82.6614L99.4421 82.6564L96.6347 78.2764L96.3036 77.7599L95.7458 77.7593L90.3205 77.7546L87.4178 73.2266L87.1812 72.8578L86.7829 72.8573L81.1978 72.852L78.2001 68.1765L78.0582 67.9552L77.819 67.9549L72.0745 67.9494L68.9816 63.126L68.9344 63.0521H68.8548L62.9502 63.046L68.759 63.3539L71.6446 68.4142L71.7237 68.5527L71.8986 68.5619L77.5317 68.8603L80.3382 73.7819L80.4962 74.0589L80.8462 74.0773L86.3042 74.3662L89.0312 79.1493L89.2681 79.5645L89.7932 79.5924L95.0756 79.8715L97.7232 84.5159L98.0389 85.0696L98.739 85.1068L103.847 85.3769Z" fill="#F2F2F2"/>
<path d="M99.7286 91.6578L101.541 96.5182L101.819 97.265L102.675 97.4512L107.502 98.5011L109.258 103.212L112.669 101.838L110.323 96.4206L109.94 95.5361L109.075 95.3944L104.035 94.5693L102.037 89.9556L101.723 89.2317L101.015 89.1159L95.8183 88.2649L93.7507 83.4908L93.5067 82.9276L92.9563 82.8376L87.6024 81.961L85.4646 77.0257L85.2906 76.6235L84.8973 76.5591L79.3855 75.6564L77.1778 70.5599L77.0733 70.3188L76.8375 70.28L71.1682 69.3517L68.8906 64.0941L68.8556 64.0136L68.777 64.0007L62.9502 63.046L68.634 64.2832L70.6694 69.7416L70.7251 69.8909L70.8963 69.9281L76.4084 71.1276L78.3879 76.4362L78.4992 76.7348L78.8416 76.8094L84.1825 77.9714L86.1058 83.1304L86.2728 83.5786L86.7866 83.6902L91.9555 84.8148L93.8227 89.8239L94.0453 90.4212L94.7303 90.5702L99.7286 91.6578Z" fill="#F2F2F2"/>
<path d="M94.6551 97.1954L95.6627 102.284L95.8175 103.066L96.6328 103.387L101.228 105.199L102.205 110.131L105.792 109.323L104.346 103.598L104.11 102.664L103.279 102.385L98.4378 100.761L97.2062 95.8859L97.0132 95.1214L96.3335 94.8932L91.3405 93.2182L90.0665 88.1739L89.9164 87.579L89.3876 87.4015L84.2439 85.6763L82.9267 80.4614L82.8194 80.0367L82.4417 79.9098L77.1464 78.1334L75.7862 72.7483L75.7215 72.4935L75.495 72.4175L70.0488 70.5902L68.6451 65.0348L68.6234 64.9498L68.548 64.9245L62.9502 63.046L68.3615 65.1804L69.4936 70.8949L69.5247 71.0511L69.6877 71.1154L74.9355 73.1849L76.0365 78.7425L76.0985 79.0554L76.4245 79.1838L81.5093 81.1889L82.5788 86.5901L82.6717 87.0591L83.1609 87.2519L88.0822 89.1921L89.1204 94.4363L89.2441 95.0618L89.8964 95.319L94.6551 97.1954Z" fill="#F2F2F2"/>
<path d="M88.7577 101.846L88.9349 107.03L88.9624 107.826L89.7152 108.275L93.9599 110.802L94.1316 115.826L97.8021 115.605L97.2946 109.723L97.2118 108.762L96.4363 108.354L91.9186 105.973L91.4863 100.963L91.4185 100.178L90.7842 99.8433L86.1251 97.3877L85.678 92.2041L85.6253 91.5929L85.1318 91.3328L80.3321 88.8036L79.8697 83.4449L79.832 83.0083L79.4796 82.8226L74.5386 80.2184L74.0609 74.6846L74.0382 74.4226L73.8267 74.3113L68.7448 71.6328L68.2515 65.924L68.2442 65.8367L68.1735 65.7995L62.9502 63.046L67.9485 66.0221L68.1479 71.8443L68.1534 72.0034L68.304 72.0931L73.1512 74.979L73.345 80.6413L73.3559 80.96L73.6571 81.1391L78.3539 83.9353L78.5419 89.438L78.5583 89.916L79.0101 90.1848L83.5558 92.8905L83.738 98.2334L83.7599 98.8707L84.3624 99.2292L88.7577 101.846Z" fill="#F2F2F2"/>
<path d="M82.19 105.488L81.5322 110.634L81.4312 111.424L82.1025 111.988L85.8861 115.164L85.2483 120.15L88.9067 120.522L89.3509 114.635L89.4234 113.673L88.7237 113.146L84.647 110.07L85.0249 105.056L85.0843 104.269L84.5117 103.837L80.3076 100.665L80.699 95.4773L80.7451 94.8653L80.2999 94.5295L75.9689 91.2619L76.3733 85.8984L76.4063 85.4613L76.0882 85.2215L71.6295 81.8571L72.0471 76.3188L72.0669 76.0566L71.8759 75.9125L67.2901 72.4521L67.7203 66.7383L67.7269 66.651L67.6634 66.603L62.9502 63.046L67.4054 66.7866L66.6671 72.565L66.6471 72.7233L66.7811 72.8359L71.102 76.4628L70.3838 82.0829L70.3432 82.3992L70.6117 82.6245L74.7984 86.1387L74.1002 91.6003L74.0395 92.0746L74.4423 92.4128L78.4942 95.8136L77.8161 101.116L77.7351 101.749L78.2721 102.2L82.19 105.488Z" fill="#F2F2F2"/>
<path d="M75.1225 108.029L73.6468 113.001L73.4202 113.765L73.9921 114.429L77.2165 118.172L75.7859 122.991L79.3372 123.946L80.7211 118.206L80.9472 117.269L80.3413 116.636L76.8117 112.945L77.9902 108.057L78.1751 107.29L77.6794 106.772L74.0395 102.965L75.2592 97.9076L75.4029 97.3112L75.0173 96.9081L71.2674 92.9871L72.5282 87.7582L72.6308 87.3321L72.3554 87.0443L68.4953 83.0075L69.7969 77.6079L69.8584 77.3523L69.6933 77.1795L65.7229 73.0274L67.0654 67.4569L67.086 67.3717L67.0309 67.3142L62.9502 63.046L66.7468 67.4537L65.0898 73.0388L65.0445 73.1915L65.1589 73.3242L68.8408 77.5984L67.2292 83.0299L67.1385 83.3357L67.3674 83.601L70.9351 87.7423L69.3686 93.0208L69.2325 93.4793L69.5756 93.8776L73.0288 97.8854L71.5074 103.01L71.3262 103.622L71.7838 104.153L75.1225 108.029Z" fill="#F2F2F2"/>
<path d="M67.7388 109.4L65.4834 114.071L65.137 114.789L65.5949 115.536L68.1761 119.748L65.99 124.275L69.3419 125.788L71.6298 120.345L72.0033 119.457L71.5072 118.734L68.6163 114.524L70.5645 109.889L70.8702 109.162L70.4642 108.57L67.4829 104.229L69.4994 99.4326L69.737 98.867L69.4213 98.4072L66.3501 93.9346L68.4341 88.9761L68.6039 88.5722L68.3784 88.2438L65.2167 83.639L67.3687 78.5188L67.4708 78.2764L67.3352 78.0793L64.0836 73.3432L66.3034 68.0607L66.3374 67.98L66.2923 67.9143L62.9502 63.046L65.9895 68.0064L63.4569 73.2527L63.3875 73.3962L63.4793 73.5455L66.4268 78.3558L63.9636 83.4581L63.8251 83.7451L64.0081 84.044L66.8642 88.7046L64.4703 93.6629L64.2624 94.0934L64.5373 94.5419L67.3015 99.0522L64.9769 103.866L64.6997 104.44L65.0661 105.038L67.7388 109.4Z" fill="#F2F2F2"/>
<path d="M60.2307 109.567L57.2542 113.815L56.7971 114.468L57.1289 115.279L59 119.851L56.1152 123.968L59.1804 126L62.3128 120.996L62.8243 120.179L62.4508 119.386L60.2737 114.766L62.9411 110.504L63.3597 109.835L63.054 109.186L60.8089 104.422L63.5694 100.012L63.8949 99.4922L63.657 98.9876L61.344 94.0794L64.1977 89.5206L64.4301 89.1491L64.2602 88.7885L61.8795 83.7358L64.826 79.0277L64.9655 78.805L64.8634 78.5887L62.4147 73.3915L65.4542 68.5345L65.5007 68.4601L65.4666 68.3881L62.9501 63.046L65.153 68.4303L61.8106 73.2015L61.7194 73.3321L61.7856 73.4943L63.9223 78.7156L60.6715 83.3557L60.4887 83.6166L60.6213 83.9411L62.6916 89.0001L59.5323 93.5094L59.258 93.9011L59.4571 94.3875L61.4612 99.2838L58.3933 103.662L58.0275 104.184L58.2931 104.833L60.2307 109.567Z" fill="#F2F2F2"/>
<path d="M52.7933 108.526L49.1732 112.241L48.6172 112.811L48.8145 113.665L49.927 118.478L46.4182 122.079L49.117 124.577L53.0128 120.141L53.649 119.416L53.4074 118.574L52.0007 113.664L55.3183 109.886L55.8387 109.293L55.6412 108.604L54.1905 103.541L57.6236 99.6315L58.0285 99.1706L57.8747 98.6344L56.3802 93.4184L59.9289 89.3771L60.218 89.0478L60.1082 88.6648L58.57 83.295L62.2344 79.1216L62.408 78.924L62.3423 78.6942L60.76 73.1712L64.5402 68.8656L64.598 68.7996L64.5761 68.7231L62.9503 63.046L64.2596 68.7144L60.1945 72.8866L60.0832 73.0008L60.1227 73.1715L61.3928 78.6684L57.439 82.7258L57.2166 82.954L57.2955 83.2956L58.5262 88.6216L54.6834 92.5645L54.3498 92.9071L54.4682 93.4194L55.6596 98.5739L51.9287 102.402L51.4838 102.858L51.6415 103.542L52.7933 108.526Z" fill="#F2F2F2"/>
<path d="M45.6198 106.303L41.45 109.388L40.8093 109.862L40.8671 110.737L41.1917 115.666L37.1504 118.656L39.4129 121.555L43.9707 117.802L44.7148 117.19L44.6119 116.319L44.0122 111.247L47.8934 108.051L48.5022 107.55L48.418 106.838L47.7995 101.607L51.8158 98.3004L52.2895 97.9105L52.2241 97.3565L51.5866 91.9683L55.7385 88.5495L56.0769 88.271L56.0299 87.8753L55.3742 82.3282L59.6617 78.7979L59.8645 78.6307L59.8365 78.3932L59.1621 72.6877L63.5848 69.0455L63.6524 68.9895L63.6431 68.9104L62.9502 63.046L63.3322 68.8511L58.6496 72.316L58.5214 72.4107L58.533 72.5856L58.9036 78.2152L54.3492 81.5846L54.0931 81.7743L54.1161 82.1241L54.4753 87.5785L50.0494 90.853L49.6648 91.1373L49.6996 91.662L50.0475 96.9411L45.7498 100.12L45.2373 100.499L45.2835 101.199L45.6198 106.303Z" fill="#F2F2F2"/>
<path d="M38.8964 102.957L34.2851 105.332L33.5766 105.697L33.493 106.569L33.0219 111.487L28.5527 113.788L30.3202 117.013L35.4216 114.042L36.2546 113.557L36.2926 112.681L36.5154 107.578L40.8596 105.047L41.5411 104.65L41.5723 103.934L41.8023 98.6721L46.2976 96.0537L46.8275 95.7448L46.852 95.1876L47.0883 89.7669L51.7355 87.0596L52.114 86.8391L52.1314 86.441L52.3752 80.8605L57.174 78.0648L57.4011 77.9324L57.4117 77.6937L57.6623 71.9538L62.6128 69.0695L62.6885 69.0252L62.6919 68.9458L62.9502 63.046L62.3947 68.8371L57.2162 71.5045L57.0746 71.5776L57.0577 71.752L56.5194 77.3679L51.4831 79.962L51.1998 80.1079L51.1663 80.4569L50.6446 85.8982L45.75 88.419L45.3251 88.6379L45.275 89.1613L44.7704 94.4276L40.0179 96.8748L39.4514 97.1666L39.3844 97.8646L38.8964 102.957Z" fill="#F2F2F2"/>
<path d="M32.7978 98.5739L27.865 100.177L27.1072 100.423L26.8846 101.271L25.6296 106.049L20.8486 107.603L22.0754 111.07L27.5877 108.956L28.4877 108.611L28.666 107.753L29.7055 102.753L34.3999 100.953L35.1363 100.67L35.2822 99.9681L36.3544 94.8115L41.2118 92.9493L41.7847 92.7299L41.8981 92.1836L43.0022 86.8713L48.024 84.9459L48.4331 84.7889L48.5141 84.399L49.6511 78.9301L54.8367 76.9416L55.082 76.8474L55.1308 76.6134L56.3003 70.9886L61.6497 68.9371L61.7317 68.9057L61.7478 68.8276L62.9503 63.046L61.4716 68.6727L55.9321 70.4734L55.7807 70.5227L55.7361 70.6921L54.3026 76.1486L48.915 77.8997L48.6117 77.9983L48.5228 78.3373L47.1338 83.6243L41.8979 85.326L41.4431 85.4737L41.3097 85.9823L39.9658 91.0991L34.8821 92.751L34.2757 92.948L34.0976 93.626L32.7978 98.5739Z" fill="#F2F2F2"/>
<path d="M27.4823 93.268L22.3561 94.0575L21.5688 94.1789L21.2127 94.9798L19.2065 99.4941L14.238 100.259L14.8919 103.879L20.6722 102.678L21.616 102.482L21.9299 101.664L23.759 96.8954L28.6816 95.8732L29.4537 95.7128L29.7106 95.0433L31.597 90.1257L36.6905 89.0682L37.2913 88.9436L37.491 88.4227L39.4341 83.3568L44.6999 82.2634L45.1287 82.1742L45.2714 81.8022L47.2723 76.5871L52.7098 75.4575L52.9672 75.4042L53.0527 75.181L55.1105 69.8168L60.7202 68.6516L60.8059 68.6337L60.8344 68.5593L62.9501 63.046L60.587 68.362L54.8299 69.2494L54.6724 69.2737L54.6012 69.4338L52.3099 74.5891L46.711 75.452L46.3961 75.5005L46.2537 75.8207L44.0336 80.8159L38.5922 81.654L38.1198 81.7268L37.9062 82.2074L35.7578 87.042L30.4749 87.8555L29.8448 87.9526L29.5599 88.5931L27.4823 93.268Z" fill="#F2F2F2"/>
<path d="M23.0887 87.1768L17.9021 87.1327L17.1053 87.1258L16.6255 87.8592L13.9201 91.9926L8.89331 91.9496L8.9574 95.6266L14.8551 95.3707L15.8184 95.329L16.2596 94.5717L18.8311 90.1589L23.8536 89.9408L24.6415 89.9068L25.0026 89.2871L27.6547 84.7364L32.8518 84.5111L33.4646 84.4845L33.7455 84.0025L36.4772 79.3147L41.8501 79.0815L42.2879 79.0622L42.4884 78.7182L45.3009 73.8921L50.8491 73.651L51.1118 73.6397L51.2323 73.4331L54.125 68.4693L59.8489 68.2203L59.9365 68.2166L59.9766 68.1478L62.9502 63.046L59.764 67.9133L53.9391 67.8642L53.7797 67.8629L53.6837 68.0093L50.594 72.7296L44.9292 72.6816L44.6106 72.679L44.4186 72.9723L41.4249 77.5457L35.9199 77.4987L35.4417 77.4948L35.1537 77.9348L32.2568 82.3612L26.9117 82.3153L26.2741 82.31L25.8901 82.8965L23.0887 87.1768Z" fill="#F2F2F2"/>
<path d="M19.7301 80.4587L14.6181 79.5819L13.8326 79.4471L13.2413 80.0939L9.90707 83.7387L4.95257 82.8888L4.42505 86.5284L10.2874 87.2235L11.2446 87.3369L11.8019 86.6603L15.0486 82.7181L20.0413 83.3098L20.8244 83.4027L21.2802 82.8492L24.6287 78.7839L29.7947 79.3964L30.4037 79.4687L30.7585 79.0379L34.2077 74.85L39.5483 75.4828L39.9833 75.5345L40.2365 75.2269L43.7878 70.9155L49.3028 71.5692L49.5639 71.6L49.7158 71.4154L53.3684 66.981L59.0577 67.655L59.1448 67.6653L59.1954 67.6038L62.9501 63.046L59.0232 67.3382L53.2821 66.3537L53.1252 66.3268L53.0068 66.4561L49.1991 70.6187L43.6155 69.6609L43.3014 69.6071L43.0648 69.8659L39.3753 73.899L33.9492 72.9681L33.4779 72.8874L33.1231 73.2754L29.5526 77.1787L24.2842 76.2747L23.6559 76.1671L23.1827 76.6844L19.7301 80.4587Z" fill="#F2F2F2"/>
<path d="M17.4946 73.2886L12.5897 71.6016L11.8364 71.3426L11.1488 71.8857L7.27227 74.9476L2.51876 73.3126L1.41333 76.8202L7.0879 78.4481L8.01449 78.714L8.67311 78.1355L12.5111 74.7664L17.3437 76.1526L18.1018 76.37L18.6407 75.897L22.5987 72.4223L27.5991 73.8571L28.1888 74.0261L28.6079 73.6582L32.6849 70.0785L37.8546 71.5615L38.2759 71.6823L38.5752 71.4193L42.7727 67.7347L48.111 69.2657L48.364 69.338L48.5436 69.1805L52.8608 65.3904L58.3682 66.9697L58.4526 66.9939L58.5124 66.9412L62.9502 63.046L58.3851 66.6515L52.8767 64.7575L52.7258 64.7055L52.5884 64.8142L48.1614 68.3108L42.8041 66.4685L42.5029 66.3651L42.2278 66.5822L37.9385 69.9703L32.7321 68.1797L32.28 68.0243L31.8675 68.3501L27.7164 71.6293L22.6617 69.8907L22.059 69.6833L21.5088 70.1178L17.4946 73.2886Z" fill="#F2F2F2"/>
<path d="M16.4397 65.852L11.8695 63.399L11.1674 63.0223L10.4014 63.4478L6.08366 65.8472L1.65431 63.4697L0 66.7542L5.33933 69.2726L6.21132 69.6838L6.95434 69.219L11.2835 66.5101L15.8307 68.6548L16.5439 68.9911L17.1519 68.6107L21.6166 65.8172L26.3216 68.0367L26.8765 68.2984L27.3492 68.0024L31.9484 65.1244L36.8127 67.4187L37.2089 67.6057L37.5467 67.3944L42.2815 64.4317L47.3046 66.8006L47.5425 66.9127L47.7451 66.7861L52.6152 63.739L57.7973 66.1825L57.8767 66.22L57.9442 66.1778L62.9501 63.046L57.8651 65.8712L52.7325 63.1167L52.592 63.0413L52.4387 63.1265L47.5077 65.8665L42.516 63.1871L42.2351 63.0365L41.9289 63.2069L37.1508 65.8617L32.3 63.2578L31.8788 63.0318L31.419 63.2871L26.7953 65.8567L22.0856 63.3285L21.5237 63.027L20.911 63.3676L16.4397 65.852Z" fill="#F2F2F2"/>
<path d="M16.5931 58.3429L12.4763 55.1874L11.844 54.7028L11.0195 54.9998L6.3723 56.6741L2.38264 53.6157L0.222168 56.5918L5.08752 59.9354L5.88197 60.4814L6.69013 60.1419L11.3983 58.1637L15.542 61.0111L16.1919 61.4577L16.8529 61.18L21.7085 59.1403L25.9956 62.0869L26.5013 62.4343L27.0156 62.2183L32.0173 60.1166L36.4498 63.1624L36.8109 63.4106L37.1783 63.2563L42.3275 61.0929L46.9048 64.2381L47.1216 64.3872L47.3419 64.2946L52.6382 62.0695L57.3606 65.3139L57.4329 65.3635L57.5062 65.3329L62.9502 63.046L57.4774 65.0174L52.854 61.4741L52.7274 61.3773L52.5625 61.4366L47.2553 63.3486L42.7587 59.9024L42.5058 59.7085L42.1761 59.8272L37.0338 61.6798L32.6641 58.3307L32.2848 58.0398L31.79 58.2181L26.8133 60.0114L22.571 56.759L22.0651 56.3713L21.4054 56.609L16.5931 58.3429Z" fill="#F2F2F2"/>
<path d="M17.9506 50.9556L14.3943 47.1799L13.8481 46.5998L12.9866 46.7605L8.13077 47.6666L4.68394 44.007L2.07349 46.5972L6.33878 50.6791L7.03511 51.3455L7.88732 51.1403L12.8521 49.9442L16.4844 53.4205L17.0544 53.9657L17.7515 53.798L22.8714 52.5647L26.6297 56.1618L27.0731 56.586L27.6154 56.4552L32.8896 55.1845L36.7753 58.9032L37.0918 59.206L37.4793 59.1126L42.9091 57.805L46.9217 61.6448L47.1118 61.8265L47.3442 61.7706L52.9291 60.4252L57.0688 64.3864L57.1322 64.447L57.2097 64.4283L62.9502 63.046L57.2319 64.1125L53.2374 59.8723L53.1283 59.7563L52.956 59.7884L47.4104 60.823L43.526 56.6989L43.3076 56.467L42.9629 56.5314L37.5898 57.5338L33.8151 53.5257L33.4872 53.1778L32.9703 53.2741L27.7702 54.2446L24.1052 50.3531L23.6682 49.8891L22.979 50.0175L17.9506 50.9556Z" fill="#F2F2F2"/>
<path d="M20.4772 43.8828L17.5737 39.5845L17.1274 38.9243L16.2515 38.9443L11.3133 39.0585L8.49923 34.8925L5.50659 37.0297L9.06052 41.744L9.64079 42.5137L10.5149 42.448L15.6073 42.0653L18.6343 46.0799L19.109 46.7096L19.8241 46.6558L25.0756 46.2614L28.2072 50.4156L28.5768 50.9055L29.133 50.8635L34.5428 50.4568L37.7807 54.7513L38.0445 55.1014L38.4417 55.0713L44.0113 54.6529L47.355 59.0876L47.5133 59.2975L47.7517 59.2796L53.4801 58.8494L56.9298 63.4241L56.9828 63.494L57.0622 63.4882L62.9502 63.046L57.1348 63.1798L53.8734 58.3532L53.7842 58.221L53.6091 58.225L47.9696 58.3553L44.7979 53.6605L44.6195 53.3965L44.269 53.4047L38.8047 53.5308L35.7226 48.9682L35.4549 48.5722L34.9292 48.5844L29.6411 48.7065L26.6487 44.2766L26.2918 43.7485L25.591 43.7646L20.4772 43.8828Z" fill="#F2F2F2"/>
<path d="M24.1069 37.3075L21.9314 32.5985L21.5972 31.8752L20.7294 31.7543L15.8369 31.0735L13.7287 26.5096L10.4314 28.1383L13.1822 33.3622L13.6314 34.2153L14.5044 34.2907L19.5924 34.7313L21.9348 39.1799L22.3025 39.8779L23.0168 39.9396L28.2635 40.3941L30.6872 44.9976L30.9732 45.5404L31.5289 45.5884L36.9339 46.0562L39.4399 50.8152L39.6441 51.2028L40.041 51.2373L45.6053 51.719L48.1934 56.6332L48.3158 56.8659L48.5539 56.8867L54.2773 57.3821L56.9474 62.452L56.9882 62.5295L57.0676 62.5364L62.95 63.046L57.1887 62.2438L54.7449 56.9556L54.6782 56.811L54.5047 56.7867L48.9174 56.0091L46.5412 50.8659L46.4074 50.5765L46.0603 50.5282L40.6466 49.7748L38.3374 44.7765L38.1369 44.3426L37.6163 44.27L32.3769 43.5412L30.1349 38.6879L29.8677 38.1091L29.1732 38.0126L24.1069 37.3075Z" fill="#F2F2F2"/>
<path d="M28.7461 31.4009L27.3553 26.4036L27.1416 25.636L26.3044 25.3772L21.5847 23.9192L20.2369 19.0757L16.7212 20.1535L18.5968 25.7515L18.9033 26.6658L19.7529 26.8805L24.7037 28.1328L26.3015 32.9L26.5521 33.6479L27.2471 33.8238L32.3528 35.1151L34.0058 40.0483L34.2007 40.63L34.7414 40.7669L40.0011 42.0969L41.71 47.1966L41.8492 47.612L42.2356 47.7099L47.6502 49.0795L49.4152 54.3456L49.4989 54.5949L49.7304 54.6537L55.2998 56.0624L57.1208 61.4952L57.1487 61.5783L57.226 61.5978L62.9502 63.046L57.3924 61.3285L55.8302 55.7165L55.7872 55.563L55.62 55.5113L50.2303 53.846L48.711 48.3879L48.6253 48.0808L48.2906 47.9771L43.0683 46.3638L41.5921 41.0594L41.4639 40.5986L40.9614 40.4435L35.9072 38.8823L34.4742 33.732L34.3033 33.1179L33.6333 32.9108L28.7461 31.4009Z" fill="#F2F2F2"/>
<path d="M34.2734 26.3163L33.7034 21.1604L33.6158 20.3685L32.8312 19.9786L28.4071 17.7812L27.8548 12.7842L24.2114 13.283L25.1636 19.1097L25.319 20.0612L26.1232 20.4097L30.8086 22.4411L31.6197 27.4034L31.7471 28.1818L32.4049 28.467L37.2368 30.5618L38.0758 35.6965L38.1747 36.3019L38.6864 36.5237L43.6641 38.6816L44.5319 43.9899L44.6026 44.4222L44.9681 44.5808L50.0922 46.8027L50.9885 52.2841L51.031 52.5436L51.2502 52.6386L56.5209 54.9238L57.4457 60.5788L57.4596 60.6653L57.533 60.697L62.9501 63.046L57.7405 60.458L57.0999 54.6677L57.0822 54.5092L56.9253 54.4313L51.8732 51.9216L51.2504 46.2904L51.2153 45.9736L50.9015 45.8174L46.0063 43.3861L45.401 37.9131L45.3485 37.438L44.8777 37.2041L40.1397 34.851L39.5526 29.5374L39.4827 28.9038L38.8547 28.592L34.2734 26.3163Z" fill="#F2F2F2"/>
<path d="M40.5459 22.1861L40.8116 17.0054L40.8522 16.2096L40.1403 15.6989L36.1266 12.8193L36.3843 7.79826L32.708 7.70514L32.712 13.6094L32.7125 14.5733L33.4502 15.0465L37.7488 17.8045L37.7522 22.8324L37.7527 23.6211L38.3562 24.0083L42.7887 26.8526L42.7921 32.0551L42.7924 32.6687L43.2619 32.9699L47.8284 35.8996L47.8321 41.2781L47.8324 41.7163L48.1676 41.9315L52.8686 44.9477L52.8726 50.5019L52.8728 50.7649L53.0741 50.8939L57.9091 53.9963L57.9133 59.7265L57.9136 59.814L57.9806 59.857L62.9501 63.046L58.224 59.6544L58.5216 53.8365L58.5297 53.6774L58.3873 53.5751L53.8039 50.2864L54.0938 44.6283L54.1102 44.3099L53.8253 44.1054L49.3843 40.9191L49.6663 35.42L49.6906 34.9426L49.2635 34.636L44.9653 31.5523L45.2391 26.2134L45.2718 25.5769L44.7023 25.168L40.5459 22.1861Z" fill="#F2F2F2"/>
<path d="M47.4004 19.1171L48.4948 14.0465L48.6628 13.2675L48.0422 12.6489L44.5431 9.16179L45.6039 4.24733L41.9904 3.5649L41.0459 9.39314L40.8918 10.3446L41.5439 10.9303L45.3434 14.343L44.5391 19.3062L44.4128 20.0847L44.9464 20.564L48.8646 24.0833L48.0321 29.2188L47.934 29.8244L48.3489 30.1972L52.3855 33.8225L51.5251 39.1319L51.4552 39.5645L51.7514 39.8307L55.9067 43.5631L55.0187 49.0457L54.9765 49.3053L55.1545 49.4649L59.4282 53.3039L58.5122 58.9601L58.4982 59.0467L58.5576 59.0999L62.9502 63.046L58.8303 58.9393L60.0586 53.2445L60.0924 53.0889L59.9681 52.9652L55.9724 48.9827L57.1675 43.4444L57.2348 43.1328L56.9863 42.8854L53.1148 39.0269L54.2764 33.6447L54.3772 33.1773L54.0048 32.8061L50.2578 29.0718L51.3859 23.8461L51.5204 23.223L51.0237 22.7281L47.4004 19.1171Z" fill="#F2F2F2"/>
<path d="M54.6587 17.1893L56.5533 12.3603L56.8442 11.6185L56.331 10.9081L53.4378 6.90426L55.2741 2.22404L51.8172 0.969971L49.9487 6.57056L49.6436 7.48513L50.1932 8.16783L53.395 12.1466L51.804 16.9163L51.5545 17.6644L52.004 18.2231L55.306 22.3261L53.6593 27.2614L53.4652 27.8434L53.8149 28.2781L57.2167 32.5046L55.5149 37.6069L55.3762 38.0226L55.6259 38.3328L59.1276 42.6844L57.3705 47.9531L57.2871 48.2027L57.4369 48.3889L61.0388 52.8647L59.226 58.3001L59.1983 58.3835L59.2482 58.4455L62.9501 63.046L59.5433 58.3305L61.6706 52.9074L61.7286 52.7589L61.626 52.617L58.3218 48.0441L60.3911 42.7698L60.5074 42.4733L60.3022 42.189L57.1009 37.7586L59.1118 32.6328L59.2864 32.1878L58.9783 31.7615L55.8797 27.4738L57.8326 22.4973L58.0655 21.9038L57.6548 21.3356L54.6587 17.1893Z" fill="#F2F2F2"/>
</g>
</g>
<path d="M30.1643 64.4079C30.0574 64.5892 29.9983 64.797 30 65.015C30.0442 70.174 30.156 75.3329 30.3357 80.4919C30.3433 80.7094 30.409 80.9208 30.5224 81.1068C35.3999 81.2786 40.2775 81.4077 45.1551 81.4938C45.056 75.825 44.9962 70.1563 44.9757 64.4877C40.0385 64.4698 35.1015 64.4432 30.1643 64.4079Z" fill="url(#paint8_linear_460_51761)"/>
<path d="M44.9754 55.7914C40.1807 58.5555 35.3861 61.2954 30.6181 63.9645C30.4257 64.0726 30.2707 64.2264 30.1643 64.4077C35.1218 67.2264 40.0888 70.1046 45.036 72.9914C46.8327 70.1441 48.6506 67.2804 50.4787 64.4072C48.6378 61.526 46.7997 58.6517 44.9754 55.7914Z" fill="url(#paint9_linear_460_51761)"/>
<path d="M44.9753 64.3915C44.9955 70.1247 45.0559 75.8582 45.1567 81.5916C50.0895 81.6795 55.0223 81.7235 59.9551 81.7235C61.5994 75.955 63.2771 70.1816 64.9482 64.415C58.2907 64.4228 51.633 64.415 44.9753 64.3915Z" fill="url(#paint10_linear_460_51761)"/>
<path d="M59.9553 64.4179C54.962 67.3021 49.9788 70.1777 45.0358 72.9915C44.9753 67.2583 44.9552 61.5248 44.9753 55.7914C49.9686 55.7738 54.9618 55.7651 59.9553 55.7651V64.4179Z" fill="url(#paint11_linear_460_51761)"/>
<path d="M45.0359 72.9915C40.1489 75.7737 35.3012 78.4959 30.5222 81.1068C30.6351 81.2928 30.7947 81.4532 30.9893 81.569C35.5649 84.2906 40.1146 87.0324 44.6153 89.7545C44.6504 89.7756 44.6854 89.7969 44.7204 89.8181C44.9118 89.9336 45.123 89.9936 45.3333 89.9983C47.0554 87.241 48.8121 84.4631 50.5932 81.671C48.7493 78.773 46.8931 75.8776 45.0359 72.9915Z" fill="url(#paint12_linear_460_51761)"/>
<path d="M45.0359 72.9915C45.0957 78.6608 45.1948 84.3302 45.3334 89.9996C45.5437 90.0048 45.753 89.9546 45.939 89.8482C50.5471 87.2114 55.2281 84.4876 59.9552 81.7235C55.0226 78.8392 50.0394 75.9109 45.0359 72.9915Z" fill="url(#paint13_linear_460_51761)"/>
<path d="M59.9553 64.418V81.7235C65.492 81.7235 71.0289 81.6681 76.5656 81.5575C76.6786 75.8333 76.7465 70.109 76.7691 64.3848C71.1645 64.4068 65.5599 64.418 59.9553 64.418Z" fill="url(#paint14_linear_460_51761)"/>
<path d="M89.7465 64.4079C89.8534 64.5892 89.9125 64.797 89.9108 65.015C89.8666 70.174 89.7548 75.3329 89.5753 80.4919C89.5676 80.7094 89.5018 80.9208 89.3886 81.1068C84.511 81.2786 79.6334 81.4077 74.7559 81.4938C74.855 75.825 74.9147 70.1563 74.9352 64.4877C79.8723 64.4698 84.8093 64.4432 89.7465 64.4079Z" fill="url(#paint15_linear_460_51761)"/>
<path d="M74.9354 55.7914C79.7301 58.5555 84.5246 61.2954 89.2927 63.9645C89.4851 64.0726 89.6402 64.2264 89.7465 64.4077C84.789 67.2264 79.822 70.1046 74.8748 72.9914C73.0781 70.1441 71.2601 67.2804 69.4321 64.4072C71.273 61.526 73.1111 58.6517 74.9354 55.7914Z" fill="url(#paint16_linear_460_51761)"/>
<path d="M74.8747 72.9915C79.7617 75.7737 84.6094 78.4959 89.3884 81.1068C89.2755 81.2928 89.1159 81.4532 88.9213 81.569C84.3457 84.2906 79.796 87.0324 75.2953 89.7545C75.2602 89.7756 75.2251 89.7969 75.1902 89.8181C74.9988 89.9336 74.7876 89.9936 74.5772 89.9983C72.8551 87.241 71.0984 84.4631 69.3174 81.671C71.1613 78.773 73.0174 75.8776 74.8747 72.9915Z" fill="url(#paint17_linear_460_51761)"/>
<path d="M59.9553 81.7235C64.6825 84.4876 69.3635 87.2113 73.9715 89.8482C74.1575 89.9549 74.3668 90.0048 74.5772 89.9996C74.7158 84.3302 74.815 78.6608 74.8746 72.9915C69.8713 75.9109 64.8881 78.8392 59.9553 81.7235Z" fill="url(#paint18_linear_460_51761)"/>
<path d="M59.9553 55.7651V64.4179C64.9484 67.3021 69.9316 70.1777 74.8743 72.9917C74.9348 67.2582 74.9549 61.525 74.9348 55.7916C69.9417 55.7738 64.9486 55.7651 59.9553 55.7651Z" fill="url(#paint19_linear_460_51761)"/>
<path d="M74.5882 38.6855C69.7106 38.5999 64.8329 38.5572 59.9553 38.5572V55.7651C64.9484 55.7651 69.9417 55.7739 74.9348 55.7914C74.9154 50.297 74.8591 44.8023 74.7658 39.3081C74.7621 39.0861 74.6984 38.8725 74.5882 38.6855Z" fill="url(#paint20_linear_460_51761)"/>
<path d="M45.3208 38.6846C45.2107 38.8717 45.147 39.0855 45.1432 39.3073C45.0503 44.8017 44.9944 50.2962 44.9756 55.7906C49.9684 55.7731 54.961 55.7641 59.9537 55.7643C59.9537 50.0283 59.9537 44.2922 59.9537 38.5562C55.076 38.5562 50.1984 38.5989 45.3208 38.6846Z" fill="url(#paint21_linear_460_51761)"/>
<path d="M59.9555 30.0015C59.7451 30.001 59.5347 30.0557 59.3461 30.1675C54.8745 32.8161 50.3446 35.5144 45.7799 38.2222C45.5874 38.3362 45.4305 38.4971 45.3208 38.6845C50.15 41.434 55.038 44.2602 59.9553 47.1122C61.7822 44.2281 63.5979 41.3473 65.3915 38.4772C63.5615 35.6485 61.7458 32.8208 59.9555 30.0015Z" fill="url(#paint22_linear_460_51761)"/>
<path d="M74.1311 38.2223C69.5662 35.5148 65.0365 32.8163 60.5647 30.1677C60.3761 30.056 60.1657 30.0002 59.9553 30V47.1124C64.8729 44.2604 69.7609 41.434 74.59 38.6847C74.4804 38.4969 74.3236 38.3365 74.1311 38.2223Z" fill="url(#paint23_linear_460_51761)"/>
<path d="M59.9553 47.1122C54.9822 49.9966 49.9788 52.9072 44.9753 55.7914C49.9585 58.6405 54.9618 61.5336 59.9553 64.418C61.7895 61.5336 63.6274 58.6481 65.458 55.7687C63.6201 52.8843 61.7821 49.9966 59.9553 47.1122Z" fill="url(#paint24_linear_460_51761)"/>
<path d="M74.935 55.7914C69.952 58.6405 64.9487 61.5336 59.9556 64.4178C59.9556 58.6493 59.9556 52.8808 59.9556 47.1122C64.9285 49.9966 69.9317 52.9072 74.935 55.7914Z" fill="url(#paint25_linear_460_51761)"/>
<path d="M113.217 106.357C110.837 103.68 108.434 101.023 106.008 98.3885L96.7116 106.948C99.1952 109.645 101.674 112.347 104.148 115.053C107.107 112.309 110.047 109.546 112.969 106.763C113.087 106.65 113.17 106.51 113.217 106.357Z" fill="url(#paint26_linear_460_51761)"/>
<path d="M98.6598 90.5461C98.5039 90.5797 98.3567 90.6516 98.235 90.7599C95.2206 93.4426 92.2247 96.1453 89.2471 98.868C91.74 101.556 94.2281 104.249 96.7113 106.946C99.81 104.093 102.909 101.24 106.007 98.3872C103.581 95.7521 101.132 93.1385 98.6598 90.5461Z" fill="url(#paint27_linear_460_51761)"/>
<path d="M110.63 94.133C110.525 94.0191 110.391 93.9327 110.237 93.8864C106.582 92.7882 102.871 91.6832 99.1378 90.5641C98.9804 90.5168 98.8155 90.512 98.6596 90.5461C99.5763 94.5224 100.481 98.5687 101.386 102.644C103.853 102.196 106.312 101.744 108.755 101.285C109.373 98.8898 109.997 96.5025 110.63 94.133Z" fill="url(#paint28_linear_460_51761)"/>
<path d="M113.239 105.88C112.432 102.067 111.636 98.2779 110.843 94.5449C110.809 94.3874 110.735 94.246 110.63 94.1323L101.386 102.644C105.373 103.882 109.331 105.117 113.218 106.358C113.265 106.205 113.274 106.041 113.239 105.88Z" fill="url(#paint29_linear_460_51761)"/>
<path d="M101.386 102.644C97.3544 101.392 93.2935 100.137 89.2467 98.8683C90.1862 102.977 91.1119 107.119 92.0374 111.251C94.5079 110.808 96.9808 110.365 99.4469 109.922C100.091 107.494 100.737 105.065 101.386 102.644Z" fill="url(#paint30_linear_460_51761)"/>
<path d="M104.148 115.053C100.131 113.778 96.0791 112.514 92.0376 111.251C95.1538 108.382 98.27 105.513 101.386 102.644C102.302 106.765 103.218 110.915 104.148 115.053Z" fill="url(#paint31_linear_460_51761)"/>
<path d="M112.5 17C115.538 17 118 14.5376 118 11.5C118 8.46243 115.538 6 112.5 6C109.462 6 107 8.46243 107 11.5C107 14.5376 109.462 17 112.5 17Z" fill="url(#paint32_linear_460_51761)"/>
<path d="M119 4C120.105 4 121 3.10457 121 2C121 0.895431 120.105 0 119 0C117.895 0 117 0.895431 117 2C117 3.10457 117.895 4 119 4Z" fill="url(#paint33_linear_460_51761)"/>
<path d="M9 103C6.23858 103 4 105.239 4 108C4 110.761 6.23858 113 9 113C11.7614 113 14 110.761 14 108C14 105.239 11.7614 103 9 103Z" fill="url(#paint34_linear_460_51761)"/>
<path d="M3 115C1.89543 115 1 115.895 1 117C1 118.105 1.89543 119 3 119C4.10457 119 5 118.105 5 117C5 115.895 4.10457 115 3 115Z" fill="url(#paint35_linear_460_51761)"/>
<defs>
<linearGradient id="paint0_linear_460_51761" x1="51.8642" y1="-24.275" x2="-29.3684" y2="56.9576" gradientUnits="userSpaceOnUse">
<stop stop-color="#389FFF"/>
<stop offset="0.1209" stop-color="#45AFFA"/>
<stop offset="0.5726" stop-color="#73E9E7"/>
<stop offset="0.79" stop-color="#85FFE0"/>
<stop offset="0.881" stop-color="#9DFFE6"/>
<stop offset="1" stop-color="#C2FFF0"/>
</linearGradient>
<linearGradient id="paint1_linear_460_51761" x1="68.401" y1="-24.9469" x2="-14.1125" y2="57.5667" gradientUnits="userSpaceOnUse">
<stop stop-color="#389FFF"/>
<stop offset="0.1209" stop-color="#45AFFA"/>
<stop offset="0.5726" stop-color="#73E9E7"/>
<stop offset="0.79" stop-color="#85FFE0"/>
<stop offset="0.881" stop-color="#9DFFE6"/>
<stop offset="1" stop-color="#C2FFF0"/>
</linearGradient>
<linearGradient id="paint2_linear_460_51761" x1="96.7629" y1="-48.6269" x2="8.61138" y2="39.5246" gradientUnits="userSpaceOnUse">
<stop stop-color="#389FFF"/>
<stop offset="0.1209" stop-color="#45AFFA"/>
<stop offset="0.5726" stop-color="#73E9E7"/>
<stop offset="0.79" stop-color="#85FFE0"/>
<stop offset="0.881" stop-color="#9DFFE6"/>
<stop offset="1" stop-color="#C2FFF0"/>
</linearGradient>
<linearGradient id="paint3_linear_460_51761" x1="76.1104" y1="-34.5411" x2="-9.8281" y2="51.3973" gradientUnits="userSpaceOnUse">
<stop stop-color="#389FFF"/>
<stop offset="0.1209" stop-color="#45AFFA"/>
<stop offset="0.5726" stop-color="#73E9E7"/>
<stop offset="0.79" stop-color="#85FFE0"/>
<stop offset="0.881" stop-color="#9DFFE6"/>
<stop offset="1" stop-color="#C2FFF0"/>
</linearGradient>
<linearGradient id="paint4_linear_460_51761" x1="33.2759" y1="-3.48356" x2="-51.7305" y2="81.5228" gradientUnits="userSpaceOnUse">
<stop stop-color="#389FFF"/>
<stop offset="0.1209" stop-color="#45AFFA"/>
<stop offset="0.5726" stop-color="#73E9E7"/>
<stop offset="0.79" stop-color="#85FFE0"/>
<stop offset="0.881" stop-color="#9DFFE6"/>
<stop offset="1" stop-color="#C2FFF0"/>
</linearGradient>
<linearGradient id="paint5_linear_460_51761" x1="39.4502" y1="-16.4597" x2="-40.8155" y2="63.8061" gradientUnits="userSpaceOnUse">
<stop stop-color="#389FFF"/>
<stop offset="0.1209" stop-color="#45AFFA"/>
<stop offset="0.5726" stop-color="#73E9E7"/>
<stop offset="0.79" stop-color="#85FFE0"/>
<stop offset="0.881" stop-color="#9DFFE6"/>
<stop offset="1" stop-color="#C2FFF0"/>
</linearGradient>
<linearGradient id="paint6_linear_460_51761" x1="28.0673" y1="110.965" x2="69.0238" y2="8.43642" gradientUnits="userSpaceOnUse">
<stop stop-color="#57AFC2"/>
<stop offset="1" stop-color="#035B8C"/>
</linearGradient>
<linearGradient id="paint7_linear_460_51761" x1="40.5589" y1="110.965" x2="85.4742" y2="12.581" gradientUnits="userSpaceOnUse">
<stop stop-color="#5EB0C4"/>
<stop offset="1" stop-color="#074364"/>
</linearGradient>
<linearGradient id="paint8_linear_460_51761" x1="-1.47314" y1="112.084" x2="73.1102" y2="37.5004" gradientUnits="userSpaceOnUse">
<stop stop-color="#389FFF"/>
<stop offset="0.1209" stop-color="#45AFFA"/>
<stop offset="0.5726" stop-color="#73E9E7"/>
<stop offset="0.79" stop-color="#85FFE0"/>
<stop offset="0.881" stop-color="#9DFFE6"/>
<stop offset="1" stop-color="#C2FFF0"/>
</linearGradient>
<linearGradient id="paint9_linear_460_51761" x1="-29.5096" y1="135.782" x2="52.8771" y2="53.3954" gradientUnits="userSpaceOnUse">
<stop stop-color="#389FFF"/>
<stop offset="0.1209" stop-color="#45AFFA"/>
<stop offset="0.5726" stop-color="#73E9E7"/>
<stop offset="0.79" stop-color="#85FFE0"/>
<stop offset="0.881" stop-color="#9DFFE6"/>
<stop offset="1" stop-color="#C2FFF0"/>
</linearGradient>
<linearGradient id="paint10_linear_460_51761" x1="7.75785" y1="117.765" x2="95.2127" y2="30.3101" gradientUnits="userSpaceOnUse">
<stop stop-color="#389FFF"/>
<stop offset="0.1209" stop-color="#45AFFA"/>
<stop offset="0.5726" stop-color="#73E9E7"/>
<stop offset="0.79" stop-color="#85FFE0"/>
<stop offset="0.881" stop-color="#9DFFE6"/>
<stop offset="1" stop-color="#C2FFF0"/>
</linearGradient>
<linearGradient id="paint11_linear_460_51761" x1="-29.5862" y1="142.156" x2="80.5931" y2="31.977" gradientUnits="userSpaceOnUse">
<stop stop-color="#389FFF"/>
<stop offset="0.1209" stop-color="#45AFFA"/>
<stop offset="0.5726" stop-color="#73E9E7"/>
<stop offset="0.79" stop-color="#85FFE0"/>
<stop offset="0.881" stop-color="#9DFFE6"/>
<stop offset="1" stop-color="#C2FFF0"/>
</linearGradient>
<linearGradient id="paint12_linear_460_51761" x1="30.5513" y1="92.9289" x2="107.031" y2="16.4491" gradientUnits="userSpaceOnUse">
<stop stop-color="#389FFF"/>
<stop offset="0.1209" stop-color="#45AFFA"/>
<stop offset="0.5726" stop-color="#73E9E7"/>
<stop offset="0.79" stop-color="#85FFE0"/>
<stop offset="0.881" stop-color="#9DFFE6"/>
<stop offset="1" stop-color="#C2FFF0"/>
</linearGradient>
<linearGradient id="paint13_linear_460_51761" x1="24.8471" y1="105.006" x2="97.869" y2="31.9841" gradientUnits="userSpaceOnUse">
<stop stop-color="#389FFF"/>
<stop offset="0.1209" stop-color="#45AFFA"/>
<stop offset="0.5726" stop-color="#73E9E7"/>
<stop offset="0.79" stop-color="#85FFE0"/>
<stop offset="0.881" stop-color="#9DFFE6"/>
<stop offset="1" stop-color="#C2FFF0"/>
</linearGradient>
<linearGradient id="paint14_linear_460_51761" x1="36.9543" y1="104.294" x2="110.77" y2="30.4778" gradientUnits="userSpaceOnUse">
<stop stop-color="#389FFF"/>
<stop offset="0.1209" stop-color="#45AFFA"/>
<stop offset="0.5726" stop-color="#73E9E7"/>
<stop offset="0.79" stop-color="#85FFE0"/>
<stop offset="0.881" stop-color="#9DFFE6"/>
<stop offset="1" stop-color="#C2FFF0"/>
</linearGradient>
<linearGradient id="paint15_linear_460_51761" x1="38.9773" y1="115.982" x2="115.971" y2="38.9882" gradientUnits="userSpaceOnUse">
<stop stop-color="#389FFF"/>
<stop offset="0.1209" stop-color="#45AFFA"/>
<stop offset="0.5726" stop-color="#73E9E7"/>
<stop offset="0.79" stop-color="#85FFE0"/>
<stop offset="0.881" stop-color="#9DFFE6"/>
<stop offset="1" stop-color="#C2FFF0"/>
</linearGradient>
<linearGradient id="paint16_linear_460_51761" x1="18.4355" y1="124.005" x2="101.111" y2="41.3292" gradientUnits="userSpaceOnUse">
<stop stop-color="#389FFF"/>
<stop offset="0.1209" stop-color="#45AFFA"/>
<stop offset="0.5726" stop-color="#73E9E7"/>
<stop offset="0.79" stop-color="#85FFE0"/>
<stop offset="0.881" stop-color="#9DFFE6"/>
<stop offset="1" stop-color="#C2FFF0"/>
</linearGradient>
<linearGradient id="paint17_linear_460_51761" x1="50.0914" y1="109.116" x2="130.007" y2="29.2007" gradientUnits="userSpaceOnUse">
<stop stop-color="#389FFF"/>
<stop offset="0.1209" stop-color="#45AFFA"/>
<stop offset="0.5726" stop-color="#73E9E7"/>
<stop offset="0.79" stop-color="#85FFE0"/>
<stop offset="0.881" stop-color="#9DFFE6"/>
<stop offset="1" stop-color="#C2FFF0"/>
</linearGradient>
<linearGradient id="paint18_linear_460_51761" x1="55.9658" y1="97.162" x2="131.39" y2="21.7373" gradientUnits="userSpaceOnUse">
<stop stop-color="#389FFF"/>
<stop offset="0.1209" stop-color="#45AFFA"/>
<stop offset="0.5726" stop-color="#73E9E7"/>
<stop offset="0.79" stop-color="#85FFE0"/>
<stop offset="0.881" stop-color="#9DFFE6"/>
<stop offset="1" stop-color="#C2FFF0"/>
</linearGradient>
<linearGradient id="paint19_linear_460_51761" x1="-2.84742" y1="134.641" x2="79.6606" y2="52.1326" gradientUnits="userSpaceOnUse">
<stop stop-color="#389FFF"/>
<stop offset="0.1209" stop-color="#45AFFA"/>
<stop offset="0.5726" stop-color="#73E9E7"/>
<stop offset="0.79" stop-color="#85FFE0"/>
<stop offset="0.881" stop-color="#9DFFE6"/>
<stop offset="1" stop-color="#C2FFF0"/>
</linearGradient>
<linearGradient id="paint20_linear_460_51761" x1="27.6204" y1="86.999" x2="103.184" y2="11.4352" gradientUnits="userSpaceOnUse">
<stop stop-color="#389FFF"/>
<stop offset="0.1209" stop-color="#45AFFA"/>
<stop offset="0.5726" stop-color="#73E9E7"/>
<stop offset="0.79" stop-color="#85FFE0"/>
<stop offset="0.881" stop-color="#9DFFE6"/>
<stop offset="1" stop-color="#C2FFF0"/>
</linearGradient>
<linearGradient id="paint21_linear_460_51761" x1="12.2376" y1="87.624" x2="88.9929" y2="10.8685" gradientUnits="userSpaceOnUse">
<stop stop-color="#389FFF"/>
<stop offset="0.1209" stop-color="#45AFFA"/>
<stop offset="0.5726" stop-color="#73E9E7"/>
<stop offset="0.79" stop-color="#85FFE0"/>
<stop offset="0.881" stop-color="#9DFFE6"/>
<stop offset="1" stop-color="#C2FFF0"/>
</linearGradient>
<linearGradient id="paint22_linear_460_51761" x1="-14.145" y1="109.651" x2="67.8549" y2="27.6516" gradientUnits="userSpaceOnUse">
<stop stop-color="#389FFF"/>
<stop offset="0.1209" stop-color="#45AFFA"/>
<stop offset="0.5726" stop-color="#73E9E7"/>
<stop offset="0.79" stop-color="#85FFE0"/>
<stop offset="0.881" stop-color="#9DFFE6"/>
<stop offset="1" stop-color="#C2FFF0"/>
</linearGradient>
<linearGradient id="paint23_linear_460_51761" x1="5.06623" y1="96.5486" x2="85.0075" y2="16.6075" gradientUnits="userSpaceOnUse">
<stop stop-color="#389FFF"/>
<stop offset="0.1209" stop-color="#45AFFA"/>
<stop offset="0.5726" stop-color="#73E9E7"/>
<stop offset="0.79" stop-color="#85FFE0"/>
<stop offset="0.881" stop-color="#9DFFE6"/>
<stop offset="1" stop-color="#C2FFF0"/>
</linearGradient>
<linearGradient id="paint24_linear_460_51761" x1="44.9115" y1="67.6584" x2="123.986" y2="-11.4158" gradientUnits="userSpaceOnUse">
<stop stop-color="#389FFF"/>
<stop offset="0.1209" stop-color="#45AFFA"/>
<stop offset="0.5726" stop-color="#73E9E7"/>
<stop offset="0.79" stop-color="#85FFE0"/>
<stop offset="0.881" stop-color="#9DFFE6"/>
<stop offset="1" stop-color="#C2FFF0"/>
</linearGradient>
<linearGradient id="paint25_linear_460_51761" x1="39.1681" y1="79.729" x2="113.833" y2="5.06461" gradientUnits="userSpaceOnUse">
<stop stop-color="#389FFF"/>
<stop offset="0.1209" stop-color="#45AFFA"/>
<stop offset="0.5726" stop-color="#73E9E7"/>
<stop offset="0.79" stop-color="#85FFE0"/>
<stop offset="0.881" stop-color="#9DFFE6"/>
<stop offset="1" stop-color="#C2FFF0"/>
</linearGradient>
<linearGradient id="paint26_linear_460_51761" x1="63.7556" y1="105.015" x2="142.161" y2="108.251" gradientUnits="userSpaceOnUse">
<stop stop-color="#389FFF"/>
<stop offset="0.1209" stop-color="#45AFFA"/>
<stop offset="0.5726" stop-color="#73E9E7"/>
<stop offset="0.79" stop-color="#85FFE0"/>
<stop offset="0.881" stop-color="#9DFFE6"/>
<stop offset="1" stop-color="#C2FFF0"/>
</linearGradient>
<linearGradient id="paint27_linear_460_51761" x1="55.7668" y1="97.0162" x2="135.408" y2="100.303" gradientUnits="userSpaceOnUse">
<stop stop-color="#389FFF"/>
<stop offset="0.1209" stop-color="#45AFFA"/>
<stop offset="0.5726" stop-color="#73E9E7"/>
<stop offset="0.79" stop-color="#85FFE0"/>
<stop offset="0.881" stop-color="#9DFFE6"/>
<stop offset="1" stop-color="#C2FFF0"/>
</linearGradient>
<linearGradient id="paint28_linear_460_51761" x1="30.7447" y1="93.7202" x2="115.828" y2="97.2315" gradientUnits="userSpaceOnUse">
<stop stop-color="#389FFF"/>
<stop offset="0.1209" stop-color="#45AFFA"/>
<stop offset="0.5726" stop-color="#73E9E7"/>
<stop offset="0.79" stop-color="#85FFE0"/>
<stop offset="0.881" stop-color="#9DFFE6"/>
<stop offset="1" stop-color="#C2FFF0"/>
</linearGradient>
<linearGradient id="paint29_linear_460_51761" x1="47.3787" y1="97.5812" x2="130.326" y2="101.004" gradientUnits="userSpaceOnUse">
<stop stop-color="#389FFF"/>
<stop offset="0.1209" stop-color="#45AFFA"/>
<stop offset="0.5726" stop-color="#73E9E7"/>
<stop offset="0.79" stop-color="#85FFE0"/>
<stop offset="0.881" stop-color="#9DFFE6"/>
<stop offset="1" stop-color="#C2FFF0"/>
</linearGradient>
<linearGradient id="paint30_linear_460_51761" x1="82.8042" y1="104.736" x2="164.852" y2="108.122" gradientUnits="userSpaceOnUse">
<stop stop-color="#389FFF"/>
<stop offset="0.1209" stop-color="#45AFFA"/>
<stop offset="0.5726" stop-color="#73E9E7"/>
<stop offset="0.79" stop-color="#85FFE0"/>
<stop offset="0.881" stop-color="#9DFFE6"/>
<stop offset="1" stop-color="#C2FFF0"/>
</linearGradient>
<linearGradient id="paint31_linear_460_51761" x1="73.4268" y1="107.637" x2="150.899" y2="110.835" gradientUnits="userSpaceOnUse">
<stop stop-color="#389FFF"/>
<stop offset="0.1209" stop-color="#45AFFA"/>
<stop offset="0.5726" stop-color="#73E9E7"/>
<stop offset="0.79" stop-color="#85FFE0"/>
<stop offset="0.881" stop-color="#9DFFE6"/>
<stop offset="1" stop-color="#C2FFF0"/>
</linearGradient>
<linearGradient id="paint32_linear_460_51761" x1="109.573" y1="16.1718" x2="113.327" y2="6.77334" gradientUnits="userSpaceOnUse">
<stop stop-color="#57AFC2"/>
<stop offset="1" stop-color="#035B8C"/>
</linearGradient>
<linearGradient id="paint33_linear_460_51761" x1="117.936" y1="3.69883" x2="119.301" y2="0.281214" gradientUnits="userSpaceOnUse">
<stop stop-color="#57AFC2"/>
<stop offset="1" stop-color="#035B8C"/>
</linearGradient>
<linearGradient id="paint34_linear_460_51761" x1="11.6611" y1="103.753" x2="8.24801" y2="112.297" gradientUnits="userSpaceOnUse">
<stop stop-color="#57AFC2"/>
<stop offset="1" stop-color="#035B8C"/>
</linearGradient>
<linearGradient id="paint35_linear_460_51761" x1="4.06442" y1="115.301" x2="2.69921" y2="118.719" gradientUnits="userSpaceOnUse">
<stop stop-color="#57AFC2"/>
<stop offset="1" stop-color="#035B8C"/>
</linearGradient>
<clipPath id="clip0_460_51761">
<rect y="1" width="120" height="120" rx="60" fill="white"/>
</clipPath>
<clipPath id="clip1_460_51761">
<rect width="126" height="126" fill="white"/>
</clipPath>
</defs>
</svg>
