<svg width="121" height="120" viewBox="0 0 121 120" fill="none" xmlns="http://www.w3.org/2000/svg">
<path d="M25.6601 23.8636L31.1121 22.3784C33.0081 21.8618 33.6386 19.4892 32.2489 18.0997L28.3272 14.178C27.6779 13.5288 27.4261 12.5815 27.6676 11.6956L28.8736 7.26826C29.3941 5.35833 27.6416 3.60619 25.7317 4.12636L21.3044 5.33234C20.4185 5.57354 19.4712 5.32206 18.8223 4.67283L14.9006 0.751123C13.5108 -0.638627 11.1384 -0.00813165 10.6219 1.88819L9.13664 7.34019C8.89816 8.21491 8.21507 8.8983 7.34006 9.13677L1.88806 10.622C-0.00826626 11.1386 -0.638457 13.5113 0.75099 14.9007L4.6727 18.8224C5.32193 19.4716 5.5737 20.4189 5.3322 21.3045L4.12592 25.7319C3.60575 27.6418 5.3579 29.3939 7.26782 28.8738L11.6952 27.6678C12.5811 27.4266 13.5283 27.6781 14.1776 28.3273L18.0993 32.249C19.489 33.6387 21.8614 33.0083 22.378 31.1119L23.8632 25.6599C24.1017 24.7855 24.7851 24.1021 25.6601 23.8636Z" fill="url(#paint0_linear_460_51086)"/>
<path d="M9.58794 19.1815L8.67937 22.6286C8.36322 23.8274 9.46069 24.9203 10.6582 24.5996L14.0377 23.6944C14.5971 23.5445 15.1941 23.7059 15.6018 24.1172L17.6399 26.1728C18.5192 27.0596 20.0292 26.6552 20.3475 25.4477L21.0853 22.6486C21.2328 22.0885 21.6692 21.6506 22.2287 21.5006L25.6085 20.5954C26.806 20.2747 27.2101 18.7795 26.3372 17.899L23.8273 15.3677C23.4247 14.9614 23.2669 14.3727 23.4126 13.8195L24.3212 10.3724C24.6373 9.17364 23.5398 8.0807 22.3423 8.40139L18.9626 9.30663C18.4031 9.45655 17.8061 9.29515 17.3984 8.88378L15.3603 6.82818C14.4811 5.94137 12.971 6.34578 12.6528 7.55327L11.915 10.3524C11.7675 10.9125 11.331 11.3505 10.7716 11.5004L7.39179 12.4056C6.19427 12.7263 5.79016 14.2215 6.66306 15.1017L9.17295 17.633C9.57585 18.0396 9.73363 18.6284 9.58794 19.1815Z" fill="url(#paint1_linear_460_51086)"/>
<path d="M11.855 22.2789L12.792 25.7186C13.1178 26.9149 14.6146 27.3123 15.4914 26.4358L17.9653 23.9619C18.3749 23.5523 18.9724 23.3936 19.5313 23.5457L22.3244 24.3064C23.5292 24.6347 24.6348 23.5294 24.3066 22.3243L23.5458 19.5312C23.3935 18.9723 23.5525 18.3748 23.962 17.9652L26.4359 15.4913C27.3128 14.6145 26.915 13.118 25.7187 12.7919L22.2791 11.8549C21.7272 11.7047 21.2961 11.2734 21.1456 10.7215L20.2087 7.28186C19.8828 6.08555 18.3861 5.68778 17.5093 6.56461L15.0353 9.03854C14.6258 9.44809 14.0282 9.60677 13.4694 9.45474L10.6763 8.69397C9.47149 8.36573 8.36586 9.47106 8.6941 10.6761L9.45487 13.4692C9.6072 14.0281 9.44821 14.6256 9.03866 15.0352L6.56474 17.5091C5.68791 18.3856 6.08568 19.8824 7.28199 20.2085L10.7216 21.1455C11.2735 21.296 11.7045 21.727 11.855 22.2789Z" fill="url(#paint2_linear_460_51086)"/>
<path d="M20.3575 19.601L22.6534 18.9756C23.4519 18.758 23.7173 17.7591 23.1322 17.1739L21.4807 15.5224C21.2074 15.2489 21.1013 14.8502 21.2029 14.4772L21.711 12.613C21.9301 11.8087 21.1923 11.0709 20.388 11.29L18.5237 11.7978C18.1508 11.8993 17.7518 11.7936 17.4785 11.52L15.8271 9.86853C15.2419 9.28337 14.2427 9.54874 14.0253 10.3473L13.4 12.6432C13.2996 13.0116 13.0119 13.2994 12.6434 13.3997L10.3475 14.0251C9.549 14.2427 9.28362 15.2416 9.86878 15.8268L11.5203 17.4783C11.7935 17.7518 11.8996 18.1505 11.798 18.5235L11.2903 20.3878C11.0711 21.1921 11.8089 21.9298 12.6132 21.7107L14.4775 21.2029C14.8505 21.1014 15.2495 21.2072 15.5227 21.4807L17.1742 23.1322C17.7593 23.7174 18.7586 23.452 18.9759 22.6534L19.6013 20.3575C19.7013 19.9891 19.989 19.7014 20.3575 19.601Z" fill="url(#paint3_linear_460_51086)"/>
<path d="M23.8286 22.3914L28.1907 21.2032C29.7077 20.7901 30.2122 18.8919 29.1002 17.7799L25.9625 14.6423C25.443 14.1227 25.2417 13.365 25.4348 12.6562L26.3999 9.11411C26.8161 7.58593 25.4143 6.18409 23.8864 6.60059L20.3443 7.56568C19.6355 7.75882 18.8778 7.55722 18.3582 7.03795L15.2205 3.90028C14.1086 2.7886 12.2104 3.29276 11.7972 4.81006L10.6091 9.17184C10.4184 9.87186 9.87161 10.4186 9.1719 10.609L4.80981 11.7972C3.29281 12.2104 2.78835 14.1088 3.90033 15.2205L7.03801 18.3582C7.55757 18.8774 7.75887 19.6355 7.56574 20.3442L6.60065 23.8863C6.18445 25.4145 7.58629 26.8163 9.11416 26.3998L12.6562 25.4348C13.365 25.2416 14.1228 25.4432 14.6423 25.9625L17.78 29.1002C18.8917 30.2118 20.7898 29.7077 21.2033 28.1907L22.3918 23.8286C22.5819 23.1289 23.1286 22.5821 23.8286 22.3914Z" fill="url(#paint4_linear_460_51086)"/>
<g clip-path="url(#clip0_460_51086)">
<path d="M60 119C93.1371 119 120 92.1371 120 59C120 25.8629 93.1371 -1 60 -1C26.8629 -1 0 25.8629 0 59C0 92.1371 26.8629 119 60 119Z" fill="url(#paint5_linear_460_51086)"/>
<path d="M60.7712 -1C58.914 -1 57.0788 -0.912289 55.2656 -0.747831C63.3686 -0.153038 66.0182 10.2764 59.3405 14.7579C55.1501 17.5674 50.657 20.2535 45.9245 22.7725C42.8567 24.4061 41.6075 28.2545 43.1621 31.3518C44.2049 33.4294 46.2877 34.619 48.4558 34.619C49.3941 34.619 50.3516 34.3942 51.243 33.9228C57.1008 30.8255 62.6395 27.476 67.7626 23.9484C70.7314 21.9009 74.7815 22.46 77.1065 25.2092C78.2235 26.5276 78.7628 28.1284 78.7628 29.7154C78.7628 31.889 77.7531 34.0407 75.8271 35.4166C73.2682 37.2421 70.5828 39.0238 67.7846 40.7478C65.3001 42.2773 64.117 45.3088 65.0827 48.0525C66.4309 51.8789 70.8882 53.3289 74.2147 51.2814C82.6699 46.0736 90.2308 40.3614 96.5233 34.4025C99.3765 31.6999 104.059 32.7195 105.548 36.3513C105.562 36.3869 105.578 36.4253 105.592 36.4609C106.404 38.4536 105.988 40.7369 104.527 42.3184C102.824 44.1631 100.642 46.4683 99.5141 47.5235C93.3894 53.2631 85.911 58.7698 77.4834 63.7611C76.2012 59.0192 71.7082 55.5875 66.4694 55.9246C61.0436 56.2782 56.7074 60.7405 56.5175 66.154C56.424 68.8401 57.3347 71.3152 58.9003 73.2339C56.9027 74.1028 54.9024 74.9306 52.9049 75.7117C49.7903 76.9287 48.0679 80.3522 49.1492 83.5043C50.2938 86.8346 53.9862 88.5313 57.2577 87.2567C60.3668 86.048 63.4759 84.7378 66.5768 83.3317C83.7457 75.5308 98.8758 65.5016 109.837 54.7323C109.939 56.1412 109.989 57.5665 109.989 59C109.989 60.4116 109.939 61.8095 109.843 63.1937C101.314 71.8716 89.5952 80.1412 76.1737 86.8867C60.5016 94.7615 44.5296 99.55 31.1053 100.4C30.888 100.413 30.6706 100.427 30.4533 100.438C24.733 100.751 19.8025 100.282 16 99.1307C20.9883 104.651 26.9892 109.242 33.7137 112.616C37.9426 112.257 42.3559 111.575 46.8958 110.582C58.1051 108.135 70.0656 103.823 81.7729 97.9383C81.8554 97.8972 81.938 97.8561 82.0205 97.815C87.2757 95.1617 91.8651 102.294 87.2565 105.953C78.3143 113.047 67.3031 117.662 55.2656 118.748C57.0788 118.912 58.914 119 60.7712 119C94.036 119 121 92.1384 121 59C121 25.8616 94.036 -1 60.7712 -1ZM85.2259 25.5381C81.2666 25.5381 78.0585 22.3422 78.0585 18.3979C78.0585 14.4536 81.2666 11.2577 85.2259 11.2577C89.1852 11.2577 92.3962 14.4536 92.3962 18.3979C92.3962 22.3422 89.1852 25.5381 85.2259 25.5381ZM99.7342 97.6862C95.7749 97.6862 92.564 94.4902 92.564 90.5459C92.564 86.6016 95.7749 83.4029 99.7342 83.4029C103.694 83.4029 106.902 86.6016 106.902 90.5459C106.902 94.4902 103.694 97.6862 99.7342 97.6862Z" fill="url(#paint6_linear_460_51086)"/>
<g opacity="0.05" clip-path="url(#clip1_460_51086)">
<path d="M61.6917 15.4625L64.2948 10.9759L64.6946 10.2867L64.2948 9.50688L62.0404 5.1113L64.5638 0.762929L61.3364 -1L58.6421 4.25344L58.2021 5.1113L58.6421 5.86917L61.2053 10.2867L58.9111 14.7606L58.5511 15.4625L58.9111 16.0827L61.5543 20.6382L59.1802 25.2675L58.9001 25.8135L59.1802 26.296L61.9032 30.9886L59.4489 35.7746L59.249 36.1645L59.4489 36.509L62.2522 41.3404L59.718 46.2825L59.598 46.5165L59.718 46.7233L62.6012 51.6927L59.987 56.7913L59.9469 56.8694L59.987 56.9382L62.9501 62.046L60.2959 56.8694L63.2192 51.8304L63.2991 51.6927L63.2192 51.5368L60.6448 46.5165L63.4879 41.616L63.648 41.3404L63.4879 41.0286L60.9938 36.1645L63.757 31.4022L63.997 30.9886L63.757 30.5206L61.3428 25.8135L64.0257 21.1897L64.3459 20.6384L64.026 20.0146L61.6917 15.4625Z" fill="#F2F2F2"/>
<path d="M69.1907 15.8653L72.4809 11.8552L72.9863 11.2392L72.717 10.4054L71.198 5.70457L74.3868 1.8181L71.4847 -0.440495L67.9814 4.312L67.4096 5.08782L67.7219 5.90689L69.5423 10.6786L66.5592 14.7258L66.0913 15.3607L66.3469 16.0307L68.2238 20.9518L65.137 25.1395L64.7727 25.6333L64.9716 26.1546L66.9058 31.2239L63.7145 35.5533L63.4545 35.906L63.5966 36.2782L65.5872 41.4973L62.2921 45.9681L62.1362 46.1797L62.2214 46.4031L64.2687 51.771L60.8696 56.3834L60.8176 56.4541L60.8459 56.5285L62.9501 62.046L61.1618 56.5101L64.8566 52.0063L64.9576 51.8831L64.9038 51.7164L63.1693 46.348L66.7628 41.9679L66.9649 41.7216L66.8572 41.3879L65.1766 36.1864L68.669 31.9298L68.9721 31.5602L68.8104 31.0598L67.1838 26.0259L70.5747 21.8933L70.979 21.4005L70.7636 20.7334L69.1907 15.8653Z" fill="#F2F2F2"/>
<path d="M76.5278 17.4679L80.4193 14.0386L81.017 13.5118L80.8851 12.6452L80.141 7.76163L83.9128 4.43783L81.4111 1.74239L77.1901 5.87023L76.5009 6.54422L76.6776 7.4026L77.7078 12.4049L74.1133 15.9205L73.5494 16.4718L73.6942 17.1743L74.7564 22.333L71.0368 25.9702L70.5982 26.3991L70.7108 26.9455L71.8054 32.2598L67.9603 36.0202L67.6469 36.3267L67.7271 36.7169L68.8539 42.1879L64.8832 46.0712L64.6952 46.2551L64.7434 46.4891L65.9021 52.1163L61.8062 56.1228L61.7434 56.184L61.7595 56.2621L62.9501 62.046L62.0744 56.2948L66.4444 52.4432L66.5639 52.3377L66.5375 52.1643L65.688 46.587L69.9385 42.8414L70.1775 42.6306L70.1247 42.284L69.3015 36.8799L73.4323 33.2398L73.791 32.9238L73.7116 32.4039L72.9148 27.1739L76.9255 23.6399L77.4037 23.2183L77.2982 22.5253L76.5278 17.4679Z" fill="#F2F2F2"/>
<path d="M83.5123 20.2285L87.9039 17.4689L88.5786 17.045L88.5876 16.1687L88.6377 11.2287L92.8943 8.55432L90.858 5.49195L86.0288 8.88776L85.2404 9.44225L85.2768 10.318L85.4902 15.4209L81.3776 18.3131L80.7325 18.7668L80.7625 19.4833L80.9823 24.7457L76.7267 27.7382L76.225 28.0908L76.2483 28.6482L76.4751 34.0695L72.0758 37.1632L71.7174 37.4154L71.734 37.8135L71.9669 43.3943L67.4241 46.5893L67.2091 46.7405L67.2192 46.9795L67.4589 52.7196L62.7724 56.016L62.7009 56.0664L62.7041 56.146L62.9502 62.046L63.0098 56.2289L67.9416 53.1293L68.0767 53.0444L68.0785 52.8692L68.1357 47.2277L72.9325 44.2136L73.2023 44.044L73.206 43.6934L73.2617 38.2274L77.9234 35.2982L78.328 35.0439L78.3336 34.5179L78.3868 29.2278L82.9132 26.3841L83.4532 26.0451L83.4603 25.344L83.5123 20.2285Z" fill="#F2F2F2"/>
<path d="M89.9623 24.0751L94.7403 22.0571L95.4744 21.7471L95.6239 20.8838L96.4669 16.016L101.098 14.0602L99.5798 10.7103L94.2679 13.2862L93.4007 13.707L93.296 14.5772L92.687 19.6481L88.1632 21.8418L87.4537 22.1861L87.3682 22.8981L86.7397 28.1275L82.0587 30.3972L81.5069 30.6649L81.4402 31.2186L80.7931 36.6058L75.9542 38.9525L75.5599 39.1438L75.5124 39.5395L74.8458 45.0855L69.8489 47.5089L69.6126 47.6237L69.5838 47.8611L68.8985 53.5653L63.7433 56.0656L63.6645 56.1038L63.655 56.183L62.9502 62.046L63.9433 56.3138L69.3092 54.047L69.4559 53.985L69.4859 53.8123L70.4487 48.2533L75.6675 46.0491L75.961 45.9251L76.0209 45.5795L76.9538 40.1934L82.0254 38.0514L82.4659 37.8654L82.5556 37.3471L83.4582 32.1343L88.3824 30.0548L88.9698 29.8068L89.0892 29.1159L89.9623 24.0751Z" fill="#F2F2F2"/>
<path d="M95.7107 28.9086L100.751 27.6843L101.525 27.4963L101.812 26.6679L103.425 21.9988L108.31 20.8125L107.35 17.2624L101.694 18.9515L100.77 19.2271L100.527 20.0694L99.1111 24.9765L94.2938 26.415L93.5381 26.6408L93.3392 27.3298L91.879 32.3901L86.8945 33.8785L86.3066 34.0539L86.152 34.5899L84.648 39.803L79.4949 41.342L79.075 41.4673L78.9645 41.85L77.4159 47.2169L72.0946 48.8063L71.8427 48.8814L71.7762 49.1112L70.1833 54.6311L64.6937 56.2708L64.6098 56.2959L64.5876 56.3724L62.9502 62.046L64.8511 56.5478L70.5115 55.1726L70.6663 55.1349L70.7235 54.9695L72.5669 49.6375L78.0719 48.3L78.3816 48.2249L78.496 47.8935L80.282 42.7271L85.6319 41.428L86.0966 41.3151L86.2683 40.8181L87.9965 35.8179L93.191 34.5564L93.8103 34.406L94.0395 33.7434L95.7107 28.9086Z" fill="#F2F2F2"/>
<path d="M100.608 34.6026L105.78 34.204L106.574 34.1428L106.99 33.3715L109.332 29.0223L114.345 28.6361L113.967 24.9778L108.113 25.736L107.157 25.8599L106.782 26.6521L104.596 31.268L99.6102 31.9137L98.8281 32.0153L98.5211 32.6634L96.267 37.4236L91.1081 38.0915L90.4996 38.1701L90.2609 38.6745L87.939 43.5781L82.6057 44.269L82.171 44.3255L82.0006 44.6855L79.6099 49.7337L74.1026 50.4473L73.8417 50.4811L73.7394 50.6971L71.2806 55.8896L65.5989 56.6259L65.5119 56.6372L65.4778 56.7092L62.9502 62.046L65.7097 56.9247L71.5174 56.4768L71.6762 56.4647L71.7593 56.3104L74.4352 51.3437L80.0836 50.9082L80.4012 50.8839L80.5676 50.5752L83.1601 45.7629L88.6493 45.34L89.1259 45.3031L89.3754 44.8401L91.8843 40.1826L97.2139 39.7724L97.8493 39.7233L98.1819 39.1063L100.608 34.6026Z" fill="#F2F2F2"/>
<path d="M104.527 41.0096L109.696 41.4472L110.49 41.5142L111.024 40.8196L114.035 36.9034L119.044 37.3278L119.259 33.6563L113.359 33.464L112.395 33.4327L111.898 34.1541L108.999 38.359L103.974 38.1954L103.186 38.1698L102.779 38.7602L99.7895 43.0962L94.5903 42.9266L93.977 42.9068L93.6605 43.366L90.5811 47.8331L85.2059 47.658L84.768 47.6437L84.5417 47.9719L81.3713 52.5703L75.8207 52.3899L75.558 52.3812L75.4222 52.5782L72.1613 57.308L66.435 57.1221L66.3474 57.1192L66.3023 57.1846L62.9502 62.046L66.4965 57.4347L72.3005 57.9256L72.4596 57.939L72.5664 57.8L76.0051 53.3279L81.6501 53.8057L81.9677 53.8326L82.1813 53.5548L85.5132 49.2215L90.9991 49.686L91.4755 49.7264L91.796 49.3096L95.0204 45.1155L100.347 45.5669L100.982 45.6207L101.409 45.0649L104.527 41.0096Z" fill="#F2F2F2"/>
<path d="M107.367 47.9629L112.397 49.2252L113.17 49.419L113.809 48.8192L117.41 45.4379L122.286 46.6613L123.088 43.0722L117.295 41.9344L116.349 41.7485L115.742 42.3808L112.206 46.0654L107.272 45.0965L106.499 44.9446L106.002 45.4619L102.355 49.2613L97.2503 48.2586L96.6484 48.1404L96.2622 48.5427L92.5052 52.4571L87.2279 51.4207L86.7979 51.3363L86.522 51.6238L82.6542 55.6533L77.2047 54.5833L76.9467 54.5324L76.7811 54.7049L72.8027 58.8494L67.1807 57.7459L67.0947 57.7291L67.0396 57.7863L62.9502 62.046L67.1912 58.0643L72.841 59.4814L72.9956 59.5202L73.1235 59.4002L77.2361 55.5388L82.7307 56.9174L83.0399 56.9949L83.2955 56.7549L87.2801 53.0132L92.6202 54.353L93.0839 54.4694L93.4672 54.1096L97.3234 50.4882L102.508 51.7892L103.126 51.9446L103.637 51.4645L107.367 47.9629Z" fill="#F2F2F2"/>
<path d="M109.052 55.2824L113.815 57.3365L114.546 57.652L115.273 57.1627L119.37 54.4034L123.986 56.3945L125.355 52.981L119.82 50.9271L118.916 50.5919L118.215 51.1184L114.133 54.1868L109.419 52.4379L108.68 52.1635L108.107 52.5943L103.897 55.7585L99.0196 53.9486L98.4443 53.7352L97.9986 54.0705L93.6616 57.3302L88.6195 55.4594L88.2085 55.3072L87.8902 55.5464L83.4252 58.9021L78.2183 56.9704L77.9717 56.8789L77.7807 57.0226L73.1884 60.4741L67.8166 58.4814L67.7343 58.4511L67.6707 58.4988L62.9502 62.046L67.7757 58.7974L73.1245 61.104L73.2709 61.1671L73.4163 61.0692L78.0957 57.9185L83.2978 60.162L83.5903 60.2884L83.8813 60.0924L88.4151 57.0398L93.4706 59.22L93.9095 59.4094L94.3458 59.1158L98.7334 56.1611L103.642 58.2783L104.227 58.5307L104.809 58.1393L109.052 55.2824Z" fill="#F2F2F2"/>
<path d="M109.539 62.7773L113.91 65.57L114.582 65.999L115.378 65.6328L119.865 63.5678L124.101 66.2746L126 63.1252L120.867 60.2087L120.029 59.7326L119.253 60.1399L114.731 62.5124L110.359 60.0291L109.673 59.6394L109.039 59.9726L104.375 62.4193L99.8518 59.8492L99.3184 59.5461L98.8244 59.8054L94.0203 62.3259L89.344 59.6692L88.9632 59.4529L88.6103 59.6379L83.6642 62.2328L78.8352 59.4893L78.6068 59.3596L78.395 59.4706L73.3079 62.1394L68.3259 59.3097L68.2497 59.2662L68.1793 59.3034L62.9502 62.046L68.2349 59.6149L73.1438 62.7509L73.278 62.8366L73.4374 62.7635L78.562 60.4055L83.3361 63.4557L83.6046 63.6275L83.9232 63.4808L88.8885 61.1961L93.5281 64.1606L93.9308 64.4181L94.4085 64.1981L99.214 61.9867L103.719 64.8652L104.256 65.2084L104.893 64.9153L109.539 62.7773Z" fill="#F2F2F2"/>
<path d="M108.817 70.2532L112.682 73.712L113.276 74.2433L114.121 74.0096L118.881 72.6927L122.628 76.045L125.008 73.2414L120.41 69.5383L119.659 68.9337L118.828 69.2107L113.983 70.8259L110.068 67.6725L109.453 67.1776L108.773 67.4045L103.777 69.07L99.7254 65.8067L99.2475 65.4218L98.7184 65.5983L93.5716 67.3142L89.3831 63.9409L89.0418 63.666L88.6638 63.7921L83.3651 65.5584L79.0397 62.075L78.835 61.9099L78.6081 61.9856L73.1583 63.8024L68.6957 60.209L68.6274 60.1538L68.552 60.1792L62.9502 62.046L68.5567 60.4957L72.8982 64.3795L73.0169 64.4858L73.1857 64.4392L78.6227 62.9353L82.8449 66.7128L83.0823 66.9254L83.4202 66.832L88.6881 65.3748L92.7911 69.046L93.1475 69.3647L93.6542 69.2246L98.7527 67.8141L102.736 71.3788L103.211 71.804L103.887 71.617L108.817 70.2532Z" fill="#F2F2F2"/>
<path d="M106.903 77.5162L110.162 81.5509L110.663 82.1708L111.534 82.0758L116.445 81.5409L119.604 85.4516L122.403 83.0669L118.46 78.6729L117.816 77.9557L116.951 78.0955L111.91 78.9114L108.552 75.1697L108.025 74.5828L107.317 74.6973L102.118 75.5385L98.6435 71.6666L98.2339 71.2099L97.6831 71.2991L92.3277 72.1659L88.7353 68.1631L88.4425 67.8371L88.0492 67.9007L82.5358 68.7928L78.826 64.6597L78.6504 64.464L78.4145 64.5022L72.7437 65.4197L68.9162 61.1557L68.8577 61.0906L68.7791 61.1032L62.9502 62.046L68.7329 61.4166L72.3942 65.9475L72.4941 66.0715L72.6685 66.0525L78.2763 65.4418L81.8368 69.8488L82.037 70.0967L82.3855 70.0587L87.8192 69.4668L91.2793 73.7497L91.5797 74.1217L92.1025 74.0647L97.3611 73.4915L100.72 77.6499L101.121 78.1459L101.818 78.0699L106.903 77.5162Z" fill="#F2F2F2"/>
<path d="M103.847 84.3769L106.416 88.8833L106.811 89.5755L107.686 89.6216L112.619 89.8825L115.109 94.2502L118.255 92.3461L115.068 87.3757L114.548 86.5643L113.672 86.5635L108.565 86.5587L105.851 82.3259L105.426 81.662L104.709 81.6614L99.4421 81.6564L96.6347 77.2764L96.3036 76.7599L95.7458 76.7594L90.3205 76.7546L87.4178 72.2266L87.1812 71.8578L86.7829 71.8573L81.1978 71.852L78.2001 67.1765L78.0582 66.9552L77.819 66.955L72.0745 66.9494L68.9816 62.126L68.9344 62.0521H68.8548L62.9502 62.046L68.759 62.3539L71.6446 67.4142L71.7237 67.5527L71.8986 67.5619L77.5317 67.8603L80.3382 72.7819L80.4962 73.0589L80.8462 73.0773L86.3042 73.3662L89.0312 78.1493L89.2681 78.5645L89.7932 78.5925L95.0756 78.8715L97.7232 83.5159L98.0389 84.0696L98.739 84.1068L103.847 84.3769Z" fill="#F2F2F2"/>
<path d="M99.7286 90.6578L101.541 95.5182L101.819 96.265L102.675 96.4512L107.502 97.5011L109.258 102.212L112.669 100.838L110.323 95.4206L109.94 94.5361L109.075 94.3945L104.035 93.5693L102.037 88.9556L101.723 88.2317L101.015 88.1159L95.8183 87.2649L93.7507 82.4908L93.5067 81.9276L92.9563 81.8376L87.6024 80.9611L85.4646 76.0257L85.2906 75.6235L84.8973 75.5591L79.3855 74.6564L77.1778 69.5599L77.0733 69.3188L76.8375 69.28L71.1682 68.3517L68.8906 63.0941L68.8556 63.0136L68.777 63.0007L62.9502 62.046L68.634 63.2832L70.6694 68.7416L70.7251 68.8909L70.8963 68.9281L76.4084 70.1276L78.3879 75.4362L78.4992 75.7348L78.8416 75.8094L84.1825 76.9714L86.1058 82.1304L86.2728 82.5786L86.7866 82.6902L91.9555 83.8148L93.8227 88.8239L94.0453 89.4212L94.7303 89.5702L99.7286 90.6578Z" fill="#F2F2F2"/>
<path d="M94.6551 96.1954L95.6627 101.284L95.8175 102.066L96.6328 102.387L101.228 104.199L102.205 109.131L105.792 108.323L104.346 102.598L104.11 101.664L103.279 101.385L98.4378 99.7611L97.2062 94.8859L97.0132 94.1214L96.3335 93.8932L91.3405 92.2182L90.0665 87.1739L89.9164 86.5791L89.3876 86.4015L84.2439 84.6763L82.9267 79.4614L82.8194 79.0367L82.4417 78.9098L77.1464 77.1334L75.7862 71.7483L75.7215 71.4935L75.495 71.4175L70.0488 69.5902L68.6451 64.0348L68.6234 63.9498L68.548 63.9245L62.9502 62.046L68.3615 64.1804L69.4936 69.8949L69.5247 70.0511L69.6877 70.1155L74.9355 72.1849L76.0365 77.7425L76.0985 78.0554L76.4245 78.1838L81.5093 80.1889L82.5788 85.5901L82.6717 86.0591L83.1609 86.252L88.0822 88.1921L89.1204 93.4364L89.2441 94.0618L89.8964 94.319L94.6551 96.1954Z" fill="#F2F2F2"/>
<path d="M88.7577 100.846L88.9349 106.03L88.9624 106.826L89.7152 107.275L93.9599 109.802L94.1316 114.826L97.8021 114.605L97.2946 108.723L97.2118 107.762L96.4363 107.354L91.9186 104.973L91.4863 99.9634L91.4185 99.1776L90.7842 98.8433L86.1251 96.3877L85.678 91.2041L85.6253 90.5929L85.1318 90.3328L80.3321 87.8036L79.8697 82.4449L79.832 82.0083L79.4796 81.8226L74.5386 79.2184L74.0609 73.6846L74.0382 73.4226L73.8267 73.3113L68.7448 70.6328L68.2515 64.924L68.2442 64.8367L68.1735 64.7995L62.9502 62.046L67.9485 65.0221L68.1479 70.8443L68.1534 71.0034L68.304 71.0931L73.1512 73.979L73.345 79.6413L73.3559 79.96L73.6571 80.1391L78.3539 82.9353L78.5419 88.438L78.5583 88.916L79.0101 89.1848L83.5558 91.8905L83.738 97.2334L83.7599 97.8707L84.3624 98.2292L88.7577 100.846Z" fill="#F2F2F2"/>
<path d="M82.19 104.488L81.5322 109.634L81.4312 110.424L82.1025 110.988L85.8861 114.164L85.2483 119.15L88.9067 119.522L89.3509 113.635L89.4234 112.673L88.7237 112.146L84.647 109.07L85.0249 104.056L85.0843 103.269L84.5117 102.837L80.3076 99.6653L80.699 94.4773L80.7451 93.8653L80.2999 93.5295L75.9689 90.2619L76.3733 84.8984L76.4063 84.4613L76.0882 84.2215L71.6295 80.8571L72.0471 75.3188L72.0669 75.0566L71.8759 74.9125L67.2901 71.4521L67.7203 65.7383L67.7269 65.651L67.6634 65.603L62.9502 62.046L67.4054 65.7866L66.6671 71.565L66.6471 71.7233L66.7811 71.8359L71.102 75.4628L70.3838 81.0829L70.3432 81.3992L70.6117 81.6245L74.7984 85.1387L74.1002 90.6003L74.0395 91.0746L74.4423 91.4128L78.4942 94.8136L77.8161 100.116L77.7351 100.749L78.2721 101.2L82.19 104.488Z" fill="#F2F2F2"/>
<path d="M75.1225 107.029L73.6468 112.001L73.4202 112.765L73.9921 113.429L77.2165 117.172L75.7859 121.991L79.3372 122.946L80.7211 117.206L80.9472 116.269L80.3413 115.636L76.8117 111.945L77.9902 107.057L78.1751 106.29L77.6794 105.772L74.0395 101.965L75.2592 96.9076L75.4029 96.3112L75.0173 95.9081L71.2674 91.9871L72.5282 86.7582L72.6308 86.3321L72.3554 86.0443L68.4953 82.0075L69.7969 76.6079L69.8584 76.3523L69.6933 76.1795L65.7229 72.0274L67.0654 66.4569L67.086 66.3717L67.0309 66.3142L62.9502 62.046L66.7468 66.4537L65.0898 72.0388L65.0445 72.1915L65.1589 72.3242L68.8408 76.5984L67.2292 82.0299L67.1385 82.3357L67.3674 82.6011L70.9351 86.7423L69.3686 92.0208L69.2325 92.4793L69.5756 92.8776L73.0288 96.8854L71.5074 102.01L71.3262 102.622L71.7838 103.153L75.1225 107.029Z" fill="#F2F2F2"/>
<path d="M67.7388 108.4L65.4834 113.071L65.137 113.789L65.5949 114.536L68.1761 118.748L65.99 123.275L69.3419 124.788L71.6298 119.345L72.0033 118.457L71.5072 117.734L68.6163 113.524L70.5645 108.889L70.8702 108.162L70.4642 107.57L67.4829 103.229L69.4994 98.4326L69.737 97.867L69.4213 97.4072L66.3501 92.9346L68.4341 87.9761L68.6039 87.5722L68.3784 87.2438L65.2167 82.639L67.3687 77.5188L67.4708 77.2764L67.3352 77.0793L64.0836 72.3432L66.3034 67.0607L66.3374 66.98L66.2923 66.9143L62.9502 62.046L65.9895 67.0064L63.4569 72.2527L63.3875 72.3962L63.4793 72.5455L66.4268 77.3558L63.9636 82.4581L63.8251 82.7451L64.0081 83.044L66.8642 87.7047L64.4703 92.6629L64.2624 93.0934L64.5373 93.5419L67.3015 98.0522L64.9769 102.866L64.6997 103.44L65.0661 104.038L67.7388 108.4Z" fill="#F2F2F2"/>
<path d="M60.2307 108.567L57.2542 112.815L56.7971 113.468L57.1289 114.279L59 118.851L56.1152 122.968L59.1804 125L62.3128 119.996L62.8243 119.179L62.4508 118.386L60.2737 113.766L62.9411 109.504L63.3597 108.835L63.054 108.186L60.8089 103.422L63.5694 99.0122L63.8949 98.4922L63.657 97.9876L61.344 93.0794L64.1977 88.5206L64.4301 88.1492L64.2602 87.7885L61.8795 82.7359L64.826 78.0277L64.9655 77.805L64.8634 77.5887L62.4147 72.3915L65.4542 67.5345L65.5007 67.4601L65.4666 67.3881L62.9501 62.046L65.153 67.4303L61.8106 72.2015L61.7194 72.3321L61.7856 72.4943L63.9223 77.7156L60.6715 82.3557L60.4887 82.6166L60.6213 82.9411L62.6916 88.0001L59.5323 92.5094L59.258 92.9011L59.4571 93.3876L61.4612 98.2838L58.3933 102.662L58.0275 103.184L58.2931 103.833L60.2307 108.567Z" fill="#F2F2F2"/>
<path d="M52.7933 107.526L49.1732 111.241L48.6172 111.811L48.8145 112.665L49.927 117.478L46.4182 121.079L49.117 123.577L53.0128 119.141L53.649 118.416L53.4074 117.574L52.0007 112.664L55.3183 108.886L55.8387 108.293L55.6412 107.604L54.1905 102.541L57.6236 98.6315L58.0285 98.1707L57.8747 97.6344L56.3802 92.4184L59.9289 88.3771L60.218 88.0479L60.1082 87.6648L58.57 82.2951L62.2344 78.1216L62.408 77.924L62.3423 77.6942L60.76 72.1712L64.5402 67.8656L64.598 67.7996L64.5761 67.7231L62.9503 62.046L64.2596 67.7144L60.1945 71.8866L60.0832 72.0008L60.1227 72.1715L61.3928 77.6684L57.439 81.7258L57.2166 81.954L57.2955 82.2956L58.5262 87.6216L54.6834 91.5645L54.3498 91.9071L54.4682 92.4194L55.6596 97.574L51.9287 101.402L51.4838 101.858L51.6415 102.542L52.7933 107.526Z" fill="#F2F2F2"/>
<path d="M45.6198 105.303L41.45 108.388L40.8093 108.862L40.8671 109.737L41.1917 114.666L37.1504 117.656L39.4129 120.555L43.9707 116.802L44.7148 116.19L44.6119 115.319L44.0122 110.247L47.8934 107.051L48.5022 106.55L48.418 105.838L47.7995 100.607L51.8158 97.3004L52.2895 96.9105L52.2241 96.3565L51.5866 90.9683L55.7385 87.5495L56.0769 87.271L56.0299 86.8753L55.3742 81.3282L59.6617 77.7979L59.8645 77.6307L59.8365 77.3932L59.1621 71.6877L63.5848 68.0455L63.6524 67.9896L63.6431 67.9104L62.9502 62.046L63.3322 67.8511L58.6496 71.316L58.5214 71.4107L58.533 71.5856L58.9036 77.2152L54.3492 80.5846L54.0931 80.7743L54.1161 81.1241L54.4753 86.5785L50.0494 89.853L49.6648 90.1374L49.6996 90.662L50.0475 95.9411L45.7498 99.12L45.2373 99.4991L45.2835 100.199L45.6198 105.303Z" fill="#F2F2F2"/>
<path d="M38.8964 101.957L34.2851 104.332L33.5766 104.697L33.493 105.569L33.0219 110.487L28.5527 112.788L30.3202 116.013L35.4216 113.042L36.2546 112.557L36.2926 111.681L36.5154 106.578L40.8596 104.047L41.5411 103.65L41.5723 102.934L41.8023 97.6721L46.2976 95.0537L46.8275 94.7448L46.852 94.1876L47.0883 88.767L51.7355 86.0596L52.114 85.8391L52.1314 85.4411L52.3752 79.8605L57.174 77.0648L57.4011 76.9324L57.4117 76.6937L57.6623 70.9538L62.6128 68.0695L62.6885 68.0252L62.6919 67.9458L62.9502 62.046L62.3947 67.8371L57.2162 70.5046L57.0746 70.5776L57.0577 70.752L56.5194 76.3679L51.4831 78.962L51.1998 79.1079L51.1663 79.4569L50.6446 84.8982L45.75 87.419L45.3251 87.6379L45.275 88.1613L44.7704 93.4277L40.0179 95.8749L39.4514 96.1666L39.3844 96.8646L38.8964 101.957Z" fill="#F2F2F2"/>
<path d="M32.7978 97.574L27.865 99.177L27.1072 99.4234L26.8846 100.271L25.6296 105.049L20.8486 106.603L22.0754 110.07L27.5877 107.956L28.4877 107.611L28.666 106.753L29.7055 101.753L34.3999 99.9526L35.1363 99.6703L35.2822 98.9681L36.3544 93.8115L41.2118 91.9494L41.7847 91.7299L41.8981 91.1836L43.0022 85.8713L48.024 83.9459L48.4331 83.7889L48.5141 83.399L49.6511 77.9301L54.8367 75.9416L55.082 75.8474L55.1308 75.6134L56.3003 69.9886L61.6497 67.9371L61.7317 67.9057L61.7478 67.8276L62.9503 62.046L61.4716 67.6727L55.9321 69.4734L55.7807 69.5227L55.7361 69.6921L54.3026 75.1486L48.915 76.8997L48.6117 76.9984L48.5228 77.3373L47.1338 82.6243L41.8979 84.326L41.4431 84.4737L41.3097 84.9823L39.9658 90.0991L34.8821 91.751L34.2757 91.948L34.0976 92.626L32.7978 97.574Z" fill="#F2F2F2"/>
<path d="M27.4823 92.268L22.3561 93.0576L21.5688 93.1789L21.2127 93.9798L19.2065 98.4941L14.238 99.2593L14.8919 102.879L20.6722 101.678L21.616 101.482L21.9299 100.664L23.759 95.8954L28.6816 94.8732L29.4537 94.7129L29.7106 94.0433L31.597 89.1257L36.6905 88.0682L37.2913 87.9437L37.491 87.4227L39.4341 82.3568L44.6999 81.2634L45.1287 81.1742L45.2714 80.8022L47.2723 75.5871L52.7098 74.4575L52.9672 74.4042L53.0527 74.181L55.1105 68.8168L60.7202 67.6516L60.8059 67.6337L60.8344 67.5593L62.9501 62.046L60.587 67.362L54.8299 68.2494L54.6724 68.2737L54.6012 68.4338L52.3099 73.5891L46.711 74.452L46.3961 74.5005L46.2537 74.8207L44.0336 79.8159L38.5922 80.654L38.1198 80.7268L37.9062 81.2074L35.7578 86.042L30.4749 86.8555L29.8448 86.9526L29.5599 87.5931L27.4823 92.268Z" fill="#F2F2F2"/>
<path d="M23.0887 86.1768L17.9021 86.1327L17.1053 86.1259L16.6255 86.8592L13.9201 90.9926L8.89331 90.9496L8.9574 94.6266L14.8551 94.3707L15.8184 94.329L16.2596 93.5717L18.8311 89.1589L23.8536 88.9408L24.6415 88.9068L25.0026 88.2871L27.6547 83.7364L32.8518 83.5111L33.4646 83.4845L33.7455 83.0025L36.4772 78.3147L41.8501 78.0815L42.2879 78.0622L42.4884 77.7182L45.3009 72.8921L50.8491 72.651L51.1118 72.6397L51.2323 72.4331L54.125 67.4694L59.8489 67.2203L59.9365 67.2166L59.9766 67.1478L62.9502 62.046L59.764 66.9133L53.9391 66.8642L53.7797 66.8629L53.6837 67.0093L50.594 71.7296L44.9292 71.6816L44.6106 71.679L44.4186 71.9723L41.4249 76.5457L35.9199 76.4987L35.4417 76.4948L35.1537 76.9348L32.2568 81.3612L26.9117 81.3153L26.2741 81.31L25.8901 81.8965L23.0887 86.1768Z" fill="#F2F2F2"/>
<path d="M19.7301 79.4587L14.6181 78.5819L13.8326 78.4471L13.2413 79.0939L9.90707 82.7388L4.95257 81.8888L4.42505 85.5284L10.2874 86.2235L11.2446 86.3369L11.8019 85.6603L15.0486 81.7181L20.0413 82.3098L20.8244 82.4027L21.2802 81.8492L24.6287 77.7839L29.7947 78.3965L30.4037 78.4687L30.7585 78.038L34.2077 73.85L39.5483 74.4828L39.9833 74.5345L40.2365 74.2269L43.7878 69.9155L49.3028 70.5692L49.5639 70.6L49.7158 70.4154L53.3684 65.981L59.0577 66.655L59.1448 66.6653L59.1954 66.6038L62.9501 62.046L59.0232 66.3382L53.2821 65.3537L53.1252 65.3268L53.0068 65.4561L49.1991 69.6187L43.6155 68.6609L43.3014 68.6071L43.0648 68.8659L39.3753 72.899L33.9492 71.9681L33.4779 71.8874L33.1231 72.2754L29.5526 76.1787L24.2842 75.2747L23.6559 75.1671L23.1827 75.6844L19.7301 79.4587Z" fill="#F2F2F2"/>
<path d="M17.4946 72.2886L12.5897 70.6016L11.8364 70.3426L11.1488 70.8857L7.27227 73.9476L2.51876 72.3126L1.41333 75.8202L7.0879 77.4481L8.01449 77.714L8.67311 77.1355L12.5111 73.7664L17.3437 75.1526L18.1018 75.37L18.6407 74.897L22.5987 71.4223L27.5991 72.8571L28.1888 73.0262L28.6079 72.6582L32.6849 69.0785L37.8546 70.5615L38.2759 70.6824L38.5752 70.4193L42.7727 66.7347L48.111 68.2657L48.364 68.338L48.5436 68.1805L52.8608 64.3904L58.3682 65.9697L58.4526 65.994L58.5124 65.9412L62.9502 62.046L58.3851 65.6516L52.8767 63.7575L52.7258 63.7055L52.5884 63.8142L48.1614 67.3108L42.8041 65.4685L42.5029 65.3651L42.2278 65.5822L37.9385 68.9703L32.7321 67.1797L32.28 67.0243L31.8675 67.3501L27.7164 70.6293L22.6617 68.8907L22.059 68.6833L21.5088 69.1178L17.4946 72.2886Z" fill="#F2F2F2"/>
<path d="M16.4397 64.852L11.8695 62.399L11.1674 62.0223L10.4014 62.4478L6.08366 64.8472L1.65431 62.4697L0 65.7542L5.33933 68.2726L6.21132 68.6838L6.95434 68.219L11.2835 65.5102L15.8307 67.6548L16.5439 67.9911L17.1519 67.6107L21.6166 64.8172L26.3216 67.0367L26.8765 67.2984L27.3492 67.0024L31.9484 64.1244L36.8127 66.4187L37.2089 66.6057L37.5467 66.3944L42.2815 63.4317L47.3046 65.8006L47.5425 65.9127L47.7451 65.7861L52.6152 62.739L57.7973 65.1825L57.8767 65.22L57.9442 65.1778L62.9501 62.046L57.8651 64.8712L52.7325 62.1167L52.592 62.0413L52.4387 62.1265L47.5077 64.8665L42.516 62.1872L42.2351 62.0365L41.9289 62.2069L37.1508 64.8617L32.3 62.2578L31.8788 62.0318L31.419 62.2871L26.7953 64.8567L22.0856 62.3285L21.5237 62.027L20.911 62.3676L16.4397 64.852Z" fill="#F2F2F2"/>
<path d="M16.5931 57.3429L12.4763 54.1874L11.844 53.7028L11.0195 53.9998L6.3723 55.6741L2.38264 52.6157L0.222168 55.5918L5.08752 58.9354L5.88197 59.4814L6.69013 59.1419L11.3983 57.1637L15.542 60.0111L16.1919 60.4577L16.8529 60.18L21.7085 58.1403L25.9956 61.0869L26.5013 61.4343L27.0156 61.2182L32.0173 59.1166L36.4498 62.1624L36.8109 62.4106L37.1783 62.2563L42.3275 60.0929L46.9048 63.2381L47.1216 63.3872L47.3419 63.2946L52.6382 61.0695L57.3606 64.3139L57.4329 64.3635L57.5062 64.3328L62.9502 62.046L57.4774 64.0174L52.854 60.4741L52.7274 60.3773L52.5625 60.4366L47.2553 62.3486L42.7587 58.9024L42.5058 58.7085L42.1761 58.8272L37.0338 60.6798L32.6641 57.3307L32.2848 57.0398L31.79 57.2181L26.8133 59.0113L22.571 55.759L22.0651 55.3713L21.4054 55.6089L16.5931 57.3429Z" fill="#F2F2F2"/>
<path d="M17.9506 49.9556L14.3943 46.1799L13.8481 45.5998L12.9866 45.7605L8.13077 46.6666L4.68394 43.007L2.07349 45.5972L6.33878 49.6791L7.03511 50.3455L7.88732 50.1403L12.8521 48.9442L16.4844 52.4205L17.0544 52.9657L17.7515 52.798L22.8714 51.5647L26.6297 55.1618L27.0731 55.586L27.6154 55.4552L32.8896 54.1845L36.7753 57.9032L37.0918 58.206L37.4793 58.1126L42.9091 56.805L46.9217 60.6448L47.1118 60.8265L47.3442 60.7706L52.9291 59.4252L57.0688 63.3864L57.1322 63.447L57.2097 63.4283L62.9502 62.046L57.2319 63.1125L53.2374 58.8723L53.1283 58.7563L52.956 58.7884L47.4104 59.823L43.526 55.6989L43.3076 55.467L42.9629 55.5314L37.5898 56.5338L33.8151 52.5257L33.4872 52.1778L32.9703 52.2741L27.7702 53.2446L24.1052 49.3531L23.6682 48.8891L22.979 49.0175L17.9506 49.9556Z" fill="#F2F2F2"/>
<path d="M20.4772 42.8828L17.5737 38.5845L17.1274 37.9243L16.2515 37.9443L11.3133 38.0585L8.49923 33.8924L5.50659 36.0297L9.06052 40.7439L9.64079 41.5137L10.5149 41.448L15.6073 41.0652L18.6343 45.0799L19.109 45.7096L19.8241 45.6558L25.0756 45.2614L28.2072 49.4156L28.5768 49.9055L29.133 49.8635L34.5428 49.4568L37.7807 53.7513L38.0445 54.1014L38.4417 54.0713L44.0113 53.6529L47.355 58.0875L47.5133 58.2975L47.7517 58.2796L53.4801 57.8493L56.9298 62.424L56.9828 62.4939L57.0622 62.4881L62.9502 62.046L57.1348 62.1798L53.8734 57.3531L53.7842 57.221L53.6091 57.2249L47.9696 57.3553L44.7979 52.6605L44.6195 52.3965L44.269 52.4047L38.8047 52.5307L35.7226 47.9682L35.4549 47.5722L34.9292 47.5844L29.6411 47.7065L26.6487 43.2766L26.2918 42.7485L25.591 42.7646L20.4772 42.8828Z" fill="#F2F2F2"/>
<path d="M24.1069 36.3075L21.9314 31.5985L21.5972 30.8752L20.7294 30.7544L15.8369 30.0735L13.7287 25.5096L10.4314 27.1383L13.1822 32.3622L13.6314 33.2153L14.5044 33.2907L19.5924 33.7313L21.9348 38.1799L22.3025 38.8779L23.0168 38.9396L28.2635 39.3941L30.6872 43.9976L30.9732 44.5405L31.5289 44.5885L36.9339 45.0562L39.4399 49.8153L39.6441 50.2028L40.041 50.2373L45.6053 50.719L48.1934 55.6332L48.3158 55.8659L48.5539 55.8867L54.2773 56.3821L56.9474 61.452L56.9882 61.5295L57.0676 61.5364L62.95 62.046L57.1887 61.2438L54.7449 55.9556L54.6782 55.811L54.5047 55.7867L48.9174 55.0091L46.5412 49.8659L46.4074 49.5765L46.0603 49.5283L40.6466 48.7749L38.3374 43.7765L38.1369 43.3426L37.6163 43.27L32.3769 42.5412L30.1349 37.6879L29.8677 37.1091L29.1732 37.0126L24.1069 36.3075Z" fill="#F2F2F2"/>
<path d="M28.7461 30.4009L27.3553 25.4036L27.1416 24.6359L26.3044 24.3772L21.5847 22.9192L20.2369 18.0757L16.7212 19.1535L18.5968 24.7515L18.9033 25.6658L19.7529 25.8805L24.7037 27.1327L26.3015 31.9L26.5521 32.6479L27.2471 32.8238L32.3528 34.1151L34.0058 39.0483L34.2007 39.6299L34.7414 39.7669L40.0011 41.0969L41.71 46.1966L41.8492 46.612L42.2356 46.7099L47.6502 48.0795L49.4152 53.3456L49.4989 53.5949L49.7304 53.6537L55.2998 55.0624L57.1208 60.4952L57.1487 60.5783L57.226 60.5978L62.9502 62.046L57.3924 60.3285L55.8302 54.7165L55.7872 54.563L55.62 54.5113L50.2303 52.846L48.711 47.3878L48.6253 47.0808L48.2906 46.9771L43.0683 45.3638L41.5921 40.0594L41.4639 39.5986L40.9614 39.4434L35.9072 37.8823L34.4742 32.732L34.3033 32.1179L33.6333 31.9108L28.7461 30.4009Z" fill="#F2F2F2"/>
<path d="M34.2734 25.3163L33.7034 20.1604L33.6158 19.3685L32.8312 18.9786L28.4071 16.7812L27.8548 11.7842L24.2114 12.283L25.1636 18.1097L25.319 19.0612L26.1232 19.4097L30.8086 21.4411L31.6197 26.4034L31.7471 27.1818L32.4049 27.467L37.2368 29.5618L38.0758 34.6965L38.1747 35.3019L38.6864 35.5237L43.6641 37.6816L44.5319 42.9899L44.6026 43.4222L44.9681 43.5808L50.0922 45.8027L50.9885 51.2841L51.031 51.5436L51.2502 51.6386L56.5209 53.9238L57.4457 59.5788L57.4596 59.6653L57.533 59.6969L62.9501 62.046L57.7405 59.458L57.0999 53.6677L57.0822 53.5092L56.9253 53.4313L51.8732 50.9216L51.2504 45.2904L51.2153 44.9736L50.9015 44.8174L46.0063 42.3861L45.401 36.9131L45.3485 36.438L44.8777 36.2041L40.1397 33.851L39.5526 28.5374L39.4827 27.9038L38.8547 27.592L34.2734 25.3163Z" fill="#F2F2F2"/>
<path d="M40.5459 21.1861L40.8116 16.0054L40.8522 15.2096L40.1403 14.6989L36.1266 11.8193L36.3843 6.79825L32.708 6.70513L32.712 12.6094L32.7125 13.5733L33.4502 14.0465L37.7488 16.8045L37.7522 21.8323L37.7527 22.6211L38.3562 23.0083L42.7887 25.8526L42.7921 31.0551L42.7924 31.6687L43.2619 31.9699L47.8284 34.8996L47.8321 40.2781L47.8324 40.7162L48.1676 40.9315L52.8686 43.9477L52.8726 49.5019L52.8728 49.7649L53.0741 49.8939L57.9091 52.9963L57.9133 58.7265L57.9136 58.814L57.9806 58.857L62.9501 62.046L58.224 58.6544L58.5216 52.8365L58.5297 52.6774L58.3873 52.5751L53.8039 49.2864L54.0938 43.6283L54.1102 43.3099L53.8253 43.1054L49.3843 39.9191L49.6663 34.42L49.6906 33.9426L49.2635 33.636L44.9653 30.5523L45.2391 25.2134L45.2718 24.5769L44.7023 24.168L40.5459 21.1861Z" fill="#F2F2F2"/>
<path d="M47.4004 18.1171L48.4948 13.0465L48.6628 12.2675L48.0422 11.6489L44.5431 8.1618L45.6039 3.24733L41.9904 2.5649L41.0459 8.39315L40.8918 9.34465L41.5439 9.93027L45.3434 13.343L44.5391 18.3062L44.4128 19.0847L44.9464 19.564L48.8646 23.0833L48.0321 28.2188L47.934 28.8245L48.3489 29.1972L52.3855 32.8225L51.5251 38.1319L51.4552 38.5645L51.7514 38.8307L55.9067 42.5631L55.0187 48.0457L54.9765 48.3053L55.1545 48.4649L59.4282 52.3039L58.5122 57.9601L58.4982 58.0467L58.5576 58.0999L62.9502 62.046L58.8303 57.9393L60.0586 52.2445L60.0924 52.0889L59.9681 51.9652L55.9724 47.9827L57.1675 42.4444L57.2348 42.1328L56.9863 41.8854L53.1148 38.0269L54.2764 32.6447L54.3772 32.1773L54.0048 31.8061L50.2578 28.0718L51.3859 22.8461L51.5204 22.223L51.0237 21.7282L47.4004 18.1171Z" fill="#F2F2F2"/>
<path d="M54.6587 16.1893L56.5533 11.3603L56.8442 10.6185L56.331 9.90811L53.4378 5.90426L55.2741 1.22404L51.8172 -0.0300326L49.9487 5.57056L49.6436 6.48513L50.1932 7.16783L53.395 11.1466L51.804 15.9163L51.5545 16.6644L52.004 17.2231L55.306 21.3261L53.6593 26.2614L53.4652 26.8434L53.8149 27.2781L57.2167 31.5046L55.5149 36.6069L55.3762 37.0226L55.6259 37.3328L59.1276 41.6844L57.3705 46.9531L57.2871 47.2027L57.4369 47.3889L61.0388 51.8647L59.226 57.3001L59.1983 57.3835L59.2482 57.4455L62.9501 62.046L59.5433 57.3305L61.6706 51.9074L61.7286 51.7589L61.626 51.617L58.3218 47.0441L60.3911 41.7698L60.5074 41.4733L60.3022 41.189L57.1009 36.7586L59.1118 31.6328L59.2864 31.1878L58.9783 30.7615L55.8797 26.4738L57.8326 21.4973L58.0655 20.9038L57.6548 20.3356L54.6587 16.1893Z" fill="#F2F2F2"/>
</g>
</g>
<path d="M80.5457 73.4738C75.5158 87.2771 60.2267 94.3992 46.4235 89.3692C32.5947 84.33 25.4724 69.041 30.5024 55.2377C35.5417 41.4088 50.8307 34.2867 64.6594 39.326C78.4627 44.3559 85.585 59.6449 80.5457 73.4738Z" fill="#31445B"/>
<path d="M80.5524 73.4824C75.523 87.2709 60.2307 94.4003 46.4196 89.3684C39.8631 86.9854 34.8145 82.2974 31.8562 76.5371C45.9488 90.9027 70.1926 85.5434 77.0498 66.7444C79.189 60.8885 79.1922 54.7764 77.4821 49.257C82.1791 56.1154 83.6141 65.0686 80.5524 73.4824Z" fill="#1D2943"/>
<path d="M78.3449 43.298C77.5655 44.7818 73.1641 43.9139 68.5433 41.3125C64.1652 38.8477 61.43 35.7889 62.3601 34.4964C63.2679 33.235 67.3974 34.0588 71.6323 36.3412C76.0957 38.7467 79.1044 41.852 78.3449 43.298Z" fill="#31445B"/>
<path d="M59.0225 38.9697C58.0101 40.3745 60.7822 43.6792 65.2988 46.3352C70.0728 49.1427 74.6661 50.0645 75.5191 48.4436L78.345 43.298C77.5657 44.7818 73.1643 43.9139 68.5435 41.3125C64.1654 38.8477 61.4301 35.7889 62.3602 34.4964L59.0225 38.9697Z" fill="#111D33"/>
<path d="M75.9025 41.7034C75.3797 42.5962 72.4138 41.9208 69.2287 40.1467C66.1472 38.4302 64.0919 36.329 64.6542 35.4826C65.2113 34.6439 68.1514 35.3293 71.1943 37.0003C74.3388 38.7271 76.4205 40.8189 75.9025 41.7034Z" fill="#111D33"/>
<g opacity="0.7">
<path d="M44.9683 46.201C41.2237 48.7114 38.8162 51.3779 37.7504 49.9495C36.6959 48.5361 38.8542 45.281 42.5988 42.7706C46.3432 40.2603 49.9719 39.9458 51.0264 41.3592C52.0922 42.7876 48.7128 43.6907 44.9683 46.201Z" fill="white"/>
</g>
<g opacity="0.7">
<path d="M56.6746 40.6788C56.6104 41.4767 55.6579 42.0488 54.5621 41.9723C53.4662 41.8958 52.6334 41.1992 52.6976 40.4013C52.7604 39.6198 53.6952 39.0464 54.7911 39.1229C55.887 39.1993 56.7374 39.8973 56.6746 40.6788Z" fill="white"/>
</g>
<path d="M51.9016 60.767C51.2915 60.5593 50.688 60.4482 50.0672 60.4908C50.1903 60.8704 50.202 61.2438 50.0878 61.5981C48.4901 62.553 46.6226 63.6097 44.7051 64.5449L44.6903 64.532C44.3381 63.6415 43.7058 62.9087 42.8177 62.4848C42.6021 62.3747 42.3749 62.2932 42.1357 62.2404C42.6024 59.0926 43.7177 55.5801 45.115 53.5148C48.0747 54.1156 51.9126 57.3004 53.0486 60.3141C52.717 60.5309 52.2988 60.6981 51.9016 60.767Z" fill="#FFD475"/>
<path d="M52.1527 60.6951C52.4696 60.6097 52.7865 60.4852 53.0485 60.3141C51.9124 57.3004 48.0746 54.1154 45.1147 53.5147C44.974 53.723 44.838 53.9558 44.7034 54.1916C48.2374 55.4391 50.6935 57.8157 52.1527 60.6951Z" fill="#FFB961"/>
<path d="M39.4671 62.5342C38.54 62.9581 37.7213 63.7488 37.2236 64.7807C37.1149 65.0099 37.0205 65.252 36.9537 65.4921C34.8906 64.3033 33.5253 62.5814 32.7927 60.3868C33.5169 56.1935 35.4315 54.2051 38.0882 53.5379L37.9738 55.3058C37.7693 55.5555 37.5951 55.8445 37.4522 56.1869C37.6609 56.2003 37.8608 56.2835 38.0494 56.4092C38.1082 56.8625 38.1532 57.3167 38.1402 57.7333C37.7168 58.0257 37.3957 58.3942 37.1619 58.826C37.4159 58.8916 37.6175 59.0027 37.7384 59.1466C37.9881 58.9495 38.2444 58.8487 38.4918 58.8179C38.7214 60.1463 39.0428 61.3993 39.4671 62.5342Z" fill="#FFD475"/>
<path d="M38.0414 54.2619L38.0881 53.5378C35.4314 54.2051 33.517 56.1936 32.7927 60.3866C32.982 60.9534 33.217 61.4856 33.4919 61.9886C33.4007 58.8061 35.012 55.563 38.0414 54.2619Z" fill="#FFB961"/>
<path d="M40.1986 70.9793C40.0075 72.0317 39.7051 73.078 39.3756 73.9319C38.318 73.4641 37.8311 75.2575 38.9097 75.6269C38.7519 76.3584 38.55 77.0512 38.3039 77.7057L37.2899 77.8722C34.1844 75.6322 32.5338 72.7798 31.9087 69.5244L37.0895 68.6841C37.4377 69.5194 38.0682 70.2244 38.9131 70.6239C39.3154 70.8318 39.7524 70.9405 40.1986 70.9793Z" fill="#FFD475"/>
<path d="M32.7486 69.3881L31.9087 69.5245C32.5339 72.7796 34.1844 75.6322 37.29 77.8723L37.9852 77.7582C35.2686 75.6037 33.5506 72.6299 32.7486 69.3881Z" fill="#FFB961"/>
<path d="M52.498 71.286C51.6541 73.9353 50.4978 76.2735 48.9104 78.1838C48.4778 77.9364 48.0798 77.5895 47.7038 77.158C47.9455 75.6309 47.1638 74.1323 45.981 75.0728C44.8566 73.8332 43.4115 72.1586 42.2773 70.5733C43.2035 70.1356 44.0085 69.3461 44.5179 68.2855C44.5537 68.2 44.5894 68.1143 44.6112 68.0295L44.6507 67.9993C46.3404 68.5902 49.0885 68.6512 52.4935 68.39C51.9515 69.1754 51.3784 70.1155 51.225 70.7079C51.183 70.905 51.5148 71.2979 51.6877 71.1891C51.9411 71.0469 52.2374 71.1237 52.498 71.286Z" fill="#FFD475"/>
<path d="M51.7492 71.1792C51.0826 73.6033 49.9329 75.8742 48.3359 77.7755C48.5216 77.9298 48.7114 78.0699 48.9105 78.1839C50.498 76.2734 51.6544 73.9353 52.4981 71.286C52.2574 71.1361 51.9889 71.0779 51.7492 71.1792Z" fill="#FFB961"/>
<path d="M41.9742 68.1725C40.9816 68.8724 39.7498 68.7958 39.2008 68.0157C38.5294 67.0529 39.3285 65.2716 40.3974 65.4518C41.6612 65.6648 42.2847 64.7961 42.7822 65.503C43.3305 66.2707 42.9668 67.4726 41.9742 68.1725Z" fill="#FFD475"/>
<g opacity="0.1">
<path d="M69.8567 84.4752C64.4454 88.1039 57.8065 87.6753 55.0122 83.5187C52.2306 79.381 54.3466 73.0814 59.7578 69.4527C65.1693 65.8239 71.8302 66.2377 74.6118 70.3755C77.4061 74.5321 75.2682 80.8464 69.8567 84.4752Z" fill="white"/>
</g>
<path d="M90.8836 36.0571L83.7256 42.6815C82.0249 40.6953 78.837 38.4412 77.6012 38.7826C75.6529 39.3517 74.6516 41.1705 74.6299 41.1875C74.2544 41.867 72.3061 41.4572 69.4755 39.7469C67.1001 38.3259 65.7586 37.1523 65.9685 36.8194C66.3064 36.2835 68.8734 31.2139 74.8823 29.4473C83.018 27.0938 90.0756 35.1182 90.8836 36.0571Z" fill="#FFB961"/>
<path d="M88.6572 40.9884C86.6124 42.8808 84.4285 43.576 83.7256 42.6815C83.0227 41.787 84.0011 39.5576 86.0459 37.6652C87.9977 35.8589 90.1808 35.1626 90.8837 36.0571C91.5866 36.9516 90.609 39.1821 88.6572 40.9884Z" fill="#FFD475"/>
<path d="M82.1347 38.9685C81.7651 39.0656 80.9832 38.3032 81.0222 37.9144C81.3915 37.8365 82.1736 38.5989 82.1347 38.9685Z" fill="#F3A250"/>
<path d="M84.0271 36.9525C82.6853 36.272 81.8883 35.7083 80.7798 34.6582C82.277 34.3859 83.8132 35.4747 84.0271 36.9525Z" fill="#F3A250"/>
<path d="M71.2326 32.3831C72.0492 31.7804 72.9048 31.4693 73.9741 31.5469C73.0603 32.8692 71.9713 32.8305 70.7076 33.3361C70.6103 32.9471 70.9796 32.5775 71.2326 32.3831Z" fill="#F3A250"/>
<path d="M73.391 34.3275C71.9132 35.2805 70.9604 35.9608 69.5408 36.972C69.7159 35.2221 71.6799 33.8804 73.391 34.3275Z" fill="#F3A250"/>
<path d="M75.0437 33.3166C75.4909 32.3831 76.7743 32.3249 77.3185 33.1999C76.4047 33.6665 75.9965 33.686 75.0437 33.3166Z" fill="#F3A250"/>
<path d="M86.088 36.4469C85.2714 35.8832 84.4355 35.6888 84.2019 34.5414C85.1741 34.5219 86.5546 35.4165 86.088 36.4469Z" fill="#F3A250"/>
<path d="M78.777 36.8749C78.0967 36.9525 77.0856 37.0498 76.4243 37.1861C75.6856 37.361 75.0049 37.361 74.5188 38.0999C74.2467 36.0387 77.6106 35.6693 78.777 36.8749Z" fill="#F3A250"/>
<path d="M81.7715 32.9081C80.2742 32.6943 79.3604 32.4415 77.9604 31.8778C79.2244 31.0415 81.1104 31.5469 81.7715 32.9081Z" fill="#F3A250"/>
<path d="M71.279 56.771C71.1802 56.8102 70.4233 56.5882 69.5482 56.3155C69.371 56.2388 69.2043 56.4355 69.2684 56.6384C70.0347 58.4882 70.6774 60.191 70.5844 60.2443C70.4435 60.2185 69.6063 58.6418 68.7721 56.8679C68.6515 56.6874 68.4375 56.7233 68.3523 56.9202C68.0063 57.7754 67.6799 58.5573 67.5815 58.5964C67.5423 58.4976 67.7866 57.7156 68.0627 56.8067C68.0801 56.604 67.9399 56.4148 67.7677 56.5158C65.9348 57.3244 64.3021 58.0209 64.2517 57.8939C64.2634 57.7586 65.8177 56.8649 67.5017 55.9686C67.6795 55.8817 67.6519 55.6479 67.4889 55.5658C66.6312 55.1719 65.9137 54.8854 65.8745 54.7866C65.9874 54.7419 66.7443 54.9639 67.6051 55.2423C67.7966 55.3133 67.9491 55.1222 67.885 54.9194C67.1188 53.0695 66.4759 51.3667 66.5691 51.3134C66.7044 51.3251 67.5557 52.8962 68.3758 54.6757C68.502 54.8702 68.7301 54.8287 68.8265 54.66C69.1245 53.8075 69.4366 53.113 69.5606 53.0148C69.549 53.1498 69.3413 53.9012 69.1161 54.7736C69.0452 54.9649 69.2277 55.1373 69.4 55.0363C71.182 54.2642 72.8655 53.5311 72.9074 53.6778C72.8901 53.799 71.3441 54.6731 69.6463 55.5749C69.474 55.6759 69.479 55.935 69.6561 56.0116C70.5364 56.3802 71.2566 56.7146 71.279 56.771Z" fill="white"/>
<path d="M108.772 106.248L113.398 104.988C115.007 104.549 115.542 102.536 114.363 101.357L111.035 98.0298C110.484 97.479 110.271 96.6752 110.476 95.9236L111.499 92.167C111.94 90.5465 110.454 89.0598 108.833 89.5012L105.076 90.5244C104.325 90.7291 103.521 90.5157 102.97 89.9648L99.6429 86.6373C98.4637 85.4581 96.4508 85.9931 96.0125 87.6021L94.7523 92.228C94.55 92.9702 93.9704 93.5501 93.2279 93.7524L88.602 95.0126C86.993 95.4509 86.4583 97.4641 87.6372 98.643L90.9647 101.971C91.5156 102.521 91.7292 103.325 91.5243 104.077L90.5008 107.833C90.0594 109.454 91.5461 110.94 93.1666 110.499L96.9232 109.476C97.6749 109.271 98.4786 109.484 99.0295 110.035L102.357 113.363C103.536 114.542 105.549 114.007 105.987 112.398L107.248 107.772C107.45 107.03 108.03 106.45 108.772 106.248Z" fill="url(#paint7_linear_460_51086)"/>
<path d="M95.1352 102.275L94.3643 105.2C94.0961 106.217 95.0273 107.145 96.0434 106.872L98.9108 106.104C99.3855 105.977 99.892 106.114 100.238 106.463L101.967 108.207C102.713 108.96 103.994 108.617 104.265 107.592L104.891 105.217C105.016 104.742 105.386 104.37 105.861 104.243L108.728 103.475C109.744 103.203 110.087 101.934 109.347 101.187L107.217 99.0392C106.876 98.6946 106.742 98.195 106.865 97.7257L107.636 94.8008C107.904 93.7837 106.973 92.8564 105.957 93.1285L103.089 93.8965C102.615 94.0237 102.108 93.8868 101.762 93.5378L100.033 91.7936C99.287 91.0412 98.0057 91.3843 97.7357 92.4088L97.1097 94.7839C96.9845 95.2591 96.6142 95.6307 96.1395 95.7579L93.2718 96.526C92.2558 96.7981 91.9129 98.0668 92.6535 98.8136L94.7831 100.961C95.125 101.306 95.2589 101.806 95.1352 102.275Z" fill="url(#paint8_linear_460_51086)"/>
<path d="M97.0588 104.903L97.8538 107.822C98.1303 108.837 99.4003 109.174 100.144 108.43L102.243 106.331C102.591 105.984 103.098 105.849 103.572 105.978L105.942 106.624C106.964 106.902 107.902 105.964 107.624 104.942L106.978 102.572C106.849 102.098 106.984 101.591 107.331 101.243L109.43 99.1441C110.174 98.4002 109.837 97.1304 108.822 96.8537L105.903 96.0587C105.435 95.9313 105.069 95.5653 104.942 95.097L104.147 92.1785C103.87 91.1635 102.6 90.826 101.856 91.57L99.7572 93.6691C99.4097 94.0166 98.9027 94.1512 98.4285 94.0222L96.0586 93.3767C95.0364 93.0982 94.0983 94.0361 94.3768 95.0585L95.0223 97.4284C95.1516 97.9026 95.0167 98.4096 94.6692 98.7571L92.5701 100.856C91.8261 101.6 92.1636 102.87 93.1787 103.147L96.0971 103.942C96.5654 104.069 96.9311 104.435 97.0588 104.903Z" fill="url(#paint9_linear_460_51086)"/>
<path d="M104.273 102.631L106.221 102.101C106.898 101.916 107.124 101.068 106.627 100.572L105.226 99.1705C104.994 98.9385 104.904 98.6002 104.99 98.2837L105.421 96.7019C105.607 96.0195 104.981 95.3935 104.299 95.5794L102.717 96.0102C102.4 96.0964 102.062 96.0067 101.83 95.7746L100.429 94.3733C99.9324 93.8768 99.0845 94.102 98.9001 94.7795L98.3695 96.7276C98.2844 97.0402 98.0402 97.2843 97.7276 97.3695L95.7796 97.9001C95.102 98.0847 94.8768 98.9323 95.3733 99.4288L96.7746 100.83C97.0065 101.062 97.0965 101.4 97.0103 101.717L96.5795 103.299C96.3935 103.981 97.0195 104.607 97.702 104.421L99.2838 103.99C99.6002 103.904 99.9388 103.994 100.171 104.226L101.572 105.627C102.068 106.124 102.916 105.899 103.101 105.221L103.631 103.273C103.716 102.96 103.96 102.716 104.273 102.631Z" fill="url(#paint10_linear_460_51086)"/>
<path d="M107.218 104.999L110.92 103.991C112.207 103.64 112.635 102.03 111.691 101.086L109.029 98.4238C108.588 97.9829 108.417 97.34 108.581 96.7386L109.4 93.7332C109.753 92.4365 108.564 91.2471 107.267 91.6005L104.262 92.4194C103.661 92.5832 103.018 92.4122 102.577 91.9716L99.9145 89.3093C98.971 88.3661 97.3605 88.7939 97.0099 90.0813L96.0018 93.7822C95.84 94.3761 95.376 94.84 94.7824 95.0016L91.0812 96.0097C89.794 96.3603 89.366 97.9711 90.3095 98.9144L92.9718 101.577C93.4126 102.017 93.5834 102.66 93.4196 103.262L92.6007 106.267C92.2476 107.564 93.437 108.753 94.7334 108.4L97.7388 107.581C98.3402 107.417 98.9831 107.588 99.4239 108.029L102.086 110.691C103.029 111.634 104.64 111.207 104.991 109.919L105.999 106.218C106.161 105.625 106.624 105.161 107.218 104.999Z" fill="url(#paint11_linear_460_51086)"/>
<g filter="url(#filter0_b_460_51086)">
<g clip-path="url(#clip2_460_51086)">
<path d="M28.3459 35H22.13C19.0403 35 16.5356 37.5047 16.5356 40.5943C16.5356 43.684 19.0403 46.1886 22.13 46.1886H28.3459C31.4355 46.1886 33.9402 43.684 33.9402 40.5943C33.9402 37.5047 31.4355 35 28.3459 35Z" fill="url(#paint12_linear_460_51086)" fill-opacity="0.15"/>
<path d="M21.4635 41.0638L20.5154 39.7117H21.3504L21.873 40.4982H21.9053L22.3955 39.7117H23.2574L22.2932 41.0638L23.2574 42.4591H22.4224L21.8945 41.6564H21.8622L21.345 42.4591H20.51L21.4635 41.0638ZM24.8635 42.5453C24.5511 42.5453 24.2745 42.4627 24.0339 42.2975C23.7969 42.1322 23.6335 41.8916 23.5437 41.5756L24.2117 41.3116C24.2548 41.4876 24.332 41.6241 24.4433 41.721C24.5547 41.8144 24.6947 41.8611 24.8635 41.8611C25.018 41.8611 25.1508 41.8144 25.2622 41.721C25.3771 41.6277 25.4345 41.5092 25.4345 41.3655C25.4345 41.211 25.3735 41.089 25.2514 40.9992C25.1329 40.9058 24.9713 40.8591 24.7665 40.8591H24.4487V40.218H24.7396C24.8976 40.218 25.0305 40.1785 25.1383 40.0995C25.2496 40.0205 25.3053 39.9056 25.3053 39.7547C25.3053 39.6326 25.2604 39.5321 25.1706 39.4531C25.0808 39.374 24.9659 39.3346 24.8258 39.3346C24.6786 39.3346 24.56 39.374 24.4703 39.4531C24.3805 39.5321 24.3176 39.6308 24.2817 39.7494L23.6406 39.4854C23.7161 39.2699 23.8543 39.0832 24.0554 38.9251C24.2602 38.7671 24.5187 38.6881 24.8312 38.6881C25.0611 38.6881 25.2658 38.7312 25.4453 38.8174C25.6285 38.9036 25.7703 39.0221 25.8709 39.1729C25.9715 39.3202 26.0217 39.4872 26.0217 39.6739C26.0217 39.8715 25.975 40.0403 25.8817 40.1803C25.7919 40.3204 25.6824 40.4227 25.5531 40.4874V40.5305C25.7326 40.6023 25.8781 40.7154 25.9894 40.8699C26.1008 41.0243 26.1564 41.211 26.1564 41.4301C26.1564 41.642 26.1025 41.8324 25.9948 42.0012C25.8871 42.17 25.7344 42.3029 25.5369 42.3998C25.343 42.4968 25.1185 42.5453 24.8635 42.5453ZM28.216 42.5453C27.9071 42.5453 27.636 42.4627 27.4025 42.2975C27.1691 42.1287 26.9877 41.8988 26.8584 41.6079C26.7327 41.3134 26.6699 40.983 26.6699 40.6167C26.6699 40.2504 26.7327 39.9217 26.8584 39.6308C26.9877 39.3363 27.1691 39.1065 27.4025 38.9413C27.636 38.7725 27.9071 38.6881 28.216 38.6881C28.5248 38.6881 28.796 38.7725 29.0294 38.9413C29.2629 39.1065 29.4424 39.3363 29.5682 39.6308C29.6974 39.9217 29.7621 40.2504 29.7621 40.6167C29.7621 40.983 29.6974 41.3134 29.5682 41.6079C29.4424 41.8988 29.2629 42.1287 29.0294 42.2975C28.796 42.4627 28.5248 42.5453 28.216 42.5453ZM28.216 41.8827C28.3884 41.8827 28.5374 41.8288 28.6631 41.721C28.7924 41.6097 28.8894 41.4589 28.954 41.2685C29.0222 41.0746 29.0564 40.8573 29.0564 40.6167C29.0564 40.2432 28.981 39.9397 28.8301 39.7063C28.6793 39.4692 28.4746 39.3507 28.216 39.3507C27.961 39.3507 27.7581 39.4692 27.6072 39.7063C27.4564 39.9433 27.381 40.2468 27.381 40.6167C27.381 40.8573 27.4133 41.0746 27.478 41.2685C27.5462 41.4589 27.6431 41.6097 27.7689 41.721C27.8982 41.8288 28.0472 41.8827 28.216 41.8827Z" fill="white"/>
</g>
<g clip-path="url(#clip3_460_51086)">
<path d="M33.2815 53.8949H27.1825C24.1509 53.8949 21.6934 56.3525 21.6934 59.384C21.6934 62.4156 24.1509 64.8732 27.1825 64.8732H33.2815C36.3131 64.8732 38.7706 62.4156 38.7706 59.384C38.7706 56.3525 36.3131 53.8949 33.2815 53.8949Z" fill="url(#paint13_linear_460_51086)" fill-opacity="0.15"/>
<path d="M26.8899 59.8447L25.9596 58.518H26.7789L27.2917 59.2897H27.3234L27.8044 58.518H28.6501L27.704 59.8447L28.6501 61.2138H27.8308L27.3128 60.4262H27.2811L26.7736 61.2138H25.9543L26.8899 59.8447ZM29.856 58.5021L29.3116 58.8986L28.9627 58.3647L30.0252 57.5982H30.5485V61.2138H29.856V58.5021ZM32.7928 61.2983C32.4897 61.2983 32.2237 61.2173 31.9946 61.0552C31.7656 60.8896 31.5876 60.664 31.4608 60.3786C31.3374 60.0896 31.2758 59.7654 31.2758 59.406C31.2758 59.0466 31.3374 58.7241 31.4608 58.4387C31.5876 58.1497 31.7656 57.9242 31.9946 57.7621C32.2237 57.5965 32.4897 57.5137 32.7928 57.5137C33.0958 57.5137 33.3619 57.5965 33.5909 57.7621C33.82 57.9242 33.9962 58.1497 34.1195 58.4387C34.2464 58.7241 34.3098 59.0466 34.3098 59.406C34.3098 59.7654 34.2464 60.0896 34.1195 60.3786C33.9962 60.664 33.82 60.8896 33.5909 61.0552C33.3619 61.2173 33.0958 61.2983 32.7928 61.2983ZM32.7928 60.6482C32.9619 60.6482 33.1082 60.5953 33.2315 60.4896C33.3584 60.3803 33.4535 60.2323 33.5169 60.0456C33.5839 59.8553 33.6174 59.6421 33.6174 59.406C33.6174 59.0395 33.5434 58.7417 33.3954 58.5127C33.2474 58.2801 33.0465 58.1638 32.7928 58.1638C32.5426 58.1638 32.3435 58.2801 32.1955 58.5127C32.0475 58.7453 31.9735 59.043 31.9735 59.406C31.9735 59.6421 32.0052 59.8553 32.0686 60.0456C32.1356 60.2323 32.2307 60.3803 32.3541 60.4896C32.4809 60.5953 32.6272 60.6482 32.7928 60.6482Z" fill="white"/>
</g>
<g clip-path="url(#clip4_460_51086)">
<path d="M24.8102 70.4581H18.5943C15.5047 70.4581 13 72.9628 13 76.0524C13 79.1421 15.5047 81.6467 18.5943 81.6467H24.8102C27.8999 81.6467 30.4045 79.1421 30.4045 76.0524C30.4045 72.9628 27.8999 70.4581 24.8102 70.4581Z" fill="url(#paint14_linear_460_51086)" fill-opacity="0.15"/>
<path d="M17.7531 76.5219L16.8049 75.1698H17.64L18.1625 75.9563H18.1948L18.6851 75.1698H19.547L18.5827 76.5219L19.547 77.9172H18.712L18.184 77.1145H18.1517L17.6346 77.9172H16.7996L17.7531 76.5219ZM21.1746 78.0034C20.9807 78.0034 20.7939 77.9675 20.6143 77.8957C20.4348 77.8202 20.2768 77.7089 20.1403 77.5617C20.0074 77.4108 19.9158 77.2259 19.8655 77.0068L20.5012 76.759C20.5443 76.9421 20.6233 77.0876 20.7382 77.1953C20.8532 77.2995 20.9968 77.3516 21.1692 77.3516C21.3416 77.3516 21.4853 77.2941 21.6002 77.1792C21.7151 77.0643 21.7726 76.9188 21.7726 76.7428C21.7726 76.5704 21.7151 76.4268 21.6002 76.3119C21.4889 76.1933 21.3452 76.1341 21.1692 76.1341C21.0615 76.1341 20.9627 76.1574 20.8729 76.2041C20.7867 76.2472 20.7131 76.3065 20.6521 76.3819L19.9679 76.0748L20.178 74.2324H22.2574V74.8519H20.7652L20.6305 75.7139L20.6736 75.7247C20.8532 75.5774 21.0669 75.5038 21.3147 75.5038C21.5194 75.5038 21.7097 75.5559 21.8857 75.66C22.0653 75.7641 22.2089 75.9114 22.3167 76.1018C22.4244 76.2885 22.4783 76.5022 22.4783 76.7428C22.4783 76.987 22.4226 77.2043 22.3113 77.3947C22.2 77.585 22.0455 77.7341 21.848 77.8418C21.6505 77.9495 21.426 78.0034 21.1746 78.0034ZM24.5897 78.0034C24.2809 78.0034 24.0097 77.9208 23.7762 77.7556C23.5428 77.5868 23.3614 77.357 23.2321 77.066C23.1065 76.7715 23.0436 76.4411 23.0436 76.0748C23.0436 75.7085 23.1065 75.3799 23.2321 75.089C23.3614 74.7945 23.5428 74.5646 23.7762 74.3994C24.0097 74.2306 24.2809 74.1462 24.5897 74.1462C24.8985 74.1462 25.1697 74.2306 25.4032 74.3994C25.6366 74.5646 25.8162 74.7945 25.9419 75.089C26.0712 75.3799 26.1358 75.7085 26.1358 76.0748C26.1358 76.4411 26.0712 76.7715 25.9419 77.066C25.8162 77.357 25.6366 77.5868 25.4032 77.7556C25.1697 77.9208 24.8985 78.0034 24.5897 78.0034ZM24.5897 77.3408C24.7621 77.3408 24.9111 77.2869 25.0368 77.1792C25.1661 77.0678 25.2631 76.917 25.3277 76.7267C25.396 76.5327 25.4301 76.3155 25.4301 76.0748C25.4301 75.7013 25.3547 75.3978 25.2038 75.1644C25.053 74.9274 24.8483 74.8088 24.5897 74.8088C24.3347 74.8088 24.1318 74.9274 23.981 75.1644C23.8301 75.4014 23.7547 75.7049 23.7547 76.0748C23.7547 76.3155 23.787 76.5327 23.8517 76.7267C23.9199 76.917 24.0169 77.0678 24.1426 77.1792C24.2719 77.2869 24.4209 77.3408 24.5897 77.3408Z" fill="white"/>
</g>
</g>
<g filter="url(#filter1_b_460_51086)">
<g clip-path="url(#clip5_460_51086)">
<path d="M102.403 69.1018H96.9042C94.1709 69.1018 91.9551 71.3176 91.9551 74.0509C91.9551 76.7842 94.1709 79 96.9042 79H102.403C105.136 79 107.352 76.7842 107.352 74.0509C107.352 71.3176 105.136 69.1018 102.403 69.1018Z" fill="url(#paint15_linear_460_51086)" fill-opacity="0.15"/>
<path d="M96.3147 74.4663L95.476 73.27H96.2147L96.6769 73.9659H96.7055L97.1392 73.27H97.9018L97.0487 74.4663L97.9018 75.7006H97.1631L96.696 74.9905H96.6674L96.2099 75.7006H95.4712L96.3147 74.4663ZM99.3226 75.7769C99.0462 75.7769 98.8015 75.7038 98.5887 75.5576C98.379 75.4115 98.2344 75.1986 98.155 74.919L98.7459 74.6855C98.7841 74.8412 98.8523 74.9619 98.9509 75.0477C99.0494 75.1303 99.1733 75.1716 99.3226 75.1716C99.4592 75.1716 99.5767 75.1303 99.6753 75.0477C99.7769 74.9651 99.8278 74.8602 99.8278 74.7331C99.8278 74.5965 99.7738 74.4885 99.6657 74.4091C99.5609 74.3265 99.4179 74.2852 99.2368 74.2852H98.9556V73.718H99.213C99.3528 73.718 99.4703 73.6831 99.5656 73.6132C99.6641 73.5433 99.7134 73.4416 99.7134 73.3082C99.7134 73.2001 99.6737 73.1112 99.5942 73.0413C99.5148 72.9714 99.4131 72.9364 99.2892 72.9364C99.159 72.9364 99.0541 72.9714 98.9747 73.0413C98.8952 73.1112 98.8397 73.1986 98.8079 73.3034L98.2407 73.0699C98.3075 72.8793 98.4298 72.714 98.6077 72.5742C98.7888 72.4344 99.0176 72.3645 99.294 72.3645C99.4973 72.3645 99.6784 72.4027 99.8373 72.4789C99.9993 72.5552 100.125 72.66 100.214 72.7935C100.303 72.9237 100.347 73.0715 100.347 73.2367C100.347 73.4114 100.306 73.5608 100.223 73.6847C100.144 73.8086 100.047 73.8991 99.9326 73.9563V73.9945C100.091 74.058 100.22 74.1581 100.319 74.2947C100.417 74.4313 100.466 74.5965 100.466 74.7903C100.466 74.9778 100.419 75.1462 100.323 75.2955C100.228 75.4448 100.093 75.5624 99.9183 75.6482C99.7467 75.734 99.5482 75.7769 99.3226 75.7769ZM102.288 75.7769C102.015 75.7769 101.775 75.7038 101.569 75.5576C101.362 75.4083 101.202 75.205 101.087 74.9476C100.976 74.6871 100.921 74.3948 100.921 74.0707C100.921 73.7466 100.976 73.4559 101.087 73.1986C101.202 72.938 101.362 72.7347 101.569 72.5885C101.775 72.4392 102.015 72.3645 102.288 72.3645C102.562 72.3645 102.802 72.4392 103.008 72.5885C103.215 72.7347 103.373 72.938 103.485 73.1986C103.599 73.4559 103.656 73.7466 103.656 74.0707C103.656 74.3948 103.599 74.6871 103.485 74.9476C103.373 75.205 103.215 75.4083 103.008 75.5576C102.802 75.7038 102.562 75.7769 102.288 75.7769ZM102.288 75.1907C102.441 75.1907 102.573 75.143 102.684 75.0477C102.798 74.9492 102.884 74.8157 102.941 74.6474C103.002 74.4758 103.032 74.2836 103.032 74.0707C103.032 73.7403 102.965 73.4718 102.832 73.2653C102.698 73.0556 102.517 72.9507 102.288 72.9507C102.063 72.9507 101.883 73.0556 101.75 73.2653C101.616 73.475 101.55 73.7434 101.55 74.0707C101.55 74.2836 101.578 74.4758 101.636 74.6474C101.696 74.8157 101.782 74.9492 101.893 75.0477C102.007 75.143 102.139 75.1907 102.288 75.1907Z" fill="white"/>
</g>
<g clip-path="url(#clip6_460_51086)">
<path d="M100.536 37.4213H94.4643C91.4464 37.4213 89 39.8677 89 42.8856C89 45.9034 91.4464 48.3499 94.4643 48.3499H100.536C103.554 48.3499 106 45.9034 106 42.8856C106 39.8677 103.554 37.4213 100.536 37.4213Z" fill="url(#paint16_linear_460_51086)" fill-opacity="0.15"/>
<path d="M94.5835 43.3442L93.6574 42.0234H94.473L94.9834 42.7917H95.0149L95.4938 42.0234H96.3357L95.3938 43.3442L96.3357 44.707H95.5201L95.0044 43.923H94.9728L94.4677 44.707H93.6521L94.5835 43.3442ZM97.5361 42.0076L96.9941 42.4023L96.6468 41.8708L97.7045 41.1079H98.2254V44.707H97.5361V42.0076ZM100.258 44.7912C100.069 44.7912 99.8865 44.7561 99.7111 44.686C99.5358 44.6123 99.3814 44.5035 99.2481 44.3597C99.1183 44.2124 99.0288 44.0317 98.9797 43.8177L99.6006 43.5757C99.6427 43.7546 99.7199 43.8967 99.8322 44.0019C99.9444 44.1036 100.085 44.1545 100.253 44.1545C100.421 44.1545 100.562 44.0984 100.674 43.9861C100.786 43.8739 100.842 43.7318 100.842 43.5599C100.842 43.3915 100.786 43.2512 100.674 43.139C100.565 43.0232 100.425 42.9653 100.253 42.9653C100.148 42.9653 100.051 42.9881 99.9637 43.0337C99.8795 43.0758 99.8076 43.1337 99.748 43.2074L99.0797 42.9074L99.2849 41.1079H101.316V41.713H99.8585L99.7269 42.5549L99.769 42.5654C99.9444 42.4216 100.153 42.3497 100.395 42.3497C100.595 42.3497 100.781 42.4005 100.953 42.5023C101.128 42.604 101.269 42.7478 101.374 42.9337C101.479 43.1162 101.532 43.3249 101.532 43.5599C101.532 43.7984 101.477 44.0107 101.369 44.1966C101.26 44.3825 101.109 44.5281 100.916 44.6333C100.723 44.7386 100.504 44.7912 100.258 44.7912Z" fill="white"/>
</g>
<g clip-path="url(#clip7_460_51086)">
<path d="M92.8906 54.1969H87.685C85.0976 54.1969 83 56.2944 83 58.8819C83 61.4694 85.0976 63.5669 87.685 63.5669H92.8906C95.4781 63.5669 97.5757 61.4694 97.5757 58.8819C97.5757 56.2944 95.4781 54.1969 92.8906 54.1969Z" fill="url(#paint17_linear_460_51086)" fill-opacity="0.15"/>
<path d="M87.3606 59.2751L86.5665 58.1427H87.2658L87.7034 58.8014H87.7305L88.141 58.1427H88.8629L88.0553 59.2751L88.8629 60.4436H88.1636L87.7215 59.7714H87.6944L87.2613 60.4436H86.562L87.3606 59.2751ZM89.1568 59.9067C89.256 59.8075 89.447 59.6165 89.7297 59.3338C90.0154 59.048 90.1989 58.8615 90.2801 58.7743C90.3884 58.657 90.4621 58.5593 90.5012 58.4811C90.5433 58.4029 90.5644 58.3141 90.5644 58.2149C90.5644 58.1096 90.5252 58.0209 90.4471 57.9487C90.3688 57.8765 90.2651 57.8404 90.1358 57.8404C90.0094 57.8404 89.9072 57.8765 89.829 57.9487C89.7508 58.0209 89.6951 58.1111 89.662 58.2194L89.1297 57.9983C89.1628 57.881 89.2229 57.7683 89.3102 57.66C89.4004 57.5487 89.5162 57.4585 89.6575 57.3893C89.7989 57.3201 89.9613 57.2855 90.1448 57.2855C90.3493 57.2855 90.5283 57.3261 90.6817 57.4073C90.835 57.4855 90.9538 57.5938 91.0381 57.7322C91.1223 57.8675 91.1644 58.0194 91.1644 58.1878C91.1644 58.5217 91.002 58.848 90.6771 59.1668C90.5448 59.2962 90.2997 59.5398 89.9418 59.8977L89.9553 59.9248H91.205V60.4436H89.1568V59.9067ZM92.7329 60.5158C92.5705 60.5158 92.414 60.4857 92.2637 60.4255C92.1133 60.3624 91.9809 60.2691 91.8667 60.1458C91.7554 60.0195 91.6787 59.8646 91.6366 59.6811L92.1689 59.4736C92.205 59.627 92.2712 59.7488 92.3674 59.839C92.4637 59.9263 92.584 59.9699 92.7284 59.9699C92.8727 59.9699 92.993 59.9217 93.0893 59.8255C93.1855 59.7293 93.2336 59.6075 93.2336 59.4601C93.2336 59.3157 93.1855 59.1954 93.0893 59.0992C92.996 58.9999 92.8757 58.9503 92.7284 58.9503C92.6381 58.9503 92.5554 58.9698 92.4802 59.0089C92.408 59.045 92.3464 59.0946 92.2952 59.1578L91.7223 58.9006L91.8982 57.3577H93.6397V57.8765H92.39L92.2772 58.5984L92.3133 58.6074C92.4637 58.4841 92.6426 58.4224 92.8502 58.4224C93.0216 58.4224 93.181 58.466 93.3284 58.5533C93.4788 58.6405 93.5991 58.7638 93.6893 58.9232C93.7795 59.0796 93.8247 59.2585 93.8247 59.4601C93.8247 59.6646 93.778 59.8466 93.6848 60.006C93.5915 60.1654 93.4622 60.2902 93.2968 60.3804C93.1314 60.4707 92.9434 60.5158 92.7329 60.5158Z" fill="white"/>
</g>
</g>
<path d="M112.5 17C115.538 17 118 14.5376 118 11.5C118 8.46243 115.538 6 112.5 6C109.462 6 107 8.46243 107 11.5C107 14.5376 109.462 17 112.5 17Z" fill="url(#paint18_linear_460_51086)"/>
<path d="M119 4C120.105 4 121 3.10457 121 2C121 0.895431 120.105 0 119 0C117.895 0 117 0.895431 117 2C117 3.10457 117.895 4 119 4Z" fill="url(#paint19_linear_460_51086)"/>
<path d="M9 103C6.23858 103 4 105.239 4 108C4 110.761 6.23858 113 9 113C11.7614 113 14 110.761 14 108C14 105.239 11.7614 103 9 103Z" fill="url(#paint20_linear_460_51086)"/>
<path d="M3 115C1.89543 115 1 115.895 1 117C1 118.105 1.89543 119 3 119C4.10457 119 5 118.105 5 117C5 115.895 4.10457 115 3 115Z" fill="url(#paint21_linear_460_51086)"/>
<defs>
<filter id="filter0_b_460_51086" x="-2" y="20" width="55.7708" height="76.6467" filterUnits="userSpaceOnUse" color-interpolation-filters="sRGB">
<feFlood flood-opacity="0" result="BackgroundImageFix"/>
<feGaussianBlur in="BackgroundImageFix" stdDeviation="7.5"/>
<feComposite in2="SourceAlpha" operator="in" result="effect1_backgroundBlur_460_51086"/>
<feBlend mode="normal" in="SourceGraphic" in2="effect1_backgroundBlur_460_51086" result="shape"/>
</filter>
<filter id="filter1_b_460_51086" x="68" y="22.4213" width="54.3523" height="71.5787" filterUnits="userSpaceOnUse" color-interpolation-filters="sRGB">
<feFlood flood-opacity="0" result="BackgroundImageFix"/>
<feGaussianBlur in="BackgroundImageFix" stdDeviation="7.5"/>
<feComposite in2="SourceAlpha" operator="in" result="effect1_backgroundBlur_460_51086"/>
<feBlend mode="normal" in="SourceGraphic" in2="effect1_backgroundBlur_460_51086" result="shape"/>
</filter>
<linearGradient id="paint0_linear_460_51086" x1="16.458" y1="6.24933" x2="16.458" y2="32.0197" gradientUnits="userSpaceOnUse">
<stop stop-color="#FFD945"/>
<stop offset="0.3043" stop-color="#FFCD3E"/>
<stop offset="0.8558" stop-color="#FFAD2B"/>
<stop offset="1" stop-color="#FFA325"/>
</linearGradient>
<linearGradient id="paint1_linear_460_51086" x1="11.7515" y1="11.7515" x2="24.0981" y2="24.0982" gradientUnits="userSpaceOnUse">
<stop stop-color="#FF7044" stop-opacity="0"/>
<stop offset="1" stop-color="#FFA325"/>
</linearGradient>
<linearGradient id="paint2_linear_460_51086" x1="26.0565" y1="20.3325" x2="-1.89563" y2="9.09104" gradientUnits="userSpaceOnUse">
<stop stop-color="#FF7044" stop-opacity="0"/>
<stop offset="1" stop-color="#FFA325"/>
</linearGradient>
<linearGradient id="paint3_linear_460_51086" x1="16.4581" y1="12.1677" x2="16.4581" y2="23.0198" gradientUnits="userSpaceOnUse">
<stop stop-color="#FF7044"/>
<stop offset="1" stop-color="#F82814"/>
</linearGradient>
<linearGradient id="paint4_linear_460_51086" x1="18.49" y1="18.2261" x2="-1.48577" y2="0.901947" gradientUnits="userSpaceOnUse">
<stop stop-color="white" stop-opacity="0"/>
<stop offset="1" stop-color="white"/>
</linearGradient>
<linearGradient id="paint5_linear_460_51086" x1="0.000274094" y1="59" x2="120" y2="59" gradientUnits="userSpaceOnUse">
<stop stop-color="#DE5139"/>
<stop offset="0.5" stop-color="#F25244"/>
<stop offset="1" stop-color="#BB1C27"/>
</linearGradient>
<linearGradient id="paint6_linear_460_51086" x1="16.0002" y1="59" x2="121" y2="59" gradientUnits="userSpaceOnUse">
<stop stop-color="#DE5139"/>
<stop offset="0.5" stop-color="#F25244"/>
<stop offset="1" stop-color="#BB1C27"/>
</linearGradient>
<linearGradient id="paint7_linear_460_51086" x1="100.964" y1="91.3025" x2="100.964" y2="113.168" gradientUnits="userSpaceOnUse">
<stop stop-color="#FFD945"/>
<stop offset="0.3043" stop-color="#FFCD3E"/>
<stop offset="0.8558" stop-color="#FFAD2B"/>
<stop offset="1" stop-color="#FFA325"/>
</linearGradient>
<linearGradient id="paint8_linear_460_51086" x1="96.971" y1="95.971" x2="107.447" y2="106.447" gradientUnits="userSpaceOnUse">
<stop stop-color="#FF7044" stop-opacity="0"/>
<stop offset="1" stop-color="#FFA325"/>
</linearGradient>
<linearGradient id="paint9_linear_460_51086" x1="109.109" y1="103.252" x2="85.3916" y2="93.7136" gradientUnits="userSpaceOnUse">
<stop stop-color="#FF7044" stop-opacity="0"/>
<stop offset="1" stop-color="#FFA325"/>
</linearGradient>
<linearGradient id="paint10_linear_460_51086" x1="100.964" y1="96.3241" x2="100.964" y2="105.532" gradientUnits="userSpaceOnUse">
<stop stop-color="#FF7044"/>
<stop offset="1" stop-color="#F82814"/>
</linearGradient>
<linearGradient id="paint11_linear_460_51086" x1="102.689" y1="101.465" x2="85.7395" y2="86.7653" gradientUnits="userSpaceOnUse">
<stop stop-color="white" stop-opacity="0"/>
<stop offset="1" stop-color="white"/>
</linearGradient>
<linearGradient id="paint12_linear_460_51086" x1="25.2379" y1="35" x2="25.2379" y2="46.1886" gradientUnits="userSpaceOnUse">
<stop stop-color="white"/>
<stop offset="1" stop-color="white" stop-opacity="0"/>
</linearGradient>
<linearGradient id="paint13_linear_460_51086" x1="30.232" y1="53.8949" x2="30.232" y2="64.8732" gradientUnits="userSpaceOnUse">
<stop stop-color="white"/>
<stop offset="1" stop-color="white" stop-opacity="0"/>
</linearGradient>
<linearGradient id="paint14_linear_460_51086" x1="21.7023" y1="70.4581" x2="21.7023" y2="81.6467" gradientUnits="userSpaceOnUse">
<stop stop-color="white"/>
<stop offset="1" stop-color="white" stop-opacity="0"/>
</linearGradient>
<linearGradient id="paint15_linear_460_51086" x1="99.6537" y1="69.1018" x2="99.6537" y2="79" gradientUnits="userSpaceOnUse">
<stop stop-color="white"/>
<stop offset="1" stop-color="white" stop-opacity="0"/>
</linearGradient>
<linearGradient id="paint16_linear_460_51086" x1="97.5" y1="37.4213" x2="97.5" y2="48.3499" gradientUnits="userSpaceOnUse">
<stop stop-color="white"/>
<stop offset="1" stop-color="white" stop-opacity="0"/>
</linearGradient>
<linearGradient id="paint17_linear_460_51086" x1="90.2878" y1="54.1969" x2="90.2878" y2="63.5669" gradientUnits="userSpaceOnUse">
<stop stop-color="white"/>
<stop offset="1" stop-color="white" stop-opacity="0"/>
</linearGradient>
<linearGradient id="paint18_linear_460_51086" x1="107" y1="11.5" x2="118" y2="11.5" gradientUnits="userSpaceOnUse">
<stop stop-color="#DE5139"/>
<stop offset="0.5" stop-color="#F25244"/>
<stop offset="1" stop-color="#BB1C27"/>
</linearGradient>
<linearGradient id="paint19_linear_460_51086" x1="117" y1="2" x2="121" y2="2" gradientUnits="userSpaceOnUse">
<stop stop-color="#DE5139"/>
<stop offset="0.5" stop-color="#F25244"/>
<stop offset="1" stop-color="#BB1C27"/>
</linearGradient>
<linearGradient id="paint20_linear_460_51086" x1="14" y1="108" x2="4" y2="108" gradientUnits="userSpaceOnUse">
<stop stop-color="#DE5139"/>
<stop offset="0.5" stop-color="#F25244"/>
<stop offset="1" stop-color="#BB1C27"/>
</linearGradient>
<linearGradient id="paint21_linear_460_51086" x1="4.99999" y1="117" x2="1" y2="117" gradientUnits="userSpaceOnUse">
<stop stop-color="#DE5139"/>
<stop offset="0.5" stop-color="#F25244"/>
<stop offset="1" stop-color="#BB1C27"/>
</linearGradient>
<clipPath id="clip0_460_51086">
<rect width="120" height="120" rx="60" fill="white"/>
</clipPath>
<clipPath id="clip1_460_51086">
<rect width="126" height="126" fill="white" transform="translate(0 -1)"/>
</clipPath>
<clipPath id="clip2_460_51086">
<rect width="17.4045" height="11.1886" fill="white" transform="translate(16.5356 35)"/>
</clipPath>
<clipPath id="clip3_460_51086">
<rect width="17.0773" height="10.9783" fill="white" transform="translate(21.6934 53.8949)"/>
</clipPath>
<clipPath id="clip4_460_51086">
<rect width="17.4045" height="11.1886" fill="white" transform="translate(13 70.4581)"/>
</clipPath>
<clipPath id="clip5_460_51086">
<rect width="15.3972" height="9.8982" fill="white" transform="translate(91.9551 69.1018)"/>
</clipPath>
<clipPath id="clip6_460_51086">
<rect width="17" height="10.9286" fill="white" transform="translate(89 37.4213)"/>
</clipPath>
<clipPath id="clip7_460_51086">
<rect width="14.5757" height="9.37008" fill="white" transform="translate(83 54.1969)"/>
</clipPath>
</defs>
</svg>
