<svg width="121" height="120" viewBox="0 0 121 120" fill="none" xmlns="http://www.w3.org/2000/svg">
<path d="M17.8634 3.79658C15.2455 -1.08256 3.18267 -2.51161 0.433965 7.18603C-1.77573 14.9842 4.91385 19.8174 10.1092 19.9684C11.3762 20.0037 12.5564 19.7666 13.4932 19.2203C17.2539 17.0449 15.8293 14.1591 15.6434 12.328C15.608 12.0213 15.6084 11.7498 15.6779 11.5088C15.7475 11.2748 15.8881 11.0402 16.0705 10.7929C17.1942 9.32886 19.9211 7.62613 17.8634 3.79658Z" fill="#CB1A1E"/>
<path d="M17.8634 3.79658C15.2455 -1.08256 3.18267 -2.51161 0.433965 7.18603C-1.77573 14.9842 4.91385 19.8174 10.1092 19.9684C11.3762 20.0037 12.5564 19.7666 13.4932 19.2203C17.2539 17.0449 15.8293 14.1591 15.6434 12.328C15.608 12.0213 15.6084 11.7498 15.6779 11.5088C15.7475 11.2748 15.8881 11.0402 16.0705 10.7929C17.1942 9.32886 19.9211 7.62613 17.8634 3.79658Z" fill="url(#paint0_linear_460_51859)"/>
<path d="M17.8636 3.79657C18.0903 4.21839 18.2501 4.61035 18.3691 4.98308C15.3982 0.374017 3.82511 -0.775413 1.13938 8.70014C0.49213 10.9844 0.612425 13.0119 1.23109 14.7441C0.0499152 12.7236 -0.412338 10.1734 0.434145 7.18602C3.18285 -2.51162 15.2457 -1.08258 17.8636 3.79657Z" fill="url(#paint1_radial_460_51859)"/>
<path d="M13.4357 14.0766C12.9012 13.2937 12.5055 12.1233 13.1387 10.6822C14.0741 8.53938 16.3924 8.35924 16.5494 9.24711C16.7015 10.1098 14.911 9.87894 15.2786 12.0517C15.4157 12.8916 15.3701 13.5309 15.2499 14.0033C15.0566 14.7541 13.9191 14.8027 13.4357 14.0766Z" fill="url(#paint2_linear_460_51859)"/>
<path d="M7.72179 17.354C5.44186 16.9375 3.80253 15.4564 4.06024 14.046C4.31795 12.6355 6.37512 11.8298 8.65505 12.2464C10.935 12.6629 12.5743 14.144 12.3166 15.5544C12.0589 16.9648 10.0017 17.7706 7.72179 17.354Z" fill="url(#paint3_radial_460_51859)"/>
<path d="M8.56363 16.8264C7.58679 16.6479 6.88442 16.0133 6.99483 15.409C7.10525 14.8047 7.98664 14.4595 8.96348 14.638C9.94032 14.8165 10.6427 15.451 10.5323 16.0553C10.4219 16.6596 9.54047 17.0048 8.56363 16.8264Z" fill="url(#paint4_radial_460_51859)"/>
<path d="M13.6824 11.1897L13.6336 11.7286C17.9609 13.615 24.903 17.845 27.2948 23.8944L29.9753 23.1467C29.9753 23.1467 25.3161 12.5959 13.6824 11.1897Z" fill="url(#paint5_linear_460_51859)"/>
<path d="M13.1369 10.6849C12.5033 12.1216 12.9006 13.2921 13.4368 14.0759C13.7322 14.5181 14.2618 14.67 14.6796 14.556C14.6494 14.5373 14.6206 14.5027 14.5924 14.4603C14.0562 13.6766 13.659 12.506 14.2926 11.0693C14.816 9.87832 15.756 9.29241 16.5269 9.16254C16.2385 8.37734 14.0442 8.60985 13.1369 10.6849Z" fill="url(#paint6_radial_460_51859)"/>
<path d="M28.5231 23.0391C27.7717 23.2187 27.2192 23.5841 27.2835 23.8456C27.3469 24.115 28.0033 24.1905 28.7553 24.003C29.5067 23.8234 30.0591 23.458 29.9949 23.1965C29.9315 22.9271 29.2745 22.8596 28.5231 23.0391Z" fill="url(#paint7_linear_460_51859)"/>
<g clip-path="url(#clip0_460_51859)">
<path d="M60 119C93.1371 119 120 92.1371 120 59C120 25.8629 93.1371 -1 60 -1C26.8629 -1 0 25.8629 0 59C0 92.1371 26.8629 119 60 119Z" fill="url(#paint8_linear_460_51859)"/>
<path d="M60.7712 -1C58.914 -1 57.0788 -0.912289 55.2656 -0.747831C63.3686 -0.153038 66.0182 10.2764 59.3405 14.7579C55.1501 17.5674 50.657 20.2535 45.9245 22.7725C42.8567 24.4061 41.6075 28.2545 43.1621 31.3518C44.2049 33.4294 46.2877 34.619 48.4558 34.619C49.3941 34.619 50.3516 34.3942 51.243 33.9228C57.1008 30.8255 62.6395 27.476 67.7626 23.9484C70.7314 21.9009 74.7815 22.46 77.1065 25.2092C78.2235 26.5276 78.7628 28.1284 78.7628 29.7154C78.7628 31.889 77.7531 34.0407 75.8271 35.4166C73.2682 37.2421 70.5828 39.0238 67.7846 40.7478C65.3001 42.2773 64.117 45.3088 65.0827 48.0525C66.4309 51.8789 70.8882 53.3289 74.2147 51.2814C82.6699 46.0736 90.2308 40.3614 96.5233 34.4025C99.3765 31.6999 104.059 32.7195 105.548 36.3513C105.562 36.3869 105.578 36.4253 105.592 36.4609C106.404 38.4536 105.988 40.7369 104.527 42.3184C102.824 44.1631 100.642 46.4683 99.5141 47.5235C93.3894 53.2631 85.911 58.7698 77.4834 63.7611C76.2012 59.0192 71.7082 55.5875 66.4694 55.9246C61.0436 56.2782 56.7074 60.7405 56.5175 66.154C56.424 68.8401 57.3347 71.3152 58.9003 73.2339C56.9027 74.1028 54.9024 74.9306 52.9049 75.7117C49.7903 76.9287 48.0679 80.3522 49.1492 83.5043C50.2938 86.8346 53.9862 88.5313 57.2577 87.2567C60.3668 86.048 63.4759 84.7378 66.5768 83.3317C83.7457 75.5308 98.8758 65.5016 109.837 54.7323C109.939 56.1412 109.989 57.5665 109.989 59C109.989 60.4116 109.939 61.8095 109.843 63.1937C101.314 71.8716 89.5952 80.1412 76.1737 86.8867C60.5016 94.7615 44.5296 99.55 31.1053 100.4C30.888 100.413 30.6706 100.427 30.4533 100.438C24.733 100.751 19.8025 100.282 16 99.1307C20.9883 104.651 26.9892 109.242 33.7137 112.616C37.9426 112.257 42.3559 111.575 46.8958 110.582C58.1051 108.135 70.0656 103.823 81.7729 97.9383C81.8554 97.8972 81.938 97.8561 82.0205 97.815C87.2757 95.1617 91.8651 102.294 87.2565 105.953C78.3143 113.047 67.3031 117.662 55.2656 118.748C57.0788 118.912 58.914 119 60.7712 119C94.036 119 121 92.1384 121 59C121 25.8616 94.036 -1 60.7712 -1ZM85.2259 25.5381C81.2666 25.5381 78.0585 22.3422 78.0585 18.3979C78.0585 14.4536 81.2666 11.2577 85.2259 11.2577C89.1852 11.2577 92.3962 14.4536 92.3962 18.3979C92.3962 22.3422 89.1852 25.5381 85.2259 25.5381ZM99.7342 97.6862C95.7749 97.6862 92.564 94.4902 92.564 90.5459C92.564 86.6016 95.7749 83.4029 99.7342 83.4029C103.694 83.4029 106.902 86.6016 106.902 90.5459C106.902 94.4902 103.694 97.6862 99.7342 97.6862Z" fill="url(#paint9_linear_460_51859)"/>
<g opacity="0.05" clip-path="url(#clip1_460_51859)">
<path d="M58.6917 12.4625L61.2948 7.97594L61.6946 7.28665L61.2948 6.50688L59.0404 2.1113L61.5638 -2.23707L58.3364 -4L55.6421 1.25344L55.2021 2.1113L55.6421 2.86917L58.2053 7.28665L55.9111 11.7606L55.5511 12.4625L55.9111 13.0827L58.5543 17.6382L56.1802 22.2675L55.9001 22.8135L56.1802 23.296L58.9032 27.9886L56.4489 32.7746L56.249 33.1645L56.4489 33.509L59.2522 38.3404L56.718 43.2825L56.598 43.5165L56.718 43.7233L59.6012 48.6927L56.987 53.7913L56.9469 53.8694L56.987 53.9382L59.9501 59.046L57.2959 53.8694L60.2192 48.8304L60.2991 48.6927L60.2192 48.5368L57.6448 43.5165L60.4879 38.616L60.648 38.3404L60.4879 38.0286L57.9938 33.1645L60.757 28.4022L60.997 27.9886L60.757 27.5206L58.3428 22.8135L61.0257 18.1897L61.3459 17.6384L61.026 17.0146L58.6917 12.4625Z" fill="#F2F2F2"/>
<path d="M66.1907 12.8654L69.4809 8.85517L69.9863 8.23921L69.717 7.40536L68.198 2.70457L71.3868 -1.18189L68.4847 -3.44049L64.9814 1.31201L64.4096 2.08782L64.7219 2.9069L66.5423 7.67865L63.5592 11.7258L63.0913 12.3607L63.3469 13.0308L65.2238 17.9518L62.137 22.1395L61.7727 22.6333L61.9716 23.1546L63.9058 28.2239L60.7145 32.5533L60.4545 32.906L60.5966 33.2782L62.5872 38.4973L59.2921 42.9681L59.1362 43.1797L59.2214 43.4031L61.2687 48.771L57.8696 53.3834L57.8176 53.4541L57.8459 53.5285L59.9501 59.046L58.1618 53.5101L61.8566 49.0063L61.9576 48.8831L61.9038 48.7164L60.1693 43.348L63.7628 38.9679L63.9649 38.7216L63.8572 38.3879L62.1766 33.1864L65.669 28.9298L65.9721 28.5603L65.8104 28.0598L64.1838 23.0259L67.5747 18.8933L67.979 18.4005L67.7636 17.7334L66.1907 12.8654Z" fill="#F2F2F2"/>
<path d="M73.5278 14.4679L77.4193 11.0386L78.017 10.5118L77.8851 9.64522L77.141 4.76162L80.9128 1.43782L78.4111 -1.25761L74.1901 2.87022L73.5009 3.54421L73.6776 4.4026L74.7078 9.4049L71.1133 12.9205L70.5494 13.4718L70.6942 14.1743L71.7564 19.333L68.0368 22.9702L67.5982 23.3991L67.7108 23.9454L68.8054 29.2598L64.9603 33.0202L64.6469 33.3267L64.7271 33.7169L65.8539 39.1879L61.8832 43.0712L61.6952 43.2551L61.7434 43.4891L62.9021 49.1163L58.8062 53.1228L58.7434 53.184L58.7595 53.2621L59.9501 59.046L59.0744 53.2948L63.4444 49.4432L63.5639 49.3376L63.5375 49.1643L62.688 43.587L66.9385 39.8414L67.1775 39.6306L67.1247 39.284L66.3015 33.8799L70.4323 30.2398L70.791 29.9238L70.7116 29.4039L69.9148 24.1739L73.9255 20.6399L74.4037 20.2183L74.2982 19.5253L73.5278 14.4679Z" fill="#F2F2F2"/>
<path d="M80.5123 17.2285L84.9039 14.4689L85.5786 14.045L85.5876 13.1687L85.6377 8.22865L89.8943 5.55432L87.858 2.49194L83.0288 5.88775L82.2404 6.44225L82.2768 7.31804L82.4902 12.4209L78.3776 15.3131L77.7325 15.7668L77.7625 16.4833L77.9823 21.7457L73.7267 24.7381L73.225 25.0908L73.2483 25.6482L73.4751 31.0694L69.0758 34.1632L68.7174 34.4154L68.734 34.8135L68.9669 40.3943L64.4241 43.5893L64.2091 43.7405L64.2192 43.9795L64.4589 49.7196L59.7724 53.016L59.7009 53.0664L59.7041 53.146L59.9502 59.046L60.0098 53.2289L64.9416 50.1293L65.0767 50.0443L65.0785 49.8692L65.1357 44.2277L69.9325 41.2136L70.2023 41.044L70.206 40.6934L70.2617 35.2274L74.9234 32.2982L75.328 32.0439L75.3336 31.5179L75.3868 26.2278L79.9132 23.3841L80.4532 23.0451L80.4603 22.344L80.5123 17.2285Z" fill="#F2F2F2"/>
<path d="M86.9623 21.0751L91.7403 19.0571L92.4744 18.7472L92.6239 17.8838L93.4669 13.016L98.0978 11.0602L96.5798 7.71031L91.2679 10.2863L90.4007 10.707L90.296 11.5773L89.687 16.6481L85.1632 18.8419L84.4537 19.1861L84.3682 19.8981L83.7397 25.1275L79.0587 27.3972L78.5069 27.6649L78.4402 28.2186L77.7931 33.6058L72.9542 35.9525L72.5599 36.1438L72.5124 36.5395L71.8458 42.0855L66.8489 44.5089L66.6126 44.6237L66.5838 44.8611L65.8985 50.5653L60.7433 53.0656L60.6645 53.1038L60.655 53.183L59.9502 59.046L60.9433 53.3138L66.3092 51.047L66.4559 50.985L66.4859 50.8123L67.4487 45.2533L72.6675 43.0491L72.961 42.9251L73.0209 42.5795L73.9538 37.1934L79.0254 35.0514L79.4659 34.8654L79.5556 34.3471L80.4582 29.1343L85.3824 27.0548L85.9698 26.8068L86.0892 26.1159L86.9623 21.0751Z" fill="#F2F2F2"/>
<path d="M92.7107 25.9086L97.7509 24.6843L98.5253 24.4962L98.8115 23.6679L100.425 18.9988L105.31 17.8125L104.35 14.2624L98.6936 15.9515L97.7699 16.2271L97.527 17.0694L96.1111 21.9765L91.2938 23.415L90.5381 23.6408L90.3392 24.3298L88.879 29.3901L83.8945 30.8785L83.3066 31.0539L83.152 31.5899L81.648 36.803L76.4949 38.342L76.075 38.4673L75.9645 38.85L74.4159 44.2169L69.0946 45.8062L68.8427 45.8814L68.7762 46.1112L67.1833 51.6311L61.6937 53.2708L61.6098 53.2959L61.5876 53.3724L59.9502 59.046L61.8511 53.5478L67.5115 52.1726L67.6663 52.1349L67.7235 51.9695L69.5669 46.6375L75.0719 45.3L75.3816 45.2248L75.496 44.8935L77.282 39.7271L82.6319 38.428L83.0966 38.315L83.2683 37.8181L84.9965 32.8179L90.191 31.5564L90.8103 31.406L91.0395 30.7434L92.7107 25.9086Z" fill="#F2F2F2"/>
<path d="M97.6082 31.6026L102.78 31.204L103.574 31.1428L103.99 30.3714L106.332 26.0223L111.345 25.6361L110.967 21.9778L105.113 22.736L104.157 22.8599L103.782 23.6521L101.596 28.268L96.6102 28.9137L95.8281 29.0153L95.5211 29.6634L93.267 34.4236L88.1081 35.0915L87.4996 35.1701L87.2609 35.6745L84.939 40.5781L79.6057 41.269L79.171 41.3255L79.0006 41.6855L76.6099 46.7337L71.1026 47.4473L70.8417 47.4811L70.7394 47.6971L68.2806 52.8896L62.5989 53.6259L62.5119 53.6372L62.4778 53.7092L59.9502 59.046L62.7097 53.9247L68.5174 53.4768L68.6762 53.4647L68.7593 53.3104L71.4352 48.3437L77.0836 47.9081L77.4012 47.8839L77.5676 47.5752L80.1601 42.7629L85.6493 42.34L86.1259 42.3031L86.3754 41.8401L88.8843 37.1826L94.2139 36.7724L94.8493 36.7233L95.1819 36.1063L97.6082 31.6026Z" fill="#F2F2F2"/>
<path d="M101.527 38.0096L106.696 38.4472L107.49 38.5142L108.024 37.8196L111.035 33.9034L116.044 34.3278L116.259 30.6563L110.359 30.464L109.395 30.4326L108.898 31.1541L105.999 35.359L100.974 35.1954L100.186 35.1698L99.779 35.7602L96.7895 40.0962L91.5903 39.9266L90.977 39.9068L90.6605 40.366L87.5811 44.8331L82.2059 44.658L81.768 44.6437L81.5417 44.9719L78.3713 49.5703L72.8207 49.3899L72.558 49.3812L72.4222 49.5782L69.1613 54.308L63.435 54.1221L63.3474 54.1192L63.3023 54.1846L59.9502 59.046L63.4965 54.4347L69.3005 54.9256L69.4596 54.939L69.5664 54.8L73.0051 50.3279L78.6501 50.8057L78.9677 50.8326L79.1813 50.5548L82.5132 46.2215L87.9991 46.686L88.4755 46.7264L88.796 46.3096L92.0204 42.1155L97.3466 42.5669L97.9817 42.6207L98.4093 42.0649L101.527 38.0096Z" fill="#F2F2F2"/>
<path d="M104.367 44.9629L109.397 46.2252L110.17 46.4191L110.809 45.8192L114.41 42.4379L119.286 43.6614L120.088 40.0722L114.295 38.9344L113.349 38.7485L112.742 39.3808L109.206 43.0654L104.272 42.0965L103.499 41.9446L103.002 42.4619L99.3549 46.2613L94.2503 45.2586L93.6484 45.1404L93.2622 45.5427L89.5052 49.4572L84.2279 48.4207L83.7979 48.3363L83.522 48.6238L79.6542 52.6533L74.2047 51.5833L73.9467 51.5324L73.7811 51.7049L69.8027 55.8494L64.1807 54.7459L64.0947 54.7291L64.0396 54.7863L59.9502 59.046L64.1912 55.0643L69.841 56.4814L69.9956 56.5202L70.1235 56.4002L74.2361 52.5388L79.7307 53.9174L80.0399 53.9949L80.2955 53.7549L84.2801 50.0132L89.6202 51.353L90.0839 51.4694L90.4672 51.1096L94.3234 47.4882L99.5081 48.7892L100.126 48.9446L100.637 48.4645L104.367 44.9629Z" fill="#F2F2F2"/>
<path d="M106.052 52.2824L110.815 54.3365L111.546 54.652L112.273 54.1627L116.37 51.4034L120.986 53.3945L122.355 49.981L116.82 47.9271L115.916 47.5919L115.215 48.1184L111.133 51.1868L106.419 49.4379L105.68 49.1635L105.107 49.5943L100.897 52.7585L96.0196 50.9486L95.4443 50.7352L94.9986 51.0705L90.6616 54.3302L85.6195 52.4594L85.2085 52.3072L84.8902 52.5464L80.4252 55.9021L75.2183 53.9704L74.9717 53.8788L74.7807 54.0226L70.1884 57.4741L64.8166 55.4814L64.7343 55.451L64.6707 55.4988L59.9502 59.046L64.7757 55.7974L70.1245 58.104L70.2709 58.1671L70.4163 58.0692L75.0957 54.9184L80.2978 57.162L80.5903 57.2884L80.8813 57.0924L85.4151 54.0398L90.4706 56.22L90.9095 56.4094L91.3458 56.1158L95.7334 53.1611L100.642 55.2783L101.227 55.5307L101.809 55.1392L106.052 52.2824Z" fill="#F2F2F2"/>
<path d="M106.539 59.7773L110.91 62.57L111.582 62.999L112.378 62.6328L116.865 60.5678L121.101 63.2746L123 60.1252L117.867 57.2087L117.029 56.7326L116.253 57.1399L111.731 59.5124L107.359 57.0291L106.673 56.6394L106.039 56.9726L101.375 59.4193L96.8518 56.8492L96.3184 56.5461L95.8244 56.8054L91.0203 59.3259L86.344 56.6692L85.9632 56.4529L85.6103 56.6379L80.6642 59.2328L75.8352 56.4893L75.6068 56.3596L75.395 56.4706L70.3079 59.1394L65.3259 56.3097L65.2497 56.2662L65.1793 56.3034L59.9502 59.046L65.2349 56.6149L70.1438 59.7509L70.278 59.8366L70.4374 59.7635L75.562 57.4055L80.3361 60.4557L80.6046 60.6275L80.9232 60.4808L85.8885 58.1961L90.5281 61.1606L90.9308 61.418L91.4085 61.198L96.214 58.9867L100.719 61.8652L101.256 62.2084L101.893 61.9153L106.539 59.7773Z" fill="#F2F2F2"/>
<path d="M105.817 67.2532L109.682 70.712L110.276 71.2433L111.121 71.0096L115.881 69.6927L119.628 73.045L122.008 70.2414L117.41 66.5383L116.659 65.9337L115.828 66.2107L110.983 67.8259L107.068 64.6725L106.453 64.1776L105.773 64.4045L100.777 66.07L96.7254 62.8067L96.2475 62.4218L95.7184 62.5983L90.5716 64.3142L86.3831 60.9409L86.0418 60.666L85.6638 60.7921L80.3651 62.5584L76.0397 59.075L75.835 58.9099L75.6081 58.9856L70.1583 60.8024L65.6957 57.209L65.6274 57.1538L65.552 57.1792L59.9502 59.046L65.5567 57.4957L69.8982 61.3795L70.0169 61.4858L70.1857 61.4392L75.6227 59.9353L79.8449 63.7128L80.0823 63.9254L80.4202 63.832L85.6881 62.3748L89.7911 66.046L90.1475 66.3647L90.6542 66.2246L95.7527 64.8141L99.736 68.3788L100.211 68.804L100.887 68.617L105.817 67.2532Z" fill="#F2F2F2"/>
<path d="M103.903 74.5162L107.162 78.5509L107.663 79.1708L108.534 79.0758L113.445 78.5409L116.604 82.4516L119.403 80.0669L115.46 75.6729L114.816 74.9557L113.951 75.0955L108.91 75.9114L105.552 72.1697L105.025 71.5828L104.317 71.6973L99.1183 72.5385L95.6435 68.6666L95.2339 68.2099L94.6831 68.2991L89.3277 69.1659L85.7353 65.1631L85.4425 64.8371L85.0492 64.9007L79.5358 65.7928L75.826 61.6597L75.6504 61.464L75.4145 61.5022L69.7437 62.4197L65.9162 58.1557L65.8577 58.0906L65.7791 58.1032L59.9502 59.046L65.7329 58.4166L69.3942 62.9475L69.4941 63.0715L69.6685 63.0525L75.2763 62.4418L78.8368 66.8488L79.037 67.0967L79.3855 67.0588L84.8192 66.4668L88.2793 70.7497L88.5797 71.1217L89.1025 71.0647L94.3611 70.4915L97.7201 74.6499L98.1207 75.1459L98.8176 75.0699L103.903 74.5162Z" fill="#F2F2F2"/>
<path d="M100.847 81.3769L103.416 85.8833L103.811 86.5755L104.686 86.6216L109.619 86.8825L112.109 91.2502L115.255 89.3461L112.068 84.3757L111.548 83.5643L110.672 83.5635L105.565 83.5587L102.851 79.3259L102.426 78.6619L101.709 78.6614L96.4421 78.6564L93.6347 74.2764L93.3036 73.7599L92.7458 73.7593L87.3205 73.7546L84.4178 69.2266L84.1812 68.8578L83.7829 68.8573L78.1978 68.852L75.2001 64.1765L75.0582 63.9552L74.819 63.9549L69.0745 63.9494L65.9816 59.126L65.9344 59.0521H65.8548L59.9502 59.046L65.759 59.3539L68.6446 64.4142L68.7237 64.5527L68.8986 64.5619L74.5317 64.8603L77.3382 69.7819L77.4962 70.0589L77.8462 70.0773L83.3042 70.3662L86.0312 75.1493L86.2681 75.5645L86.7932 75.5924L92.0756 75.8715L94.7232 80.5159L95.0389 81.0696L95.739 81.1068L100.847 81.3769Z" fill="#F2F2F2"/>
<path d="M96.7286 87.6578L98.5406 92.5182L98.8192 93.265L99.6753 93.4512L104.502 94.5011L106.258 99.212L109.669 97.8384L107.323 92.4206L106.94 91.5361L106.075 91.3944L101.035 90.5693L99.0365 85.9556L98.7232 85.2317L98.0155 85.1159L92.8183 84.2649L90.7507 79.4908L90.5067 78.9276L89.9563 78.8376L84.6024 77.961L82.4646 73.0257L82.2906 72.6235L81.8973 72.5591L76.3855 71.6564L74.1778 66.5599L74.0733 66.3188L73.8375 66.28L68.1682 65.3517L65.8906 60.0941L65.8556 60.0136L65.777 60.0007L59.9502 59.046L65.634 60.2832L67.6694 65.7416L67.7251 65.8909L67.8963 65.9281L73.4084 67.1276L75.3879 72.4362L75.4992 72.7348L75.8416 72.8094L81.1825 73.9714L83.1058 79.1304L83.2728 79.5786L83.7866 79.6902L88.9555 80.8148L90.8227 85.8239L91.0453 86.4212L91.7303 86.5702L96.7286 87.6578Z" fill="#F2F2F2"/>
<path d="M91.6551 93.1954L92.6627 98.2839L92.8175 99.0656L93.6328 99.3868L98.2281 101.199L99.2045 106.131L102.792 105.323L101.346 99.5984L101.11 98.6638L100.279 98.385L95.4378 96.7611L94.2062 91.8859L94.0132 91.1214L93.3335 90.8932L88.3405 89.2182L87.0665 84.1739L86.9164 83.579L86.3876 83.4015L81.2439 81.6763L79.9267 76.4614L79.8194 76.0367L79.4417 75.9098L74.1464 74.1334L72.7862 68.7483L72.7215 68.4935L72.495 68.4175L67.0488 66.5902L65.6451 61.0348L65.6234 60.9498L65.548 60.9245L59.9502 59.046L65.3615 61.1804L66.4936 66.8949L66.5247 67.0511L66.6877 67.1154L71.9355 69.1849L73.0365 74.7425L73.0985 75.0554L73.4245 75.1838L78.5093 77.1889L79.5788 82.5901L79.6717 83.0591L80.1609 83.2519L85.0822 85.1921L86.1204 90.4363L86.2441 91.0618L86.8964 91.319L91.6551 93.1954Z" fill="#F2F2F2"/>
<path d="M85.7577 97.8458L85.9349 103.03L85.9624 103.826L86.7152 104.275L90.9599 106.802L91.1316 111.826L94.8021 111.605L94.2946 105.723L94.2118 104.762L93.4363 104.354L88.9186 101.973L88.4863 96.9634L88.4185 96.1775L87.7842 95.8433L83.1251 93.3877L82.678 88.2041L82.6253 87.5929L82.1318 87.3328L77.3321 84.8036L76.8697 79.4449L76.832 79.0083L76.4796 78.8226L71.5386 76.2184L71.0609 70.6846L71.0382 70.4226L70.8267 70.3113L65.7448 67.6328L65.2515 61.924L65.2442 61.8367L65.1735 61.7995L59.9502 59.046L64.9485 62.0221L65.1479 67.8443L65.1534 68.0034L65.304 68.0931L70.1512 70.979L70.345 76.6413L70.3559 76.96L70.6571 77.1391L75.3539 79.9353L75.5419 85.438L75.5583 85.916L76.0101 86.1848L80.5558 88.8905L80.738 94.2334L80.7599 94.8707L81.3624 95.2292L85.7577 97.8458Z" fill="#F2F2F2"/>
<path d="M79.19 101.488L78.5322 106.634L78.4312 107.424L79.1025 107.988L82.8861 111.164L82.2483 116.15L85.9067 116.522L86.3509 110.635L86.4234 109.673L85.7237 109.146L81.647 106.07L82.0249 101.056L82.0843 100.269L81.5117 99.8374L77.3076 96.6653L77.699 91.4773L77.7451 90.8653L77.2999 90.5295L72.9689 87.2619L73.3733 81.8984L73.4063 81.4613L73.0882 81.2215L68.6295 77.8571L69.0471 72.3188L69.0669 72.0566L68.8759 71.9125L64.2901 68.4521L64.7203 62.7383L64.7269 62.651L64.6634 62.603L59.9502 59.046L64.4054 62.7866L63.6671 68.565L63.6471 68.7233L63.7811 68.8359L68.102 72.4628L67.3838 78.0829L67.3432 78.3992L67.6117 78.6245L71.7984 82.1387L71.1002 87.6003L71.0395 88.0746L71.4423 88.4128L75.4942 91.8136L74.8161 97.1164L74.7351 97.7487L75.2721 98.1995L79.19 101.488Z" fill="#F2F2F2"/>
<path d="M72.1225 104.029L70.6468 109.001L70.4202 109.765L70.9921 110.429L74.2165 114.172L72.7859 118.991L76.3372 119.946L77.7211 114.206L77.9472 113.269L77.3413 112.636L73.8117 108.945L74.9902 104.057L75.1751 103.29L74.6794 102.772L71.0395 98.9653L72.2592 93.9076L72.4029 93.3112L72.0173 92.9081L68.2674 88.9871L69.5282 83.7582L69.6308 83.3321L69.3554 83.0443L65.4953 79.0075L66.7969 73.6079L66.8584 73.3523L66.6933 73.1795L62.7229 69.0274L64.0654 63.4569L64.086 63.3717L64.0309 63.3142L59.9502 59.046L63.7468 63.4537L62.0898 69.0388L62.0445 69.1915L62.1589 69.3242L65.8408 73.5984L64.2292 79.0299L64.1385 79.3357L64.3674 79.601L67.9351 83.7423L66.3686 89.0208L66.2325 89.4793L66.5756 89.8776L70.0288 93.8854L68.5074 99.0104L68.3262 99.6216L68.7838 100.153L72.1225 104.029Z" fill="#F2F2F2"/>
<path d="M64.7388 105.4L62.4834 110.071L62.137 110.789L62.5949 111.536L65.1761 115.748L62.99 120.275L66.3419 121.788L68.6298 116.345L69.0033 115.457L68.5072 114.734L65.6163 110.524L67.5645 105.889L67.8702 105.162L67.4642 104.57L64.4829 100.229L66.4994 95.4326L66.737 94.867L66.4213 94.4072L63.3501 89.9346L65.4341 84.9761L65.6039 84.5722L65.3784 84.2438L62.2167 79.639L64.3687 74.5188L64.4708 74.2764L64.3352 74.0793L61.0836 69.3432L63.3034 64.0607L63.3374 63.98L63.2923 63.9143L59.9502 59.046L62.9895 64.0064L60.4569 69.2527L60.3875 69.3962L60.4793 69.5455L63.4268 74.3558L60.9636 79.4581L60.8251 79.7451L61.0081 80.044L63.8642 84.7046L61.4703 89.6629L61.2624 90.0934L61.5373 90.5419L64.3015 95.0522L61.9769 99.8662L61.6997 100.44L62.0661 101.038L64.7388 105.4Z" fill="#F2F2F2"/>
<path d="M57.2307 105.567L54.2542 109.815L53.7971 110.468L54.1289 111.279L56 115.851L53.1152 119.968L56.1804 122L59.3128 116.996L59.8243 116.179L59.4508 115.386L57.2737 110.766L59.9411 106.504L60.3597 105.835L60.054 105.186L57.8089 100.422L60.5694 96.0121L60.8949 95.4922L60.657 94.9876L58.344 90.0794L61.1977 85.5206L61.4301 85.1491L61.2602 84.7885L58.8795 79.7358L61.826 75.0277L61.9655 74.805L61.8634 74.5887L59.4147 69.3915L62.4542 64.5345L62.5007 64.4601L62.4666 64.3881L59.9501 59.046L62.153 64.4303L58.8106 69.2015L58.7194 69.3321L58.7856 69.4943L60.9223 74.7156L57.6715 79.3557L57.4887 79.6166L57.6213 79.9411L59.6916 85.0001L56.5323 89.5094L56.258 89.9011L56.4571 90.3875L58.4612 95.2838L55.3933 99.6617L55.0275 100.184L55.2931 100.833L57.2307 105.567Z" fill="#F2F2F2"/>
<path d="M49.7933 104.526L46.1732 108.241L45.6172 108.811L45.8145 109.665L46.927 114.478L43.4182 118.079L46.117 120.577L50.0128 116.141L50.649 115.416L50.4074 114.574L49.0007 109.664L52.3183 105.886L52.8387 105.293L52.6412 104.604L51.1905 99.5406L54.6236 95.6315L55.0285 95.1706L54.8747 94.6344L53.3802 89.4184L56.9289 85.3771L57.218 85.0478L57.1082 84.6648L55.57 79.295L59.2344 75.1216L59.408 74.924L59.3423 74.6942L57.76 69.1712L61.5402 64.8656L61.598 64.7996L61.5761 64.7231L59.9503 59.046L61.2596 64.7144L57.1945 68.8866L57.0832 69.0008L57.1227 69.1715L58.3928 74.6684L54.439 78.7258L54.2166 78.954L54.2955 79.2956L55.5262 84.6216L51.6834 88.5645L51.3498 88.9071L51.4682 89.4194L52.6596 94.5739L48.9287 98.4021L48.4838 98.8585L48.6415 99.5417L49.7933 104.526Z" fill="#F2F2F2"/>
<path d="M42.6198 102.303L38.45 105.388L37.8093 105.862L37.8671 106.737L38.1917 111.666L34.1504 114.656L36.4129 117.555L40.9707 113.802L41.7148 113.19L41.6119 112.319L41.0122 107.247L44.8934 104.051L45.5022 103.55L45.418 102.838L44.7995 97.607L48.8158 94.3004L49.2895 93.9105L49.2241 93.3565L48.5866 87.9683L52.7385 84.5495L53.0769 84.271L53.0299 83.8753L52.3742 78.3282L56.6617 74.7979L56.8645 74.6307L56.8365 74.3932L56.1621 68.6877L60.5848 65.0455L60.6524 64.9895L60.6431 64.9104L59.9502 59.046L60.3322 64.8511L55.6496 68.316L55.5214 68.4107L55.533 68.5856L55.9036 74.2152L51.3492 77.5846L51.0931 77.7743L51.1161 78.1241L51.4753 83.5785L47.0494 86.853L46.6648 87.1373L46.6996 87.662L47.0475 92.9411L42.7498 96.12L42.2373 96.4991L42.2835 97.1987L42.6198 102.303Z" fill="#F2F2F2"/>
<path d="M35.8964 98.9571L31.2851 101.332L30.5766 101.697L30.493 102.569L30.0219 107.487L25.5527 109.788L27.3202 113.013L32.4216 110.042L33.2546 109.557L33.2926 108.681L33.5154 103.578L37.8596 101.047L38.5411 100.65L38.5723 99.934L38.8023 94.6721L43.2976 92.0537L43.8275 91.7448L43.852 91.1876L44.0883 85.7669L48.7355 83.0596L49.114 82.8391L49.1314 82.441L49.3752 76.8605L54.174 74.0648L54.4011 73.9324L54.4117 73.6937L54.6623 67.9538L59.6128 65.0695L59.6885 65.0252L59.6919 64.9458L59.9502 59.046L59.3947 64.8371L54.2162 67.5045L54.0746 67.5776L54.0577 67.752L53.5194 73.3679L48.4831 75.962L48.1998 76.1079L48.1663 76.4569L47.6446 81.8982L42.75 84.419L42.3251 84.6379L42.275 85.1613L41.7704 90.4276L37.0179 92.8748L36.4514 93.1666L36.3844 93.8646L35.8964 98.9571Z" fill="#F2F2F2"/>
<path d="M29.7978 94.5739L24.865 96.177L24.1072 96.4234L23.8846 97.271L22.6296 102.049L17.8486 103.603L19.0754 107.07L24.5877 104.956L25.4877 104.611L25.666 103.753L26.7055 98.7527L31.3999 96.9526L32.1363 96.6703L32.2822 95.9681L33.3544 90.8115L38.2118 88.9493L38.7847 88.7299L38.8981 88.1836L40.0022 82.8713L45.024 80.9459L45.4331 80.7889L45.5141 80.399L46.6511 74.9301L51.8367 72.9416L52.082 72.8474L52.1308 72.6134L53.3003 66.9886L58.6497 64.9371L58.7317 64.9057L58.7478 64.8276L59.9503 59.046L58.4716 64.6727L52.9321 66.4734L52.7807 66.5227L52.7361 66.6921L51.3026 72.1486L45.915 73.8997L45.6117 73.9983L45.5228 74.3373L44.1338 79.6243L38.8979 81.326L38.4431 81.4737L38.3097 81.9823L36.9658 87.0991L31.8821 88.751L31.2757 88.948L31.0976 89.626L29.7978 94.5739Z" fill="#F2F2F2"/>
<path d="M24.4823 89.268L19.3561 90.0575L18.5688 90.1789L18.2127 90.9798L16.2065 95.4941L11.238 96.2593L11.8919 99.8786L17.6722 98.6783L18.616 98.4823L18.9299 97.664L20.759 92.8954L25.6816 91.8732L26.4537 91.7128L26.7106 91.0433L28.597 86.1257L33.6905 85.0682L34.2913 84.9436L34.491 84.4227L36.4341 79.3568L41.6999 78.2634L42.1287 78.1742L42.2714 77.8022L44.2723 72.5871L49.7098 71.4575L49.9672 71.4042L50.0527 71.181L52.1105 65.8168L57.7202 64.6516L57.8059 64.6337L57.8344 64.5593L59.9501 59.046L57.587 64.362L51.8299 65.2494L51.6724 65.2737L51.6012 65.4338L49.3099 70.5891L43.711 71.452L43.3961 71.5005L43.2537 71.8207L41.0336 76.8159L35.5922 77.654L35.1198 77.7268L34.9062 78.2074L32.7578 83.042L27.4749 83.8555L26.8448 83.9526L26.5599 84.5931L24.4823 89.268Z" fill="#F2F2F2"/>
<path d="M20.0887 83.1768L14.9021 83.1327L14.1053 83.1258L13.6255 83.8592L10.9201 87.9926L5.89331 87.9496L5.9574 91.6266L11.8551 91.3707L12.8184 91.329L13.2596 90.5717L15.8311 86.1589L20.8536 85.9408L21.6415 85.9068L22.0026 85.2871L24.6547 80.7364L29.8518 80.5111L30.4646 80.4845L30.7455 80.0025L33.4772 75.3147L38.8501 75.0815L39.2879 75.0622L39.4884 74.7182L42.3009 69.8921L47.8491 69.651L48.1118 69.6397L48.2323 69.4331L51.125 64.4693L56.8489 64.2203L56.9365 64.2166L56.9766 64.1478L59.9502 59.046L56.764 63.9133L50.9391 63.8642L50.7797 63.8629L50.6837 64.0093L47.594 68.7296L41.9292 68.6816L41.6106 68.679L41.4186 68.9723L38.4249 73.5457L32.9199 73.4987L32.4417 73.4948L32.1537 73.9348L29.2568 78.3612L23.9117 78.3153L23.2741 78.31L22.8901 78.8965L20.0887 83.1768Z" fill="#F2F2F2"/>
<path d="M16.7301 76.4587L11.6181 75.5819L10.8326 75.4471L10.2413 76.0939L6.90707 79.7387L1.95257 78.8888L1.42505 82.5284L7.28742 83.2235L8.24461 83.3369L8.80193 82.6603L12.0486 78.7181L17.0413 79.3098L17.8244 79.4027L18.2802 78.8492L21.6287 74.7839L26.7947 75.3964L27.4037 75.4687L27.7585 75.0379L31.2077 70.85L36.5483 71.4828L36.9833 71.5345L37.2365 71.2269L40.7878 66.9155L46.3028 67.5692L46.5639 67.6L46.7158 67.4154L50.3684 62.981L56.0577 63.655L56.1448 63.6653L56.1954 63.6038L59.9501 59.046L56.0232 63.3382L50.2821 62.3537L50.1252 62.3268L50.0068 62.4561L46.1991 66.6187L40.6155 65.6609L40.3014 65.6071L40.0648 65.8659L36.3753 69.899L30.9492 68.9681L30.4779 68.8874L30.1231 69.2754L26.5526 73.1787L21.2842 72.2747L20.6559 72.1671L20.1827 72.6844L16.7301 76.4587Z" fill="#F2F2F2"/>
<path d="M14.4946 69.2886L9.5897 67.6016L8.8364 67.3426L8.14877 67.8857L4.27227 70.9476L-0.481245 69.3126L-1.58667 72.8202L4.0879 74.4481L5.01449 74.714L5.67311 74.1355L9.5111 70.7664L14.3437 72.1526L15.1018 72.37L15.6407 71.897L19.5987 68.4223L24.5991 69.8571L25.1888 70.0261L25.6079 69.6582L29.6849 66.0785L34.8546 67.5615L35.2759 67.6823L35.5752 67.4193L39.7727 63.7347L45.111 65.2657L45.364 65.338L45.5436 65.1805L49.8608 61.3904L55.3682 62.9697L55.4526 62.9939L55.5124 62.9412L59.9502 59.046L55.3851 62.6515L49.8767 60.7575L49.7258 60.7055L49.5884 60.8142L45.1614 64.3108L39.8041 62.4685L39.5029 62.3651L39.2278 62.5822L34.9385 65.9703L29.7321 64.1797L29.28 64.0243L28.8675 64.3501L24.7164 67.6293L19.6617 65.8907L19.059 65.6833L18.5088 66.1178L14.4946 69.2886Z" fill="#F2F2F2"/>
<path d="M13.4397 61.852L8.86954 59.399L8.16741 59.0223L7.40144 59.4478L3.08366 61.8472L-1.34569 59.4697L-3 62.7542L2.33933 65.2726L3.21132 65.6838L3.95434 65.219L8.28346 62.5101L12.8307 64.6548L13.5439 64.9911L14.1519 64.6107L18.6166 61.8172L23.3216 64.0367L23.8765 64.2984L24.3492 64.0024L28.9484 61.1244L33.8127 63.4187L34.2089 63.6057L34.5467 63.3944L39.2815 60.4317L44.3046 62.8006L44.5425 62.9127L44.7451 62.7861L49.6152 59.739L54.7973 62.1825L54.8767 62.22L54.9442 62.1778L59.9501 59.046L54.8651 61.8712L49.7325 59.1167L49.592 59.0413L49.4387 59.1265L44.5077 61.8665L39.516 59.1871L39.2351 59.0365L38.9289 59.2069L34.1508 61.8617L29.3 59.2578L28.8788 59.0318L28.419 59.2871L23.7953 61.8567L19.0856 59.3285L18.5237 59.027L17.911 59.3676L13.4397 61.852Z" fill="#F2F2F2"/>
<path d="M13.5931 54.3429L9.47627 51.1874L8.84403 50.7028L8.01951 50.9998L3.3723 52.6741L-0.61736 49.6157L-2.77783 52.5918L2.08752 55.9354L2.88197 56.4814L3.69013 56.1419L8.39828 54.1637L12.542 57.0111L13.1919 57.4577L13.8529 57.18L18.7085 55.1403L22.9956 58.0869L23.5013 58.4343L24.0156 58.2183L29.0173 56.1166L33.4498 59.1624L33.8109 59.4106L34.1783 59.2563L39.3275 57.0929L43.9048 60.2381L44.1216 60.3872L44.3419 60.2946L49.6382 58.0695L54.3606 61.3139L54.4329 61.3635L54.5062 61.3329L59.9502 59.046L54.4774 61.0174L49.854 57.4741L49.7274 57.3773L49.5625 57.4366L44.2553 59.3486L39.7587 55.9024L39.5058 55.7085L39.1761 55.8272L34.0338 57.6798L29.6641 54.3307L29.2848 54.0398L28.79 54.2181L23.8133 56.0114L19.571 52.759L19.0651 52.3713L18.4054 52.609L13.5931 54.3429Z" fill="#F2F2F2"/>
<path d="M14.9506 46.9556L11.3943 43.1799L10.8481 42.5998L9.98663 42.7605L5.13077 43.6666L1.68394 40.007L-0.926514 42.5972L3.33878 46.6791L4.03511 47.3455L4.88732 47.1403L9.85211 45.9442L13.4844 49.4205L14.0544 49.9657L14.7515 49.798L19.8714 48.5647L23.6297 52.1618L24.0731 52.586L24.6154 52.4552L29.8896 51.1845L33.7753 54.9032L34.0918 55.206L34.4793 55.1126L39.9091 53.805L43.9217 57.6448L44.1118 57.8265L44.3442 57.7706L49.9291 56.4252L54.0688 60.3864L54.1322 60.447L54.2097 60.4283L59.9502 59.046L54.2319 60.1125L50.2374 55.8723L50.1283 55.7563L49.956 55.7884L44.4104 56.823L40.526 52.6989L40.3076 52.467L39.9629 52.5314L34.5898 53.5338L30.8151 49.5257L30.4872 49.1778L29.9703 49.2741L24.7702 50.2446L21.1052 46.3531L20.6682 45.8891L19.979 46.0175L14.9506 46.9556Z" fill="#F2F2F2"/>
<path d="M17.4772 39.8828L14.5737 35.5845L14.1274 34.9243L13.2515 34.9443L8.31331 35.0585L5.49923 30.8925L2.50659 33.0297L6.06052 37.744L6.64079 38.5137L7.5149 38.448L12.6073 38.0653L15.6343 42.0799L16.109 42.7096L16.8241 42.6558L22.0756 42.2614L25.2072 46.4156L25.5768 46.9055L26.133 46.8635L31.5428 46.4568L34.7807 50.7513L35.0445 51.1014L35.4417 51.0713L41.0113 50.6529L44.355 55.0876L44.5133 55.2975L44.7517 55.2796L50.4801 54.8494L53.9298 59.4241L53.9828 59.494L54.0622 59.4882L59.9502 59.046L54.1348 59.1798L50.8734 54.3532L50.7842 54.221L50.6091 54.225L44.9696 54.3553L41.7979 49.6605L41.6195 49.3965L41.269 49.4047L35.8047 49.5308L32.7226 44.9682L32.4549 44.5722L31.9292 44.5844L26.6411 44.7065L23.6487 40.2766L23.2918 39.7485L22.591 39.7646L17.4772 39.8828Z" fill="#F2F2F2"/>
<path d="M21.1069 33.3075L18.9314 28.5985L18.5972 27.8752L17.7294 27.7543L12.8369 27.0735L10.7287 22.5096L7.4314 24.1383L10.1822 29.3622L10.6314 30.2153L11.5044 30.2907L16.5924 30.7313L18.9348 35.1799L19.3025 35.8779L20.0168 35.9396L25.2635 36.3941L27.6872 40.9976L27.9732 41.5404L28.5289 41.5884L33.9339 42.0562L36.4399 46.8152L36.6441 47.2028L37.041 47.2373L42.6053 47.719L45.1934 52.6332L45.3158 52.8659L45.5539 52.8867L51.2773 53.3821L53.9474 58.452L53.9882 58.5295L54.0676 58.5364L59.95 59.046L54.1887 58.2438L51.7449 52.9556L51.6782 52.811L51.5047 52.7867L45.9174 52.0091L43.5412 46.8659L43.4074 46.5765L43.0603 46.5282L37.6466 45.7748L35.3374 40.7765L35.1369 40.3426L34.6163 40.27L29.3769 39.5412L27.1349 34.6879L26.8677 34.1091L26.1732 34.0126L21.1069 33.3075Z" fill="#F2F2F2"/>
<path d="M25.7461 27.4009L24.3553 22.4036L24.1416 21.6359L23.3044 21.3772L18.5847 19.9192L17.2369 15.0757L13.7212 16.1535L15.5968 21.7515L15.9033 22.6658L16.7529 22.8805L21.7037 24.1327L23.3015 28.9L23.5521 29.6479L24.2471 29.8238L29.3528 31.1151L31.0058 36.0483L31.2007 36.6299L31.7414 36.7669L37.0011 38.0969L38.71 43.1965L38.8492 43.612L39.2356 43.7099L44.6502 45.0795L46.4152 50.3456L46.4989 50.5949L46.7304 50.6537L52.2998 52.0624L54.1208 57.4952L54.1487 57.5783L54.226 57.5978L59.9502 59.046L54.3924 57.3285L52.8302 51.7165L52.7872 51.563L52.62 51.5113L47.2303 49.846L45.711 44.3878L45.6253 44.0808L45.2906 43.9771L40.0683 42.3638L38.5921 37.0594L38.4639 36.5986L37.9614 36.4434L32.9072 34.8823L31.4742 29.732L31.3033 29.1179L30.6333 28.9108L25.7461 27.4009Z" fill="#F2F2F2"/>
<path d="M31.2734 22.3163L30.7034 17.1604L30.6158 16.3685L29.8312 15.9786L25.4071 13.7812L24.8548 8.78421L21.2114 9.28304L22.1636 15.1097L22.319 16.0612L23.1232 16.4097L27.8086 18.4411L28.6197 23.4034L28.7471 24.1818L29.4049 24.467L34.2368 26.5618L35.0758 31.6965L35.1747 32.3019L35.6864 32.5237L40.6641 34.6816L41.5319 39.9899L41.6026 40.4222L41.9681 40.5808L47.0922 42.8027L47.9885 48.2841L48.031 48.5436L48.2502 48.6386L53.5209 50.9238L54.4457 56.5788L54.4596 56.6653L54.533 56.697L59.9501 59.046L54.7405 56.458L54.0999 50.6677L54.0822 50.5092L53.9253 50.4313L48.8732 47.9216L48.2504 42.2904L48.2153 41.9736L47.9015 41.8174L43.0063 39.3861L42.401 33.9131L42.3485 33.438L41.8777 33.2041L37.1397 30.851L36.5526 25.5374L36.4827 24.9038L35.8547 24.592L31.2734 22.3163Z" fill="#F2F2F2"/>
<path d="M37.5459 18.1861L37.8116 13.0054L37.8522 12.2096L37.1403 11.6989L33.1266 8.8193L33.3843 3.79826L29.708 3.70514L29.712 9.60936L29.7125 10.5733L30.4502 11.0465L34.7488 13.8045L34.7522 18.8324L34.7527 19.6211L35.3562 20.0083L39.7887 22.8526L39.7921 28.0551L39.7924 28.6687L40.2619 28.9699L44.8284 31.8996L44.8321 37.2781L44.8324 37.7163L45.1676 37.9315L49.8686 40.9477L49.8726 46.5019L49.8728 46.7649L50.0741 46.8939L54.9091 49.9963L54.9133 55.7265L54.9136 55.814L54.9806 55.857L59.9501 59.046L55.224 55.6544L55.5216 49.8365L55.5297 49.6774L55.3873 49.5751L50.8039 46.2864L51.0938 40.6283L51.1102 40.3099L50.8253 40.1054L46.3843 36.9191L46.6663 31.42L46.6906 30.9426L46.2635 30.636L41.9653 27.5523L42.2391 22.2134L42.2718 21.5769L41.7023 21.168L37.5459 18.1861Z" fill="#F2F2F2"/>
<path d="M44.4004 15.1171L45.4948 10.0465L45.6628 9.26747L45.0422 8.64888L41.5431 5.16179L42.6039 0.247328L38.9904 -0.435104L38.0459 5.39314L37.8918 6.34464L38.5439 6.93026L42.3434 10.343L41.5391 15.3062L41.4128 16.0847L41.9464 16.564L45.8646 20.0833L45.0321 25.2188L44.934 25.8244L45.3489 26.1972L49.3855 29.8225L48.5251 35.1319L48.4552 35.5645L48.7514 35.8307L52.9067 39.5631L52.0187 45.0457L51.9765 45.3053L52.1545 45.4649L56.4282 49.3039L55.5122 54.9601L55.4982 55.0467L55.5576 55.0999L59.9502 59.046L55.8303 54.9393L57.0586 49.2445L57.0924 49.0889L56.9681 48.9652L52.9724 44.9827L54.1675 39.4444L54.2348 39.1328L53.9863 38.8854L50.1148 35.0269L51.2764 29.6447L51.3772 29.1773L51.0048 28.8061L47.2578 25.0718L48.3859 19.8461L48.5204 19.223L48.0237 18.7281L44.4004 15.1171Z" fill="#F2F2F2"/>
<path d="M51.6587 13.1893L53.5533 8.36029L53.8442 7.61851L53.331 6.90811L50.4378 2.90426L52.2741 -1.77596L48.8172 -3.03003L46.9487 2.57056L46.6436 3.48513L47.1932 4.16783L50.395 8.14662L48.804 12.9163L48.5545 13.6644L49.004 14.2231L52.306 18.3261L50.6593 23.2614L50.4652 23.8434L50.8149 24.2781L54.2167 28.5046L52.5149 33.6069L52.3762 34.0226L52.6259 34.3328L56.1276 38.6844L54.3705 43.9531L54.2871 44.2027L54.4369 44.3889L58.0388 48.8647L56.226 54.3001L56.1983 54.3835L56.2482 54.4455L59.9501 59.046L56.5433 54.3305L58.6706 48.9074L58.7286 48.7589L58.626 48.617L55.3218 44.0441L57.3911 38.7698L57.5074 38.4733L57.3022 38.189L54.1009 33.7586L56.1118 28.6328L56.2864 28.1878L55.9783 27.7615L52.8797 23.4738L54.8326 18.4973L55.0655 17.9038L54.6548 17.3356L51.6587 13.1893Z" fill="#F2F2F2"/>
</g>
</g>
<path d="M64.8507 46.303C75.2785 42.2989 71.8237 30.6875 71.8237 30.6875C64.5461 31.9827 58.3233 39.3181 60.434 47.8859" fill="url(#paint10_linear_460_51859)"/>
<path d="M60.434 47.8859C60.607 47.8559 60.7757 47.8432 60.9618 47.8348C61.1111 47.7897 61.2495 47.7509 61.3924 47.6949C62.0783 47.4905 62.7469 47.2817 63.3982 47.0686C63.9177 46.8315 64.396 46.5748 64.8507 46.303C73.4232 41.1773 71.8237 30.6875 71.8237 30.6875C64.5461 31.9827 58.3233 39.3181 60.434 47.8859Z" fill="url(#paint11_linear_460_51859)"/>
<path d="M60.4338 47.8859C60.6069 47.8559 60.7756 47.8432 60.9616 47.8348C61.111 47.7897 61.2494 47.7509 61.3922 47.6949C62.0781 47.4905 62.7468 47.2817 63.3981 47.0686C63.9175 46.8315 64.356 46.4929 64.8505 46.303" fill="url(#paint12_linear_460_51859)"/>
<path d="M61.6499 48.4797C61.8484 48.5692 62.0304 48.6734 62.2271 48.7941C62.4118 48.8516 62.5808 48.908 62.7663 48.9499C63.6124 49.2169 64.4438 49.4673 65.2604 49.7015C65.9583 49.8192 66.64 49.7936 67.2833 49.9253C81.1089 52.7568 85.2942 38.7478 85.2942 38.7478C76.9246 35.0182 65.439 38.2202 61.6499 48.4797Z" fill="url(#paint13_linear_460_51859)"/>
<path d="M61.6499 48.4797C61.8484 48.5692 62.0304 48.6734 62.2271 48.7941C62.4118 48.8516 62.5808 48.908 62.7663 48.9499C63.6124 49.2169 64.4438 49.4673 65.2604 49.7015C65.9583 49.8192 66.6277 49.8883 67.2833 49.9253C79.6445 50.6242 85.2942 38.7478 85.2942 38.7478C76.9246 35.0182 65.439 38.2202 61.6499 48.4797Z" fill="url(#paint14_linear_460_51859)"/>
<path d="M35.9809 57.8419C27.7899 60.9911 23.1516 79.6755 37.8554 85.92C49.6792 90.9404 58.6051 81.3797 59.8725 73.2404C60.1791 71.2551 60.0402 69.3524 59.3669 67.7712C56.2368 60.3476 50.1659 63.8784 47.6744 62.8072C45.1071 61.6782 43.4616 54.9607 35.9809 57.8419Z" fill="#CB1A1E"/>
<path d="M35.9809 57.8419C27.7899 60.9911 23.1516 79.6755 37.8554 85.92C49.6792 90.9404 58.6051 81.3797 59.8725 73.2404C60.1791 71.2551 60.0402 69.3524 59.3669 67.7712C56.2368 60.3476 50.1659 63.8784 47.6744 62.8072C45.1071 61.6782 43.4616 54.9607 35.9809 57.8419Z" fill="url(#paint15_linear_460_51859)"/>
<path opacity="0.45" d="M57.6773 69.8124C57.969 67.9234 57.8419 66.1178 57.2505 64.5841C58.0341 65.313 58.7578 66.3265 59.3669 67.7711C60.0402 69.3524 60.1791 71.2551 59.8725 73.2404C58.605 81.3797 49.6792 90.9403 37.8554 85.92C33.6725 84.1436 31.0589 81.3593 29.6431 78.2134C31.1163 79.919 33.086 81.3987 35.6602 82.492C47.484 87.5123 56.4098 77.9517 57.6773 69.8124Z" fill="url(#paint16_radial_460_51859)"/>
<path d="M51.2675 66.8419C49.9305 67.5272 48.0118 67.9175 45.8712 66.6362C42.6873 64.7406 42.8636 61.0595 44.2908 60.9887C45.6775 60.9205 44.9596 63.6901 48.4489 63.5429C49.7967 63.4938 50.793 63.6922 51.512 63.9748C52.6542 64.4276 52.5051 66.2259 51.2675 66.8419Z" fill="url(#paint17_linear_460_51859)"/>
<path d="M32.6593 64.1321C30.2096 66.869 29.5962 70.3162 31.2894 71.8317C32.9825 73.3473 36.3411 72.3571 38.7908 69.6202C41.2406 66.8833 41.854 63.4361 40.1608 61.9206C38.4677 60.4051 35.1091 61.3952 32.6593 64.1321Z" fill="url(#paint18_radial_460_51859)"/>
<path d="M34.2262 63.9746C33.1766 65.1473 32.9138 66.6242 33.6392 67.2736C34.3646 67.9229 35.8036 67.4986 36.8532 66.326C37.9028 65.1534 38.1656 63.6764 37.4402 63.0271C36.7148 62.3778 35.2758 62.802 34.2262 63.9746Z" fill="url(#paint19_radial_460_51859)"/>
<path d="M60.774 46.211C55.5409 50.1685 49.5385 54.8703 46.7773 65.8814L47.615 66.065C50.8713 60.5894 55.2439 53.0838 63.0086 48.6388C61.7995 48.4593 60.9383 47.3756 60.774 46.211Z" fill="url(#paint20_linear_460_51859)"/>
<path d="M52.1003 65.0988C48.3266 67.0378 44.2819 64.0941 44.1536 61.0069C42.8618 61.3047 42.7924 64.8011 45.8754 66.639C48.0089 67.9201 49.9282 67.5275 51.2668 66.8398C52.0207 66.4628 52.3646 65.6602 52.2682 64.9806C52.2329 65.0245 52.1727 65.0629 52.1003 65.0988Z" fill="url(#paint21_radial_460_51859)"/>
<path d="M85.6809 58.5215C93.4136 62.6705 95.6784 81.7884 80.3091 86.1447C67.9501 89.6467 60.2902 79.0447 60.0508 70.8108C59.9949 68.8028 60.3707 66.9323 61.2365 65.4477C64.6842 59.4875 69.2579 61.7453 72.1598 62.0399C72.6458 62.096 73.0762 62.0953 73.4581 61.9853C73.829 61.875 74.2009 61.6521 74.5927 61.3631C76.913 59.5822 79.6116 55.2605 85.6809 58.5215Z" fill="#CB1A1E"/>
<path d="M85.6809 58.5215C93.4136 62.6705 95.6784 81.7884 80.3091 86.1447C67.9501 89.6467 60.2902 79.0447 60.0508 70.8108C59.9949 68.8028 60.3707 66.9323 61.2365 65.4477C64.6842 59.4875 69.2579 61.7453 72.1598 62.0399C72.6458 62.096 73.0762 62.0953 73.4581 61.9853C73.829 61.875 74.2009 61.6521 74.5927 61.3631C76.913 59.5822 79.6116 55.2605 85.6809 58.5215Z" fill="url(#paint22_linear_460_51859)"/>
<path opacity="0.45" d="M85.6809 58.5215C85.0124 58.1623 84.3912 57.909 83.8004 57.7203C91.1051 62.4289 92.9268 80.7704 77.9094 85.0269C74.2892 86.0527 71.076 85.8621 68.3306 84.8816C71.5329 86.7536 75.5746 87.4862 80.3091 86.1446C95.6784 81.7883 93.4136 62.6705 85.6809 58.5215Z" fill="url(#paint23_radial_460_51859)"/>
<path d="M69.3886 65.5389C70.6294 66.386 72.4842 67.0132 74.7682 66.0098C78.1643 64.5272 78.4498 60.8531 77.0426 60.6042C75.6753 60.3631 76.0412 63.2008 72.5977 62.6183C71.2666 62.401 70.2534 62.4732 69.5047 62.6637C68.3148 62.9701 68.2378 64.7729 69.3886 65.5389Z" fill="url(#paint24_linear_460_51859)"/>
<path d="M64.1944 74.5947C64.8546 78.208 67.2019 80.8061 69.4372 80.3977C71.6725 79.9893 72.9495 76.7289 72.2893 73.1156C71.6291 69.5022 69.2819 66.9041 67.0465 67.3126C64.8112 67.721 63.5343 70.9813 64.1944 74.5947Z" fill="url(#paint25_radial_460_51859)"/>
<path d="M65.0306 73.2604C65.3134 74.8085 66.3191 75.9217 67.2768 75.7467C68.2346 75.5717 68.7817 74.1748 68.4988 72.6267C68.216 71.0785 67.2103 69.9654 66.2526 70.1404C65.2948 70.3153 64.7477 71.7122 65.0306 73.2604Z" fill="url(#paint26_radial_460_51859)"/>
<path d="M73.9635 65.1475L73.1095 65.2249C70.1198 58.3667 63.4159 47.3646 53.8284 43.5738L55.0134 39.3256C55.0134 39.3256 71.7349 46.7097 73.9635 65.1475Z" fill="url(#paint27_linear_460_51859)"/>
<path d="M74.7639 66.012C72.487 67.0162 70.6318 66.3866 69.3897 65.5368C68.6889 65.0685 68.4481 64.2293 68.6287 63.5671C68.6583 63.615 68.7132 63.6607 68.7805 63.7053C70.0225 64.5551 71.8778 65.1847 74.1547 64.1805C76.0422 63.3509 76.9708 61.8611 77.1766 60.6395C78.421 61.0965 78.0525 64.5742 74.7639 66.012Z" fill="url(#paint28_radial_460_51859)"/>
<path d="M55.1843 41.6274C54.8997 42.8182 54.3206 43.6938 53.9061 43.5921C53.4791 43.4915 53.3595 42.4513 53.6567 41.2594C53.9413 40.0686 54.5203 39.193 54.9348 39.2948C55.3618 39.3953 55.4689 40.4366 55.1843 41.6274Z" fill="url(#paint29_linear_460_51859)"/>
<path d="M48.9492 75.557C50.791 75.557 52.2841 74.0639 52.2841 72.2221C52.2841 70.3802 50.791 68.8871 48.9492 68.8871C47.1073 68.8871 45.6143 70.3802 45.6143 72.2221C45.6143 74.0639 47.1073 75.557 48.9492 75.557Z" fill="url(#paint30_radial_460_51859)"/>
<path d="M49.3804 72.4476L50.2023 73.4754L49.1744 72.6529L48.9485 74.6921L48.7225 72.6529L47.6946 73.4754L48.5172 72.4476L46.478 72.2216L48.5172 71.995L47.6946 70.9678L48.7225 71.7897L48.9485 69.7512L49.1744 71.7904L50.2023 70.9678L49.3804 71.995L51.4189 72.2216L49.3804 72.4476Z" fill="url(#paint31_radial_460_51859)"/>
<path d="M82.7868 64.5326C84.1392 64.5326 85.2355 63.4363 85.2355 62.084C85.2355 60.7316 84.1392 59.6353 82.7868 59.6353C81.4344 59.6353 80.3381 60.7316 80.3381 62.084C80.3381 63.4363 81.4344 64.5326 82.7868 64.5326Z" fill="url(#paint32_radial_460_51859)"/>
<path d="M82.6793 62.425L82.7862 63.3851L82.8927 62.4247L84.0684 63.3658L83.1273 62.1901L84.0877 62.0836L83.1273 61.977L84.0684 60.8013L82.8924 61.7421L82.7862 60.782L82.6793 61.7421L81.5039 60.8013L82.445 61.977L81.4846 62.0836L82.4443 62.1901L81.5039 63.3658L82.6793 62.425Z" fill="url(#paint33_radial_460_51859)"/>
<path d="M112.5 17C115.538 17 118 14.5376 118 11.5C118 8.46243 115.538 6 112.5 6C109.462 6 107 8.46243 107 11.5C107 14.5376 109.462 17 112.5 17Z" fill="url(#paint34_linear_460_51859)"/>
<path d="M119 4C120.105 4 121 3.10457 121 2C121 0.895431 120.105 0 119 0C117.895 0 117 0.895431 117 2C117 3.10457 117.895 4 119 4Z" fill="url(#paint35_linear_460_51859)"/>
<path d="M9 103C6.23858 103 4 105.239 4 108C4 110.761 6.23858 113 9 113C11.7614 113 14 110.761 14 108C14 105.239 11.7614 103 9 103Z" fill="url(#paint36_linear_460_51859)"/>
<path d="M3 115C1.89543 115 1 115.895 1 117C1 118.105 1.89543 119 3 119C4.10457 119 5 118.105 5 117C5 115.895 4.10457 115 3 115Z" fill="url(#paint37_linear_460_51859)"/>
<path d="M99.7938 106.908C98.5457 111.045 104.415 118.492 111.284 114.657C116.807 111.572 115.783 105.213 112.999 102.262C112.319 101.543 111.537 101.023 110.718 100.807C107.442 99.9322 106.636 102.311 105.728 103.424C105.578 103.613 105.428 103.763 105.256 103.857C105.089 103.948 104.882 104 104.645 104.036C103.216 104.224 100.772 103.659 99.7938 106.908Z" fill="#CB1A1E"/>
<path d="M99.7938 106.908C98.5457 111.045 104.415 118.492 111.284 114.657C116.807 111.572 115.783 105.213 112.999 102.262C112.319 101.543 111.537 101.023 110.718 100.807C107.442 99.9322 106.636 102.311 105.728 103.424C105.578 103.613 105.428 103.763 105.256 103.857C105.089 103.948 104.882 104 104.645 104.036C103.216 104.224 100.772 103.659 99.7938 106.908Z" fill="url(#paint38_linear_460_51859)"/>
<path d="M99.7936 106.908C99.9013 106.55 100.029 106.245 100.169 105.974C99.2653 110.157 105.018 117.179 111.73 113.432C113.348 112.528 114.401 111.343 115.015 110.045C114.552 111.812 113.4 113.475 111.284 114.657C104.414 118.492 98.5456 111.045 99.7936 106.908Z" fill="url(#paint39_radial_460_51859)"/>
<path d="M107.911 103.678C107.774 104.405 107.347 105.269 106.202 105.715C104.503 106.382 103.124 105.201 103.527 104.625C103.919 104.065 104.78 105.18 105.777 103.778C106.164 103.239 106.542 102.911 106.87 102.717C107.391 102.409 108.045 103.01 107.911 103.678Z" fill="url(#paint40_linear_460_51859)"/>
<path d="M112.874 105.023C113.902 106.511 113.989 108.233 113.069 108.869C112.148 109.505 110.568 108.815 109.54 107.326C108.511 105.838 108.424 104.116 109.344 103.48C110.265 102.844 111.845 103.534 112.874 105.023Z" fill="url(#paint41_radial_460_51859)"/>
<path d="M112.118 104.849C112.558 105.487 112.596 106.225 112.201 106.497C111.807 106.77 111.13 106.474 110.689 105.836C110.249 105.199 110.211 104.461 110.606 104.188C111 103.916 111.677 104.211 112.118 104.849Z" fill="url(#paint42_radial_460_51859)"/>
<path d="M106.182 105.135L106.506 104.864C105.159 101.435 103.662 95.269 105.681 90.6101L103.788 89.5434C103.788 89.5434 100.537 97.9379 106.182 105.135Z" fill="url(#paint43_linear_460_51859)"/>
<path d="M106.204 105.714C107.346 105.271 107.773 104.406 107.91 103.678C107.991 103.27 107.782 102.894 107.489 102.727C107.495 102.754 107.492 102.789 107.484 102.828C107.348 103.556 106.921 104.421 105.778 104.865C104.832 105.233 103.99 105.038 103.493 104.684C103.218 105.276 104.558 106.359 106.204 105.714Z" fill="url(#paint44_radial_460_51859)"/>
<path d="M104.531 90.4043C105.044 90.7199 105.551 90.8231 105.66 90.6433C105.774 90.4596 105.453 90.0557 104.934 89.7442C104.421 89.4286 103.914 89.3253 103.805 89.5051C103.692 89.6888 104.017 90.0887 104.531 90.4043Z" fill="url(#paint45_linear_460_51859)"/>
<defs>
<linearGradient id="paint0_linear_460_51859" x1="-0.675577" y1="6.37506" x2="22.2152" y2="13.9037" gradientUnits="userSpaceOnUse">
<stop offset="0.403604" stop-color="#FF4E61"/>
<stop offset="1" stop-color="#C70A30"/>
</linearGradient>
<radialGradient id="paint1_radial_460_51859" cx="0" cy="0" r="1" gradientUnits="userSpaceOnUse" gradientTransform="translate(9.16055 7.67891) rotate(-84.8367) scale(8.36742)">
<stop offset="3e-07" stop-color="white" stop-opacity="0.5"/>
<stop offset="1" stop-color="white" stop-opacity="0"/>
</radialGradient>
<linearGradient id="paint2_linear_460_51859" x1="15.7698" y1="11.8725" x2="12.8264" y2="11.1043" gradientUnits="userSpaceOnUse">
<stop offset="0.403604" stop-color="#FF4E61"/>
<stop offset="1" stop-color="#C70A30"/>
</linearGradient>
<radialGradient id="paint3_radial_460_51859" cx="0" cy="0" r="1" gradientUnits="userSpaceOnUse" gradientTransform="translate(8.14315 14.8771) rotate(100.363) scale(3.87726 3.37038)">
<stop offset="1e-07" stop-color="white" stop-opacity="0.1"/>
<stop offset="1" stop-color="white" stop-opacity="0.1"/>
</radialGradient>
<radialGradient id="paint4_radial_460_51859" cx="0" cy="0" r="1" gradientUnits="userSpaceOnUse" gradientTransform="translate(8.71826 15.81) rotate(100.363) scale(1.661 1.44385)">
<stop offset="1e-07" stop-color="white" stop-opacity="0.1"/>
<stop offset="1" stop-color="white" stop-opacity="0.1"/>
</radialGradient>
<linearGradient id="paint5_linear_460_51859" x1="30.7841" y1="20.6986" x2="12.5296" y2="14.7496" gradientUnits="userSpaceOnUse">
<stop stop-color="#82EA73"/>
<stop offset="0.832433" stop-color="#2FA52F"/>
</linearGradient>
<radialGradient id="paint6_radial_460_51859" cx="0" cy="0" r="1" gradientUnits="userSpaceOnUse" gradientTransform="translate(14.5803 11.6322) rotate(-84.8367) scale(2.43105)">
<stop offset="0.403604" stop-color="#FF4E61"/>
<stop offset="1" stop-color="#C70A30"/>
</radialGradient>
<linearGradient id="paint7_linear_460_51859" x1="30.0151" y1="23.497" x2="27.2827" y2="23.5547" gradientUnits="userSpaceOnUse">
<stop stop-color="#82EA73"/>
<stop offset="0.832433" stop-color="#2FA52F"/>
</linearGradient>
<linearGradient id="paint8_linear_460_51859" x1="28.0673" y1="109.965" x2="69.0238" y2="7.43642" gradientUnits="userSpaceOnUse">
<stop stop-color="#7FB653"/>
<stop offset="1" stop-color="#064514"/>
</linearGradient>
<linearGradient id="paint9_linear_460_51859" x1="40.5589" y1="109.965" x2="85.4742" y2="11.581" gradientUnits="userSpaceOnUse">
<stop stop-color="#74AC4E"/>
<stop offset="1" stop-color="#0A3212"/>
</linearGradient>
<linearGradient id="paint10_linear_460_51859" x1="61.6601" y1="35.7692" x2="70.7918" y2="42.9568" gradientUnits="userSpaceOnUse">
<stop stop-color="#82EA73"/>
<stop offset="0.832433" stop-color="#2FA52F"/>
</linearGradient>
<linearGradient id="paint11_linear_460_51859" x1="74.2447" y1="34.4651" x2="58.2846" y2="44.0077" gradientUnits="userSpaceOnUse">
<stop stop-color="#82EA73"/>
<stop offset="0.832433" stop-color="#2FA52F"/>
</linearGradient>
<linearGradient id="paint12_linear_460_51859" x1="61.4143" y1="46.1279" x2="63.789" y2="47.9968" gradientUnits="userSpaceOnUse">
<stop stop-color="#82EA73"/>
<stop offset="0.832433" stop-color="#2FA52F"/>
</linearGradient>
<linearGradient id="paint13_linear_460_51859" x1="72.3885" y1="41.6123" x2="77.6636" y2="51.3607" gradientUnits="userSpaceOnUse">
<stop stop-color="#82EA73"/>
<stop offset="0.832433" stop-color="#2FA52F"/>
</linearGradient>
<linearGradient id="paint14_linear_460_51859" x1="85.1189" y1="44.384" x2="62.1086" y2="43.0928" gradientUnits="userSpaceOnUse">
<stop stop-color="#82EA73"/>
<stop offset="0.832433" stop-color="#2FA52F"/>
</linearGradient>
<linearGradient id="paint15_linear_460_51859" x1="36.3134" y1="87.5551" x2="52.6954" y2="53.0481" gradientUnits="userSpaceOnUse">
<stop offset="0.403604" stop-color="#FF4E61"/>
<stop offset="1" stop-color="#C70A0A"/>
</linearGradient>
<radialGradient id="paint16_radial_460_51859" cx="0" cy="0" r="1" gradientUnits="userSpaceOnUse" gradientTransform="translate(25.5905 93.1146) rotate(-167.645) scale(42.9751)">
<stop offset="3e-07" stop-color="white" stop-opacity="0.5"/>
<stop offset="1" stop-color="white" stop-opacity="0"/>
</radialGradient>
<linearGradient id="paint17_linear_460_51859" x1="48.2004" y1="62.5241" x2="46.4103" y2="66.9986" gradientUnits="userSpaceOnUse">
<stop offset="0.403604" stop-color="#FF4E61"/>
<stop offset="1" stop-color="#C70A30"/>
</linearGradient>
<radialGradient id="paint18_radial_460_51859" cx="0" cy="0" r="1" gradientUnits="userSpaceOnUse" gradientTransform="translate(35.742 66.8981) rotate(-138.172) scale(6.14134 5.33958)">
<stop offset="1e-07" stop-color="white" stop-opacity="0.1"/>
<stop offset="1" stop-color="white" stop-opacity="0.1"/>
</radialGradient>
<radialGradient id="paint19_radial_460_51859" cx="0" cy="0" r="1" gradientUnits="userSpaceOnUse" gradientTransform="translate(35.5575 65.1732) rotate(-138.172) scale(2.63092 2.28745)">
<stop offset="1e-07" stop-color="white" stop-opacity="0.1"/>
<stop offset="1" stop-color="white" stop-opacity="0.1"/>
</radialGradient>
<linearGradient id="paint20_linear_460_51859" x1="62.1077" y1="41.1068" x2="49.743" y2="67.3361" gradientUnits="userSpaceOnUse">
<stop stop-color="#82EA73"/>
<stop offset="0.832433" stop-color="#2FA52F"/>
</linearGradient>
<radialGradient id="paint21_radial_460_51859" cx="0" cy="0" r="1" gradientUnits="userSpaceOnUse" gradientTransform="translate(47.7989 64.2434) scale(3.91075)">
<stop offset="0.403604" stop-color="#FF4E61"/>
<stop offset="1" stop-color="#C70A30"/>
</radialGradient>
<linearGradient id="paint22_linear_460_51859" x1="81.5944" y1="87.9031" x2="69.6626" y2="51.6245" gradientUnits="userSpaceOnUse">
<stop offset="0.403604" stop-color="#FF5769"/>
<stop offset="1" stop-color="#C70A0A"/>
</linearGradient>
<radialGradient id="paint23_radial_460_51859" cx="0" cy="0" r="1" gradientUnits="userSpaceOnUse" gradientTransform="translate(79.5279 72.3146) rotate(-5.16331) scale(13.2611)">
<stop offset="3e-07" stop-color="white" stop-opacity="0.5"/>
<stop offset="1" stop-color="white" stop-opacity="0"/>
</radialGradient>
<linearGradient id="paint24_linear_460_51859" x1="72.8817" y1="61.8398" x2="74.0992" y2="66.5047" gradientUnits="userSpaceOnUse">
<stop offset="0.403604" stop-color="#FF4E61"/>
<stop offset="1" stop-color="#C70A30"/>
</linearGradient>
<radialGradient id="paint25_radial_460_51859" cx="0" cy="0" r="1" gradientUnits="userSpaceOnUse" gradientTransform="translate(68.12 73.9269) rotate(169.637) scale(6.1449 5.34156)">
<stop offset="1e-07" stop-color="white" stop-opacity="0.1"/>
<stop offset="1" stop-color="white" stop-opacity="0.1"/>
</radialGradient>
<radialGradient id="paint26_radial_460_51859" cx="0" cy="0" r="1" gradientUnits="userSpaceOnUse" gradientTransform="translate(66.6414 73.0153) rotate(169.637) scale(2.63244 2.2883)">
<stop offset="1e-07" stop-color="white" stop-opacity="0.1"/>
<stop offset="1" stop-color="white" stop-opacity="0.1"/>
</radialGradient>
<linearGradient id="paint27_linear_460_51859" x1="58.8933" y1="38.0438" x2="68.3216" y2="66.9746" gradientUnits="userSpaceOnUse">
<stop stop-color="#82EA73"/>
<stop offset="0.832433" stop-color="#2FA52F"/>
</linearGradient>
<radialGradient id="paint28_radial_460_51859" cx="0" cy="0" r="1" gradientUnits="userSpaceOnUse" gradientTransform="translate(73.2626 63.7245) rotate(-5.16331) scale(3.85287)">
<stop offset="0.403604" stop-color="#FF4E61"/>
<stop offset="1" stop-color="#C70A30"/>
</radialGradient>
<linearGradient id="paint29_linear_460_51859" x1="54.4586" y1="39.2628" x2="54.3672" y2="43.5932" gradientUnits="userSpaceOnUse">
<stop stop-color="#82EA73"/>
<stop offset="0.832433" stop-color="#2FA52F"/>
</linearGradient>
<radialGradient id="paint30_radial_460_51859" cx="0" cy="0" r="1" gradientUnits="userSpaceOnUse" gradientTransform="translate(48.9492 72.2221) scale(3.33491 3.33491)">
<stop offset="0.306307" stop-color="white" stop-opacity="0.5"/>
<stop offset="1" stop-color="white" stop-opacity="0"/>
</radialGradient>
<radialGradient id="paint31_radial_460_51859" cx="0" cy="0" r="1" gradientUnits="userSpaceOnUse" gradientTransform="translate(48.9491 72.222) scale(2.46981)">
<stop offset="0.306306" stop-color="white"/>
<stop offset="1" stop-color="white" stop-opacity="0"/>
</radialGradient>
<radialGradient id="paint32_radial_460_51859" cx="0" cy="0" r="1" gradientUnits="userSpaceOnUse" gradientTransform="translate(82.8465 62.0477) rotate(135) scale(2.44831)">
<stop offset="0.306307" stop-color="white" stop-opacity="0.5"/>
<stop offset="1" stop-color="white" stop-opacity="0"/>
</radialGradient>
<radialGradient id="paint33_radial_460_51859" cx="0" cy="0" r="1" gradientUnits="userSpaceOnUse" gradientTransform="translate(82.8465 62.0477) rotate(135) scale(1.81312)">
<stop offset="0.306306" stop-color="white"/>
<stop offset="1" stop-color="white" stop-opacity="0"/>
</radialGradient>
<linearGradient id="paint34_linear_460_51859" x1="109.573" y1="16.1718" x2="113.327" y2="6.77334" gradientUnits="userSpaceOnUse">
<stop stop-color="#7FB653"/>
<stop offset="1" stop-color="#064514"/>
</linearGradient>
<linearGradient id="paint35_linear_460_51859" x1="117.936" y1="3.69883" x2="119.301" y2="0.281214" gradientUnits="userSpaceOnUse">
<stop stop-color="#7FB653"/>
<stop offset="1" stop-color="#064514"/>
</linearGradient>
<linearGradient id="paint36_linear_460_51859" x1="11.6611" y1="103.753" x2="8.24801" y2="112.297" gradientUnits="userSpaceOnUse">
<stop stop-color="#7FB653"/>
<stop offset="1" stop-color="#064514"/>
</linearGradient>
<linearGradient id="paint37_linear_460_51859" x1="4.06442" y1="115.301" x2="2.69921" y2="118.719" gradientUnits="userSpaceOnUse">
<stop stop-color="#7FB653"/>
<stop offset="1" stop-color="#064514"/>
</linearGradient>
<linearGradient id="paint38_linear_460_51859" x1="111.449" y1="115.717" x2="102.97" y2="98.9277" gradientUnits="userSpaceOnUse">
<stop offset="0.403604" stop-color="#FF4E61"/>
<stop offset="1" stop-color="#C70A30"/>
</linearGradient>
<radialGradient id="paint39_radial_460_51859" cx="0" cy="0" r="1" gradientUnits="userSpaceOnUse" gradientTransform="translate(106.74 109.568) rotate(140.163) scale(6.53095)">
<stop offset="3e-07" stop-color="white" stop-opacity="0.5"/>
<stop offset="1" stop-color="white" stop-opacity="0"/>
</radialGradient>
<linearGradient id="paint40_linear_460_51859" x1="105.407" y1="103.606" x2="106.607" y2="105.655" gradientUnits="userSpaceOnUse">
<stop offset="0.403604" stop-color="#FF4E61"/>
<stop offset="1" stop-color="#C70A30"/>
</linearGradient>
<radialGradient id="paint41_radial_460_51859" cx="0" cy="0" r="1" gradientUnits="userSpaceOnUse" gradientTransform="translate(111.274 106.157) rotate(-34.6373) scale(3.02629 2.63065)">
<stop offset="1e-07" stop-color="white" stop-opacity="0.1"/>
<stop offset="1" stop-color="white" stop-opacity="0.1"/>
</radialGradient>
<radialGradient id="paint42_radial_460_51859" cx="0" cy="0" r="1" gradientUnits="userSpaceOnUse" gradientTransform="translate(111.471 105.325) rotate(-34.6373) scale(1.29644 1.12696)">
<stop offset="1e-07" stop-color="white" stop-opacity="0.1"/>
<stop offset="1" stop-color="white" stop-opacity="0.1"/>
</radialGradient>
<linearGradient id="paint43_linear_460_51859" x1="101.991" y1="90.4481" x2="108.783" y2="103.806" gradientUnits="userSpaceOnUse">
<stop stop-color="#82EA73"/>
<stop offset="0.832433" stop-color="#2FA52F"/>
</linearGradient>
<radialGradient id="paint44_radial_460_51859" cx="0" cy="0" r="1" gradientUnits="userSpaceOnUse" gradientTransform="translate(105.93 104.395) rotate(140.163) scale(1.89749)">
<stop offset="0.403604" stop-color="#FF4E61"/>
<stop offset="1" stop-color="#C70A30"/>
</radialGradient>
<linearGradient id="paint45_linear_460_51859" x1="103.96" y1="89.3281" x2="105.5" y2="90.8043" gradientUnits="userSpaceOnUse">
<stop stop-color="#82EA73"/>
<stop offset="0.832433" stop-color="#2FA52F"/>
</linearGradient>
<clipPath id="clip0_460_51859">
<rect width="120" height="120" rx="60" fill="white"/>
</clipPath>
<clipPath id="clip1_460_51859">
<rect width="126" height="126" fill="white" transform="translate(-3 -4)"/>
</clipPath>
</defs>
</svg>
