<svg width="133" height="136" viewBox="0 0 133 136" fill="none" xmlns="http://www.w3.org/2000/svg">
<g clip-path="url(#clip0_460_51570)">
<path d="M38.2115 18.6383L26.6916 13.6378C25.752 13.23 24.6755 13.7917 24.4726 14.7957L24.0417 16.9282C23.9496 17.3841 23.5432 19.6668 22.1821 20.8632C20.8209 22.0596 18.5049 22.1697 18.041 22.2026L15.8708 22.3563C14.8491 22.4287 14.1539 23.4243 14.4378 24.4084L17.9187 36.4746L38.2114 18.6382L38.2115 18.6383Z" fill="url(#paint0_linear_460_51570)"/>
<path d="M38.2115 18.6383L26.6916 13.6378C25.752 13.23 24.6755 13.7917 24.4726 14.7957L24.0417 16.9282C23.9496 17.3841 23.5432 19.6668 22.1821 20.8632C20.8209 22.0596 18.5049 22.1697 18.041 22.2026L15.8708 22.3563C14.8491 22.4287 14.1539 23.4243 14.4378 24.4084L17.9187 36.4746L38.2114 18.6382L38.2115 18.6383Z" fill="url(#paint1_linear_460_51570)"/>
<path d="M40.109 18.9173L33.6189 8.22778C32.8261 6.92196 30.8713 7.12762 30.3676 8.56981L28.4804 13.9731C27.5224 16.7156 24.6081 18.2518 21.8042 17.4922L20.0464 17.016C19.2705 16.8058 18.5316 17.4552 18.6406 18.2517L18.8873 20.056C19.2808 22.9343 17.3834 25.6274 14.5406 26.2255L8.93987 27.4038C7.44496 27.7183 6.99019 29.6305 8.18349 30.5843L17.9519 38.3924L40.109 18.9173Z" fill="url(#paint2_linear_460_51570)"/>
<path d="M27.4894 15.7118C27.1291 16.14 26.7089 16.5079 26.2449 16.8058L17.6365 24.3721C17.2816 24.7941 16.8628 25.1636 16.3919 25.466L9.43262 31.583L17.9517 38.3924L40.1088 18.9173L34.4487 9.59496L27.4894 15.7118Z" fill="url(#paint3_linear_460_51570)"/>
<path d="M40.109 18.9173L33.6189 8.22778C32.8261 6.92196 30.8713 7.12762 30.3676 8.56981L28.4804 13.9731C27.5225 16.7156 24.6081 18.2518 21.8042 17.4922L20.0464 17.016C19.6585 16.9109 19.2798 17.0207 19.0117 17.2564L29.0305 28.6549L40.109 18.9174L40.109 18.9173Z" fill="url(#paint4_linear_460_51570)"/>
<path d="M25.3681 24.4884C26.6274 23.3816 26.7509 21.4635 25.6441 20.2043C24.5373 18.9451 22.6193 18.8215 21.3601 19.9283C20.1009 21.0351 19.9773 22.9531 21.0841 24.2124C22.1909 25.4716 24.1089 25.5951 25.3681 24.4884Z" fill="url(#paint5_linear_460_51570)"/>
<path d="M24.8506 23.8993C25.7845 23.0785 25.8762 21.6559 25.0553 20.722C24.2345 19.7881 22.8119 19.6965 21.878 20.5173C20.9441 21.3382 20.8525 22.7607 21.6733 23.6946C22.4942 24.6286 23.9167 24.7202 24.8506 23.8993Z" fill="url(#paint6_linear_460_51570)"/>
<path d="M21.6732 23.6946C22.4941 24.6286 23.9166 24.7202 24.8506 23.8993C25.7845 23.0785 25.8761 21.6559 25.0552 20.722C24.8775 20.5198 24.6714 20.3572 24.4482 20.2346L21.2677 23.0301C21.3607 23.2672 21.4954 23.4924 21.6732 23.6946Z" fill="url(#paint7_linear_460_51570)"/>
<path d="M23.2192 24.4551C24.46 24.535 25.5307 23.5939 25.6106 22.3531C25.6905 21.1123 24.7494 20.0416 23.5086 19.9617C23.2399 19.9444 22.9792 19.9751 22.7348 20.0462L22.4626 24.2719C22.6958 24.3738 22.9504 24.4378 23.2192 24.4551Z" fill="url(#paint8_linear_460_51570)"/>
<path d="M17.4615 33.1337C18.3519 32.3511 18.4393 30.9949 17.6567 30.1045C16.874 29.214 15.5178 29.1267 14.6274 29.9093C13.737 30.6919 13.6496 32.0482 14.4322 32.9386C15.2148 33.829 16.5711 33.9164 17.4615 33.1337Z" fill="url(#paint9_linear_460_51570)"/>
<path d="M17.0956 32.7173C17.756 32.1368 17.8208 31.1309 17.2403 30.4705C16.6599 29.8101 15.654 29.7453 14.9936 30.3258C14.3332 30.9062 14.2684 31.9121 14.8489 32.5725C15.4293 33.2329 16.4352 33.2977 17.0956 32.7173Z" fill="url(#paint10_linear_460_51570)"/>
<path d="M14.8487 32.5725C15.4291 33.2329 16.4351 33.2977 17.0954 32.7172C17.7558 32.1368 17.8206 31.1308 17.2402 30.4705C17.1145 30.3275 16.9688 30.2125 16.8109 30.1258L14.5619 32.1026C14.6277 32.2702 14.723 32.4295 14.8487 32.5725Z" fill="url(#paint11_linear_460_51570)"/>
<path d="M15.942 33.1102C16.8194 33.1667 17.5765 32.5012 17.633 31.6239C17.6896 30.7465 17.0241 29.9894 16.1467 29.9329C15.9567 29.9206 15.7724 29.9424 15.5996 29.9927L15.4071 32.9807C15.572 33.0527 15.752 33.0979 15.942 33.1102Z" fill="url(#paint12_linear_460_51570)"/>
<path d="M34.9566 17.7564C35.847 16.9738 35.9344 15.6175 35.1518 14.7271C34.3691 13.8367 33.0129 13.7493 32.1225 14.532C31.2321 15.3146 31.1447 16.6708 31.9273 17.5613C32.71 18.4517 34.0662 18.539 34.9566 17.7564Z" fill="url(#paint13_linear_460_51570)"/>
<path d="M34.5907 17.3399C35.2511 16.7595 35.3159 15.7536 34.7355 15.0932C34.155 14.4328 33.1491 14.368 32.4887 14.9484C31.8283 15.5289 31.7635 16.5348 32.344 17.1952C32.9244 17.8556 33.9303 17.9204 34.5907 17.3399Z" fill="url(#paint14_linear_460_51570)"/>
<path d="M32.3438 17.1952C32.9243 17.8556 33.9302 17.9204 34.5906 17.3399C35.2509 16.7595 35.3157 15.7536 34.7353 15.0932C34.6096 14.9502 34.4639 14.8352 34.3061 14.7485L32.0571 16.7253C32.1228 16.8929 32.2181 17.0522 32.3438 17.1952Z" fill="url(#paint15_linear_460_51570)"/>
<path d="M33.4372 17.7329C34.3145 17.7894 35.0716 17.1239 35.1282 16.2466C35.1847 15.3692 34.5192 14.6121 33.6418 14.5556C33.4518 14.5433 33.2675 14.5651 33.0947 14.6154L32.9022 17.6034C33.0672 17.6754 33.2471 17.7206 33.4372 17.7329Z" fill="url(#paint16_linear_460_51570)"/>
<path d="M27.4092 23.3228C25.647 23.2986 24.1526 24.6121 23.9505 26.3628C23.8664 27.0914 23.5535 27.776 23.0512 28.3103C18.6676 32.973 16.4476 37.5025 17.9628 39.2263L21.8018 43.5941L44.7737 23.4029L40.9346 19.0351C39.4194 17.3112 34.6425 18.9317 29.4559 22.6808C28.8616 23.1104 28.1424 23.3328 27.4092 23.3228Z" fill="url(#paint17_linear_460_51570)"/>
<path d="M27.4092 23.3228C25.647 23.2986 24.1526 24.6121 23.9505 26.3628C23.8664 27.0914 23.5535 27.776 23.0512 28.3103C18.6676 32.973 16.4476 37.5025 17.9628 39.2263L21.8018 43.5941L44.7737 23.4029L40.9346 19.0351C39.4194 17.3112 34.6425 18.9317 29.4559 22.6808C28.8616 23.1104 28.1424 23.3328 27.4092 23.3228Z" fill="url(#paint18_linear_460_51570)"/>
<path d="M42.5691 20.8949L44.7733 23.4028L21.8018 43.5937L19.5975 41.0859C17.7603 38.9956 21.4131 32.7816 27.7568 27.2057C34.1004 21.6299 40.7319 18.8047 42.5691 20.8949Z" fill="url(#paint19_linear_460_51570)"/>
<path d="M42.5691 20.8949L44.7733 23.4028L21.8018 43.5937L19.5975 41.0859C17.7603 38.9956 21.4131 32.7816 27.7568 27.2057C34.1004 21.6299 40.7319 18.8047 42.5691 20.8949Z" fill="url(#paint20_linear_460_51570)"/>
<path d="M44.7736 23.4029L40.9345 19.0351C39.4193 17.3112 34.6424 18.9317 29.4558 22.6808C28.8614 23.1104 28.1424 23.3328 27.409 23.3228C26.528 23.3107 25.7138 23.633 25.0947 24.1772L33.2877 33.4985L44.7736 23.4029Z" fill="url(#paint21_linear_460_51570)"/>
<path d="M44.7736 23.4029L40.9345 19.0351C39.4193 17.3112 34.6424 18.9317 29.4558 22.6808C28.8614 23.1104 28.1424 23.3328 27.409 23.3228C26.528 23.3107 25.7138 23.633 25.0947 24.1772L33.2877 33.4985L44.7736 23.4029Z" fill="url(#paint22_linear_460_51570)"/>
<path d="M36.6142 37.2829C42.9577 31.7073 46.6109 25.493 44.7738 23.4029C42.9367 21.3128 36.305 24.1384 29.9615 29.714C23.618 35.2897 19.9648 41.504 21.8019 43.5941C23.639 45.6842 30.2707 42.8586 36.6142 37.2829Z" fill="url(#paint23_linear_460_51570)"/>
<path d="M21.8018 43.5941C21.1401 42.8412 21.1908 41.5532 21.8229 39.9527L41.1596 22.9566C42.828 22.5351 44.1119 22.65 44.7736 23.4029C46.6107 25.4929 42.9575 31.7073 36.614 37.2829C30.2705 42.8585 23.6388 45.6841 21.8018 43.5941Z" fill="url(#paint24_linear_460_51570)"/>
<path d="M35.4631 35.9731C40.2942 31.7267 43.3476 27.3025 42.283 26.0913C41.2184 24.8801 36.439 27.3406 31.6079 31.5869C26.7767 35.8333 23.7234 40.2575 24.788 41.4687C25.8526 42.6799 30.632 40.2194 35.4631 35.9731Z" fill="url(#paint25_linear_460_51570)"/>
<path d="M35.4631 35.9731C40.2942 31.7267 43.3476 27.3025 42.283 26.0913C41.2184 24.8801 36.439 27.3406 31.6079 31.5869C26.7767 35.8333 23.7234 40.2575 24.788 41.4687C25.8526 42.6799 30.632 40.2194 35.4631 35.9731Z" fill="url(#paint26_linear_460_51570)"/>
<path d="M30.6274 29.1402C36.7628 23.9473 43.0011 21.3858 44.774 23.4029C46.5469 25.4199 43.2061 31.278 37.269 36.6963L30.6274 29.1402Z" fill="url(#paint27_linear_460_51570)"/>
<path d="M43.2793 21.703L43.0932 21.4912C41.2565 19.4015 34.625 22.2267 28.2814 27.8025C21.9377 33.3783 18.285 39.5925 20.1217 41.6821L20.3078 41.8939C19.949 41.7621 19.6483 41.5641 19.4143 41.298C19.1804 41.0318 19.0226 40.7082 18.938 40.3355C18.299 37.5239 21.7842 31.9109 27.4868 26.8986C33.1894 21.8862 39.2032 19.1501 41.9095 20.1445C42.2683 20.2763 42.5691 20.4743 42.803 20.7404C43.0369 21.0066 43.1947 21.3302 43.2793 21.703Z" fill="url(#paint28_linear_460_51570)"/>
<path d="M43.2793 21.703L43.0932 21.4912C41.2565 19.4015 34.625 22.2267 28.2814 27.8025C21.9377 33.3783 18.285 39.5925 20.1217 41.6821L20.3078 41.8939C19.949 41.7621 19.6483 41.5641 19.4143 41.298C19.1804 41.0318 19.0226 40.7082 18.938 40.3355C18.299 37.5239 21.7842 31.9109 27.4868 26.8986C33.1894 21.8862 39.2032 19.1501 41.9095 20.1445C42.2683 20.2763 42.5691 20.4743 42.803 20.7404C43.0369 21.0066 43.1947 21.3302 43.2793 21.703Z" fill="url(#paint29_linear_460_51570)"/>
</g>
<g clip-path="url(#clip1_460_51570)">
<path d="M72 135C105.137 135 132 108.137 132 75C132 41.8629 105.137 15 72 15C38.8629 15 12 41.8629 12 75C12 108.137 38.8629 135 72 135Z" fill="url(#paint30_linear_460_51570)"/>
<path d="M72.7712 15C70.914 15 69.0788 15.0877 67.2656 15.2522C75.3686 15.847 78.0182 26.2764 71.3405 30.7579C67.1501 33.5674 62.657 36.2535 57.9245 38.7725C54.8567 40.4061 53.6075 44.2545 55.1621 47.3518C56.2049 49.4294 58.2877 50.619 60.4558 50.619C61.3941 50.619 62.3516 50.3942 63.243 49.9228C69.1008 46.8255 74.6395 43.476 79.7626 39.9484C82.7314 37.9009 86.7815 38.46 89.1065 41.2092C90.2235 42.5276 90.7628 44.1284 90.7628 45.7154C90.7628 47.889 89.7531 50.0407 87.8271 51.4166C85.2682 53.2421 82.5828 55.0238 79.7846 56.7478C77.3001 58.2773 76.117 61.3088 77.0827 64.0525C78.4309 67.8789 82.8882 69.3289 86.2147 67.2814C94.6699 62.0736 102.231 56.3614 108.523 50.4025C111.377 47.6999 116.059 48.7195 117.548 52.3513C117.562 52.3869 117.578 52.4253 117.592 52.4609C118.404 54.4536 117.988 56.7369 116.527 58.3184C114.824 60.1631 112.642 62.4682 111.514 63.5235C105.389 69.2631 97.911 74.7698 89.4834 79.7611C88.2012 75.0192 83.7082 71.5875 78.4694 71.9246C73.0436 72.2782 68.7074 76.7405 68.5175 82.154C68.424 84.8401 69.3347 87.3152 70.9003 89.2339C68.9027 90.1028 66.9024 90.9306 64.9049 91.7117C61.7903 92.9287 60.0679 96.3522 61.1492 99.5043C62.2938 102.835 65.9862 104.531 69.2577 103.257C72.3668 102.048 75.4759 100.738 78.5768 99.3317C95.7457 91.5308 110.876 81.5016 121.837 70.7323C121.939 72.1412 121.989 73.5665 121.989 75C121.989 76.4116 121.939 77.8095 121.843 79.1937C113.314 87.8716 101.595 96.1412 88.1737 102.887C72.5016 110.762 56.5296 115.55 43.1053 116.4C42.888 116.413 42.6706 116.427 42.4533 116.438C36.733 116.751 31.8025 116.282 28 115.131C32.9883 120.651 38.9892 125.242 45.7137 128.616C49.9426 128.257 54.3559 127.575 58.8958 126.582C70.1051 124.135 82.0656 119.823 93.7729 113.938C93.8554 113.897 93.938 113.856 94.0205 113.815C99.2757 111.162 103.865 118.294 99.2565 121.953C90.3143 129.047 79.3031 133.662 67.2656 134.748C69.0788 134.912 70.914 135 72.7712 135C106.036 135 133 108.138 133 75C133 41.8616 106.036 15 72.7712 15ZM97.2259 41.5381C93.2666 41.5381 90.0585 38.3422 90.0585 34.3979C90.0585 30.4536 93.2666 27.2577 97.2259 27.2577C101.185 27.2577 104.396 30.4536 104.396 34.3979C104.396 38.3422 101.185 41.5381 97.2259 41.5381ZM111.734 113.686C107.775 113.686 104.564 110.49 104.564 106.546C104.564 102.602 107.775 99.4029 111.734 99.4029C115.694 99.4029 118.902 102.602 118.902 106.546C118.902 110.49 115.694 113.686 111.734 113.686Z" fill="url(#paint31_linear_460_51570)"/>
<path d="M72 135C105.137 135 132 108.137 132 75C132 41.8629 105.137 15 72 15C38.8629 15 12 41.8629 12 75C12 108.137 38.8629 135 72 135Z" fill="url(#paint32_linear_460_51570)"/>
<path d="M72.7712 15C70.914 15 69.0788 15.0877 67.2656 15.2522C75.3686 15.847 78.0182 26.2764 71.3405 30.7579C67.1501 33.5674 62.657 36.2535 57.9245 38.7725C54.8567 40.4061 53.6075 44.2545 55.1621 47.3518C56.2049 49.4294 58.2877 50.619 60.4558 50.619C61.3941 50.619 62.3516 50.3942 63.243 49.9228C69.1008 46.8255 74.6395 43.476 79.7626 39.9484C82.7314 37.9009 86.7815 38.46 89.1065 41.2092C90.2235 42.5276 90.7628 44.1284 90.7628 45.7154C90.7628 47.889 89.7531 50.0407 87.8271 51.4166C85.2682 53.2421 82.5828 55.0238 79.7846 56.7478C77.3001 58.2773 76.117 61.3088 77.0827 64.0525C78.4309 67.8789 82.8882 69.3289 86.2147 67.2814C94.6699 62.0736 102.231 56.3614 108.523 50.4025C111.377 47.6999 116.059 48.7195 117.548 52.3513C117.562 52.3869 117.578 52.4253 117.592 52.4609C118.404 54.4536 117.988 56.7369 116.527 58.3184C114.824 60.1631 112.642 62.4682 111.514 63.5235C105.389 69.2631 97.911 74.7698 89.4834 79.7611C88.2012 75.0192 83.7082 71.5875 78.4694 71.9246C73.0436 72.2782 68.7074 76.7405 68.5175 82.154C68.424 84.8401 69.3347 87.3152 70.9003 89.2339C68.9027 90.1028 66.9024 90.9306 64.9049 91.7117C61.7903 92.9287 60.0679 96.3522 61.1492 99.5043C62.2938 102.835 65.9862 104.531 69.2577 103.257C72.3668 102.048 75.4759 100.738 78.5768 99.3317C95.7457 91.5308 110.876 81.5016 121.837 70.7323C121.939 72.1412 121.989 73.5665 121.989 75C121.989 76.4116 121.939 77.8095 121.843 79.1937C113.314 87.8716 101.595 96.1412 88.1737 102.887C72.5016 110.762 56.5296 115.55 43.1053 116.4C42.888 116.413 42.6706 116.427 42.4533 116.438C36.733 116.751 31.8025 116.282 28 115.131C32.9883 120.651 38.9892 125.242 45.7137 128.616C49.9426 128.257 54.3559 127.575 58.8958 126.582C70.1051 124.135 82.0656 119.823 93.7729 113.938C93.8554 113.897 93.938 113.856 94.0205 113.815C99.2757 111.162 103.865 118.294 99.2565 121.953C90.3143 129.047 79.3031 133.662 67.2656 134.748C69.0788 134.912 70.914 135 72.7712 135C106.036 135 133 108.138 133 75C133 41.8616 106.036 15 72.7712 15ZM97.2259 41.5381C93.2666 41.5381 90.0585 38.3422 90.0585 34.3979C90.0585 30.4536 93.2666 27.2577 97.2259 27.2577C101.185 27.2577 104.396 30.4536 104.396 34.3979C104.396 38.3422 101.185 41.5381 97.2259 41.5381ZM111.734 113.686C107.775 113.686 104.564 110.49 104.564 106.546C104.564 102.602 107.775 99.4029 111.734 99.4029C115.694 99.4029 118.902 102.602 118.902 106.546C118.902 110.49 115.694 113.686 111.734 113.686Z" fill="url(#paint33_linear_460_51570)"/>
<g opacity="0.05" clip-path="url(#clip2_460_51570)">
<path d="M73.6917 31.4625L76.2948 26.9759L76.6946 26.2867L76.2948 25.5069L74.0404 21.1113L76.5638 16.7629L73.3364 15L70.6421 20.2534L70.2021 21.1113L70.6421 21.8692L73.2053 26.2867L70.9111 30.7606L70.5511 31.4625L70.9111 32.0827L73.5543 36.6382L71.1802 41.2675L70.9001 41.8135L71.1802 42.296L73.9032 46.9886L71.4489 51.7746L71.249 52.1645L71.4489 52.509L74.2522 57.3404L71.718 62.2825L71.598 62.5165L71.718 62.7233L74.6012 67.6927L71.987 72.7913L71.9469 72.8693L71.987 72.9382L74.9501 78.046L72.2959 72.8693L75.2192 67.8304L75.2991 67.6927L75.2192 67.5368L72.6448 62.5165L75.4879 57.616L75.648 57.3404L75.4879 57.0286L72.9938 52.1645L75.757 47.4022L75.997 46.9886L75.757 46.5206L73.3428 41.8135L76.0257 37.1897L76.3459 36.6384L76.026 36.0146L73.6917 31.4625Z" fill="#F2F2F2"/>
<path d="M81.191 31.8653L84.4811 27.8552L84.9865 27.2392L84.7172 26.4054L83.1982 21.7046L86.3871 17.8181L83.4849 15.5595L79.9816 20.312L79.4098 21.0878L79.7221 21.9069L81.5426 26.6786L78.5594 30.7258L78.0915 31.3607L78.3471 32.0307L80.224 36.9518L77.1372 41.1395L76.773 41.6333L76.9719 42.1546L78.906 47.2239L75.7148 51.5533L75.4547 51.906L75.5969 52.2782L77.5875 57.4973L74.2923 61.9681L74.1364 62.1797L74.2216 62.4031L76.2689 67.771L72.8698 72.3834L72.8179 72.4541L72.8461 72.5285L74.9504 78.046L73.1621 72.5101L76.8569 68.0063L76.9579 67.8831L76.9041 67.7164L75.1696 62.348L78.7631 57.9679L78.9651 57.7216L78.8575 57.3879L77.1768 52.1864L80.6693 47.9298L80.9723 47.5602L80.8106 47.0598L79.184 42.0259L82.5749 37.8933L82.9793 37.4005L82.7638 36.7334L81.191 31.8653Z" fill="#F2F2F2"/>
<path d="M88.528 33.4679L92.4196 30.0386L93.0173 29.5118L92.8854 28.6452L92.1413 23.7616L95.9131 20.4378L93.4113 17.7424L89.1903 21.8702L88.5011 22.5442L88.6778 23.4026L89.7081 28.4049L86.1136 31.9205L85.5496 32.4718L85.6944 33.1743L86.7566 38.333L83.037 41.9702L82.5984 42.3991L82.711 42.9455L83.8056 48.2598L79.9605 52.0202L79.6472 52.3267L79.7274 52.7169L80.8541 58.1879L76.8835 62.0712L76.6954 62.2551L76.7437 62.4891L77.9024 68.1163L73.8064 72.1228L73.7437 72.184L73.7597 72.2621L74.9504 78.046L74.0747 72.2948L78.4447 68.4432L78.5642 68.3377L78.5378 68.1643L77.6882 62.587L81.9387 58.8414L82.1777 58.6306L82.1249 58.284L81.3017 52.8799L85.4325 49.2398L85.7912 48.9238L85.7118 48.4039L84.915 43.1739L88.9258 39.6399L89.404 39.2183L89.2985 38.5253L88.528 33.4679Z" fill="#F2F2F2"/>
<path d="M95.512 36.2285L99.9036 33.4689L100.578 33.045L100.587 32.1687L100.637 27.2287L104.894 24.5543L102.858 21.4919L98.0286 24.8878L97.2402 25.4423L97.2766 26.318L97.49 31.4209L93.3774 34.3131L92.7322 34.7668L92.7623 35.4833L92.982 40.7457L88.7265 43.7382L88.2248 44.0908L88.248 44.6482L88.4748 50.0694L84.0756 53.1632L83.7171 53.4154L83.7337 53.8135L83.9666 59.3943L79.4239 62.5893L79.2089 62.7405L79.2189 62.9795L79.4587 68.7196L74.7722 72.016L74.7007 72.0664L74.7039 72.146L74.9499 78.046L75.0095 72.2289L79.9414 69.1293L80.0764 69.0444L80.0783 68.8692L80.1355 63.2277L84.9323 60.2136L85.2021 60.044L85.2058 59.6934L85.2614 54.2274L89.9232 51.2982L90.3278 51.0439L90.3333 50.5179L90.3866 45.2278L94.913 42.3841L95.4529 42.0451L95.46 41.344L95.512 36.2285Z" fill="#F2F2F2"/>
<path d="M101.962 40.0751L106.74 38.0571L107.474 37.7471L107.624 36.8837L108.467 32.016L113.098 30.0602L111.58 26.7103L106.268 29.2862L105.401 29.707L105.296 30.5772L104.687 35.6481L100.163 37.8418L99.4537 38.1861L99.3682 38.8981L98.7397 44.1275L94.0587 46.3972L93.5069 46.6649L93.4402 47.2186L92.7931 52.6058L87.9542 54.9525L87.5599 55.1438L87.5124 55.5395L86.8458 61.0854L81.8489 63.5089L81.6126 63.6237L81.5838 63.8611L80.8985 69.5653L75.7433 72.0656L75.6645 72.1038L75.655 72.183L74.9502 78.046L75.9433 72.3138L81.3092 70.047L81.4559 69.985L81.4859 69.8123L82.4487 64.2533L87.6675 62.0491L87.961 61.9251L88.0209 61.5795L88.9538 56.1934L94.0254 54.0514L94.4659 53.8654L94.5556 53.3471L95.4582 48.1343L100.382 46.0548L100.97 45.8068L101.089 45.1159L101.962 40.0751Z" fill="#F2F2F2"/>
<path d="M107.711 44.9086L112.751 43.6843L113.525 43.4963L113.812 42.6679L115.425 37.9988L120.31 36.8125L119.35 33.2624L113.694 34.9515L112.77 35.2271L112.527 36.0694L111.111 40.9765L106.294 42.415L105.538 42.6408L105.339 43.3298L103.879 48.3901L98.8945 49.8785L98.3066 50.0539L98.152 50.5899L96.648 55.803L91.4949 57.342L91.075 57.4673L90.9645 57.85L89.4159 63.2169L84.0946 64.8063L83.8427 64.8814L83.7762 65.1112L82.1833 70.6311L76.6937 72.2708L76.6098 72.2959L76.5876 72.3724L74.9502 78.046L76.8511 72.5478L82.5115 71.1726L82.6663 71.1349L82.7235 70.9695L84.5669 65.6375L90.0719 64.3L90.3816 64.2249L90.496 63.8935L92.282 58.7271L97.6319 57.428L98.0966 57.3151L98.2683 56.8181L99.9965 51.8179L105.191 50.5564L105.81 50.406L106.04 49.7434L107.711 44.9086Z" fill="#F2F2F2"/>
<path d="M112.608 50.6026L117.78 50.204L118.574 50.1428L118.99 49.3714L121.332 45.0223L126.345 44.6361L125.967 40.9778L120.113 41.736L119.157 41.8599L118.782 42.6521L116.596 47.268L111.61 47.9137L110.828 48.0153L110.521 48.6634L108.267 53.4236L103.108 54.0915L102.5 54.1701L102.261 54.6745L99.939 59.5781L94.6057 60.269L94.171 60.3255L94.0006 60.6855L91.6099 65.7337L86.1026 66.4473L85.8417 66.4811L85.7394 66.6971L83.2806 71.8896L77.5989 72.6259L77.5119 72.6372L77.4778 72.7092L74.9502 78.046L77.7097 72.9247L83.5174 72.4768L83.6762 72.4647L83.7593 72.3104L86.4352 67.3437L92.0836 66.9082L92.4012 66.8839L92.5676 66.5752L95.1601 61.7629L100.649 61.34L101.126 61.3031L101.375 60.8401L103.884 56.1826L109.214 55.7724L109.849 55.7233L110.182 55.1063L112.608 50.6026Z" fill="#F2F2F2"/>
<path d="M116.527 57.0096L121.696 57.4472L122.49 57.5142L123.024 56.8196L126.035 52.9034L131.044 53.3278L131.259 49.6563L125.359 49.464L124.395 49.4327L123.898 50.1541L120.999 54.359L115.974 54.1954L115.186 54.1698L114.779 54.7602L111.79 59.0962L106.59 58.9266L105.977 58.9068L105.66 59.366L102.581 63.8331L97.2059 63.658L96.768 63.6437L96.5417 63.9719L93.3713 68.5703L87.8207 68.3899L87.558 68.3812L87.4222 68.5782L84.1613 73.308L78.435 73.1221L78.3474 73.1192L78.3023 73.1846L74.9502 78.046L78.4965 73.4347L84.3005 73.9256L84.4596 73.939L84.5664 73.8L88.0051 69.3279L93.6501 69.8057L93.9677 69.8326L94.1813 69.5548L97.5132 65.2215L102.999 65.686L103.475 65.7264L103.796 65.3096L107.02 61.1155L112.347 61.5669L112.982 61.6207L113.409 61.0649L116.527 57.0096Z" fill="#F2F2F2"/>
<path d="M119.367 63.9629L124.397 65.2252L125.17 65.419L125.809 64.8192L129.41 61.4379L134.286 62.6613L135.088 59.0722L129.295 57.9344L128.349 57.7485L127.742 58.3808L124.206 62.0654L119.272 61.0965L118.499 60.9446L118.002 61.4619L114.355 65.2613L109.25 64.2586L108.648 64.1404L108.262 64.5427L104.505 68.4571L99.2279 67.4207L98.7979 67.3363L98.522 67.6238L94.6542 71.6533L89.2047 70.5833L88.9467 70.5324L88.7811 70.7049L84.8027 74.8494L79.1807 73.7459L79.0947 73.7291L79.0396 73.7863L74.9502 78.046L79.1912 74.0643L84.841 75.4814L84.9956 75.5202L85.1235 75.4002L89.2361 71.5388L94.7307 72.9174L95.0399 72.9949L95.2955 72.7549L99.2801 69.0132L104.62 70.353L105.084 70.4694L105.467 70.1096L109.323 66.4882L114.508 67.7892L115.126 67.9446L115.637 67.4645L119.367 63.9629Z" fill="#F2F2F2"/>
<path d="M121.052 71.2824L125.815 73.3365L126.546 73.652L127.273 73.1627L131.37 70.4034L135.986 72.3945L137.355 68.981L131.82 66.9271L130.916 66.5919L130.215 67.1184L126.133 70.1868L121.419 68.4379L120.68 68.1635L120.107 68.5943L115.897 71.7585L111.02 69.9486L110.444 69.7352L109.999 70.0705L105.662 73.3302L100.619 71.4594L100.209 71.3072L99.8902 71.5464L95.4252 74.9021L90.2183 72.9704L89.9717 72.8789L89.7807 73.0226L85.1884 76.4741L79.8166 74.4814L79.7343 74.4511L79.6707 74.4988L74.9502 78.046L79.7757 74.7974L85.1245 77.104L85.2709 77.1671L85.4163 77.0692L90.0957 73.9185L95.2978 76.162L95.5903 76.2884L95.8813 76.0924L100.415 73.0398L105.471 75.22L105.909 75.4094L106.346 75.1158L110.733 72.1611L115.642 74.2783L116.227 74.5307L116.809 74.1393L121.052 71.2824Z" fill="#F2F2F2"/>
<path d="M121.539 78.7773L125.91 81.57L126.582 81.999L127.378 81.6328L131.865 79.5678L136.101 82.2746L138 79.1252L132.867 76.2087L132.029 75.7326L131.253 76.1399L126.731 78.5124L122.359 76.0291L121.673 75.6394L121.039 75.9726L116.375 78.4193L111.852 75.8492L111.318 75.5461L110.824 75.8054L106.02 78.3259L101.344 75.6692L100.963 75.4529L100.61 75.6379L95.6642 78.2328L90.8352 75.4893L90.6068 75.3596L90.395 75.4706L85.3079 78.1394L80.3259 75.3097L80.2497 75.2662L80.1793 75.3034L74.9502 78.046L80.2349 75.6149L85.1438 78.7509L85.278 78.8366L85.4374 78.7635L90.562 76.4055L95.3361 79.4557L95.6046 79.6275L95.9232 79.4808L100.889 77.1961L105.528 80.1606L105.931 80.4181L106.409 80.1981L111.214 77.9867L115.719 80.8652L116.256 81.2084L116.893 80.9153L121.539 78.7773Z" fill="#F2F2F2"/>
<path d="M120.817 86.2532L124.682 89.712L125.276 90.2433L126.121 90.0096L130.881 88.6927L134.628 92.045L137.008 89.2414L132.41 85.5383L131.659 84.9337L130.828 85.2107L125.983 86.8259L122.068 83.6725L121.453 83.1776L120.773 83.4045L115.777 85.07L111.725 81.8067L111.247 81.4218L110.718 81.5983L105.572 83.3142L101.383 79.9409L101.042 79.666L100.664 79.7921L95.3651 81.5584L91.0397 78.075L90.835 77.9099L90.6081 77.9856L85.1583 79.8024L80.6957 76.209L80.6274 76.1538L80.552 76.1792L74.9502 78.046L80.5567 76.4957L84.8982 80.3795L85.0169 80.4858L85.1857 80.4392L90.6227 78.9353L94.8449 82.7128L95.0823 82.9254L95.4202 82.832L100.688 81.3748L104.791 85.046L105.147 85.3647L105.654 85.2246L110.753 83.8141L114.736 87.3788L115.211 87.804L115.887 87.617L120.817 86.2532Z" fill="#F2F2F2"/>
<path d="M118.903 93.5162L122.162 97.5509L122.663 98.1708L123.534 98.0758L128.445 97.5409L131.604 101.452L134.403 99.0669L130.46 94.6729L129.816 93.9557L128.951 94.0955L123.91 94.9114L120.552 91.1697L120.025 90.5828L119.317 90.6973L114.118 91.5385L110.643 87.6666L110.234 87.2099L109.683 87.2991L104.328 88.1659L100.735 84.1631L100.443 83.8371L100.049 83.9007L94.5358 84.7928L90.826 80.6597L90.6504 80.464L90.4145 80.5022L84.7437 81.4197L80.9162 77.1557L80.8577 77.0906L80.7791 77.1032L74.9502 78.046L80.7329 77.4166L84.3942 81.9475L84.4941 82.0715L84.6685 82.0525L90.2763 81.4418L93.8368 85.8488L94.037 86.0967L94.3855 86.0587L99.8192 85.4668L103.279 89.7497L103.58 90.1217L104.102 90.0647L109.361 89.4915L112.72 93.6499L113.121 94.1459L113.818 94.0699L118.903 93.5162Z" fill="#F2F2F2"/>
<path d="M115.847 100.377L118.416 104.883L118.811 105.575L119.686 105.622L124.619 105.883L127.109 110.25L130.255 108.346L127.068 103.376L126.548 102.564L125.672 102.563L120.565 102.559L117.851 98.3259L117.426 97.662L116.709 97.6614L111.442 97.6564L108.635 93.2764L108.304 92.7599L107.746 92.7594L102.32 92.7546L99.4178 88.2266L99.1812 87.8578L98.7829 87.8573L93.1978 87.852L90.2001 83.1765L90.0582 82.9552L89.819 82.955L84.0745 82.9494L80.9816 78.126L80.9344 78.0521H80.8548L74.9502 78.046L80.759 78.3539L83.6446 83.4142L83.7237 83.5527L83.8986 83.5619L89.5317 83.8603L92.3382 88.7819L92.4962 89.0589L92.8462 89.0773L98.3042 89.3662L101.031 94.1493L101.268 94.5645L101.793 94.5925L107.076 94.8715L109.723 99.5159L110.039 100.07L110.739 100.107L115.847 100.377Z" fill="#F2F2F2"/>
<path d="M111.729 106.658L113.541 111.518L113.819 112.265L114.675 112.451L119.502 113.501L121.258 118.212L124.669 116.838L122.323 111.421L121.94 110.536L121.075 110.394L116.035 109.569L114.037 104.956L113.723 104.232L113.015 104.116L107.818 103.265L105.751 98.4908L105.507 97.9276L104.956 97.8376L99.6024 96.9611L97.4646 92.0257L97.2906 91.6235L96.8973 91.5591L91.3855 90.6564L89.1778 85.5599L89.0733 85.3188L88.8375 85.28L83.1682 84.3517L80.8906 79.0941L80.8556 79.0136L80.777 79.0007L74.9502 78.046L80.634 79.2832L82.6694 84.7416L82.7251 84.8909L82.8963 84.9281L88.4084 86.1276L90.3879 91.4362L90.4992 91.7348L90.8416 91.8094L96.1825 92.9714L98.1058 98.1304L98.2728 98.5786L98.7866 98.6902L103.956 99.8148L105.823 104.824L106.045 105.421L106.73 105.57L111.729 106.658Z" fill="#F2F2F2"/>
<path d="M106.655 112.195L107.663 117.284L107.818 118.066L108.633 118.387L113.228 120.199L114.205 125.131L117.792 124.323L116.346 118.598L116.11 117.664L115.279 117.385L110.438 115.761L109.206 110.886L109.013 110.121L108.333 109.893L103.34 108.218L102.066 103.174L101.916 102.579L101.388 102.402L96.2439 100.676L94.9267 95.4614L94.8194 95.0367L94.4417 94.9098L89.1464 93.1334L87.7862 87.7483L87.7215 87.4935L87.495 87.4175L82.0488 85.5902L80.6451 80.0348L80.6234 79.9498L80.548 79.9245L74.9502 78.046L80.3615 80.1804L81.4936 85.8949L81.5247 86.0511L81.6877 86.1155L86.9355 88.1849L88.0365 93.7425L88.0985 94.0554L88.4245 94.1838L93.5093 96.1889L94.5788 101.59L94.6717 102.059L95.1609 102.252L100.082 104.192L101.12 109.436L101.244 110.062L101.896 110.319L106.655 112.195Z" fill="#F2F2F2"/>
<path d="M100.758 116.846L100.935 122.03L100.962 122.826L101.715 123.275L105.96 125.802L106.132 130.826L109.802 130.605L109.295 124.723L109.212 123.762L108.436 123.354L103.919 120.973L103.486 115.963L103.419 115.178L102.784 114.843L98.1251 112.388L97.678 107.204L97.6253 106.593L97.1318 106.333L92.3321 103.804L91.8697 98.4449L91.832 98.0083L91.4796 97.8226L86.5386 95.2184L86.0609 89.6846L86.0382 89.4226L85.8267 89.3113L80.7448 86.6328L80.2515 80.924L80.2442 80.8367L80.1735 80.7995L74.9502 78.046L79.9485 81.0221L80.1479 86.8443L80.1534 87.0034L80.304 87.0931L85.1512 89.979L85.345 95.6413L85.3559 95.96L85.6571 96.1391L90.3539 98.9353L90.5419 104.438L90.5583 104.916L91.0101 105.185L95.5558 107.891L95.738 113.233L95.7599 113.871L96.3624 114.229L100.758 116.846Z" fill="#F2F2F2"/>
<path d="M94.19 120.488L93.5322 125.634L93.4312 126.424L94.1025 126.988L97.8861 130.164L97.2483 135.15L100.907 135.522L101.351 129.635L101.423 128.673L100.724 128.146L96.647 125.07L97.0249 120.056L97.0843 119.269L96.5117 118.837L92.3076 115.665L92.699 110.477L92.7451 109.865L92.2999 109.529L87.9689 106.262L88.3733 100.898L88.4063 100.461L88.0882 100.222L83.6295 96.8571L84.0471 91.3188L84.0669 91.0566L83.8759 90.9125L79.2901 87.4521L79.7203 81.7383L79.7269 81.651L79.6634 81.603L74.9502 78.046L79.4054 81.7866L78.6671 87.565L78.6471 87.7233L78.7811 87.8359L83.102 91.4628L82.3838 97.0829L82.3432 97.3992L82.6117 97.6245L86.7984 101.139L86.1002 106.6L86.0395 107.075L86.4423 107.413L90.4942 110.814L89.8161 116.116L89.7351 116.749L90.2721 117.2L94.19 120.488Z" fill="#F2F2F2"/>
<path d="M87.1225 123.029L85.6468 128.001L85.4202 128.765L85.9921 129.429L89.2165 133.172L87.7859 137.991L91.3372 138.946L92.7211 133.206L92.9472 132.269L92.3413 131.636L88.8117 127.945L89.9902 123.057L90.1751 122.29L89.6794 121.772L86.0395 117.965L87.2592 112.908L87.4029 112.311L87.0173 111.908L83.2674 107.987L84.5282 102.758L84.6308 102.332L84.3554 102.044L80.4953 98.0075L81.7969 92.6079L81.8584 92.3523L81.6933 92.1795L77.7229 88.0274L79.0654 82.4569L79.086 82.3717L79.0309 82.3142L74.9502 78.046L78.7468 82.4537L77.0898 88.0388L77.0445 88.1915L77.1589 88.3242L80.8408 92.5984L79.2292 98.0299L79.1385 98.3357L79.3674 98.6011L82.9351 102.742L81.3686 108.021L81.2325 108.479L81.5756 108.878L85.0288 112.885L83.5074 118.01L83.3262 118.622L83.7838 119.153L87.1225 123.029Z" fill="#F2F2F2"/>
<path d="M79.7388 124.4L77.4834 129.071L77.137 129.789L77.5949 130.536L80.1761 134.748L77.99 139.275L81.3419 140.788L83.6298 135.345L84.0033 134.457L83.5072 133.734L80.6163 129.524L82.5645 124.889L82.8702 124.162L82.4642 123.57L79.4829 119.229L81.4994 114.433L81.737 113.867L81.4213 113.407L78.3501 108.935L80.4341 103.976L80.6039 103.572L80.3784 103.244L77.2167 98.639L79.3687 93.5188L79.4708 93.2764L79.3352 93.0793L76.0836 88.3432L78.3034 83.0607L78.3374 82.98L78.2923 82.9143L74.9502 78.046L77.9895 83.0064L75.4569 88.2527L75.3875 88.3962L75.4793 88.5455L78.4268 93.3558L75.9636 98.4581L75.8251 98.7451L76.0081 99.044L78.8642 103.705L76.4703 108.663L76.2624 109.093L76.5373 109.542L79.3015 114.052L76.9769 118.866L76.6997 119.44L77.0661 120.038L79.7388 124.4Z" fill="#F2F2F2"/>
<path d="M72.2307 124.567L69.2542 128.815L68.7971 129.468L69.1289 130.279L71 134.851L68.1152 138.968L71.1804 141L74.3128 135.996L74.8243 135.179L74.4508 134.386L72.2737 129.766L74.9411 125.504L75.3597 124.835L75.054 124.186L72.8089 119.422L75.5694 115.012L75.8949 114.492L75.657 113.988L73.344 109.079L76.1977 104.521L76.4301 104.149L76.2602 103.789L73.8795 98.7359L76.826 94.0277L76.9655 93.805L76.8634 93.5887L74.4147 88.3915L77.4542 83.5345L77.5007 83.4601L77.4666 83.3881L74.9501 78.046L77.153 83.4303L73.8106 88.2015L73.7194 88.3321L73.7856 88.4943L75.9223 93.7156L72.6715 98.3557L72.4887 98.6166L72.6213 98.9411L74.6916 104L71.5323 108.509L71.258 108.901L71.4571 109.388L73.4612 114.284L70.3933 118.662L70.0275 119.184L70.2931 119.833L72.2307 124.567Z" fill="#F2F2F2"/>
<path d="M64.7931 123.526L61.173 127.241L60.6169 127.811L60.8142 128.665L61.9268 133.478L58.418 137.079L61.1168 139.577L65.0125 135.141L65.6487 134.416L65.4071 133.574L64.0005 128.664L67.3181 124.886L67.8385 124.293L67.6409 123.604L66.1902 118.541L69.6234 114.631L70.0282 114.171L69.8745 113.634L68.38 108.418L71.9286 104.377L72.2177 104.048L72.108 103.665L70.5697 98.2951L74.2342 94.1216L74.4077 93.924L74.3421 93.6942L72.7597 88.1712L76.54 83.8656L76.5977 83.7996L76.5759 83.7231L74.95 78.046L76.2593 83.7144L72.1942 87.8866L72.0829 88.0008L72.1225 88.1715L73.3925 93.6684L69.4387 97.7258L69.2164 97.954L69.2952 98.2956L70.5259 103.622L66.6832 107.564L66.3495 107.907L66.468 108.419L67.6594 113.574L63.9285 117.402L63.4835 117.858L63.6412 118.542L64.7931 123.526Z" fill="#F2F2F2"/>
<path d="M57.6198 121.303L53.45 124.388L52.8093 124.862L52.8671 125.737L53.1917 130.666L49.1504 133.656L51.4129 136.555L55.9707 132.802L56.7148 132.19L56.6119 131.319L56.0122 126.247L59.8934 123.051L60.5022 122.55L60.418 121.838L59.7995 116.607L63.8158 113.3L64.2895 112.911L64.2241 112.357L63.5866 106.968L67.7385 103.55L68.0769 103.271L68.0299 102.875L67.3742 97.3282L71.6617 93.7979L71.8645 93.6307L71.8365 93.3932L71.1621 87.6877L75.5848 84.0455L75.6524 83.9896L75.6431 83.9104L74.9502 78.046L75.3322 83.8511L70.6496 87.316L70.5214 87.4107L70.533 87.5856L70.9036 93.2152L66.3492 96.5846L66.0931 96.7743L66.1161 97.1241L66.4753 102.579L62.0494 105.853L61.6648 106.137L61.6996 106.662L62.0475 111.941L57.7498 115.12L57.2373 115.499L57.2835 116.199L57.6198 121.303Z" fill="#F2F2F2"/>
<path d="M50.8964 117.957L46.2851 120.332L45.5766 120.697L45.493 121.569L45.0219 126.487L40.5527 128.788L42.3202 132.013L47.4216 129.042L48.2546 128.557L48.2926 127.681L48.5154 122.578L52.8596 120.047L53.5411 119.65L53.5723 118.934L53.8023 113.672L58.2976 111.054L58.8275 110.745L58.852 110.188L59.0883 104.767L63.7355 102.06L64.114 101.839L64.1314 101.441L64.3752 95.8605L69.174 93.0648L69.4011 92.9324L69.4117 92.6937L69.6623 86.9538L74.6128 84.0695L74.6885 84.0252L74.6919 83.9458L74.9502 78.046L74.3947 83.8371L69.2162 86.5046L69.0746 86.5776L69.0577 86.752L68.5194 92.3679L63.4831 94.962L63.1998 95.1079L63.1663 95.4569L62.6446 100.898L57.75 103.419L57.3251 103.638L57.275 104.161L56.7704 109.428L52.0179 111.875L51.4514 112.167L51.3844 112.865L50.8964 117.957Z" fill="#F2F2F2"/>
<path d="M44.7978 113.574L39.865 115.177L39.1072 115.423L38.8846 116.271L37.6296 121.049L32.8486 122.603L34.0754 126.07L39.5877 123.956L40.4877 123.611L40.666 122.753L41.7055 117.753L46.3999 115.953L47.1363 115.67L47.2822 114.968L48.3544 109.811L53.2118 107.949L53.7847 107.73L53.8981 107.184L55.0022 101.871L60.024 99.9459L60.4331 99.7889L60.5141 99.399L61.6511 93.9301L66.8367 91.9416L67.082 91.8474L67.1308 91.6134L68.3003 85.9886L73.6497 83.9371L73.7317 83.9057L73.7478 83.8276L74.9503 78.046L73.4716 83.6727L67.9321 85.4734L67.7807 85.5227L67.7361 85.6921L66.3026 91.1486L60.915 92.8997L60.6117 92.9984L60.5228 93.3373L59.1338 98.6243L53.8979 100.326L53.4431 100.474L53.3097 100.982L51.9658 106.099L46.8821 107.751L46.2757 107.948L46.0976 108.626L44.7978 113.574Z" fill="#F2F2F2"/>
<path d="M39.4825 108.268L34.3563 109.058L33.569 109.179L33.2129 109.98L31.2068 114.494L26.2383 115.259L26.8921 118.879L32.6725 117.678L33.6162 117.482L33.9301 116.664L35.7593 111.895L40.6819 110.873L41.4539 110.713L41.7108 110.043L43.5972 105.126L48.6907 104.068L49.2916 103.944L49.4912 103.423L51.4344 98.3568L56.7001 97.2634L57.129 97.1742L57.2717 96.8022L59.2726 91.5871L64.71 90.4575L64.9675 90.4042L65.0529 90.181L67.1108 84.8168L72.7205 83.6516L72.8062 83.6337L72.8347 83.5593L74.9503 78.046L72.5873 83.362L66.8301 84.2494L66.6727 84.2737L66.6015 84.4338L64.3102 89.5891L58.7113 90.452L58.3964 90.5005L58.2539 90.8207L56.0338 95.8159L50.5924 96.654L50.1201 96.7268L49.9064 97.2074L47.7581 102.042L42.4752 102.856L41.8451 102.953L41.5602 103.593L39.4825 108.268Z" fill="#F2F2F2"/>
<path d="M35.0885 102.177L29.9018 102.133L29.105 102.126L28.6252 102.859L25.9198 106.993L20.8931 106.95L20.9572 110.627L26.8549 110.371L27.8181 110.329L28.2594 109.572L30.8308 105.159L35.8534 104.941L36.6412 104.907L37.0023 104.287L39.6544 99.7364L44.8516 99.5111L45.4643 99.4845L45.7452 99.0025L48.477 94.3147L53.8498 94.0815L54.2877 94.0622L54.4881 93.7182L57.3006 88.8921L62.8488 88.651L63.1115 88.6397L63.2321 88.4331L66.1248 83.4694L71.8487 83.2203L71.9362 83.2166L71.9763 83.1478L74.95 78.046L71.7637 82.9133L65.9388 82.8642L65.7795 82.8629L65.6835 83.0093L62.5938 87.7296L56.929 87.6816L56.6104 87.679L56.4183 87.9723L53.4246 92.5457L47.9197 92.4987L47.4415 92.4948L47.1534 92.9348L44.2565 97.3612L38.9114 97.3153L38.2739 97.31L37.8899 97.8965L35.0885 102.177Z" fill="#F2F2F2"/>
<path d="M31.7303 95.4587L26.6184 94.5819L25.8329 94.4471L25.2415 95.0939L21.9073 98.7388L16.9528 97.8888L16.4253 101.528L22.2877 102.223L23.2449 102.337L23.8022 101.66L27.0488 97.7181L32.0416 98.3098L32.8247 98.4027L33.2805 97.8492L36.6289 93.7839L41.7949 94.3965L42.404 94.4687L42.7587 94.038L46.2079 89.85L51.5486 90.4828L51.9835 90.5345L52.2367 90.2269L55.788 85.9155L61.303 86.5692L61.5641 86.6L61.7161 86.4154L65.3686 81.981L71.058 82.655L71.145 82.6653L71.1957 82.6038L74.9503 78.046L71.0234 82.3382L65.2824 81.3537L65.1255 81.3268L65.007 81.4561L61.1994 85.6187L55.6158 84.6609L55.3016 84.6071L55.0651 84.8659L51.3756 88.899L45.9495 87.9681L45.4781 87.8874L45.1234 88.2754L41.5528 92.1787L36.2844 91.2747L35.6562 91.1671L35.183 91.6844L31.7303 95.4587Z" fill="#F2F2F2"/>
<path d="M29.4944 88.2886L24.5895 86.6016L23.8362 86.3426L23.1485 86.8857L19.272 89.9476L14.5185 88.3126L13.4131 91.8202L19.0877 93.4481L20.0142 93.714L20.6729 93.1355L24.5109 89.7664L29.3435 91.1526L30.1015 91.37L30.6404 90.897L34.5984 87.4223L39.5988 88.8571L40.1886 89.0262L40.6077 88.6582L44.6847 85.0785L49.8544 86.5615L50.2756 86.6824L50.575 86.4193L54.7725 82.7347L60.1108 84.2657L60.3637 84.338L60.5433 84.1805L64.8606 80.3904L70.3679 81.9697L70.4523 81.994L70.5122 81.9412L74.95 78.046L70.3848 81.6516L64.8764 79.7575L64.7255 79.7055L64.5881 79.8142L60.1611 83.3108L54.8039 81.4685L54.5027 81.3651L54.2276 81.5822L49.9383 84.9703L44.7319 83.1797L44.2798 83.0243L43.8673 83.3501L39.7162 86.6293L34.6615 84.8907L34.0588 84.6833L33.5086 85.1178L29.4944 88.2886Z" fill="#F2F2F2"/>
<path d="M28.4397 80.852L23.8695 78.399L23.1674 78.0223L22.4014 78.4478L18.0837 80.8472L13.6543 78.4697L12 81.7542L17.3393 84.2726L18.2113 84.6838L18.9543 84.219L23.2835 81.5102L27.8307 83.6548L28.5439 83.9911L29.1519 83.6107L33.6166 80.8172L38.3216 83.0367L38.8765 83.2984L39.3492 83.0024L43.9484 80.1244L48.8127 82.4187L49.2089 82.6057L49.5467 82.3944L54.2815 79.4317L59.3046 81.8006L59.5425 81.9127L59.7451 81.7861L64.6152 78.739L69.7973 81.1825L69.8767 81.22L69.9442 81.1778L74.9501 78.046L69.8651 80.8712L64.7325 78.1167L64.592 78.0413L64.4387 78.1265L59.5077 80.8665L54.516 78.1872L54.2351 78.0365L53.9289 78.2069L49.1508 80.8617L44.3 78.2578L43.8788 78.0318L43.419 78.2871L38.7953 80.8567L34.0856 78.3285L33.5237 78.027L32.911 78.3676L28.4397 80.852Z" fill="#F2F2F2"/>
<path d="M28.5931 73.3429L24.4763 70.1874L23.844 69.7028L23.0195 69.9998L18.3723 71.6741L14.3826 68.6157L12.2222 71.5918L17.0875 74.9354L17.882 75.4814L18.6901 75.1419L23.3983 73.1637L27.542 76.0111L28.1919 76.4577L28.8529 76.18L33.7085 74.1403L37.9956 77.0869L38.5013 77.4343L39.0156 77.2182L44.0173 75.1166L48.4498 78.1624L48.8109 78.4106L49.1783 78.2563L54.3275 76.0929L58.9048 79.2381L59.1216 79.3872L59.3419 79.2946L64.6382 77.0695L69.3606 80.3139L69.4329 80.3635L69.5062 80.3328L74.9502 78.046L69.4774 80.0174L64.854 76.4741L64.7274 76.3773L64.5625 76.4366L59.2553 78.3486L54.7587 74.9024L54.5058 74.7085L54.1761 74.8272L49.0338 76.6798L44.6641 73.3307L44.2848 73.0398L43.79 73.2181L38.8133 75.0113L34.571 71.759L34.0651 71.3713L33.4054 71.6089L28.5931 73.3429Z" fill="#F2F2F2"/>
<path d="M29.9504 65.9556L26.3941 62.1799L25.8478 61.5998L24.9864 61.7605L20.1305 62.6666L16.6837 59.007L14.0732 61.5972L18.3385 65.6791L19.0349 66.3455L19.8871 66.1403L24.8519 64.9442L28.4841 68.4205L29.0541 68.9657L29.7512 68.798L34.8711 67.5647L38.6295 71.1618L39.0728 71.586L39.6151 71.4552L44.8893 70.1845L48.775 73.9032L49.0916 74.206L49.479 74.1126L54.9088 72.805L58.9214 76.6448L59.1116 76.8265L59.344 76.7706L64.9289 75.4252L69.0686 79.3864L69.1319 79.447L69.2095 79.4283L74.95 78.046L69.2316 79.1125L65.2372 74.8723L65.128 74.7563L64.9558 74.7884L59.4102 75.823L55.5258 71.6989L55.3074 71.467L54.9626 71.5314L49.5895 72.5338L45.8148 68.5257L45.487 68.1778L44.97 68.2741L39.77 69.2446L36.105 65.3531L35.6679 64.8891L34.9787 65.0175L29.9504 65.9556Z" fill="#F2F2F2"/>
<path d="M32.4769 58.8828L29.5734 54.5845L29.1272 53.9243L28.2512 53.9443L23.3131 54.0585L20.499 49.8924L17.5063 52.0297L21.0603 56.7439L21.6405 57.5137L22.5147 57.448L27.6071 57.0652L30.634 61.0799L31.1088 61.7096L31.8239 61.6558L37.0754 61.2614L40.207 65.4156L40.5765 65.9055L41.1328 65.8635L46.5426 65.4568L49.7805 69.7513L50.0443 70.1014L50.4415 70.0713L56.0111 69.6529L59.3548 74.0875L59.513 74.2975L59.7515 74.2796L65.4799 73.8493L68.9296 78.424L68.9826 78.4939L69.062 78.4881L74.9499 78.046L69.1345 78.1798L65.8731 73.3531L65.784 73.221L65.6088 73.2249L59.9693 73.3553L56.7976 68.6605L56.6193 68.3965L56.2688 68.4047L50.8044 68.5307L47.7224 63.9682L47.4546 63.5722L46.929 63.5844L41.6408 63.7065L38.6484 59.2766L38.2916 58.7485L37.5907 58.7646L32.4769 58.8828Z" fill="#F2F2F2"/>
<path d="M36.1072 52.3075L33.9316 47.5985L33.5975 46.8752L32.7297 46.7544L27.8372 46.0735L25.7289 41.5096L22.4316 43.1383L25.1824 48.3622L25.6316 49.2153L26.5046 49.2907L31.5926 49.7313L33.9351 54.1799L34.3028 54.8779L35.017 54.9396L40.2638 55.3941L42.6875 59.9976L42.9734 60.5405L43.5291 60.5885L48.9342 61.0562L51.4402 65.8153L51.6443 66.2028L52.0413 66.2373L57.6056 66.719L60.1936 71.6332L60.316 71.8659L60.5542 71.8867L66.2775 72.3821L68.9476 77.452L68.9885 77.5295L69.0679 77.5364L74.9503 78.046L69.1889 77.2438L66.7452 71.9556L66.6785 71.811L66.5049 71.7867L60.9176 71.0091L58.5414 65.8659L58.4077 65.5765L58.0606 65.5282L52.6469 64.7749L50.3376 59.7765L50.1372 59.3426L49.6165 59.27L44.3771 58.5412L42.1352 53.6879L41.868 53.1091L41.1735 53.0126L36.1072 52.3075Z" fill="#F2F2F2"/>
<path d="M40.7461 46.4009L39.3553 41.4036L39.1416 40.6359L38.3044 40.3772L33.5847 38.9192L32.2369 34.0757L28.7212 35.1535L30.5968 40.7515L30.9033 41.6658L31.7529 41.8805L36.7037 43.1327L38.3015 47.9L38.5521 48.6479L39.2471 48.8238L44.3528 50.1151L46.0058 55.0483L46.2007 55.6299L46.7414 55.7669L52.0011 57.0969L53.71 62.1966L53.8492 62.612L54.2356 62.7099L59.6502 64.0795L61.4152 69.3456L61.4989 69.5949L61.7304 69.6537L67.2998 71.0624L69.1208 76.4952L69.1487 76.5783L69.226 76.5978L74.9502 78.046L69.3924 76.3285L67.8302 70.7165L67.7872 70.563L67.62 70.5113L62.2303 68.846L60.711 63.3878L60.6253 63.0808L60.2906 62.9771L55.0683 61.3638L53.5921 56.0594L53.4639 55.5986L52.9614 55.4434L47.9072 53.8823L46.4742 48.732L46.3033 48.1179L45.6333 47.9108L40.7461 46.4009Z" fill="#F2F2F2"/>
<path d="M46.2734 41.3163L45.7034 36.1604L45.6158 35.3685L44.8312 34.9786L40.4071 32.7812L39.8548 27.7842L36.2114 28.283L37.1636 34.1097L37.319 35.0612L38.1232 35.4097L42.8086 37.4411L43.6197 42.4034L43.7471 43.1818L44.4049 43.467L49.2368 45.5618L50.0758 50.6965L50.1747 51.3019L50.6864 51.5237L55.6641 53.6816L56.5319 58.9899L56.6026 59.4222L56.9681 59.5808L62.0922 61.8027L62.9885 67.2841L63.031 67.5436L63.2502 67.6386L68.5209 69.9238L69.4457 75.5788L69.4596 75.6653L69.533 75.6969L74.9501 78.046L69.7405 75.458L69.0999 69.6677L69.0822 69.5092L68.9253 69.4313L63.8732 66.9216L63.2504 61.2904L63.2153 60.9736L62.9015 60.8174L58.0063 58.3861L57.401 52.9131L57.3485 52.438L56.8777 52.2041L52.1397 49.851L51.5526 44.5374L51.4827 43.9038L50.8547 43.592L46.2734 41.3163Z" fill="#F2F2F2"/>
<path d="M52.5459 37.1861L52.8116 32.0054L52.8522 31.2096L52.1403 30.6989L48.1266 27.8193L48.3843 22.7983L44.708 22.7051L44.712 28.6093L44.7125 29.5733L45.4502 30.0465L49.7488 32.8045L49.7522 37.8323L49.7527 38.6211L50.3562 39.0083L54.7887 41.8526L54.7921 47.0551L54.7924 47.6687L55.2619 47.9699L59.8284 50.8996L59.8321 56.2781L59.8324 56.7162L60.1676 56.9315L64.8686 59.9477L64.8726 65.5019L64.8728 65.7649L65.0741 65.8939L69.9091 68.9963L69.9133 74.7265L69.9136 74.814L69.9806 74.857L74.9501 78.046L70.224 74.6544L70.5216 68.8365L70.5297 68.6774L70.3873 68.5751L65.8039 65.2864L66.0938 59.6283L66.1102 59.3099L65.8253 59.1054L61.3843 55.9191L61.6663 50.42L61.6906 49.9426L61.2635 49.636L56.9653 46.5523L57.2391 41.2134L57.2718 40.5769L56.7023 40.168L52.5459 37.1861Z" fill="#F2F2F2"/>
<path d="M59.4002 34.1171L60.4945 29.0465L60.6625 28.2675L60.0419 27.6489L56.5429 24.1618L57.6037 19.2473L53.9902 18.5649L53.0456 24.3931L52.8916 25.3446L53.5436 25.9303L57.3431 29.343L56.5389 34.3062L56.4126 35.0847L56.9461 35.564L60.8643 39.0833L60.0319 44.2188L59.9338 44.8244L60.3487 45.1972L64.3853 48.8225L63.5249 54.1319L63.455 54.5645L63.7512 54.8307L67.9065 58.5631L67.0184 64.0457L66.9762 64.3053L67.1543 64.4649L71.428 68.3039L70.5119 73.9601L70.498 74.0467L70.5573 74.0999L74.95 78.046L70.83 73.9393L72.0584 68.2445L72.0921 68.0889L71.9679 67.9652L67.9722 63.9827L69.1673 58.4444L69.2345 58.1328L68.9861 57.8854L65.1146 54.0269L66.2762 48.6447L66.3769 48.1773L66.0045 47.8061L62.2575 44.0718L63.3856 38.8461L63.5201 38.223L63.0235 37.7282L59.4002 34.1171Z" fill="#F2F2F2"/>
<path d="M66.6587 32.1893L68.5533 27.3603L68.8442 26.6185L68.331 25.9081L65.4378 21.9043L67.2741 17.224L63.8172 15.97L61.9487 21.5706L61.6436 22.4851L62.1932 23.1678L65.395 27.1466L63.804 31.9163L63.5545 32.6644L64.004 33.2231L67.306 37.3261L65.6593 42.2614L65.4652 42.8434L65.8149 43.2781L69.2167 47.5046L67.5149 52.6069L67.3762 53.0226L67.6259 53.3328L71.1276 57.6844L69.3705 62.9531L69.2871 63.2027L69.4369 63.3889L73.0388 67.8647L71.226 73.3001L71.1983 73.3835L71.2482 73.4455L74.9501 78.046L71.5433 73.3305L73.6706 67.9074L73.7286 67.7589L73.626 67.617L70.3218 63.0441L72.3911 57.7698L72.5074 57.4733L72.3022 57.189L69.1009 52.7586L71.1118 47.6328L71.2864 47.1878L70.9783 46.7615L67.8797 42.4738L69.8326 37.4973L70.0655 36.9038L69.6548 36.3356L66.6587 32.1893Z" fill="#F2F2F2"/>
</g>
<path d="M117 76C117 100.853 96.8528 121 72 121C47.1472 121 27 100.853 27 76C27 51.1472 47.1472 31 72 31C96.8528 31 117 51.1472 117 76ZM45.072 76C45.072 90.8719 57.1281 102.928 72 102.928C86.8719 102.928 98.928 90.8719 98.928 76C98.928 61.1281 86.8719 49.072 72 49.072C57.1281 49.072 45.072 61.1281 45.072 76Z" fill="#121728"/>
<path opacity="0.9" d="M117 76C117 100.853 96.8528 121 72 121C47.1472 121 27 100.853 27 76C27 51.1472 47.1472 31 72 31C96.8528 31 117 51.1472 117 76ZM65.0217 76C65.0217 79.854 68.146 82.9783 72 82.9783C75.854 82.9783 78.9783 79.854 78.9783 76C78.9783 72.146 75.854 69.0217 72 69.0217C68.146 69.0217 65.0217 72.146 65.0217 76Z" fill="#121728"/>
<path opacity="0.25" d="M120 76C120 102.51 98.5097 124 72 124C45.4903 124 24 102.51 24 76C24 49.4903 45.4903 28 72 28C98.5097 28 120 49.4903 120 76ZM24.3306 76C24.3306 102.327 45.6729 123.669 72 123.669C98.3271 123.669 119.669 102.327 119.669 76C119.669 49.6729 98.3271 28.3306 72 28.3306C45.6729 28.3306 24.3306 49.6729 24.3306 76Z" fill="#3F455E"/>
<path opacity="0.25" d="M122 76C122 103.614 99.6142 126 72 126C44.3858 126 22 103.614 22 76C22 48.3858 44.3858 26 72 26C99.6142 26 122 48.3858 122 76ZM22.3443 76C22.3443 103.424 44.5759 125.656 72 125.656C99.4241 125.656 121.656 103.424 121.656 76C121.656 48.5759 99.4241 26.3443 72 26.3443C44.5759 26.3443 22.3443 48.5759 22.3443 76Z" fill="#3F455E"/>
<path opacity="0.25" d="M124 76C124 104.719 100.719 128 72 128C43.2812 128 20 104.719 20 76C20 47.2812 43.2812 24 72 24C100.719 24 124 47.2812 124 76ZM20.3581 76C20.3581 104.521 43.479 127.642 72 127.642C100.521 127.642 123.642 104.521 123.642 76C123.642 47.479 100.521 24.3581 72 24.3581C43.479 24.3581 20.3581 47.479 20.3581 76Z" fill="#3F455E"/>
<path opacity="0.25" d="M126 76C126 105.823 101.823 130 72 130C42.1766 130 18 105.823 18 76C18 46.1766 42.1766 22 72 22C101.823 22 126 46.1766 126 76ZM18.3719 76C18.3719 105.618 42.382 129.628 72 129.628C101.618 129.628 125.628 105.618 125.628 76C125.628 46.382 101.618 22.3719 72 22.3719C42.382 22.3719 18.3719 46.382 18.3719 76Z" fill="#3F455E"/>
<path opacity="0.65" d="M96 76C96 89.2548 85.2548 100 72 100C58.7452 100 48 89.2548 48 76C48 62.7452 58.7452 52 72 52C85.2548 52 96 62.7452 96 76ZM48.1653 76C48.1653 89.1636 58.8365 99.8347 72 99.8347C85.1636 99.8347 95.8347 89.1636 95.8347 76C95.8347 62.8365 85.1636 52.1653 72 52.1653C58.8365 52.1653 48.1653 62.8365 48.1653 76Z" fill="#3F455E"/>
<path opacity="0.25" d="M94 76C94 88.1503 84.1503 98 72 98C59.8497 98 50 88.1503 50 76C50 63.8497 59.8497 54 72 54C84.1503 54 94 63.8497 94 76ZM50.1515 76C50.1515 88.0666 59.9334 97.8485 72 97.8485C84.0666 97.8485 93.8485 88.0666 93.8485 76C93.8485 63.9334 84.0666 54.1515 72 54.1515C59.9334 54.1515 50.1515 63.9334 50.1515 76Z" fill="#3F455E"/>
<path d="M74.5887 32.2045L76.89 28.2186C77.2026 27.677 76.8118 27 76.1864 27L69.8136 27C69.1882 27 68.7974 27.677 69.11 28.2185L71.4113 32.2045C72.1174 33.4275 73.8826 33.4275 74.5887 32.2045Z" fill="url(#paint34_linear_460_51570)"/>
<path d="M69.1101 28.2186L71.4113 32.2045C71.8718 33.002 72.7827 33.2793 73.5565 33.0366C73.1437 32.9072 72.7699 32.6299 72.5242 32.2045L71.7913 30.9349L74.6408 30.9349C74.756 30.9349 74.8494 30.8416 74.8494 30.7264L74.8494 28.6812L75.8579 28.6812C75.9721 28.6812 76.0717 28.5932 76.0751 28.4791C76.0786 28.361 75.9839 28.2641 75.8666 28.2641L72.6247 28.2641L72.6247 27L72.2075 27L72.2075 28.2641L70.7785 28.2641C70.3446 28.2641 70.0199 27.8465 70.1482 27.432C70.2215 27.1951 70.432 27 70.9265 27L69.8136 27C69.1883 27 68.7974 27.677 69.1101 28.2186ZM74.4322 28.6812L74.4322 29.3708L73.5653 29.3708C73.451 29.3708 73.3515 29.4588 73.348 29.573C73.3445 29.6911 73.4392 29.7879 73.5565 29.7879L74.4322 29.7879L74.4322 30.5178L72.4007 30.5178C71.8746 30.5178 71.3884 30.2371 71.1254 29.7815L70.4902 28.6812L74.4322 28.6812Z" fill="url(#paint35_linear_460_51570)"/>
<path d="M71.4113 47.9173L69.11 51.9032C68.7974 52.4448 69.1882 53.1217 69.8136 53.1217H76.1864C76.8118 53.1217 77.2026 52.4448 76.89 51.9032L74.5887 47.9173C73.8826 46.6942 72.1174 46.6942 71.4113 47.9173Z" fill="url(#paint36_linear_460_51570)"/>
<path d="M76.8899 51.9032L74.5887 47.9173C74.1282 47.1197 73.2173 46.8424 72.4435 47.0851C72.8563 47.2145 73.2301 47.4918 73.4758 47.9173L74.2087 49.1868H71.3592C71.244 49.1868 71.1506 49.2802 71.1506 49.3954V51.4405H70.1421C70.0279 51.4405 69.9283 51.5285 69.9249 51.6427C69.9214 51.7608 70.0161 51.8576 70.1334 51.8576H73.3753V53.1217H73.7925V51.8576H75.2215C75.6554 51.8576 75.9801 52.2752 75.8518 52.6897C75.7785 52.9266 75.568 53.1217 75.0735 53.1217H76.1864C76.8117 53.1217 77.2026 52.4447 76.8899 51.9032ZM71.5678 51.4405V50.7509H72.4347C72.549 50.7509 72.6485 50.6629 72.652 50.5488C72.6555 50.4306 72.5608 50.3338 72.4435 50.3338H71.5678V49.6039H73.5993C74.1254 49.6039 74.6116 49.8846 74.8746 50.3402L75.5098 51.4405H71.5678Z" fill="url(#paint37_linear_460_51570)"/>
<g filter="url(#filter0_f_460_51570)">
<path d="M72 37.2381C72 36.5437 72.5631 35.9788 73.257 36.0006C73.951 36.0224 74.4776 36.6216 74.4339 37.3146L74.0734 43.044C74.0385 43.5984 73.5609 44.0179 73.0056 44.0005C72.4504 43.983 72 43.5344 72 42.9789V37.2381Z" fill="url(#paint38_linear_460_51570)"/>
<path d="M99.4088 48.5911C99.8997 48.1001 100.697 48.0989 101.172 48.6049C101.648 49.1112 101.596 49.907 101.075 50.3662L96.7694 54.1627C96.3527 54.5302 95.7182 54.4888 95.338 54.0841C94.9577 53.6791 94.9565 53.0434 95.3493 52.6506L99.4088 48.5911Z" fill="url(#paint39_linear_460_51570)"/>
<path d="M110.762 76C111.456 76 112.021 76.5629 111.999 77.257C111.978 77.9511 111.378 78.4774 110.686 78.4339L104.956 78.0734C104.402 78.0385 103.982 77.5609 104 77.0057C104.017 76.4504 104.466 76 105.021 76H110.762Z" fill="url(#paint40_linear_460_51570)"/>
<path d="M99.4091 103.409C99.9001 103.9 99.9013 104.698 99.3952 105.173C98.889 105.648 98.0931 105.597 97.6339 105.076L93.8375 100.77C93.47 100.353 93.5113 99.7184 93.9161 99.3383C94.321 98.9579 94.9568 98.9567 95.3496 99.3495L99.4091 103.409Z" fill="url(#paint41_linear_460_51570)"/>
<path d="M71.9999 114.762C71.9999 115.456 71.437 116.021 70.7429 115.999C70.0488 115.978 69.5225 115.378 69.566 114.686L69.9265 108.956C69.9614 108.402 70.439 107.982 70.9943 108C71.5495 108.017 71.9999 108.466 71.9999 109.021V114.762Z" fill="url(#paint42_linear_460_51570)"/>
<path d="M44.5911 103.409C44.1002 103.9 43.3024 103.901 42.8272 103.395C42.3517 102.889 42.4033 102.093 42.9242 101.634L47.2303 97.8374C47.6469 97.4699 48.2815 97.511 48.6616 97.916C49.042 98.321 49.0432 98.9567 48.6504 99.3495L44.5911 103.409Z" fill="url(#paint43_linear_460_51570)"/>
<path d="M33.2381 76C32.5437 76 31.9788 75.4369 32.0006 74.7431C32.0224 74.049 32.6216 73.5224 33.3146 73.5662L39.0441 73.9267C39.5985 73.9616 40.018 74.4392 40.0005 74.9944C39.9831 75.5497 39.5344 76 38.9789 76H33.2381Z" fill="url(#paint44_linear_460_51570)"/>
<path d="M44.5912 48.5913C44.1002 48.1003 44.0988 47.3026 44.6048 46.8274C45.1111 46.3519 45.9069 46.4035 46.3661 46.9244L50.1626 51.2304C50.5301 51.6471 50.489 52.2817 50.084 52.6618C49.679 53.0422 49.0433 53.0434 48.6505 52.6506L44.5912 48.5913Z" fill="url(#paint45_linear_460_51570)"/>
<path d="M57.1892 111.821C56.924 112.462 56.1879 112.769 55.5548 112.484C54.9219 112.199 54.6643 111.444 54.9694 110.82L57.4917 105.663C57.7356 105.164 58.3375 104.959 58.844 105.187C59.3503 105.415 59.5951 106.002 59.3827 106.516L57.1892 111.821Z" fill="url(#paint46_linear_460_51570)"/>
<path d="M36.198 90.8564C35.5567 91.1225 34.8191 90.8189 34.5733 90.1695C34.3274 89.5201 34.6791 88.8043 35.3359 88.579L40.7659 86.7159C41.2913 86.5357 41.8618 86.8162 42.0587 87.3356C42.2553 87.8551 42.0136 88.443 41.5004 88.6559L36.198 90.8564Z" fill="url(#paint47_linear_460_51570)"/>
<path d="M36.1795 61.1891C35.5378 60.9239 35.2309 60.1878 35.5162 59.5546C35.8015 58.9217 36.5564 58.6642 37.1801 58.9693L42.3371 61.4916C42.8362 61.7355 43.0412 62.3374 42.813 62.8436C42.5848 63.3501 41.998 63.595 41.4846 63.3826L36.1795 61.1891Z" fill="url(#paint48_linear_460_51570)"/>
<path d="M57.1437 40.198C56.8775 39.5567 57.1812 38.8191 57.8306 38.5733C58.48 38.3274 59.1958 38.6791 59.4211 39.3359L61.2842 44.7659C61.4643 45.2913 61.1838 45.8619 60.6644 46.0585C60.145 46.2554 59.557 46.0136 59.3439 45.5004L57.1437 40.198Z" fill="url(#paint49_linear_460_51570)"/>
<path d="M86.8112 40.1792C87.0764 39.5376 87.8125 39.2306 88.4457 39.516C89.0786 39.8013 89.3361 40.5562 89.031 41.1799L86.5087 46.3368C86.2648 46.836 85.6629 47.0409 85.1564 46.8128C84.6502 46.5846 84.4053 45.9978 84.6177 45.4844L86.8112 40.1792Z" fill="url(#paint50_linear_460_51570)"/>
<path d="M107.802 61.1437C108.444 60.8776 109.181 61.1812 109.427 61.8306C109.673 62.4798 109.321 63.1958 108.664 63.4211L103.234 65.284C102.709 65.4644 102.139 65.1839 101.942 64.6645C101.745 64.1448 101.987 63.5568 102.5 63.3439L107.802 61.1437Z" fill="url(#paint51_linear_460_51570)"/>
<path d="M107.821 90.811C108.463 91.0762 108.77 91.8123 108.484 92.4454C108.199 93.0783 107.444 93.3359 106.82 93.0308L101.664 90.5085C101.164 90.2646 100.959 89.6627 101.188 89.1562C101.416 88.6499 102.003 88.405 102.516 88.6175L107.821 90.811Z" fill="url(#paint52_linear_460_51570)"/>
<path d="M86.8567 111.802C87.1229 112.443 86.8192 113.181 86.1698 113.427C85.5205 113.673 84.8047 113.321 84.5794 112.664L82.7162 107.234C82.5361 106.709 82.8166 106.138 83.336 105.941C83.8554 105.745 84.4434 105.987 84.6565 106.499L86.8567 111.802Z" fill="url(#paint53_linear_460_51570)"/>
<path d="M39.5125 97.1421C38.9305 97.5208 38.1499 97.3572 37.7896 96.7634C37.4294 96.17 37.6445 95.4018 38.2491 95.0604L43.248 92.2376C43.7316 91.9645 44.3437 92.136 44.6318 92.611C44.9202 93.0857 44.7898 93.7081 44.3241 94.0111L39.5125 97.1421Z" fill="url(#paint54_linear_460_51570)"/>
<path d="M34.0787 67.9769C33.3994 67.8333 32.9632 67.1655 33.1282 66.491C33.2932 65.8165 33.9884 65.4254 34.6573 65.6115L40.1881 67.1502C40.7234 67.299 41.0349 67.8533 40.9028 68.3928C40.7709 68.9325 40.2386 69.2802 39.6952 69.1652L34.0787 67.9769Z" fill="url(#paint55_linear_460_51570)"/>
<path d="M50.8591 43.5117C50.4804 42.9297 50.6443 42.1491 51.2378 41.7889C51.8312 41.4286 52.5994 41.6437 52.9408 42.2483L55.7636 47.2471C56.037 47.7307 55.8652 48.3431 55.3904 48.6312C54.9155 48.9193 54.2933 48.7889 53.9904 48.3235L50.8591 43.5117Z" fill="url(#paint56_linear_460_51570)"/>
<path d="M80.0246 38.0779C80.1685 37.3986 80.8363 36.9624 81.5107 37.1274C82.1852 37.2924 82.5761 37.9876 82.39 38.6566L80.8513 44.1873C80.7025 44.7225 80.1484 45.034 79.6087 44.9021C79.0692 44.77 78.7213 44.2379 78.8365 43.6944L80.0246 38.0779Z" fill="url(#paint57_linear_460_51570)"/>
<path d="M104.49 54.8587C105.072 54.48 105.853 54.6436 106.213 55.2371C106.573 55.8308 106.358 56.599 105.754 56.9404L100.755 59.7632C100.271 60.0363 99.6589 59.8648 99.3708 59.3898C99.0824 58.9151 99.2129 58.2927 99.6785 57.9897L104.49 54.8587Z" fill="url(#paint58_linear_460_51570)"/>
<path d="M109.924 84.024C110.603 84.1676 111.039 84.8353 110.874 85.5098C110.709 86.1843 110.014 86.5754 109.345 86.3893L103.814 84.8506C103.279 84.7018 102.967 84.1475 103.1 83.608C103.231 83.0683 103.764 82.7206 104.307 82.8356L109.924 84.024Z" fill="url(#paint59_linear_460_51570)"/>
<path d="M93.1428 108.489C93.5215 109.071 93.3576 109.852 92.7641 110.212C92.1706 110.572 91.4025 110.357 91.0611 109.752L88.2382 104.754C87.9649 104.27 88.1367 103.658 88.6114 103.37C89.0864 103.081 89.7086 103.212 90.0115 103.677L93.1428 108.489Z" fill="url(#paint60_linear_460_51570)"/>
<path d="M63.9776 113.923C63.8337 114.602 63.166 115.038 62.4915 114.873C61.817 114.708 61.4261 114.013 61.6123 113.344L63.1509 107.814C63.2998 107.278 63.8538 106.967 64.3935 107.099C64.933 107.231 65.2809 107.763 65.166 108.306L63.9776 113.923Z" fill="url(#paint61_linear_460_51570)"/>
<path d="M110.103 68.8761C110.785 68.7486 111.444 69.1982 111.55 69.8844C111.656 70.5706 111.164 71.1982 110.475 71.2828L104.777 71.9814C104.225 72.049 103.725 71.6565 103.64 71.1077C103.556 70.5586 103.914 70.0335 104.46 69.9312L110.103 68.8761Z" fill="url(#paint62_linear_460_51570)"/>
<path d="M103.981 97.9048C104.553 98.2971 104.701 99.081 104.291 99.6412C103.881 100.201 103.089 100.297 102.542 99.8694L98.0188 96.3343C97.5811 95.9922 97.5049 95.3612 97.8332 94.913C98.1612 94.4648 98.786 94.3468 99.2442 94.6605L103.981 97.9048Z" fill="url(#paint63_linear_460_51570)"/>
<path d="M79.1248 114.102C79.2524 114.784 78.8027 115.443 78.1166 115.549C77.4304 115.655 76.803 115.163 76.7184 114.474L76.0198 108.776C75.9522 108.224 76.3445 107.724 76.8935 107.639C77.4426 107.555 77.9677 107.913 78.0697 108.459L79.1248 114.102Z" fill="url(#paint64_linear_460_51570)"/>
<path d="M50.0962 107.979C49.7037 108.552 48.92 108.7 48.3598 108.29C47.7995 107.88 47.7039 107.088 48.1313 106.541L51.6667 102.018C52.0086 101.58 52.6398 101.504 53.088 101.832C53.5362 102.16 53.6542 102.785 53.3403 103.243L50.0962 107.979Z" fill="url(#paint65_linear_460_51570)"/>
<path d="M33.8993 83.1237C33.2168 83.2513 32.558 82.8016 32.4519 82.1155C32.3458 81.4293 32.838 80.8019 33.5272 80.7173L39.2254 80.0187C39.7767 79.9511 40.2769 80.3434 40.3618 80.8924C40.4466 81.4415 40.0884 81.9666 39.5424 82.0686L33.8993 83.1237Z" fill="url(#paint66_linear_460_51570)"/>
<path d="M40.0213 54.0953C39.4485 53.7028 39.3005 52.9191 39.7107 52.3588C40.1209 51.7986 40.9127 51.703 41.4599 52.1304L45.9831 55.6657C46.4208 56.0076 46.4968 56.6389 46.1687 57.0871C45.8405 57.5353 45.2159 57.6533 44.7577 57.3394L40.0213 54.0953Z" fill="url(#paint67_linear_460_51570)"/>
<path d="M64.8771 37.8983C64.7495 37.2157 65.1992 36.5569 65.8853 36.4508C66.5715 36.3447 67.1992 36.837 67.2837 37.5262L67.9824 43.2243C68.05 43.7756 67.6574 44.2758 67.1086 44.3607C66.5596 44.4456 66.0344 44.0873 65.9322 43.5413L64.8771 37.8983Z" fill="url(#paint68_linear_460_51570)"/>
<path d="M93.9059 44.0208C94.2982 43.4479 95.0821 43.3 95.6424 43.7102C96.2024 44.1204 96.2982 44.9122 95.8706 45.4593L92.3355 49.9825C91.9934 50.4202 91.3621 50.4962 90.9142 50.1682C90.4659 49.8399 90.3477 49.2154 90.6616 48.7571L93.9059 44.0208Z" fill="url(#paint69_linear_460_51570)"/>
</g>
<path d="M72 37.2381C72 36.5437 72.5631 35.9788 73.257 36.0006C73.951 36.0224 74.4776 36.6216 74.4339 37.3146L74.0734 43.044C74.0385 43.5984 73.5609 44.0179 73.0056 44.0005C72.4504 43.983 72 43.5344 72 42.9789V37.2381Z" fill="url(#paint70_linear_460_51570)"/>
<path d="M99.4088 48.5911C99.8997 48.1001 100.697 48.0989 101.172 48.6049C101.648 49.1112 101.596 49.907 101.075 50.3662L96.7694 54.1627C96.3527 54.5302 95.7182 54.4888 95.338 54.0841C94.9577 53.6791 94.9565 53.0434 95.3493 52.6506L99.4088 48.5911Z" fill="url(#paint71_linear_460_51570)"/>
<path d="M110.762 76C111.456 76 112.021 76.5629 111.999 77.257C111.978 77.9511 111.378 78.4774 110.686 78.4339L104.956 78.0734C104.402 78.0385 103.982 77.5609 104 77.0057C104.017 76.4504 104.466 76 105.021 76H110.762Z" fill="url(#paint72_linear_460_51570)"/>
<path d="M99.4091 103.409C99.9001 103.9 99.9013 104.698 99.3952 105.173C98.889 105.648 98.0931 105.597 97.6339 105.076L93.8375 100.77C93.47 100.353 93.5113 99.7184 93.9161 99.3383C94.321 98.9579 94.9568 98.9567 95.3496 99.3495L99.4091 103.409Z" fill="url(#paint73_linear_460_51570)"/>
<path d="M71.9999 114.762C71.9999 115.456 71.437 116.021 70.7429 115.999C70.0488 115.978 69.5225 115.378 69.566 114.686L69.9265 108.956C69.9614 108.402 70.439 107.982 70.9943 108C71.5495 108.017 71.9999 108.466 71.9999 109.021V114.762Z" fill="url(#paint74_linear_460_51570)"/>
<path d="M44.5911 103.409C44.1002 103.9 43.3024 103.901 42.8272 103.395C42.3517 102.889 42.4033 102.093 42.9242 101.634L47.2303 97.8374C47.6469 97.4699 48.2815 97.511 48.6616 97.916C49.042 98.321 49.0432 98.9567 48.6504 99.3495L44.5911 103.409Z" fill="url(#paint75_linear_460_51570)"/>
<path d="M33.2381 76C32.5437 76 31.9788 75.4369 32.0006 74.7431C32.0224 74.049 32.6216 73.5224 33.3146 73.5662L39.0441 73.9267C39.5985 73.9616 40.018 74.4392 40.0005 74.9944C39.9831 75.5497 39.5344 76 38.9789 76H33.2381Z" fill="url(#paint76_linear_460_51570)"/>
<path d="M44.5912 48.5913C44.1002 48.1003 44.0988 47.3026 44.6048 46.8274C45.1111 46.3519 45.9069 46.4035 46.3661 46.9244L50.1626 51.2304C50.5301 51.6471 50.489 52.2817 50.084 52.6618C49.679 53.0422 49.0433 53.0434 48.6505 52.6506L44.5912 48.5913Z" fill="url(#paint77_linear_460_51570)"/>
<path d="M57.1892 111.821C56.924 112.462 56.1879 112.769 55.5548 112.484C54.9219 112.199 54.6643 111.444 54.9694 110.82L57.4917 105.663C57.7356 105.164 58.3375 104.959 58.844 105.187C59.3503 105.415 59.5951 106.002 59.3827 106.516L57.1892 111.821Z" fill="url(#paint78_linear_460_51570)"/>
<path d="M36.198 90.8564C35.5567 91.1225 34.8191 90.8189 34.5733 90.1695C34.3274 89.5201 34.6791 88.8043 35.3359 88.579L40.7659 86.7159C41.2913 86.5357 41.8618 86.8162 42.0587 87.3356C42.2553 87.8551 42.0136 88.443 41.5004 88.6559L36.198 90.8564Z" fill="url(#paint79_linear_460_51570)"/>
<path d="M36.1795 61.1891C35.5378 60.9239 35.2309 60.1878 35.5162 59.5546C35.8015 58.9217 36.5564 58.6642 37.1801 58.9693L42.3371 61.4916C42.8362 61.7355 43.0412 62.3374 42.813 62.8436C42.5848 63.3501 41.998 63.595 41.4846 63.3826L36.1795 61.1891Z" fill="url(#paint80_linear_460_51570)"/>
<path d="M57.1437 40.198C56.8775 39.5567 57.1812 38.8191 57.8306 38.5733C58.48 38.3274 59.1958 38.6791 59.4211 39.3359L61.2842 44.7659C61.4643 45.2913 61.1838 45.8619 60.6644 46.0585C60.145 46.2554 59.557 46.0136 59.3439 45.5004L57.1437 40.198Z" fill="url(#paint81_linear_460_51570)"/>
<path d="M86.8112 40.1792C87.0764 39.5376 87.8125 39.2306 88.4457 39.516C89.0786 39.8013 89.3361 40.5562 89.031 41.1799L86.5087 46.3368C86.2648 46.836 85.6629 47.0409 85.1564 46.8128C84.6502 46.5846 84.4053 45.9978 84.6177 45.4844L86.8112 40.1792Z" fill="url(#paint82_linear_460_51570)"/>
<path d="M107.802 61.1437C108.444 60.8776 109.181 61.1812 109.427 61.8306C109.673 62.4798 109.321 63.1958 108.664 63.4211L103.234 65.284C102.709 65.4644 102.139 65.1839 101.942 64.6645C101.745 64.1448 101.987 63.5568 102.5 63.3439L107.802 61.1437Z" fill="url(#paint83_linear_460_51570)"/>
<path d="M107.821 90.811C108.463 91.0762 108.77 91.8123 108.484 92.4454C108.199 93.0783 107.444 93.3359 106.82 93.0308L101.664 90.5085C101.164 90.2646 100.959 89.6627 101.188 89.1562C101.416 88.6499 102.003 88.405 102.516 88.6175L107.821 90.811Z" fill="url(#paint84_linear_460_51570)"/>
<path d="M86.8567 111.802C87.1229 112.443 86.8192 113.181 86.1698 113.427C85.5205 113.673 84.8047 113.321 84.5794 112.664L82.7162 107.234C82.5361 106.709 82.8166 106.138 83.336 105.941C83.8554 105.745 84.4434 105.987 84.6565 106.499L86.8567 111.802Z" fill="url(#paint85_linear_460_51570)"/>
<path d="M39.5125 97.1421C38.9305 97.5208 38.1499 97.3572 37.7896 96.7634C37.4294 96.17 37.6445 95.4018 38.2491 95.0604L43.248 92.2376C43.7316 91.9645 44.3437 92.136 44.6318 92.611C44.9202 93.0857 44.7898 93.7081 44.3241 94.0111L39.5125 97.1421Z" fill="url(#paint86_linear_460_51570)"/>
<path d="M34.0787 67.9769C33.3994 67.8333 32.9632 67.1655 33.1282 66.491C33.2932 65.8165 33.9884 65.4254 34.6573 65.6115L40.1881 67.1502C40.7234 67.299 41.0349 67.8533 40.9028 68.3928C40.7709 68.9325 40.2386 69.2802 39.6952 69.1652L34.0787 67.9769Z" fill="url(#paint87_linear_460_51570)"/>
<path d="M50.8591 43.5117C50.4804 42.9297 50.6443 42.1491 51.2378 41.7889C51.8312 41.4286 52.5994 41.6437 52.9408 42.2483L55.7636 47.2471C56.037 47.7307 55.8652 48.3431 55.3904 48.6312C54.9155 48.9193 54.2933 48.7889 53.9904 48.3235L50.8591 43.5117Z" fill="url(#paint88_linear_460_51570)"/>
<path d="M80.0246 38.0779C80.1685 37.3986 80.8363 36.9624 81.5107 37.1274C82.1852 37.2924 82.5761 37.9876 82.39 38.6566L80.8513 44.1873C80.7025 44.7225 80.1484 45.034 79.6087 44.9021C79.0692 44.77 78.7213 44.2379 78.8365 43.6944L80.0246 38.0779Z" fill="url(#paint89_linear_460_51570)"/>
<path d="M104.49 54.8587C105.072 54.48 105.853 54.6436 106.213 55.2371C106.573 55.8308 106.358 56.599 105.754 56.9404L100.755 59.7632C100.271 60.0363 99.6589 59.8648 99.3708 59.3898C99.0824 58.9151 99.2129 58.2927 99.6785 57.9897L104.49 54.8587Z" fill="url(#paint90_linear_460_51570)"/>
<path d="M109.924 84.024C110.603 84.1676 111.039 84.8353 110.874 85.5098C110.709 86.1843 110.014 86.5754 109.345 86.3893L103.814 84.8506C103.279 84.7018 102.967 84.1475 103.1 83.608C103.231 83.0683 103.764 82.7206 104.307 82.8356L109.924 84.024Z" fill="url(#paint91_linear_460_51570)"/>
<path d="M93.1428 108.489C93.5215 109.071 93.3576 109.852 92.7641 110.212C92.1706 110.572 91.4025 110.357 91.0611 109.752L88.2382 104.754C87.9649 104.27 88.1367 103.658 88.6114 103.37C89.0864 103.081 89.7086 103.212 90.0115 103.677L93.1428 108.489Z" fill="url(#paint92_linear_460_51570)"/>
<path d="M63.9776 113.923C63.8337 114.602 63.166 115.038 62.4915 114.873C61.817 114.708 61.4261 114.013 61.6123 113.344L63.1509 107.814C63.2998 107.278 63.8538 106.967 64.3935 107.099C64.933 107.231 65.2809 107.763 65.166 108.306L63.9776 113.923Z" fill="url(#paint93_linear_460_51570)"/>
<path d="M110.103 68.8761C110.785 68.7486 111.444 69.1982 111.55 69.8844C111.656 70.5706 111.164 71.1982 110.475 71.2828L104.777 71.9814C104.225 72.049 103.725 71.6565 103.64 71.1077C103.556 70.5586 103.914 70.0335 104.46 69.9312L110.103 68.8761Z" fill="url(#paint94_linear_460_51570)"/>
<path d="M103.981 97.9048C104.553 98.2971 104.701 99.081 104.291 99.6412C103.881 100.201 103.089 100.297 102.542 99.8694L98.0188 96.3343C97.5811 95.9922 97.5049 95.3612 97.8332 94.913C98.1612 94.4648 98.786 94.3468 99.2442 94.6605L103.981 97.9048Z" fill="url(#paint95_linear_460_51570)"/>
<path d="M79.1248 114.102C79.2524 114.784 78.8027 115.443 78.1166 115.549C77.4304 115.655 76.803 115.163 76.7184 114.474L76.0198 108.776C75.9522 108.224 76.3445 107.724 76.8935 107.639C77.4426 107.555 77.9677 107.913 78.0697 108.459L79.1248 114.102Z" fill="url(#paint96_linear_460_51570)"/>
<path d="M50.0962 107.979C49.7037 108.552 48.92 108.7 48.3598 108.29C47.7995 107.88 47.7039 107.088 48.1313 106.541L51.6667 102.018C52.0086 101.58 52.6398 101.504 53.088 101.832C53.5362 102.16 53.6542 102.785 53.3403 103.243L50.0962 107.979Z" fill="url(#paint97_linear_460_51570)"/>
<path d="M33.8993 83.1237C33.2168 83.2513 32.558 82.8016 32.4519 82.1155C32.3458 81.4293 32.838 80.8019 33.5272 80.7173L39.2254 80.0187C39.7767 79.9511 40.2769 80.3434 40.3618 80.8924C40.4466 81.4415 40.0884 81.9666 39.5424 82.0686L33.8993 83.1237Z" fill="url(#paint98_linear_460_51570)"/>
<path d="M40.0213 54.0953C39.4485 53.7028 39.3005 52.9191 39.7107 52.3588C40.1209 51.7986 40.9127 51.703 41.4599 52.1304L45.9831 55.6657C46.4208 56.0076 46.4968 56.6389 46.1687 57.0871C45.8405 57.5353 45.2159 57.6533 44.7577 57.3394L40.0213 54.0953Z" fill="url(#paint99_linear_460_51570)"/>
<path d="M64.8771 37.8983C64.7495 37.2157 65.1992 36.5569 65.8853 36.4508C66.5715 36.3447 67.1992 36.837 67.2837 37.5262L67.9824 43.2243C68.05 43.7756 67.6574 44.2758 67.1086 44.3607C66.5596 44.4456 66.0344 44.0873 65.9322 43.5413L64.8771 37.8983Z" fill="url(#paint100_linear_460_51570)"/>
<path d="M93.9059 44.0208C94.2982 43.4479 95.0821 43.3 95.6424 43.7102C96.2024 44.1204 96.2982 44.9122 95.8706 45.4593L92.3355 49.9825C91.9934 50.4202 91.3621 50.4962 90.9142 50.1682C90.4659 49.8399 90.3477 49.2154 90.6616 48.7571L93.9059 44.0208Z" fill="url(#paint101_linear_460_51570)"/>
</g>
<path d="M124.5 33C127.538 33 130 30.5376 130 27.5C130 24.4624 127.538 22 124.5 22C121.462 22 119 24.4624 119 27.5C119 30.5376 121.462 33 124.5 33Z" fill="url(#paint102_linear_460_51570)"/>
<path d="M131 20C132.105 20 133 19.1046 133 18C133 16.8954 132.105 16 131 16C129.895 16 129 16.8954 129 18C129 19.1046 129.895 20 131 20Z" fill="url(#paint103_linear_460_51570)"/>
<path d="M21 119C18.2386 119 16 121.239 16 124C16 126.761 18.2386 129 21 129C23.7614 129 26 126.761 26 124C26 121.239 23.7614 119 21 119Z" fill="url(#paint104_linear_460_51570)"/>
<path d="M15 131C13.8954 131 13 131.895 13 133C13 134.105 13.8954 135 15 135C16.1046 135 17 134.105 17 133C17 131.895 16.1046 131 15 131Z" fill="url(#paint105_linear_460_51570)"/>
<path d="M117.326 127.456C113.756 126.536 109.999 126.53 106.426 127.438C105.169 127.757 104.028 126.616 104.348 125.359C105.255 121.786 105.249 118.03 104.329 114.459C104.003 113.196 105.15 112.048 106.413 112.374C109.984 113.294 113.741 113.3 117.314 112.393C118.57 112.074 119.712 113.215 119.392 114.471C118.485 118.045 118.491 121.801 119.411 125.372C119.736 126.635 118.59 127.782 117.326 127.456Z" fill="url(#paint106_linear_460_51570)"/>
<path d="M117.314 112.393C113.741 113.3 109.984 113.294 106.414 112.374C105.153 112.049 104.008 113.212 104.332 114.473C104.337 114.493 104.343 114.513 104.348 114.533C104.787 116.263 106.358 117.475 108.141 117.426C109.758 117.382 111.371 117.16 112.947 116.759C114.21 116.438 115.347 117.575 115.026 118.838C114.625 120.415 114.403 122.027 114.359 123.644C114.311 125.427 115.523 126.999 117.252 127.438C117.272 127.443 117.292 127.448 117.312 127.453C118.573 127.777 119.736 126.632 119.411 125.372C118.491 121.801 118.485 118.045 119.392 114.471C119.714 113.206 118.579 112.071 117.314 112.393Z" fill="url(#paint107_linear_460_51570)"/>
<path d="M71.9998 86C77.5225 86 81.9996 81.523 81.9996 76.0002C81.9996 70.4775 77.5225 66.0004 71.9998 66.0004C66.4771 66.0004 62 70.4775 62 76.0002C62 81.523 66.4771 86 71.9998 86Z" fill="#2D334F"/>
<path d="M72.0002 66C71.3876 66 70.7888 66.0581 70.2065 66.1635C74.8729 67.0091 78.4128 71.0896 78.4128 75.9998C78.4128 77.5989 78.0353 79.1089 77.3679 80.4489C77.0295 78.9256 75.6274 77.8029 73.9808 77.9024C72.3807 77.9991 71.0638 79.2846 70.9321 80.8823C70.863 81.7216 71.1117 82.5012 71.5711 83.1139C72.3004 84.0867 71.7886 85.491 70.6021 85.756C70.4713 85.7853 70.3394 85.812 70.2067 85.8361C70.7888 85.9416 71.3876 85.9995 72.0003 85.9995C77.5229 85.9997 81.9999 81.5226 81.9999 75.9999C81.9999 70.4772 77.5229 66 72.0002 66Z" fill="#424A6D" fill-opacity="0.35"/>
<path d="M66.9436 77.8964C68.1119 77.8964 69.0591 76.9493 69.0591 75.7809C69.0591 74.6126 68.1119 73.6654 66.9436 73.6654C65.7753 73.6654 64.8281 74.6126 64.8281 75.7809C64.8281 76.9493 65.7753 77.8964 66.9436 77.8964Z" fill="#424A6D" fill-opacity="0.35"/>
<path d="M73.3865 73.6654C74.5548 73.6654 75.5019 72.7183 75.5019 71.55C75.5019 70.3816 74.5548 69.4345 73.3865 69.4345C72.2181 69.4345 71.271 70.3816 71.271 71.55C71.271 72.7183 72.2181 73.6654 73.3865 73.6654Z" fill="#424A6D" fill-opacity="0.35"/>
<defs>
<filter id="filter0_f_460_51570" x="17" y="21" width="110" height="110" filterUnits="userSpaceOnUse" color-interpolation-filters="sRGB">
<feFlood flood-opacity="0" result="BackgroundImageFix"/>
<feBlend mode="normal" in="SourceGraphic" in2="BackgroundImageFix" result="shape"/>
<feGaussianBlur stdDeviation="7.5" result="effect1_foregroundBlur_460_51570"/>
</filter>
<linearGradient id="paint0_linear_460_51570" x1="14.9893" y1="26.8595" x2="28.1088" y2="23.2978" gradientUnits="userSpaceOnUse">
<stop stop-color="#FEF0AE"/>
<stop offset="1" stop-color="#FBC56D"/>
</linearGradient>
<linearGradient id="paint1_linear_460_51570" x1="17.0157" y1="14.9853" x2="22.3622" y2="21.0681" gradientUnits="userSpaceOnUse">
<stop stop-color="#DC8758" stop-opacity="0"/>
<stop offset="0.2153" stop-color="#DD8654" stop-opacity="0.215"/>
<stop offset="0.4291" stop-color="#E28448" stop-opacity="0.429"/>
<stop offset="0.6424" stop-color="#EA8034" stop-opacity="0.642"/>
<stop offset="0.8543" stop-color="#F47B18" stop-opacity="0.854"/>
<stop offset="1" stop-color="#FE7701"/>
</linearGradient>
<linearGradient id="paint2_linear_460_51570" x1="20.6778" y1="25.8942" x2="25.7694" y2="21.4189" gradientUnits="userSpaceOnUse">
<stop stop-color="#FEF0AE"/>
<stop offset="1" stop-color="#FBC56D"/>
</linearGradient>
<linearGradient id="paint3_linear_460_51570" x1="24.4471" y1="23.4406" x2="29.5605" y2="29.2581" gradientUnits="userSpaceOnUse">
<stop stop-color="#DC8758" stop-opacity="0"/>
<stop offset="0.2153" stop-color="#DD8654" stop-opacity="0.215"/>
<stop offset="0.4291" stop-color="#E28448" stop-opacity="0.429"/>
<stop offset="0.6424" stop-color="#EA8034" stop-opacity="0.642"/>
<stop offset="0.8543" stop-color="#F47B18" stop-opacity="0.854"/>
<stop offset="1" stop-color="#FE7701"/>
</linearGradient>
<linearGradient id="paint4_linear_460_51570" x1="32.8688" y1="16.5272" x2="36.8922" y2="14.2039" gradientUnits="userSpaceOnUse">
<stop stop-color="#DC8758" stop-opacity="0"/>
<stop offset="0.2153" stop-color="#DD8654" stop-opacity="0.215"/>
<stop offset="0.4291" stop-color="#E28448" stop-opacity="0.429"/>
<stop offset="0.6424" stop-color="#EA8034" stop-opacity="0.642"/>
<stop offset="0.8543" stop-color="#F47B18" stop-opacity="0.854"/>
<stop offset="1" stop-color="#FE7701"/>
</linearGradient>
<linearGradient id="paint5_linear_460_51570" x1="25.601" y1="22.3524" x2="20.4538" y2="22.0208" gradientUnits="userSpaceOnUse">
<stop stop-color="#FEF0AE"/>
<stop offset="1" stop-color="#FBC56D"/>
</linearGradient>
<linearGradient id="paint6_linear_460_51570" x1="21.8583" y1="22.0481" x2="24.7568" y2="22.3564" gradientUnits="userSpaceOnUse">
<stop stop-color="#FD4755"/>
<stop offset="0.3362" stop-color="#E43F48"/>
<stop offset="1" stop-color="#A72B2B"/>
</linearGradient>
<linearGradient id="paint7_linear_460_51570" x1="23.2842" y1="22.1172" x2="24.9144" y2="23.9719" gradientUnits="userSpaceOnUse">
<stop stop-color="#A72B2B" stop-opacity="0"/>
<stop offset="1" stop-color="#481F05"/>
</linearGradient>
<linearGradient id="paint8_linear_460_51570" x1="23.8079" y1="22.1814" x2="25.5916" y2="22.0735" gradientUnits="userSpaceOnUse">
<stop stop-color="#A72B2B" stop-opacity="0"/>
<stop offset="1" stop-color="#481F05"/>
</linearGradient>
<linearGradient id="paint9_linear_460_51570" x1="17.6262" y1="31.6234" x2="13.9865" y2="31.3889" gradientUnits="userSpaceOnUse">
<stop stop-color="#FEF0AE"/>
<stop offset="1" stop-color="#FBC56D"/>
</linearGradient>
<linearGradient id="paint10_linear_460_51570" x1="14.9797" y1="31.4082" x2="17.0293" y2="31.6263" gradientUnits="userSpaceOnUse">
<stop stop-color="#BBEC6C"/>
<stop offset="1" stop-color="#81B823"/>
</linearGradient>
<linearGradient id="paint11_linear_460_51570" x1="15.9878" y1="31.457" x2="17.1405" y2="32.7685" gradientUnits="userSpaceOnUse">
<stop stop-color="#026841" stop-opacity="0"/>
<stop offset="0.2391" stop-color="#0A6644" stop-opacity="0.239"/>
<stop offset="0.6113" stop-color="#20604D" stop-opacity="0.611"/>
<stop offset="1" stop-color="#3E5959"/>
</linearGradient>
<linearGradient id="paint12_linear_460_51570" x1="16.3584" y1="31.5025" x2="17.6196" y2="31.4261" gradientUnits="userSpaceOnUse">
<stop stop-color="#026841" stop-opacity="0"/>
<stop offset="0.2391" stop-color="#0A6644" stop-opacity="0.239"/>
<stop offset="0.6113" stop-color="#20604D" stop-opacity="0.611"/>
<stop offset="1" stop-color="#3E5959"/>
</linearGradient>
<linearGradient id="paint13_linear_460_51570" x1="35.1212" y1="16.2461" x2="31.4816" y2="16.0116" gradientUnits="userSpaceOnUse">
<stop stop-color="#FEF0AE"/>
<stop offset="1" stop-color="#FBC56D"/>
</linearGradient>
<linearGradient id="paint14_linear_460_51570" x1="32.4748" y1="16.0309" x2="34.5243" y2="16.249" gradientUnits="userSpaceOnUse">
<stop stop-color="#BBEC6C"/>
<stop offset="1" stop-color="#81B823"/>
</linearGradient>
<linearGradient id="paint15_linear_460_51570" x1="33.4829" y1="16.0797" x2="34.6357" y2="17.3912" gradientUnits="userSpaceOnUse">
<stop stop-color="#026841" stop-opacity="0"/>
<stop offset="0.2391" stop-color="#0A6644" stop-opacity="0.239"/>
<stop offset="0.6113" stop-color="#20604D" stop-opacity="0.611"/>
<stop offset="1" stop-color="#3E5959"/>
</linearGradient>
<linearGradient id="paint16_linear_460_51570" x1="33.8535" y1="16.1252" x2="35.1147" y2="16.0488" gradientUnits="userSpaceOnUse">
<stop stop-color="#026841" stop-opacity="0"/>
<stop offset="0.2391" stop-color="#0A6644" stop-opacity="0.239"/>
<stop offset="0.6113" stop-color="#20604D" stop-opacity="0.611"/>
<stop offset="1" stop-color="#3E5959"/>
</linearGradient>
<linearGradient id="paint17_linear_460_51570" x1="23.909" y1="33.4807" x2="33.265" y2="25.2572" gradientUnits="userSpaceOnUse">
<stop stop-color="#FEF0AE"/>
<stop offset="1" stop-color="#FBC56D"/>
</linearGradient>
<linearGradient id="paint18_linear_460_51570" x1="24.5229" y1="25.5811" x2="33.6615" y2="33.218" gradientUnits="userSpaceOnUse">
<stop stop-color="#DC8758" stop-opacity="0"/>
<stop offset="0.2153" stop-color="#DD8654" stop-opacity="0.215"/>
<stop offset="0.4291" stop-color="#E28448" stop-opacity="0.429"/>
<stop offset="0.6424" stop-color="#EA8034" stop-opacity="0.642"/>
<stop offset="0.8543" stop-color="#F47B18" stop-opacity="0.854"/>
<stop offset="1" stop-color="#FE7701"/>
</linearGradient>
<linearGradient id="paint19_linear_460_51570" x1="30.5394" y1="29.5323" x2="28.79" y2="26.622" gradientUnits="userSpaceOnUse">
<stop stop-color="#DC8758" stop-opacity="0"/>
<stop offset="0.2153" stop-color="#DD8654" stop-opacity="0.215"/>
<stop offset="0.4291" stop-color="#E28448" stop-opacity="0.429"/>
<stop offset="0.6424" stop-color="#EA8034" stop-opacity="0.642"/>
<stop offset="0.8543" stop-color="#F47B18" stop-opacity="0.854"/>
<stop offset="1" stop-color="#FE7701"/>
</linearGradient>
<linearGradient id="paint20_linear_460_51570" x1="28.2064" y1="30.0171" x2="24.8451" y2="28.1865" gradientUnits="userSpaceOnUse">
<stop stop-color="#DC8758" stop-opacity="0"/>
<stop offset="0.2153" stop-color="#DD8654" stop-opacity="0.215"/>
<stop offset="0.4291" stop-color="#E28448" stop-opacity="0.429"/>
<stop offset="0.6424" stop-color="#EA8034" stop-opacity="0.642"/>
<stop offset="0.8543" stop-color="#F47B18" stop-opacity="0.854"/>
<stop offset="1" stop-color="#FE7701"/>
</linearGradient>
<linearGradient id="paint21_linear_460_51570" x1="37.6535" y1="21.3998" x2="40.0732" y2="19.273" gradientUnits="userSpaceOnUse">
<stop stop-color="#DC8758" stop-opacity="0"/>
<stop offset="0.2153" stop-color="#DD8654" stop-opacity="0.215"/>
<stop offset="0.4291" stop-color="#E28448" stop-opacity="0.429"/>
<stop offset="0.6424" stop-color="#EA8034" stop-opacity="0.642"/>
<stop offset="0.8543" stop-color="#F47B18" stop-opacity="0.854"/>
<stop offset="1" stop-color="#FE7701"/>
</linearGradient>
<linearGradient id="paint22_linear_460_51570" x1="29.4066" y1="26.732" x2="23.6581" y2="27.4377" gradientUnits="userSpaceOnUse">
<stop stop-color="#DC8758" stop-opacity="0"/>
<stop offset="0.2153" stop-color="#DD8654" stop-opacity="0.215"/>
<stop offset="0.4291" stop-color="#E28448" stop-opacity="0.429"/>
<stop offset="0.6424" stop-color="#EA8034" stop-opacity="0.642"/>
<stop offset="0.8543" stop-color="#F47B18" stop-opacity="0.854"/>
<stop offset="1" stop-color="#FE7701"/>
</linearGradient>
<linearGradient id="paint23_linear_460_51570" x1="30.3004" y1="30.0997" x2="36.4875" y2="37.1388" gradientUnits="userSpaceOnUse">
<stop stop-color="#FEF0AE"/>
<stop offset="1" stop-color="#FBC56D"/>
</linearGradient>
<linearGradient id="paint24_linear_460_51570" x1="34.0854" y1="34.406" x2="36.8546" y2="37.5566" gradientUnits="userSpaceOnUse">
<stop stop-color="#DC8758" stop-opacity="0"/>
<stop offset="0.2153" stop-color="#DD8654" stop-opacity="0.215"/>
<stop offset="0.4291" stop-color="#E28448" stop-opacity="0.429"/>
<stop offset="0.6424" stop-color="#EA8034" stop-opacity="0.642"/>
<stop offset="0.8543" stop-color="#F47B18" stop-opacity="0.854"/>
<stop offset="1" stop-color="#FE7701"/>
</linearGradient>
<linearGradient id="paint25_linear_460_51570" x1="26.7169" y1="28.7942" x2="37.5704" y2="36.7303" gradientUnits="userSpaceOnUse">
<stop stop-color="#DC8758" stop-opacity="0"/>
<stop offset="0.2153" stop-color="#DD8654" stop-opacity="0.215"/>
<stop offset="0.4291" stop-color="#E28448" stop-opacity="0.429"/>
<stop offset="0.6424" stop-color="#EA8034" stop-opacity="0.642"/>
<stop offset="0.8543" stop-color="#F47B18" stop-opacity="0.854"/>
<stop offset="1" stop-color="#FE7701"/>
</linearGradient>
<linearGradient id="paint26_linear_460_51570" x1="34.331" y1="34.685" x2="31.579" y2="31.554" gradientUnits="userSpaceOnUse">
<stop stop-color="#DC8758" stop-opacity="0"/>
<stop offset="0.2153" stop-color="#DD8654" stop-opacity="0.215"/>
<stop offset="0.4291" stop-color="#E28448" stop-opacity="0.429"/>
<stop offset="0.6424" stop-color="#EA8034" stop-opacity="0.642"/>
<stop offset="0.8543" stop-color="#F47B18" stop-opacity="0.854"/>
<stop offset="1" stop-color="#FE7701"/>
</linearGradient>
<linearGradient id="paint27_linear_460_51570" x1="39.3194" y1="29.761" x2="46.294" y2="29.1561" gradientUnits="userSpaceOnUse">
<stop stop-color="#DC8758" stop-opacity="0"/>
<stop offset="0.2153" stop-color="#DD8654" stop-opacity="0.215"/>
<stop offset="0.4291" stop-color="#E28448" stop-opacity="0.429"/>
<stop offset="0.6424" stop-color="#EA8034" stop-opacity="0.642"/>
<stop offset="0.8543" stop-color="#F47B18" stop-opacity="0.854"/>
<stop offset="1" stop-color="#FE7701"/>
</linearGradient>
<linearGradient id="paint28_linear_460_51570" x1="27.9509" y1="30.8333" x2="33.0589" y2="26.3436" gradientUnits="userSpaceOnUse">
<stop stop-color="#FD4755"/>
<stop offset="0.3362" stop-color="#E43F48"/>
<stop offset="1" stop-color="#A72B2B"/>
</linearGradient>
<linearGradient id="paint29_linear_460_51570" x1="27.9062" y1="27.3757" x2="30.7469" y2="30.6076" gradientUnits="userSpaceOnUse">
<stop stop-color="#A72B2B" stop-opacity="0"/>
<stop offset="1" stop-color="#481F05"/>
</linearGradient>
<linearGradient id="paint30_linear_460_51570" x1="40.0673" y1="125.965" x2="81.0238" y2="23.4364" gradientUnits="userSpaceOnUse">
<stop stop-color="#303447"/>
<stop offset="1" stop-color="#181D34"/>
</linearGradient>
<linearGradient id="paint31_linear_460_51570" x1="52.5589" y1="125.965" x2="97.4742" y2="27.581" gradientUnits="userSpaceOnUse">
<stop stop-color="#2E3345"/>
<stop offset="1" stop-color="#141A2F"/>
</linearGradient>
<linearGradient id="paint32_linear_460_51570" x1="40.0673" y1="125.965" x2="81.0238" y2="23.4364" gradientUnits="userSpaceOnUse">
<stop stop-color="#4B526D"/>
<stop offset="1" stop-color="#1A2039"/>
</linearGradient>
<linearGradient id="paint33_linear_460_51570" x1="52.5589" y1="125.965" x2="97.4742" y2="27.581" gradientUnits="userSpaceOnUse">
<stop stop-color="#464D68"/>
<stop offset="1" stop-color="#212740"/>
</linearGradient>
<linearGradient id="paint34_linear_460_51570" x1="76.6458" y1="30.0609" x2="68.3164" y2="30.0608" gradientUnits="userSpaceOnUse">
<stop stop-color="#D8ECFE"/>
<stop offset="0.5667" stop-color="#B3DAFE"/>
<stop offset="0.9955" stop-color="#8AC9FE"/>
</linearGradient>
<linearGradient id="paint35_linear_460_51570" x1="80.2581" y1="30.0608" x2="71.3072" y2="30.0608" gradientUnits="userSpaceOnUse">
<stop stop-color="#D8ECFE"/>
<stop offset="0.5667" stop-color="#B3DAFE"/>
<stop offset="0.9955" stop-color="#8AC9FE"/>
</linearGradient>
<linearGradient id="paint36_linear_460_51570" x1="69.3542" y1="50.0609" x2="77.6836" y2="50.0609" gradientUnits="userSpaceOnUse">
<stop stop-color="#D8ECFE"/>
<stop offset="0.5667" stop-color="#B3DAFE"/>
<stop offset="0.9955" stop-color="#8AC9FE"/>
</linearGradient>
<linearGradient id="paint37_linear_460_51570" x1="65.7419" y1="50.0609" x2="74.6928" y2="50.0609" gradientUnits="userSpaceOnUse">
<stop stop-color="#D8ECFE"/>
<stop offset="0.5667" stop-color="#B3DAFE"/>
<stop offset="0.9955" stop-color="#8AC9FE"/>
</linearGradient>
<linearGradient id="paint38_linear_460_51570" x1="54.3199" y1="40.1619" x2="61.607" y2="57.6031" gradientUnits="userSpaceOnUse">
<stop stop-color="#A55624"/>
<stop offset="1" stop-color="#E79F46"/>
</linearGradient>
<linearGradient id="paint39_linear_460_51570" x1="84.6626" y1="37.7727" x2="79.1674" y2="56.8864" gradientUnits="userSpaceOnUse">
<stop stop-color="#822722"/>
<stop offset="1" stop-color="#CF4C46"/>
</linearGradient>
<linearGradient id="paint40_linear_460_51570" x1="108.435" y1="58.7978" x2="90.3968" y2="68.4741" gradientUnits="userSpaceOnUse">
<stop stop-color="#2E355E"/>
<stop offset="1" stop-color="#394782"/>
</linearGradient>
<linearGradient id="paint41_linear_460_51570" x1="108.674" y1="91.4104" x2="90.5165" y2="82.9287" gradientUnits="userSpaceOnUse">
<stop stop-color="#34475D"/>
<stop offset="1" stop-color="#487173"/>
</linearGradient>
<linearGradient id="paint42_linear_460_51570" x1="77.6145" y1="95.3526" x2="86.6935" y2="112.794" gradientUnits="userSpaceOnUse">
<stop stop-color="#5DA752"/>
<stop offset="1" stop-color="#467A3F"/>
</linearGradient>
<linearGradient id="paint43_linear_460_51570" x1="64.1155" y1="94.158" x2="56.47" y2="112.794" gradientUnits="userSpaceOnUse">
<stop stop-color="#8C41B3"/>
<stop offset="1" stop-color="#4E326B"/>
</linearGradient>
<linearGradient id="paint44_linear_460_51570" x1="34.9674" y1="90.4547" x2="53.8421" y2="84.3623" gradientUnits="userSpaceOnUse">
<stop stop-color="#34485D"/>
<stop offset="1" stop-color="#477173"/>
</linearGradient>
<linearGradient id="paint45_linear_460_51570" x1="35.923" y1="59.8729" x2="53.6031" y2="69.1908" gradientUnits="userSpaceOnUse">
<stop stop-color="#A42B98"/>
<stop offset="1" stop-color="#EE57DF"/>
</linearGradient>
<linearGradient id="paint46_linear_460_51570" x1="74.645" y1="115.874" x2="74.5752" y2="96.9723" gradientUnits="userSpaceOnUse">
<stop stop-color="#A55624"/>
<stop offset="1" stop-color="#E79F46"/>
</linearGradient>
<linearGradient id="paint47_linear_460_51570" x1="45.6915" y1="106.488" x2="58.0731" y2="90.9247" gradientUnits="userSpaceOnUse">
<stop stop-color="#822722"/>
<stop offset="1" stop-color="#CF4C46"/>
</linearGradient>
<linearGradient id="paint48_linear_460_51570" x1="31.7566" y1="77.9752" x2="52.1237" y2="75.9255" gradientUnits="userSpaceOnUse">
<stop stop-color="#2E355E"/>
<stop offset="1" stop-color="#394782"/>
</linearGradient>
<linearGradient id="paint49_linear_460_51570" x1="43.9968" y1="47.7458" x2="57.536" y2="62.5221" gradientUnits="userSpaceOnUse">
<stop stop-color="#34475D"/>
<stop offset="1" stop-color="#487173"/>
</linearGradient>
<linearGradient id="paint50_linear_460_51570" x1="74.2062" y1="55.9706" x2="72.4805" y2="36.3837" gradientUnits="userSpaceOnUse">
<stop stop-color="#5DA752"/>
<stop offset="1" stop-color="#467A3F"/>
</linearGradient>
<linearGradient id="paint51_linear_460_51570" x1="86.2245" y1="62.2325" x2="100.411" y2="47.9319" gradientUnits="userSpaceOnUse">
<stop stop-color="#8C41B3"/>
<stop offset="1" stop-color="#4E326B"/>
</linearGradient>
<linearGradient id="paint52_linear_460_51570" x1="99.3567" y1="92.9634" x2="106.285" y2="96.6667" gradientUnits="userSpaceOnUse">
<stop stop-color="#D58C3D"/>
<stop offset="1" stop-color="#B2652B"/>
</linearGradient>
<linearGradient id="paint53_linear_460_51570" x1="99.1779" y1="104.688" x2="86.3997" y2="89.322" gradientUnits="userSpaceOnUse">
<stop stop-color="#A42B98"/>
<stop offset="1" stop-color="#EE57DF"/>
</linearGradient>
<linearGradient id="paint54_linear_460_51570" x1="51.6064" y1="110.366" x2="62.2503" y2="94.7455" gradientUnits="userSpaceOnUse">
<stop stop-color="#A55624"/>
<stop offset="1" stop-color="#E79F46"/>
</linearGradient>
<linearGradient id="paint55_linear_460_51570" x1="33.054" y1="86.2371" x2="52.0716" y2="80.4179" gradientUnits="userSpaceOnUse">
<stop stop-color="#822722"/>
<stop offset="1" stop-color="#CF4C46"/>
</linearGradient>
<linearGradient id="paint56_linear_460_51570" x1="37.7099" y1="54.8443" x2="55.6587" y2="64.6857" gradientUnits="userSpaceOnUse">
<stop stop-color="#2E355E"/>
<stop offset="1" stop-color="#394782"/>
</linearGradient>
<linearGradient id="paint57_linear_460_51570" x1="64.9143" y1="36.8563" x2="67.7092" y2="56.7017" gradientUnits="userSpaceOnUse">
<stop stop-color="#34475D"/>
<stop offset="1" stop-color="#487173"/>
</linearGradient>
<linearGradient id="paint58_linear_460_51570" x1="85.1595" y1="60.739" x2="94.8263" y2="43.6165" gradientUnits="userSpaceOnUse">
<stop stop-color="#5DA752"/>
<stop offset="1" stop-color="#467A3F"/>
</linearGradient>
<linearGradient id="paint59_linear_460_51570" x1="91.5208" y1="72.7048" x2="111.311" y2="68.9485" gradientUnits="userSpaceOnUse">
<stop stop-color="#8C41B3"/>
<stop offset="1" stop-color="#4E326B"/>
</linearGradient>
<linearGradient id="paint60_linear_460_51570" x1="104.315" y1="99.1557" x2="88.9137" y2="86.6588" gradientUnits="userSpaceOnUse">
<stop stop-color="#34485D"/>
<stop offset="1" stop-color="#477173"/>
</linearGradient>
<linearGradient id="paint61_linear_460_51570" x1="78.1613" y1="115.035" x2="76.3279" y2="95.1338" gradientUnits="userSpaceOnUse">
<stop stop-color="#A42B98"/>
<stop offset="1" stop-color="#EE57DF"/>
</linearGradient>
<linearGradient id="paint62_linear_460_51570" x1="103.979" y1="52.0346" x2="88.1745" y2="62.4031" gradientUnits="userSpaceOnUse">
<stop stop-color="#A55624"/>
<stop offset="1" stop-color="#E79F46"/>
</linearGradient>
<linearGradient id="paint63_linear_460_51570" x1="111.905" y1="81.4216" x2="92.1067" y2="79.5327" gradientUnits="userSpaceOnUse">
<stop stop-color="#822722"/>
<stop offset="1" stop-color="#CF4C46"/>
</linearGradient>
<linearGradient id="paint64_linear_460_51570" x1="95.6065" y1="108.653" x2="82.7798" y2="92.7003" gradientUnits="userSpaceOnUse">
<stop stop-color="#2E355E"/>
<stop offset="1" stop-color="#394782"/>
</linearGradient>
<linearGradient id="paint65_linear_460_51570" x1="63.5931" y1="114.882" x2="68.5932" y2="95.4742" gradientUnits="userSpaceOnUse">
<stop stop-color="#34475D"/>
<stop offset="1" stop-color="#487173"/>
</linearGradient>
<linearGradient id="paint66_linear_460_51570" x1="54.0099" y1="85.0757" x2="38.5344" y2="97.2054" gradientUnits="userSpaceOnUse">
<stop stop-color="#5DA752"/>
<stop offset="1" stop-color="#467A3F"/>
</linearGradient>
<linearGradient id="paint67_linear_460_51570" x1="52.7027" y1="71.5869" x2="32.9794" y2="67.4966" gradientUnits="userSpaceOnUse">
<stop stop-color="#8C41B3"/>
<stop offset="1" stop-color="#4E326B"/>
</linearGradient>
<linearGradient id="paint68_linear_460_51570" x1="71.2981" y1="43.8188" x2="70.6229" y2="35.9916" gradientUnits="userSpaceOnUse">
<stop stop-color="#D58C3D"/>
<stop offset="1" stop-color="#B2652B"/>
</linearGradient>
<linearGradient id="paint69_linear_460_51570" x1="81.2233" y1="37.5736" x2="75.3134" y2="56.6651" gradientUnits="userSpaceOnUse">
<stop stop-color="#A42B98"/>
<stop offset="1" stop-color="#EE57DF"/>
</linearGradient>
<linearGradient id="paint70_linear_460_51570" x1="54.3199" y1="40.1619" x2="61.607" y2="57.6031" gradientUnits="userSpaceOnUse">
<stop stop-color="#A55624"/>
<stop offset="1" stop-color="#E79F46"/>
</linearGradient>
<linearGradient id="paint71_linear_460_51570" x1="84.6626" y1="37.7727" x2="79.1674" y2="56.8864" gradientUnits="userSpaceOnUse">
<stop stop-color="#822722"/>
<stop offset="1" stop-color="#CF4C46"/>
</linearGradient>
<linearGradient id="paint72_linear_460_51570" x1="108.435" y1="58.7978" x2="90.3968" y2="68.4741" gradientUnits="userSpaceOnUse">
<stop stop-color="#2E355E"/>
<stop offset="1" stop-color="#394782"/>
</linearGradient>
<linearGradient id="paint73_linear_460_51570" x1="108.674" y1="91.4104" x2="90.5165" y2="82.9287" gradientUnits="userSpaceOnUse">
<stop stop-color="#34475D"/>
<stop offset="1" stop-color="#487173"/>
</linearGradient>
<linearGradient id="paint74_linear_460_51570" x1="77.6145" y1="95.3526" x2="86.6935" y2="112.794" gradientUnits="userSpaceOnUse">
<stop stop-color="#5DA752"/>
<stop offset="1" stop-color="#467A3F"/>
</linearGradient>
<linearGradient id="paint75_linear_460_51570" x1="64.1155" y1="94.158" x2="56.47" y2="112.794" gradientUnits="userSpaceOnUse">
<stop stop-color="#8C41B3"/>
<stop offset="1" stop-color="#4E326B"/>
</linearGradient>
<linearGradient id="paint76_linear_460_51570" x1="34.9674" y1="90.4547" x2="53.8421" y2="84.3623" gradientUnits="userSpaceOnUse">
<stop stop-color="#34485D"/>
<stop offset="1" stop-color="#477173"/>
</linearGradient>
<linearGradient id="paint77_linear_460_51570" x1="35.923" y1="59.8729" x2="53.6031" y2="69.1908" gradientUnits="userSpaceOnUse">
<stop stop-color="#A42B98"/>
<stop offset="1" stop-color="#EE57DF"/>
</linearGradient>
<linearGradient id="paint78_linear_460_51570" x1="74.645" y1="115.874" x2="74.5752" y2="96.9723" gradientUnits="userSpaceOnUse">
<stop stop-color="#A55624"/>
<stop offset="1" stop-color="#E79F46"/>
</linearGradient>
<linearGradient id="paint79_linear_460_51570" x1="45.6915" y1="106.488" x2="58.0731" y2="90.9247" gradientUnits="userSpaceOnUse">
<stop stop-color="#822722"/>
<stop offset="1" stop-color="#CF4C46"/>
</linearGradient>
<linearGradient id="paint80_linear_460_51570" x1="31.7566" y1="77.9752" x2="52.1237" y2="75.9255" gradientUnits="userSpaceOnUse">
<stop stop-color="#2E355E"/>
<stop offset="1" stop-color="#394782"/>
</linearGradient>
<linearGradient id="paint81_linear_460_51570" x1="43.9968" y1="47.7458" x2="57.536" y2="62.5221" gradientUnits="userSpaceOnUse">
<stop stop-color="#34475D"/>
<stop offset="1" stop-color="#487173"/>
</linearGradient>
<linearGradient id="paint82_linear_460_51570" x1="74.2062" y1="55.9706" x2="72.4805" y2="36.3837" gradientUnits="userSpaceOnUse">
<stop stop-color="#5DA752"/>
<stop offset="1" stop-color="#467A3F"/>
</linearGradient>
<linearGradient id="paint83_linear_460_51570" x1="86.2245" y1="62.2325" x2="100.411" y2="47.9319" gradientUnits="userSpaceOnUse">
<stop stop-color="#8C41B3"/>
<stop offset="1" stop-color="#4E326B"/>
</linearGradient>
<linearGradient id="paint84_linear_460_51570" x1="99.3567" y1="92.9634" x2="106.285" y2="96.6667" gradientUnits="userSpaceOnUse">
<stop stop-color="#D58C3D"/>
<stop offset="1" stop-color="#B2652B"/>
</linearGradient>
<linearGradient id="paint85_linear_460_51570" x1="99.1779" y1="104.688" x2="86.3997" y2="89.322" gradientUnits="userSpaceOnUse">
<stop stop-color="#A42B98"/>
<stop offset="1" stop-color="#EE57DF"/>
</linearGradient>
<linearGradient id="paint86_linear_460_51570" x1="51.6064" y1="110.366" x2="62.2503" y2="94.7455" gradientUnits="userSpaceOnUse">
<stop stop-color="#A55624"/>
<stop offset="1" stop-color="#E79F46"/>
</linearGradient>
<linearGradient id="paint87_linear_460_51570" x1="33.054" y1="86.2371" x2="52.0716" y2="80.4179" gradientUnits="userSpaceOnUse">
<stop stop-color="#822722"/>
<stop offset="1" stop-color="#CF4C46"/>
</linearGradient>
<linearGradient id="paint88_linear_460_51570" x1="37.7099" y1="54.8443" x2="55.6587" y2="64.6857" gradientUnits="userSpaceOnUse">
<stop stop-color="#2E355E"/>
<stop offset="1" stop-color="#394782"/>
</linearGradient>
<linearGradient id="paint89_linear_460_51570" x1="64.9143" y1="36.8563" x2="67.7092" y2="56.7017" gradientUnits="userSpaceOnUse">
<stop stop-color="#34475D"/>
<stop offset="1" stop-color="#487173"/>
</linearGradient>
<linearGradient id="paint90_linear_460_51570" x1="85.1595" y1="60.739" x2="94.8263" y2="43.6165" gradientUnits="userSpaceOnUse">
<stop stop-color="#5DA752"/>
<stop offset="1" stop-color="#467A3F"/>
</linearGradient>
<linearGradient id="paint91_linear_460_51570" x1="91.5208" y1="72.7048" x2="111.311" y2="68.9485" gradientUnits="userSpaceOnUse">
<stop stop-color="#8C41B3"/>
<stop offset="1" stop-color="#4E326B"/>
</linearGradient>
<linearGradient id="paint92_linear_460_51570" x1="104.315" y1="99.1557" x2="88.9137" y2="86.6588" gradientUnits="userSpaceOnUse">
<stop stop-color="#34485D"/>
<stop offset="1" stop-color="#477173"/>
</linearGradient>
<linearGradient id="paint93_linear_460_51570" x1="78.1613" y1="115.035" x2="76.3279" y2="95.1338" gradientUnits="userSpaceOnUse">
<stop stop-color="#A42B98"/>
<stop offset="1" stop-color="#EE57DF"/>
</linearGradient>
<linearGradient id="paint94_linear_460_51570" x1="103.979" y1="52.0346" x2="88.1745" y2="62.4031" gradientUnits="userSpaceOnUse">
<stop stop-color="#A55624"/>
<stop offset="1" stop-color="#E79F46"/>
</linearGradient>
<linearGradient id="paint95_linear_460_51570" x1="111.905" y1="81.4216" x2="92.1067" y2="79.5327" gradientUnits="userSpaceOnUse">
<stop stop-color="#822722"/>
<stop offset="1" stop-color="#CF4C46"/>
</linearGradient>
<linearGradient id="paint96_linear_460_51570" x1="95.6065" y1="108.653" x2="82.7798" y2="92.7003" gradientUnits="userSpaceOnUse">
<stop stop-color="#2E355E"/>
<stop offset="1" stop-color="#394782"/>
</linearGradient>
<linearGradient id="paint97_linear_460_51570" x1="63.5931" y1="114.882" x2="68.5932" y2="95.4742" gradientUnits="userSpaceOnUse">
<stop stop-color="#34475D"/>
<stop offset="1" stop-color="#487173"/>
</linearGradient>
<linearGradient id="paint98_linear_460_51570" x1="54.0099" y1="85.0757" x2="38.5344" y2="97.2054" gradientUnits="userSpaceOnUse">
<stop stop-color="#5DA752"/>
<stop offset="1" stop-color="#467A3F"/>
</linearGradient>
<linearGradient id="paint99_linear_460_51570" x1="52.7027" y1="71.5869" x2="32.9794" y2="67.4966" gradientUnits="userSpaceOnUse">
<stop stop-color="#8C41B3"/>
<stop offset="1" stop-color="#4E326B"/>
</linearGradient>
<linearGradient id="paint100_linear_460_51570" x1="71.2981" y1="43.8188" x2="70.6229" y2="35.9916" gradientUnits="userSpaceOnUse">
<stop stop-color="#D58C3D"/>
<stop offset="1" stop-color="#B2652B"/>
</linearGradient>
<linearGradient id="paint101_linear_460_51570" x1="81.2233" y1="37.5736" x2="75.3134" y2="56.6651" gradientUnits="userSpaceOnUse">
<stop stop-color="#A42B98"/>
<stop offset="1" stop-color="#EE57DF"/>
</linearGradient>
<linearGradient id="paint102_linear_460_51570" x1="121.573" y1="32.1718" x2="125.327" y2="22.7733" gradientUnits="userSpaceOnUse">
<stop stop-color="#4B526D"/>
<stop offset="1" stop-color="#1A2039"/>
</linearGradient>
<linearGradient id="paint103_linear_460_51570" x1="129.936" y1="19.6988" x2="131.301" y2="16.2812" gradientUnits="userSpaceOnUse">
<stop stop-color="#4B526D"/>
<stop offset="1" stop-color="#1A2039"/>
</linearGradient>
<linearGradient id="paint104_linear_460_51570" x1="23.6611" y1="119.753" x2="20.248" y2="128.297" gradientUnits="userSpaceOnUse">
<stop stop-color="#4B526D"/>
<stop offset="1" stop-color="#1A2039"/>
</linearGradient>
<linearGradient id="paint105_linear_460_51570" x1="16.0644" y1="131.301" x2="14.6992" y2="134.719" gradientUnits="userSpaceOnUse">
<stop stop-color="#4B526D"/>
<stop offset="1" stop-color="#1A2039"/>
</linearGradient>
<linearGradient id="paint106_linear_460_51570" x1="102.234" y1="129.551" x2="119.033" y2="112.752" gradientUnits="userSpaceOnUse">
<stop stop-color="#FEF0AE"/>
<stop offset="0.5213" stop-color="#F1AC65"/>
<stop offset="1" stop-color="#FE7802"/>
</linearGradient>
<linearGradient id="paint107_linear_460_51570" x1="90.6633" y1="141.122" x2="120.521" y2="111.264" gradientUnits="userSpaceOnUse">
<stop stop-color="#FEF0AE"/>
<stop offset="0.5213" stop-color="#F0AA62"/>
<stop offset="1" stop-color="#B76A2A"/>
</linearGradient>
<clipPath id="clip0_460_51570">
<rect width="33.9227" height="33.9227" fill="white" transform="translate(3.87549 25.7275) rotate(-41.314)"/>
</clipPath>
<clipPath id="clip1_460_51570">
<rect x="12" y="16" width="120" height="120" rx="60" fill="white"/>
</clipPath>
<clipPath id="clip2_460_51570">
<rect width="126" height="126" fill="white" transform="translate(12 15)"/>
</clipPath>
</defs>
</svg>
