<svg width="121" height="120" viewBox="0 0 121 120" fill="none" xmlns="http://www.w3.org/2000/svg">
<path d="M27.1259 31.448C27.4795 34.5071 23.6693 36.2306 21.5632 33.9602L17.1967 29.257C16.2546 28.2426 14.7595 27.9405 13.4926 28.5161L7.61814 31.1681C4.78539 32.4464 1.94939 29.3937 3.48313 26.713L6.6567 21.1513C7.34158 19.9525 7.16799 18.4515 6.22588 17.4371L1.85939 12.734C-0.246681 10.4635 1.81115 6.85426 4.86576 7.46798L11.1936 8.73363C12.5602 9.00711 13.946 8.38064 14.6309 7.1818L17.8076 1.62011C19.3382 -1.06376 23.4442 -0.240114 23.8011 2.81899L24.5374 9.16296C24.695 10.5335 25.7271 11.6433 27.0937 11.9168L33.4215 13.1855C36.4762 13.7961 36.952 17.9142 34.1193 19.1957L28.248 21.8477C26.9812 22.4201 26.2287 23.7334 26.3895 25.104L27.1259 31.448Z" fill="url(#paint0_linear_492_173)"/>
<g clip-path="url(#clip0_492_173)">
<path d="M60 119C93.1371 119 120 92.1371 120 59C120 25.8629 93.1371 -1 60 -1C26.8629 -1 0 25.8629 0 59C0 92.1371 26.8629 119 60 119Z" fill="url(#paint1_linear_492_173)"/>
<path d="M60.7712 -1C58.914 -1 57.0788 -0.912289 55.2656 -0.747831C63.3686 -0.153038 66.0182 10.2764 59.3405 14.7579C55.1501 17.5674 50.657 20.2535 45.9245 22.7725C42.8567 24.4061 41.6075 28.2545 43.1621 31.3518C44.2049 33.4294 46.2877 34.619 48.4558 34.619C49.3941 34.619 50.3516 34.3942 51.243 33.9228C57.1008 30.8255 62.6395 27.476 67.7626 23.9484C70.7314 21.9009 74.7815 22.46 77.1065 25.2092C78.2235 26.5276 78.7628 28.1284 78.7628 29.7154C78.7628 31.889 77.7531 34.0407 75.8271 35.4166C73.2682 37.2421 70.5828 39.0238 67.7846 40.7478C65.3001 42.2773 64.117 45.3088 65.0827 48.0525C66.4309 51.8789 70.8882 53.3289 74.2147 51.2814C82.6699 46.0736 90.2308 40.3614 96.5233 34.4025C99.3765 31.6999 104.059 32.7195 105.548 36.3513C105.562 36.3869 105.578 36.4253 105.592 36.4609C106.404 38.4536 105.988 40.7369 104.527 42.3184C102.824 44.1631 100.642 46.4683 99.5141 47.5235C93.3894 53.2631 85.911 58.7698 77.4834 63.7611C76.2012 59.0192 71.7082 55.5875 66.4694 55.9246C61.0436 56.2782 56.7074 60.7405 56.5175 66.154C56.424 68.8401 57.3347 71.3152 58.9003 73.2339C56.9027 74.1028 54.9024 74.9306 52.9049 75.7117C49.7903 76.9287 48.0679 80.3522 49.1492 83.5043C50.2938 86.8346 53.9862 88.5313 57.2577 87.2567C60.3668 86.048 63.4759 84.7378 66.5768 83.3317C83.7457 75.5308 98.8758 65.5016 109.837 54.7323C109.939 56.1412 109.989 57.5665 109.989 59C109.989 60.4116 109.939 61.8095 109.843 63.1937C101.314 71.8716 89.5952 80.1412 76.1737 86.8867C60.5016 94.7615 44.5296 99.55 31.1053 100.4C30.888 100.413 30.6706 100.427 30.4533 100.438C24.733 100.751 19.8025 100.282 16 99.1307C20.9883 104.651 26.9892 109.242 33.7137 112.616C37.9426 112.257 42.3559 111.575 46.8958 110.582C58.1051 108.135 70.0656 103.823 81.7729 97.9383C81.8554 97.8972 81.938 97.8561 82.0205 97.815C87.2757 95.1617 91.8651 102.294 87.2565 105.953C78.3143 113.047 67.3031 117.662 55.2656 118.748C57.0788 118.912 58.914 119 60.7712 119C94.036 119 121 92.1384 121 59C121 25.8616 94.036 -1 60.7712 -1ZM85.2259 25.5381C81.2666 25.5381 78.0585 22.3422 78.0585 18.3979C78.0585 14.4536 81.2666 11.2577 85.2259 11.2577C89.1852 11.2577 92.3962 14.4536 92.3962 18.3979C92.3962 22.3422 89.1852 25.5381 85.2259 25.5381ZM99.7342 97.6862C95.7749 97.6862 92.564 94.4902 92.564 90.5459C92.564 86.6016 95.7749 83.4029 99.7342 83.4029C103.694 83.4029 106.902 86.6016 106.902 90.5459C106.902 94.4902 103.694 97.6862 99.7342 97.6862Z" fill="url(#paint2_linear_492_173)"/>
<g opacity="0.05" clip-path="url(#clip1_492_173)">
<path d="M61.6917 15.4625L64.2948 10.9759L64.6946 10.2867L64.2948 9.50688L62.0404 5.1113L64.5638 0.762929L61.3364 -1L58.6421 4.25344L58.2021 5.1113L58.6421 5.86917L61.2053 10.2867L58.9111 14.7606L58.5511 15.4625L58.9111 16.0827L61.5543 20.6382L59.1802 25.2675L58.9001 25.8135L59.1802 26.296L61.9032 30.9886L59.4489 35.7746L59.249 36.1645L59.4489 36.509L62.2522 41.3404L59.718 46.2825L59.598 46.5165L59.718 46.7233L62.6012 51.6927L59.987 56.7913L59.9469 56.8694L59.987 56.9382L62.9501 62.046L60.2959 56.8694L63.2192 51.8304L63.2991 51.6927L63.2192 51.5368L60.6448 46.5165L63.4879 41.616L63.648 41.3404L63.4879 41.0286L60.9938 36.1645L63.757 31.4022L63.997 30.9886L63.757 30.5206L61.3428 25.8135L64.0257 21.1897L64.3459 20.6384L64.026 20.0146L61.6917 15.4625Z" fill="#F2F2F2"/>
<path d="M69.191 15.8653L72.4811 11.8552L72.9865 11.2392L72.7172 10.4054L71.1982 5.70457L74.3871 1.8181L71.4849 -0.440495L67.9816 4.312L67.4098 5.08782L67.7221 5.90689L69.5426 10.6786L66.5594 14.7258L66.0915 15.3607L66.3471 16.0307L68.224 20.9518L65.1372 25.1395L64.773 25.6333L64.9719 26.1546L66.906 31.2239L63.7148 35.5533L63.4547 35.906L63.5969 36.2782L65.5875 41.4973L62.2923 45.9681L62.1364 46.1797L62.2216 46.4031L64.2689 51.771L60.8698 56.3834L60.8179 56.4541L60.8461 56.5285L62.9504 62.046L61.1621 56.5101L64.8569 52.0063L64.9579 51.8831L64.9041 51.7164L63.1696 46.348L66.7631 41.9679L66.9651 41.7216L66.8575 41.3879L65.1768 36.1864L68.6693 31.9298L68.9723 31.5602L68.8106 31.0598L67.184 26.0259L70.5749 21.8933L70.9793 21.4005L70.7638 20.7334L69.191 15.8653Z" fill="#F2F2F2"/>
<path d="M76.528 17.4679L80.4196 14.0386L81.0173 13.5118L80.8854 12.6452L80.1413 7.76163L83.9131 4.43783L81.4113 1.74239L77.1903 5.87023L76.5011 6.54422L76.6778 7.4026L77.7081 12.4049L74.1136 15.9205L73.5496 16.4718L73.6944 17.1743L74.7566 22.333L71.037 25.9702L70.5984 26.3991L70.711 26.9455L71.8056 32.2598L67.9605 36.0202L67.6472 36.3267L67.7274 36.7169L68.8541 42.1879L64.8835 46.0712L64.6954 46.2551L64.7437 46.4891L65.9024 52.1163L61.8064 56.1228L61.7437 56.184L61.7597 56.2621L62.9504 62.046L62.0747 56.2948L66.4447 52.4432L66.5642 52.3377L66.5378 52.1643L65.6882 46.587L69.9387 42.8414L70.1777 42.6306L70.1249 42.284L69.3017 36.8799L73.4325 33.2398L73.7912 32.9238L73.7118 32.4039L72.915 27.1739L76.9258 23.6399L77.404 23.2183L77.2985 22.5253L76.528 17.4679Z" fill="#F2F2F2"/>
<path d="M83.512 20.2285L87.9036 17.4689L88.5783 17.045L88.5873 16.1687L88.6374 11.2287L92.894 8.55432L90.8578 5.49195L86.0286 8.88776L85.2402 9.44225L85.2766 10.318L85.49 15.4209L81.3774 18.3131L80.7322 18.7668L80.7623 19.4833L80.982 24.7457L76.7265 27.7382L76.2248 28.0908L76.248 28.6482L76.4748 34.0695L72.0756 37.1632L71.7171 37.4154L71.7337 37.8135L71.9666 43.3943L67.4239 46.5893L67.2089 46.7405L67.2189 46.9795L67.4587 52.7196L62.7722 56.016L62.7007 56.0664L62.7039 56.146L62.9499 62.046L63.0095 56.2289L67.9414 53.1293L68.0764 53.0444L68.0783 52.8692L68.1355 47.2277L72.9323 44.2136L73.2021 44.044L73.2058 43.6934L73.2614 38.2274L77.9232 35.2982L78.3278 35.0439L78.3333 34.5179L78.3866 29.2278L82.913 26.3841L83.4529 26.0451L83.46 25.344L83.512 20.2285Z" fill="#F2F2F2"/>
<path d="M89.9623 24.0751L94.7403 22.0571L95.4744 21.7471L95.6239 20.8838L96.4669 16.016L101.098 14.0602L99.5798 10.7103L94.2679 13.2862L93.4007 13.707L93.296 14.5772L92.687 19.6481L88.1632 21.8418L87.4537 22.1861L87.3682 22.8981L86.7397 28.1275L82.0587 30.3972L81.5069 30.6649L81.4402 31.2186L80.7931 36.6058L75.9542 38.9525L75.5599 39.1438L75.5124 39.5395L74.8458 45.0855L69.8489 47.5089L69.6126 47.6237L69.5838 47.8611L68.8985 53.5653L63.7433 56.0656L63.6645 56.1038L63.655 56.183L62.9502 62.046L63.9433 56.3138L69.3092 54.047L69.4559 53.985L69.4859 53.8123L70.4487 48.2533L75.6675 46.0491L75.961 45.9251L76.0209 45.5795L76.9538 40.1934L82.0254 38.0514L82.4659 37.8654L82.5556 37.3471L83.4582 32.1343L88.3824 30.0548L88.9698 29.8068L89.0892 29.1159L89.9623 24.0751Z" fill="#F2F2F2"/>
<path d="M95.7107 28.9086L100.751 27.6843L101.525 27.4963L101.812 26.6679L103.425 21.9988L108.31 20.8125L107.35 17.2624L101.694 18.9515L100.77 19.2271L100.527 20.0694L99.1111 24.9765L94.2938 26.415L93.5381 26.6408L93.3392 27.3298L91.879 32.3901L86.8945 33.8785L86.3066 34.0539L86.152 34.5899L84.648 39.803L79.4949 41.342L79.075 41.4673L78.9645 41.85L77.4159 47.2169L72.0946 48.8063L71.8427 48.8814L71.7762 49.1112L70.1833 54.6311L64.6937 56.2708L64.6098 56.2959L64.5876 56.3724L62.9502 62.046L64.8511 56.5478L70.5115 55.1726L70.6663 55.1349L70.7235 54.9695L72.5669 49.6375L78.0719 48.3L78.3816 48.2249L78.496 47.8935L80.282 42.7271L85.6319 41.428L86.0966 41.3151L86.2683 40.8181L87.9965 35.8179L93.191 34.5564L93.8103 34.406L94.0395 33.7434L95.7107 28.9086Z" fill="#F2F2F2"/>
<path d="M100.608 34.6026L105.78 34.204L106.574 34.1428L106.99 33.3715L109.332 29.0223L114.345 28.6361L113.967 24.9778L108.113 25.736L107.157 25.8599L106.782 26.6521L104.596 31.268L99.6102 31.9137L98.8281 32.0153L98.5211 32.6634L96.267 37.4236L91.1081 38.0915L90.4996 38.1701L90.2609 38.6745L87.939 43.5781L82.6057 44.269L82.171 44.3255L82.0006 44.6855L79.6099 49.7337L74.1026 50.4473L73.8417 50.4811L73.7394 50.6971L71.2806 55.8896L65.5989 56.6259L65.5119 56.6372L65.4778 56.7092L62.9502 62.046L65.7097 56.9247L71.5174 56.4768L71.6762 56.4647L71.7593 56.3104L74.4352 51.3437L80.0836 50.9082L80.4012 50.8839L80.5676 50.5752L83.1601 45.7629L88.6493 45.34L89.1259 45.3031L89.3754 44.8401L91.8843 40.1826L97.2139 39.7724L97.8493 39.7233L98.1819 39.1063L100.608 34.6026Z" fill="#F2F2F2"/>
<path d="M104.527 41.0096L109.696 41.4472L110.49 41.5142L111.024 40.8196L114.035 36.9034L119.044 37.3278L119.259 33.6563L113.359 33.464L112.395 33.4327L111.898 34.1541L108.999 38.359L103.974 38.1954L103.186 38.1698L102.779 38.7602L99.7895 43.0962L94.5903 42.9266L93.977 42.9068L93.6605 43.366L90.5811 47.8331L85.2059 47.658L84.768 47.6437L84.5417 47.9719L81.3713 52.5703L75.8207 52.3899L75.558 52.3812L75.4222 52.5782L72.1613 57.308L66.435 57.1221L66.3474 57.1192L66.3023 57.1846L62.9502 62.046L66.4965 57.4347L72.3005 57.9256L72.4596 57.939L72.5664 57.8L76.0051 53.3279L81.6501 53.8057L81.9677 53.8326L82.1813 53.5548L85.5132 49.2215L90.9991 49.686L91.4755 49.7264L91.796 49.3096L95.0204 45.1155L100.347 45.5669L100.982 45.6207L101.409 45.0649L104.527 41.0096Z" fill="#F2F2F2"/>
<path d="M107.367 47.9629L112.397 49.2252L113.17 49.419L113.809 48.8192L117.41 45.4379L122.286 46.6613L123.088 43.0722L117.295 41.9344L116.349 41.7485L115.742 42.3808L112.206 46.0654L107.272 45.0965L106.499 44.9446L106.002 45.4619L102.355 49.2613L97.2503 48.2586L96.6484 48.1404L96.2622 48.5427L92.5052 52.4571L87.2279 51.4207L86.7979 51.3363L86.522 51.6238L82.6542 55.6533L77.2047 54.5833L76.9467 54.5324L76.7811 54.7049L72.8027 58.8494L67.1807 57.7459L67.0947 57.7291L67.0396 57.7863L62.9502 62.046L67.1912 58.0643L72.841 59.4814L72.9956 59.5202L73.1235 59.4002L77.2361 55.5388L82.7307 56.9174L83.0399 56.9949L83.2955 56.7549L87.2801 53.0132L92.6202 54.353L93.0839 54.4694L93.4672 54.1096L97.3234 50.4882L102.508 51.7892L103.126 51.9446L103.637 51.4645L107.367 47.9629Z" fill="#F2F2F2"/>
<path d="M109.052 55.2824L113.815 57.3365L114.546 57.652L115.273 57.1627L119.37 54.4034L123.986 56.3945L125.355 52.981L119.82 50.9271L118.916 50.5919L118.215 51.1184L114.133 54.1868L109.419 52.4379L108.68 52.1635L108.107 52.5943L103.897 55.7585L99.0196 53.9486L98.4443 53.7352L97.9986 54.0705L93.6616 57.3302L88.6195 55.4594L88.2085 55.3072L87.8902 55.5464L83.4252 58.9021L78.2183 56.9704L77.9717 56.8789L77.7807 57.0226L73.1884 60.4741L67.8166 58.4814L67.7343 58.4511L67.6707 58.4988L62.9502 62.046L67.7757 58.7974L73.1245 61.104L73.2709 61.1671L73.4163 61.0692L78.0957 57.9185L83.2978 60.162L83.5903 60.2884L83.8813 60.0924L88.4151 57.0398L93.4706 59.22L93.9095 59.4094L94.3458 59.1158L98.7334 56.1611L103.642 58.2783L104.227 58.5307L104.809 58.1393L109.052 55.2824Z" fill="#F2F2F2"/>
<path d="M109.539 62.7773L113.91 65.57L114.582 65.999L115.378 65.6328L119.865 63.5678L124.101 66.2746L126 63.1252L120.867 60.2087L120.029 59.7326L119.253 60.1399L114.731 62.5124L110.359 60.0291L109.673 59.6394L109.039 59.9726L104.375 62.4193L99.8518 59.8492L99.3184 59.5461L98.8244 59.8054L94.0203 62.3259L89.344 59.6692L88.9632 59.4529L88.6103 59.6379L83.6642 62.2328L78.8352 59.4893L78.6068 59.3596L78.395 59.4706L73.3079 62.1394L68.3259 59.3097L68.2497 59.2662L68.1793 59.3034L62.9502 62.046L68.2349 59.6149L73.1438 62.7509L73.278 62.8366L73.4374 62.7635L78.562 60.4055L83.3361 63.4557L83.6046 63.6275L83.9232 63.4808L88.8885 61.1961L93.5281 64.1606L93.9308 64.4181L94.4085 64.1981L99.214 61.9867L103.719 64.8652L104.256 65.2084L104.893 64.9153L109.539 62.7773Z" fill="#F2F2F2"/>
<path d="M108.817 70.2532L112.682 73.712L113.276 74.2433L114.121 74.0096L118.881 72.6927L122.628 76.045L125.008 73.2414L120.41 69.5383L119.659 68.9337L118.828 69.2107L113.983 70.8259L110.068 67.6725L109.453 67.1776L108.773 67.4045L103.777 69.07L99.7254 65.8067L99.2475 65.4218L98.7184 65.5983L93.5716 67.3142L89.3831 63.9409L89.0418 63.666L88.6638 63.7921L83.3651 65.5584L79.0397 62.075L78.835 61.9099L78.6081 61.9856L73.1583 63.8024L68.6957 60.209L68.6274 60.1538L68.552 60.1792L62.9502 62.046L68.5567 60.4957L72.8982 64.3795L73.0169 64.4858L73.1857 64.4392L78.6227 62.9353L82.8449 66.7128L83.0823 66.9254L83.4202 66.832L88.6881 65.3748L92.7911 69.046L93.1475 69.3647L93.6542 69.2246L98.7527 67.8141L102.736 71.3788L103.211 71.804L103.887 71.617L108.817 70.2532Z" fill="#F2F2F2"/>
<path d="M106.903 77.5162L110.162 81.5509L110.663 82.1708L111.534 82.0758L116.445 81.5409L119.604 85.4516L122.403 83.0669L118.46 78.6729L117.816 77.9557L116.951 78.0955L111.91 78.9114L108.552 75.1697L108.025 74.5828L107.317 74.6973L102.118 75.5385L98.6435 71.6666L98.2339 71.2099L97.6831 71.2991L92.3277 72.1659L88.7353 68.1631L88.4425 67.8371L88.0492 67.9007L82.5358 68.7928L78.826 64.6597L78.6504 64.464L78.4145 64.5022L72.7437 65.4197L68.9162 61.1557L68.8577 61.0906L68.7791 61.1032L62.9502 62.046L68.7329 61.4166L72.3942 65.9475L72.4941 66.0715L72.6685 66.0525L78.2763 65.4418L81.8368 69.8488L82.037 70.0967L82.3855 70.0587L87.8192 69.4668L91.2793 73.7497L91.5797 74.1217L92.1025 74.0647L97.3611 73.4915L100.72 77.6499L101.121 78.1459L101.818 78.0699L106.903 77.5162Z" fill="#F2F2F2"/>
<path d="M103.847 84.3769L106.416 88.8833L106.811 89.5755L107.686 89.6216L112.619 89.8825L115.109 94.2502L118.255 92.3461L115.068 87.3757L114.548 86.5643L113.672 86.5635L108.565 86.5587L105.851 82.3259L105.426 81.662L104.709 81.6614L99.4421 81.6564L96.6347 77.2764L96.3036 76.7599L95.7458 76.7594L90.3205 76.7546L87.4178 72.2266L87.1812 71.8578L86.7829 71.8573L81.1978 71.852L78.2001 67.1765L78.0582 66.9552L77.819 66.955L72.0745 66.9494L68.9816 62.126L68.9344 62.0521H68.8548L62.9502 62.046L68.759 62.3539L71.6446 67.4142L71.7237 67.5527L71.8986 67.5619L77.5317 67.8603L80.3382 72.7819L80.4962 73.0589L80.8462 73.0773L86.3042 73.3662L89.0312 78.1493L89.2681 78.5645L89.7932 78.5925L95.0756 78.8715L97.7232 83.5159L98.0389 84.0696L98.739 84.1068L103.847 84.3769Z" fill="#F2F2F2"/>
<path d="M99.7286 90.6578L101.541 95.5182L101.819 96.265L102.675 96.4512L107.502 97.5011L109.258 102.212L112.669 100.838L110.323 95.4206L109.94 94.5361L109.075 94.3945L104.035 93.5693L102.037 88.9556L101.723 88.2317L101.015 88.1159L95.8183 87.2649L93.7507 82.4908L93.5067 81.9276L92.9563 81.8376L87.6024 80.9611L85.4646 76.0257L85.2906 75.6235L84.8973 75.5591L79.3855 74.6564L77.1778 69.5599L77.0733 69.3188L76.8375 69.28L71.1682 68.3517L68.8906 63.0941L68.8556 63.0136L68.777 63.0007L62.9502 62.046L68.634 63.2832L70.6694 68.7416L70.7251 68.8909L70.8963 68.9281L76.4084 70.1276L78.3879 75.4362L78.4992 75.7348L78.8416 75.8094L84.1825 76.9714L86.1058 82.1304L86.2728 82.5786L86.7866 82.6902L91.9555 83.8148L93.8227 88.8239L94.0453 89.4212L94.7303 89.5702L99.7286 90.6578Z" fill="#F2F2F2"/>
<path d="M94.6551 96.1954L95.6627 101.284L95.8175 102.066L96.6328 102.387L101.228 104.199L102.205 109.131L105.792 108.323L104.346 102.598L104.11 101.664L103.279 101.385L98.4378 99.7611L97.2062 94.8859L97.0132 94.1214L96.3335 93.8932L91.3405 92.2182L90.0665 87.1739L89.9164 86.5791L89.3876 86.4015L84.2439 84.6763L82.9267 79.4614L82.8194 79.0367L82.4417 78.9098L77.1464 77.1334L75.7862 71.7483L75.7215 71.4935L75.495 71.4175L70.0488 69.5902L68.6451 64.0348L68.6234 63.9498L68.548 63.9245L62.9502 62.046L68.3615 64.1804L69.4936 69.8949L69.5247 70.0511L69.6877 70.1155L74.9355 72.1849L76.0365 77.7425L76.0985 78.0554L76.4245 78.1838L81.5093 80.1889L82.5788 85.5901L82.6717 86.0591L83.1609 86.252L88.0822 88.1921L89.1204 93.4364L89.2441 94.0618L89.8964 94.319L94.6551 96.1954Z" fill="#F2F2F2"/>
<path d="M88.7577 100.846L88.9349 106.03L88.9624 106.826L89.7152 107.275L93.9599 109.802L94.1316 114.826L97.8021 114.605L97.2946 108.723L97.2118 107.762L96.4363 107.354L91.9186 104.973L91.4863 99.9634L91.4185 99.1776L90.7842 98.8433L86.1251 96.3877L85.678 91.2041L85.6253 90.5929L85.1318 90.3328L80.3321 87.8036L79.8697 82.4449L79.832 82.0083L79.4796 81.8226L74.5386 79.2184L74.0609 73.6846L74.0382 73.4226L73.8267 73.3113L68.7448 70.6328L68.2515 64.924L68.2442 64.8367L68.1735 64.7995L62.9502 62.046L67.9485 65.0221L68.1479 70.8443L68.1534 71.0034L68.304 71.0931L73.1512 73.979L73.345 79.6413L73.3559 79.96L73.6571 80.1391L78.3539 82.9353L78.5419 88.438L78.5583 88.916L79.0101 89.1848L83.5558 91.8905L83.738 97.2334L83.7599 97.8707L84.3624 98.2292L88.7577 100.846Z" fill="#F2F2F2"/>
<path d="M82.19 104.488L81.5322 109.634L81.4312 110.424L82.1025 110.988L85.8861 114.164L85.2483 119.15L88.9067 119.522L89.3509 113.635L89.4234 112.673L88.7237 112.146L84.647 109.07L85.0249 104.056L85.0843 103.269L84.5117 102.837L80.3076 99.6653L80.699 94.4773L80.7451 93.8653L80.2999 93.5295L75.9689 90.2619L76.3733 84.8984L76.4063 84.4613L76.0882 84.2215L71.6295 80.8571L72.0471 75.3188L72.0669 75.0566L71.8759 74.9125L67.2901 71.4521L67.7203 65.7383L67.7269 65.651L67.6634 65.603L62.9502 62.046L67.4054 65.7866L66.6671 71.565L66.6471 71.7233L66.7811 71.8359L71.102 75.4628L70.3838 81.0829L70.3432 81.3992L70.6117 81.6245L74.7984 85.1387L74.1002 90.6003L74.0395 91.0746L74.4423 91.4128L78.4942 94.8136L77.8161 100.116L77.7351 100.749L78.2721 101.2L82.19 104.488Z" fill="#F2F2F2"/>
<path d="M75.1225 107.029L73.6468 112.001L73.4202 112.765L73.9921 113.429L77.2165 117.172L75.7859 121.991L79.3372 122.946L80.7211 117.206L80.9472 116.269L80.3413 115.636L76.8117 111.945L77.9902 107.057L78.1751 106.29L77.6794 105.772L74.0395 101.965L75.2592 96.9076L75.4029 96.3112L75.0173 95.9081L71.2674 91.9871L72.5282 86.7582L72.6308 86.3321L72.3554 86.0443L68.4953 82.0075L69.7969 76.6079L69.8584 76.3523L69.6933 76.1795L65.7229 72.0274L67.0654 66.4569L67.086 66.3717L67.0309 66.3142L62.9502 62.046L66.7468 66.4537L65.0898 72.0388L65.0445 72.1915L65.1589 72.3242L68.8408 76.5984L67.2292 82.0299L67.1385 82.3357L67.3674 82.6011L70.9351 86.7423L69.3686 92.0208L69.2325 92.4793L69.5756 92.8776L73.0288 96.8854L71.5074 102.01L71.3262 102.622L71.7838 103.153L75.1225 107.029Z" fill="#F2F2F2"/>
<path d="M67.7388 108.4L65.4834 113.071L65.137 113.789L65.5949 114.536L68.1761 118.748L65.99 123.275L69.3419 124.788L71.6298 119.345L72.0033 118.457L71.5072 117.734L68.6163 113.524L70.5645 108.889L70.8702 108.162L70.4642 107.57L67.4829 103.229L69.4994 98.4326L69.737 97.867L69.4213 97.4072L66.3501 92.9346L68.4341 87.9761L68.6039 87.5722L68.3784 87.2438L65.2167 82.639L67.3687 77.5188L67.4708 77.2764L67.3352 77.0793L64.0836 72.3432L66.3034 67.0607L66.3374 66.98L66.2923 66.9143L62.9502 62.046L65.9895 67.0064L63.4569 72.2527L63.3875 72.3962L63.4793 72.5455L66.4268 77.3558L63.9636 82.4581L63.8251 82.7451L64.0081 83.044L66.8642 87.7047L64.4703 92.6629L64.2624 93.0934L64.5373 93.5419L67.3015 98.0522L64.9769 102.866L64.6997 103.44L65.0661 104.038L67.7388 108.4Z" fill="#F2F2F2"/>
<path d="M60.2307 108.567L57.2542 112.815L56.7971 113.468L57.1289 114.279L59 118.851L56.1152 122.968L59.1804 125L62.3128 119.996L62.8243 119.179L62.4508 118.386L60.2737 113.766L62.9411 109.504L63.3597 108.835L63.054 108.186L60.8089 103.422L63.5694 99.0122L63.8949 98.4922L63.657 97.9876L61.344 93.0794L64.1977 88.5206L64.4301 88.1492L64.2602 87.7885L61.8795 82.7359L64.826 78.0277L64.9655 77.805L64.8634 77.5887L62.4147 72.3915L65.4542 67.5345L65.5007 67.4601L65.4666 67.3881L62.9501 62.046L65.153 67.4303L61.8106 72.2015L61.7194 72.3321L61.7856 72.4943L63.9223 77.7156L60.6715 82.3557L60.4887 82.6166L60.6213 82.9411L62.6916 88.0001L59.5323 92.5094L59.258 92.9011L59.4571 93.3876L61.4612 98.2838L58.3933 102.662L58.0275 103.184L58.2931 103.833L60.2307 108.567Z" fill="#F2F2F2"/>
<path d="M52.7931 107.526L49.173 111.241L48.6169 111.811L48.8142 112.665L49.9268 117.478L46.418 121.079L49.1168 123.577L53.0125 119.141L53.6487 118.416L53.4071 117.574L52.0005 112.664L55.3181 108.886L55.8385 108.293L55.6409 107.604L54.1902 102.541L57.6234 98.6315L58.0282 98.1707L57.8745 97.6344L56.38 92.4184L59.9286 88.3771L60.2177 88.0479L60.108 87.6648L58.5697 82.2951L62.2342 78.1216L62.4077 77.924L62.3421 77.6942L60.7597 72.1712L64.54 67.8656L64.5977 67.7996L64.5759 67.7231L62.95 62.046L64.2593 67.7144L60.1942 71.8866L60.0829 72.0008L60.1225 72.1715L61.3925 77.6684L57.4387 81.7258L57.2164 81.954L57.2952 82.2956L58.5259 87.6216L54.6832 91.5645L54.3495 91.9071L54.468 92.4194L55.6594 97.574L51.9285 101.402L51.4835 101.858L51.6412 102.542L52.7931 107.526Z" fill="#F2F2F2"/>
<path d="M45.6198 105.303L41.45 108.388L40.8093 108.862L40.8671 109.737L41.1917 114.666L37.1504 117.656L39.4129 120.555L43.9707 116.802L44.7148 116.19L44.6119 115.319L44.0122 110.247L47.8934 107.051L48.5022 106.55L48.418 105.838L47.7995 100.607L51.8158 97.3004L52.2895 96.9105L52.2241 96.3565L51.5866 90.9683L55.7385 87.5495L56.0769 87.271L56.0299 86.8753L55.3742 81.3282L59.6617 77.7979L59.8645 77.6307L59.8365 77.3932L59.1621 71.6877L63.5848 68.0455L63.6524 67.9896L63.6431 67.9104L62.9502 62.046L63.3322 67.8511L58.6496 71.316L58.5214 71.4107L58.533 71.5856L58.9036 77.2152L54.3492 80.5846L54.0931 80.7743L54.1161 81.1241L54.4753 86.5785L50.0494 89.853L49.6648 90.1374L49.6996 90.662L50.0475 95.9411L45.7498 99.12L45.2373 99.4991L45.2835 100.199L45.6198 105.303Z" fill="#F2F2F2"/>
<path d="M38.8964 101.957L34.2851 104.332L33.5766 104.697L33.493 105.569L33.0219 110.487L28.5527 112.788L30.3202 116.013L35.4216 113.042L36.2546 112.557L36.2926 111.681L36.5154 106.578L40.8596 104.047L41.5411 103.65L41.5723 102.934L41.8023 97.6721L46.2976 95.0537L46.8275 94.7448L46.852 94.1876L47.0883 88.767L51.7355 86.0596L52.114 85.8391L52.1314 85.4411L52.3752 79.8605L57.174 77.0648L57.4011 76.9324L57.4117 76.6937L57.6623 70.9538L62.6128 68.0695L62.6885 68.0252L62.6919 67.9458L62.9502 62.046L62.3947 67.8371L57.2162 70.5046L57.0746 70.5776L57.0577 70.752L56.5194 76.3679L51.4831 78.962L51.1998 79.1079L51.1663 79.4569L50.6446 84.8982L45.75 87.419L45.3251 87.6379L45.275 88.1613L44.7704 93.4277L40.0179 95.8749L39.4514 96.1666L39.3844 96.8646L38.8964 101.957Z" fill="#F2F2F2"/>
<path d="M32.7978 97.574L27.865 99.177L27.1072 99.4234L26.8846 100.271L25.6296 105.049L20.8486 106.603L22.0754 110.07L27.5877 107.956L28.4877 107.611L28.666 106.753L29.7055 101.753L34.3999 99.9526L35.1363 99.6703L35.2822 98.9681L36.3544 93.8115L41.2118 91.9494L41.7847 91.7299L41.8981 91.1836L43.0022 85.8713L48.024 83.9459L48.4331 83.7889L48.5141 83.399L49.6511 77.9301L54.8367 75.9416L55.082 75.8474L55.1308 75.6134L56.3003 69.9886L61.6497 67.9371L61.7317 67.9057L61.7478 67.8276L62.9503 62.046L61.4716 67.6727L55.9321 69.4734L55.7807 69.5227L55.7361 69.6921L54.3026 75.1486L48.915 76.8997L48.6117 76.9984L48.5228 77.3373L47.1338 82.6243L41.8979 84.326L41.4431 84.4737L41.3097 84.9823L39.9658 90.0991L34.8821 91.751L34.2757 91.948L34.0976 92.626L32.7978 97.574Z" fill="#F2F2F2"/>
<path d="M27.4825 92.268L22.3563 93.0576L21.569 93.1789L21.2129 93.9798L19.2068 98.4941L14.2383 99.2593L14.8921 102.879L20.6725 101.678L21.6162 101.482L21.9301 100.664L23.7593 95.8954L28.6819 94.8732L29.4539 94.7129L29.7108 94.0433L31.5972 89.1257L36.6907 88.0682L37.2916 87.9437L37.4912 87.4227L39.4344 82.3568L44.7001 81.2634L45.129 81.1742L45.2717 80.8022L47.2726 75.5871L52.71 74.4575L52.9675 74.4042L53.0529 74.181L55.1108 68.8168L60.7205 67.6516L60.8062 67.6337L60.8347 67.5593L62.9503 62.046L60.5873 67.362L54.8301 68.2494L54.6727 68.2737L54.6015 68.4338L52.3102 73.5891L46.7113 74.452L46.3964 74.5005L46.2539 74.8207L44.0338 79.8159L38.5924 80.654L38.1201 80.7268L37.9064 81.2074L35.7581 86.042L30.4752 86.8555L29.8451 86.9526L29.5602 87.5931L27.4825 92.268Z" fill="#F2F2F2"/>
<path d="M23.0885 86.1768L17.9018 86.1327L17.105 86.1259L16.6252 86.8592L13.9198 90.9926L8.89307 90.9496L8.95716 94.6266L14.8549 94.3707L15.8181 94.329L16.2594 93.5717L18.8308 89.1589L23.8534 88.9408L24.6412 88.9068L25.0023 88.2871L27.6544 83.7364L32.8516 83.5111L33.4643 83.4845L33.7452 83.0025L36.477 78.3147L41.8498 78.0815L42.2877 78.0622L42.4881 77.7182L45.3006 72.8921L50.8488 72.651L51.1115 72.6397L51.2321 72.4331L54.1248 67.4694L59.8487 67.2203L59.9362 67.2166L59.9763 67.1478L62.95 62.046L59.7637 66.9133L53.9388 66.8642L53.7795 66.8629L53.6835 67.0093L50.5938 71.7296L44.929 71.6816L44.6104 71.679L44.4183 71.9723L41.4246 76.5457L35.9197 76.4987L35.4415 76.4948L35.1534 76.9348L32.2565 81.3612L26.9114 81.3153L26.2739 81.31L25.8899 81.8965L23.0885 86.1768Z" fill="#F2F2F2"/>
<path d="M19.7303 79.4587L14.6184 78.5819L13.8329 78.4471L13.2415 79.0939L9.90731 82.7388L4.95282 81.8888L4.42529 85.5284L10.2877 86.2235L11.2449 86.3369L11.8022 85.6603L15.0488 81.7181L20.0416 82.3098L20.8247 82.4027L21.2805 81.8492L24.6289 77.7839L29.7949 78.3965L30.404 78.4687L30.7587 78.038L34.2079 73.85L39.5486 74.4828L39.9835 74.5345L40.2367 74.2269L43.788 69.9155L49.303 70.5692L49.5641 70.6L49.7161 70.4154L53.3686 65.981L59.058 66.655L59.145 66.6653L59.1957 66.6038L62.9503 62.046L59.0234 66.3382L53.2824 65.3537L53.1255 65.3268L53.007 65.4561L49.1994 69.6187L43.6158 68.6609L43.3016 68.6071L43.0651 68.8659L39.3756 72.899L33.9495 71.9681L33.4781 71.8874L33.1234 72.2754L29.5528 76.1787L24.2844 75.2747L23.6562 75.1671L23.183 75.6844L19.7303 79.4587Z" fill="#F2F2F2"/>
<path d="M17.4944 72.2886L12.5895 70.6016L11.8362 70.3426L11.1485 70.8857L7.27202 73.9476L2.51851 72.3126L1.41309 75.8202L7.08765 77.4481L8.01425 77.714L8.67286 77.1355L12.5109 73.7664L17.3435 75.1526L18.1015 75.37L18.6404 74.897L22.5984 71.4223L27.5988 72.8571L28.1886 73.0262L28.6077 72.6582L32.6847 69.0785L37.8544 70.5615L38.2756 70.6824L38.575 70.4193L42.7725 66.7347L48.1108 68.2657L48.3637 68.338L48.5433 68.1805L52.8606 64.3904L58.3679 65.9697L58.4523 65.994L58.5122 65.9412L62.95 62.046L58.3848 65.6516L52.8764 63.7575L52.7255 63.7055L52.5881 63.8142L48.1611 67.3108L42.8039 65.4685L42.5027 65.3651L42.2276 65.5822L37.9383 68.9703L32.7319 67.1797L32.2798 67.0243L31.8673 67.3501L27.7162 70.6293L22.6615 68.8907L22.0588 68.6833L21.5086 69.1178L17.4944 72.2886Z" fill="#F2F2F2"/>
<path d="M16.4397 64.852L11.8695 62.399L11.1674 62.0223L10.4014 62.4478L6.08366 64.8472L1.65431 62.4697L0 65.7542L5.33933 68.2726L6.21132 68.6838L6.95434 68.219L11.2835 65.5102L15.8307 67.6548L16.5439 67.9911L17.1519 67.6107L21.6166 64.8172L26.3216 67.0367L26.8765 67.2984L27.3492 67.0024L31.9484 64.1244L36.8127 66.4187L37.2089 66.6057L37.5467 66.3944L42.2815 63.4317L47.3046 65.8006L47.5425 65.9127L47.7451 65.7861L52.6152 62.739L57.7973 65.1825L57.8767 65.22L57.9442 65.1778L62.9501 62.046L57.8651 64.8712L52.7325 62.1167L52.592 62.0413L52.4387 62.1265L47.5077 64.8665L42.516 62.1872L42.2351 62.0365L41.9289 62.2069L37.1508 64.8617L32.3 62.2578L31.8788 62.0318L31.419 62.2871L26.7953 64.8567L22.0856 62.3285L21.5237 62.027L20.911 62.3676L16.4397 64.852Z" fill="#F2F2F2"/>
<path d="M16.5931 57.3429L12.4763 54.1874L11.844 53.7028L11.0195 53.9998L6.3723 55.6741L2.38264 52.6157L0.222168 55.5918L5.08752 58.9354L5.88197 59.4814L6.69013 59.1419L11.3983 57.1637L15.542 60.0111L16.1919 60.4577L16.8529 60.18L21.7085 58.1403L25.9956 61.0869L26.5013 61.4343L27.0156 61.2182L32.0173 59.1166L36.4498 62.1624L36.8109 62.4106L37.1783 62.2563L42.3275 60.0929L46.9048 63.2381L47.1216 63.3872L47.3419 63.2946L52.6382 61.0695L57.3606 64.3139L57.4329 64.3635L57.5062 64.3328L62.9502 62.046L57.4774 64.0174L52.854 60.4741L52.7274 60.3773L52.5625 60.4366L47.2553 62.3486L42.7587 58.9024L42.5058 58.7085L42.1761 58.8272L37.0338 60.6798L32.6641 57.3307L32.2848 57.0398L31.79 57.2181L26.8133 59.0113L22.571 55.759L22.0651 55.3713L21.4054 55.6089L16.5931 57.3429Z" fill="#F2F2F2"/>
<path d="M17.9504 49.9556L14.3941 46.1799L13.8478 45.5998L12.9864 45.7605L8.13053 46.6666L4.68369 43.007L2.07324 45.5972L6.33853 49.6791L7.03486 50.3455L7.88708 50.1403L12.8519 48.9442L16.4841 52.4205L17.0541 52.9657L17.7512 52.798L22.8711 51.5647L26.6295 55.1618L27.0728 55.586L27.6151 55.4552L32.8893 54.1845L36.775 57.9032L37.0916 58.206L37.479 58.1126L42.9088 56.805L46.9214 60.6448L47.1116 60.8265L47.344 60.7706L52.9289 59.4252L57.0686 63.3864L57.1319 63.447L57.2095 63.4283L62.95 62.046L57.2316 63.1125L53.2372 58.8723L53.128 58.7563L52.9558 58.7884L47.4102 59.823L43.5258 55.6989L43.3074 55.467L42.9626 55.5314L37.5895 56.5338L33.8148 52.5257L33.487 52.1778L32.97 52.2741L27.77 53.2446L24.105 49.3531L23.6679 48.8891L22.9787 49.0175L17.9504 49.9556Z" fill="#F2F2F2"/>
<path d="M20.4769 42.8828L17.5734 38.5845L17.1272 37.9243L16.2512 37.9443L11.3131 38.0585L8.49899 33.8924L5.50635 36.0297L9.06027 40.7439L9.64055 41.5137L10.5147 41.448L15.6071 41.0652L18.634 45.0799L19.1088 45.7096L19.8239 45.6558L25.0754 45.2614L28.207 49.4156L28.5765 49.9055L29.1328 49.8635L34.5426 49.4568L37.7805 53.7513L38.0443 54.1014L38.4415 54.0713L44.0111 53.6529L47.3548 58.0875L47.513 58.2975L47.7515 58.2796L53.4799 57.8493L56.9296 62.424L56.9826 62.4939L57.062 62.4881L62.9499 62.046L57.1345 62.1798L53.8731 57.3531L53.784 57.221L53.6088 57.2249L47.9693 57.3553L44.7976 52.6605L44.6193 52.3965L44.2688 52.4047L38.8044 52.5307L35.7224 47.9682L35.4546 47.5722L34.929 47.5844L29.6408 47.7065L26.6484 43.2766L26.2916 42.7485L25.5907 42.7646L20.4769 42.8828Z" fill="#F2F2F2"/>
<path d="M24.1072 36.3075L21.9316 31.5985L21.5975 30.8752L20.7297 30.7544L15.8372 30.0735L13.7289 25.5096L10.4316 27.1383L13.1824 32.3622L13.6316 33.2153L14.5046 33.2907L19.5926 33.7313L21.9351 38.1799L22.3028 38.8779L23.017 38.9396L28.2638 39.3941L30.6875 43.9976L30.9734 44.5405L31.5291 44.5885L36.9342 45.0562L39.4402 49.8153L39.6443 50.2028L40.0413 50.2373L45.6056 50.719L48.1936 55.6332L48.316 55.8659L48.5542 55.8867L54.2775 56.3821L56.9476 61.452L56.9885 61.5295L57.0679 61.5364L62.9503 62.046L57.1889 61.2438L54.7452 55.9556L54.6785 55.811L54.5049 55.7867L48.9176 55.0091L46.5414 49.8659L46.4077 49.5765L46.0606 49.5283L40.6469 48.7749L38.3376 43.7765L38.1372 43.3426L37.6165 43.27L32.3771 42.5412L30.1352 37.6879L29.868 37.1091L29.1735 37.0126L24.1072 36.3075Z" fill="#F2F2F2"/>
<path d="M28.7461 30.4009L27.3553 25.4036L27.1416 24.6359L26.3044 24.3772L21.5847 22.9192L20.2369 18.0757L16.7212 19.1535L18.5968 24.7515L18.9033 25.6658L19.7529 25.8805L24.7037 27.1327L26.3015 31.9L26.5521 32.6479L27.2471 32.8238L32.3528 34.1151L34.0058 39.0483L34.2007 39.6299L34.7414 39.7669L40.0011 41.0969L41.71 46.1966L41.8492 46.612L42.2356 46.7099L47.6502 48.0795L49.4152 53.3456L49.4989 53.5949L49.7304 53.6537L55.2998 55.0624L57.1208 60.4952L57.1487 60.5783L57.226 60.5978L62.9502 62.046L57.3924 60.3285L55.8302 54.7165L55.7872 54.563L55.62 54.5113L50.2303 52.846L48.711 47.3878L48.6253 47.0808L48.2906 46.9771L43.0683 45.3638L41.5921 40.0594L41.4639 39.5986L40.9614 39.4434L35.9072 37.8823L34.4742 32.732L34.3033 32.1179L33.6333 31.9108L28.7461 30.4009Z" fill="#F2F2F2"/>
<path d="M34.2734 25.3163L33.7034 20.1604L33.6158 19.3685L32.8312 18.9786L28.4071 16.7812L27.8548 11.7842L24.2114 12.283L25.1636 18.1097L25.319 19.0612L26.1232 19.4097L30.8086 21.4411L31.6197 26.4034L31.7471 27.1818L32.4049 27.467L37.2368 29.5618L38.0758 34.6965L38.1747 35.3019L38.6864 35.5237L43.6641 37.6816L44.5319 42.9899L44.6026 43.4222L44.9681 43.5808L50.0922 45.8027L50.9885 51.2841L51.031 51.5436L51.2502 51.6386L56.5209 53.9238L57.4457 59.5788L57.4596 59.6653L57.533 59.6969L62.9501 62.046L57.7405 59.458L57.0999 53.6677L57.0822 53.5092L56.9253 53.4313L51.8732 50.9216L51.2504 45.2904L51.2153 44.9736L50.9015 44.8174L46.0063 42.3861L45.401 36.9131L45.3485 36.438L44.8777 36.2041L40.1397 33.851L39.5526 28.5374L39.4827 27.9038L38.8547 27.592L34.2734 25.3163Z" fill="#F2F2F2"/>
<path d="M40.5459 21.1861L40.8116 16.0054L40.8522 15.2096L40.1403 14.6989L36.1266 11.8193L36.3843 6.79825L32.708 6.70513L32.712 12.6094L32.7125 13.5733L33.4502 14.0465L37.7488 16.8045L37.7522 21.8323L37.7527 22.6211L38.3562 23.0083L42.7887 25.8526L42.7921 31.0551L42.7924 31.6687L43.2619 31.9699L47.8284 34.8996L47.8321 40.2781L47.8324 40.7162L48.1676 40.9315L52.8686 43.9477L52.8726 49.5019L52.8728 49.7649L53.0741 49.8939L57.9091 52.9963L57.9133 58.7265L57.9136 58.814L57.9806 58.857L62.9501 62.046L58.224 58.6544L58.5216 52.8365L58.5297 52.6774L58.3873 52.5751L53.8039 49.2864L54.0938 43.6283L54.1102 43.3099L53.8253 43.1054L49.3843 39.9191L49.6663 34.42L49.6906 33.9426L49.2635 33.636L44.9653 30.5523L45.2391 25.2134L45.2718 24.5769L44.7023 24.168L40.5459 21.1861Z" fill="#F2F2F2"/>
<path d="M47.4002 18.1171L48.4945 13.0465L48.6625 12.2675L48.0419 11.6489L44.5429 8.1618L45.6037 3.24733L41.9902 2.5649L41.0456 8.39315L40.8916 9.34465L41.5436 9.93027L45.3431 13.343L44.5389 18.3062L44.4126 19.0847L44.9461 19.564L48.8643 23.0833L48.0319 28.2188L47.9338 28.8245L48.3487 29.1972L52.3853 32.8225L51.5249 38.1319L51.455 38.5645L51.7512 38.8307L55.9065 42.5631L55.0184 48.0457L54.9762 48.3053L55.1543 48.4649L59.428 52.3039L58.5119 57.9601L58.498 58.0467L58.5573 58.0999L62.95 62.046L58.83 57.9393L60.0584 52.2445L60.0921 52.0889L59.9679 51.9652L55.9722 47.9827L57.1673 42.4444L57.2345 42.1328L56.9861 41.8854L53.1146 38.0269L54.2762 32.6447L54.3769 32.1773L54.0045 31.8061L50.2575 28.0718L51.3856 22.8461L51.5201 22.223L51.0235 21.7282L47.4002 18.1171Z" fill="#F2F2F2"/>
<path d="M54.6587 16.1893L56.5533 11.3603L56.8442 10.6185L56.331 9.90811L53.4378 5.90426L55.2741 1.22404L51.8172 -0.0300326L49.9487 5.57056L49.6436 6.48513L50.1932 7.16783L53.395 11.1466L51.804 15.9163L51.5545 16.6644L52.004 17.2231L55.306 21.3261L53.6593 26.2614L53.4652 26.8434L53.8149 27.2781L57.2167 31.5046L55.5149 36.6069L55.3762 37.0226L55.6259 37.3328L59.1276 41.6844L57.3705 46.9531L57.2871 47.2027L57.4369 47.3889L61.0388 51.8647L59.226 57.3001L59.1983 57.3835L59.2482 57.4455L62.9501 62.046L59.5433 57.3305L61.6706 51.9074L61.7286 51.7589L61.626 51.617L58.3218 47.0441L60.3911 41.7698L60.5074 41.4733L60.3022 41.189L57.1009 36.7586L59.1118 31.6328L59.2864 31.1878L58.9783 30.7615L55.8797 26.4738L57.8326 21.4973L58.0655 20.9038L57.6548 20.3356L54.6587 16.1893Z" fill="#F2F2F2"/>
</g>
<g clip-path="url(#clip2_492_173)">
<path d="M100.939 44.7372C102.376 44.2028 103.983 44.9322 104.431 46.3985C107.038 54.9305 107.134 64.0348 104.71 72.6203C104.293 74.0957 102.702 74.8593 101.254 74.3552L88.9322 70.0664C87.4845 69.5625 86.7339 67.9817 87.0915 66.4911C88.1644 62.0187 88.115 57.3489 86.9472 52.9004C86.5579 51.4174 87.2747 49.8213 88.7117 49.2869L100.939 44.7372Z" fill="url(#paint3_linear_492_173)"/>
<path d="M99.718 78.1774C101.112 78.8152 101.732 80.4674 101.012 81.8208C96.8224 89.6971 90.4531 96.2032 82.6677 100.559C81.3298 101.308 79.6649 100.723 78.9973 99.3427L73.3173 87.5973C72.6499 86.2172 73.2367 84.5688 74.5438 83.7674C78.4649 81.3637 81.732 78.0265 84.0517 74.0555C84.825 72.7317 86.4606 72.1098 87.8547 72.748L99.718 78.1774Z" fill="url(#paint4_linear_492_173)"/>
<path d="M75.2087 100.959C75.7433 102.396 75.0137 104.003 73.5476 104.451C65.0156 107.057 55.9111 107.154 47.3258 104.729C45.8503 104.312 45.0868 102.722 45.5908 101.274L49.8796 88.9519C50.3836 87.5041 51.9641 86.7537 53.455 87.1111C57.9272 88.1842 62.5972 88.1346 67.0457 86.9669C68.5285 86.5777 70.1245 87.2945 70.6592 88.7314L75.2087 100.959Z" fill="url(#paint5_linear_492_173)"/>
<path d="M41.769 99.7378C41.1311 101.132 39.4789 101.752 38.1255 101.032C30.2492 96.8422 23.7431 90.4729 19.387 82.6875C18.6384 81.3496 19.2234 79.6847 20.6036 79.0171L32.349 73.3371C33.7292 72.6697 35.3776 73.2565 36.1789 74.5636C38.5826 78.4848 41.9197 81.7518 45.8909 84.0715C47.2147 84.8448 47.8364 86.4804 47.1984 87.8744L41.769 99.7378Z" fill="url(#paint6_linear_492_173)"/>
<path d="M18.9868 75.2286C17.55 75.7633 15.9432 75.0335 15.4953 73.5675C12.8887 65.0355 12.792 55.931 15.2169 47.3456C15.6336 45.8703 17.2245 45.1067 18.6724 45.6107L30.9941 49.8995C32.442 50.4035 33.1925 51.984 32.8349 53.4749C31.7619 57.9471 31.8116 62.6171 32.9793 67.0656C33.3684 68.5483 32.6515 70.1444 31.2147 70.6791L18.9868 75.2286Z" fill="url(#paint7_linear_492_173)"/>
<path d="M20.2083 41.7886C18.8143 41.1506 18.1941 39.4986 18.9141 38.1451C23.104 30.2689 29.4735 23.7627 37.2589 19.4066C38.5968 18.658 40.2617 19.243 40.929 20.6232L46.609 32.3687C47.2767 33.7488 46.6896 35.3973 45.3828 36.1985C41.4616 38.6022 38.1946 41.9393 35.8746 45.9106C35.1013 47.2343 33.4658 47.856 32.0717 47.218L20.2083 41.7886Z" fill="url(#paint8_linear_492_173)"/>
<mask id="mask0_492_173" style="mask-type:luminance" maskUnits="userSpaceOnUse" x="27" y="27" width="14" height="14">
<path d="M34.2159 27.2878L27.0308 35.7533L32.9566 40.7829L40.1417 32.3173L34.2159 27.2878Z" fill="white"/>
</mask>
<g mask="url(#mask0_492_173)">
<path d="M34.5603 34.8621L29.2746 37.6578L36.3593 36.3889L36.4596 29.1923L34.5603 34.8621Z" fill="url(#paint9_radial_492_173)"/>
<path d="M32.6024 33.1924L28.5996 35.6206L33.8017 34.2103L34.3478 28.8481L32.6024 33.1924Z" fill="url(#paint10_radial_492_173)"/>
<path d="M31.2431 32.0385L29.1904 33.209L31.8973 32.5936L32.0645 29.8228L31.2431 32.0385Z" fill="url(#paint11_radial_492_173)"/>
</g>
<path d="M44.7177 19.0066C44.1832 17.5697 44.9127 15.963 46.379 15.515C54.911 12.9084 64.0152 12.8118 72.6008 15.2367C74.0761 15.6534 74.8398 17.2442 74.3357 18.6922L70.0468 31.0139C69.543 32.4617 67.9623 33.2124 66.4716 32.8547C61.9991 31.7817 57.3294 31.8313 52.8809 32.999C51.3979 33.3883 49.8018 32.6714 49.2674 31.2344L44.7177 19.0066Z" fill="url(#paint12_linear_492_173)"/>
<path d="M78.1575 20.2279C78.7954 18.8339 80.4475 18.2137 81.8009 18.9337C89.6771 23.1236 96.1831 29.4931 100.539 37.2784C101.288 38.6164 100.703 40.2813 99.3228 40.9486L87.5773 46.6286C86.1971 47.2963 84.5487 46.7095 83.7475 45.4024C81.3439 41.4812 78.0067 38.2142 74.0355 35.8942C72.7118 35.1209 72.0899 33.4854 72.7278 32.0914L78.1575 20.2279Z" fill="url(#paint13_linear_492_173)"/>
<mask id="mask1_492_173" style="mask-type:luminance" maskUnits="userSpaceOnUse" x="28" y="81" width="12" height="11">
<path d="M28.3903 84.6391L36.6406 91.6489L39.5164 88.2641L31.2661 81.2544L28.3903 84.6391Z" fill="white"/>
</mask>
<g mask="url(#mask1_492_173)">
<path d="M33.9097 86.5028L36.6405 91.6489L35.3911 84.7591L28.3901 84.6389L33.9097 86.5028Z" fill="url(#paint14_radial_492_173)"/>
</g>
<mask id="mask2_492_173" style="mask-type:luminance" maskUnits="userSpaceOnUse" x="94" y="53" width="5" height="12">
<path d="M98.5297 64.9229L98.8003 54.1003L94.3602 53.9892L94.0896 64.8119L98.5297 64.9229Z" fill="white"/>
</mask>
<g mask="url(#mask2_492_173)">
<path d="M96.5122 59.4579L98.8004 54.1003L94.225 59.4008L98.5296 64.923L96.5122 59.4579Z" fill="url(#paint15_radial_492_173)"/>
</g>
<mask id="mask3_492_173" style="mask-type:luminance" maskUnits="userSpaceOnUse" x="55" y="93" width="11" height="10">
<path d="M56.0167 102.04L65.4541 101.924L65.3442 93.0414L55.9069 93.1581L56.0167 102.04Z" fill="white"/>
</mask>
<g mask="url(#mask3_492_173)">
<path d="M60.9896 101.166C60.9098 101.423 60.5478 101.427 60.4616 101.173L60.1535 100.263C60.1148 100.149 60.0073 100.072 59.8871 100.074L58.9262 100.086C58.6573 100.089 58.5414 99.7467 58.7569 99.5859L59.5272 99.0117C59.6235 98.9398 59.6629 98.8139 59.6242 98.7001L59.3159 97.7899C59.2298 97.5352 59.5199 97.3188 59.7394 97.4744L60.5237 98.0295C60.6218 98.0989 60.7533 98.0974 60.85 98.0254L61.62 97.4512C61.8358 97.2904 62.131 97.4992 62.0511 97.7561L61.7655 98.6735C61.7298 98.7882 61.772 98.9132 61.8701 98.9825L62.6544 99.5377C62.8738 99.693 62.7664 100.039 62.4974 100.042L61.5367 100.054C61.4166 100.055 61.3109 100.134 61.2752 100.249L60.9896 101.166Z" fill="url(#paint16_radial_492_173)"/>
<path d="M60.6505 95.1016L65.3925 96.9273L60.6259 93.0997L55.9552 97.044L60.6505 95.1016Z" fill="url(#paint17_radial_492_173)"/>
</g>
<mask id="mask4_492_173" style="mask-type:luminance" maskUnits="userSpaceOnUse" x="53" y="16" width="13" height="13">
<path d="M64.6091 16.9098L53.5215 17.5054L54.1022 28.3158L65.1898 27.7203L64.6091 16.9098Z" fill="white"/>
</mask>
<g mask="url(#mask4_492_173)">
<path d="M59.348 22.4742L53.6851 20.5545L59.4745 24.8304L64.7728 19.9589L59.348 22.4742Z" fill="url(#paint18_radial_492_173)"/>
<path d="M59.5228 25.7334L55.8037 23.7766L59.6456 28.018L63.0108 23.3894L59.5228 25.7334Z" fill="url(#paint19_radial_492_173)"/>
<path d="M58.8453 18.0331C58.9146 17.7732 59.2758 17.7539 59.3724 18.0049L59.573 18.5249C59.6162 18.6372 59.7266 18.7088 59.8469 18.7023L60.4035 18.6724C60.672 18.658 60.8021 18.9956 60.5933 19.1651L60.1606 19.5165C60.0671 19.5923 60.0333 19.7196 60.0764 19.8318L60.2769 20.352C60.3737 20.6029 60.0927 20.831 59.8671 20.6847L59.3992 20.3818C59.2981 20.3164 59.1668 20.3234 59.0734 20.3993L58.6406 20.7506C58.4319 20.9201 58.1281 20.7235 58.1974 20.4637L58.3408 19.9251C58.3719 19.8088 58.3245 19.6859 58.2235 19.6206L57.7558 19.3175C57.53 19.1714 57.6231 18.8218 57.8916 18.8074L58.4482 18.7775C58.5685 18.771 58.6706 18.688 58.7016 18.5718L58.8453 18.0331Z" fill="url(#paint20_radial_492_173)"/>
</g>
<mask id="mask5_492_173" style="mask-type:luminance" maskUnits="userSpaceOnUse" x="78" y="78" width="16" height="17">
<path d="M86.0739 94.1292L93.9727 86.3253L86.3639 78.624L78.4651 86.4279L86.0739 94.1292Z" fill="white"/>
</mask>
<g mask="url(#mask5_492_173)">
<path d="M86.3162 86.4752L91.8265 84.153L84.658 84.7968L83.9278 91.957L86.3162 86.4752Z" fill="url(#paint21_radial_492_173)"/>
<path d="M84.0223 84.1535L88.1028 83.1491L82.4142 82.5259L82.9686 88.2217L84.0223 84.1535Z" fill="url(#paint22_radial_492_173)"/>
<path d="M89.6397 89.4637C89.7602 89.704 89.5029 89.9583 89.2641 89.8347L88.769 89.5787C88.6622 89.5234 88.5319 89.543 88.4464 89.6278L88.0497 90.0195C87.8584 90.2084 87.5369 90.0422 87.5808 89.777L87.6713 89.2269C87.6908 89.1083 87.6317 88.9904 87.5249 88.9352L87.0298 88.6792C86.791 88.5556 86.8495 88.1986 87.1156 88.1583L87.6666 88.0743C87.7856 88.0562 87.8791 87.9637 87.8987 87.8451L87.9894 87.2949C88.033 87.0295 88.3906 86.9752 88.5113 87.2154L88.7613 87.7136C88.8152 87.8213 88.9322 87.8816 89.0511 87.8635L89.6022 87.7798C89.8682 87.7392 90.0303 88.0627 89.8391 88.2518L89.4427 88.6434C89.3571 88.7279 89.3355 88.8579 89.3897 88.9655L89.6397 89.4637Z" fill="url(#paint23_radial_492_173)"/>
</g>
<mask id="mask6_492_173" style="mask-type:luminance" maskUnits="userSpaceOnUse" x="78" y="25" width="17" height="17">
<path d="M94.1831 33.3969L86.6855 25.2069L78.2907 32.8919L85.7883 41.082L94.1831 33.3969Z" fill="white"/>
</mask>
<g mask="url(#mask6_492_173)">
<path d="M86.1346 33.2382L84.0237 27.6436L84.3943 34.8313L91.5214 35.8338L86.1346 33.2382Z" fill="url(#paint24_radial_492_173)"/>
<path d="M83.727 35.442L82.8787 31.3261L82.0393 36.9869L87.7522 36.6497L83.727 35.442Z" fill="url(#paint25_radial_492_173)"/>
<path d="M89.6566 29.6557C89.9014 29.5445 90.1457 29.8113 90.0132 30.0455L89.9374 30.1793C89.878 30.2841 89.893 30.4149 89.9742 30.5034L90.0782 30.6173C90.2599 30.8157 90.0815 31.1304 89.818 31.0767L89.667 31.046C89.5491 31.022 89.4292 31.0765 89.3699 31.181L89.294 31.3152C89.1614 31.549 88.8069 31.4769 88.7767 31.2095L88.7592 31.0565C88.7456 30.9371 88.6568 30.8398 88.539 30.8158L88.3879 30.7851C88.1244 30.7314 88.0838 30.3717 88.3283 30.2603L88.4687 30.1965C88.5782 30.1467 88.643 30.0323 88.6294 29.9128L88.6121 29.7595C88.5817 29.4925 88.9111 29.3424 89.0928 29.5407L89.1967 29.6543C89.278 29.7431 89.407 29.7695 89.5165 29.7197L89.6566 29.6557Z" fill="url(#paint26_radial_492_173)"/>
<path d="M87.4349 30.6451C87.6219 30.5599 87.8085 30.7638 87.7072 30.9425C87.662 31.0226 87.6734 31.1224 87.7355 31.1902C87.8742 31.3416 87.7379 31.5821 87.5367 31.5411C87.4466 31.5229 87.3551 31.5644 87.3097 31.6446C87.2086 31.8231 86.9378 31.768 86.9145 31.5639C86.9041 31.4726 86.8362 31.3984 86.7461 31.3799C86.5448 31.3389 86.5137 31.0641 86.7008 30.9791C86.7844 30.9411 86.834 30.8535 86.8236 30.7622C86.8003 30.5581 87.052 30.4436 87.1908 30.5952C87.2529 30.663 87.3513 30.6831 87.4349 30.6451Z" fill="url(#paint27_radial_492_173)"/>
<path d="M88.5599 31.8735C88.7469 31.7883 88.9335 31.9922 88.8323 32.1711C88.787 32.251 88.7984 32.3508 88.8605 32.4186C88.9991 32.5703 88.863 32.8108 88.6618 32.7697C88.5717 32.7513 88.48 32.7931 88.4347 32.8729C88.3334 33.0516 88.0625 32.9964 88.0395 32.7923C88.0291 32.7009 87.9612 32.6268 87.8712 32.6086C87.6699 32.5675 87.6386 32.2929 87.8255 32.2076C87.9092 32.1696 87.959 32.0819 87.9487 31.9908C87.9254 31.7868 88.1771 31.6722 88.3156 31.8237C88.3776 31.8915 88.4763 31.9115 88.5599 31.8735Z" fill="url(#paint28_radial_492_173)"/>
</g>
<mask id="mask7_492_173" style="mask-type:luminance" maskUnits="userSpaceOnUse" x="16" y="54" width="13" height="13">
<path d="M16.121 55.1166L16.8872 66.472L28.5196 65.6871L27.7534 54.3317L16.121 55.1166Z" fill="white"/>
</mask>
<g mask="url(#mask7_492_173)">
<path d="M17.3325 61.003C17.0718 60.9374 17.0474 60.5762 17.297 60.4763L18.6192 59.9457C18.7308 59.901 18.8009 59.7893 18.7928 59.6693L18.6969 58.248C18.6788 57.9797 19.0146 57.845 19.1869 58.0513L20.1 59.1448C20.1771 59.2372 20.3048 59.2694 20.4165 59.2247L21.7387 58.6941C21.9882 58.5939 22.2201 58.8718 22.0771 59.0994L21.3192 60.3058C21.2552 60.4076 21.2641 60.5391 21.3412 60.6315L22.2543 61.7251C22.4265 61.9313 22.2342 62.2379 21.9733 62.172L20.5919 61.8241C20.4752 61.7947 20.353 61.8439 20.289 61.9456L19.5311 63.152C19.388 63.3797 19.0371 63.2911 19.019 63.0228L18.9232 61.6015C18.9151 61.4815 18.8306 61.3803 18.714 61.3509L17.3325 61.003Z" fill="url(#paint29_radial_492_173)"/>
<path d="M23.3747 64.1442C23.1139 64.0785 23.0895 63.7173 23.3391 63.6174L23.8087 63.429C23.9202 63.3841 23.9903 63.2727 23.9822 63.1527L23.9482 62.6479C23.9301 62.3796 24.2659 62.2448 24.4383 62.4513L24.7625 62.8396C24.8396 62.932 24.9673 62.9642 25.0789 62.9192L25.5484 62.7309C25.798 62.6309 26.0299 62.9085 25.8869 63.1364L25.6178 63.5648C25.5537 63.6665 25.5625 63.7978 25.6397 63.8902L25.9639 64.2785C26.1363 64.485 25.9438 64.7913 25.683 64.7257L25.1925 64.6022C25.0759 64.5727 24.9535 64.6216 24.8896 64.7237L24.6205 65.152C24.4774 65.3797 24.1265 65.2911 24.1084 65.0229L24.0744 64.5183C24.0663 64.3983 23.9818 64.2971 23.8652 64.2676L23.3747 64.1442Z" fill="url(#paint30_radial_492_173)"/>
<path d="M24.6506 60.5091C24.3898 60.4434 24.3655 60.0826 24.615 59.9824L25.0845 59.794C25.1962 59.7493 25.2662 59.6376 25.2581 59.5176L25.224 59.0128C25.2059 58.7445 25.5417 58.6098 25.7141 58.8163L26.0383 59.2046C26.1155 59.297 26.2432 59.3292 26.3549 59.2845L26.8243 59.0961C27.0739 58.9959 27.3058 59.2737 27.1628 59.5014L26.8936 59.9297C26.8296 60.0315 26.8385 60.163 26.9156 60.2552L27.2399 60.6437C27.4122 60.8499 27.2196 61.1563 26.9589 61.0906L26.4684 60.9671C26.3517 60.9377 26.2295 60.9869 26.1655 61.0886L25.8963 61.517C25.7533 61.7446 25.4025 61.6564 25.3844 61.3881L25.3503 60.8833C25.3422 60.7633 25.2577 60.662 25.1412 60.6329L24.6506 60.5091Z" fill="url(#paint31_radial_492_173)"/>
<path d="M22.8981 57.0786C22.6374 57.0129 22.6129 56.6518 22.8626 56.5518L23.3321 56.3635C23.4437 56.3185 23.5138 56.2071 23.5057 56.0871L23.4716 55.5823C23.4535 55.314 23.7893 55.1793 23.9617 55.3858L24.2859 55.7741C24.363 55.8665 24.4908 55.8987 24.6023 55.8537L25.0718 55.6653C25.3215 55.5654 25.5533 55.8429 25.4102 56.0706L25.1411 56.499C25.0772 56.601 25.086 56.7323 25.1631 56.8246L25.4873 57.2129C25.6597 57.4194 25.4672 57.7258 25.2065 57.6601L24.7158 57.5364C24.5993 57.5072 24.477 57.5561 24.4131 57.6581L24.1439 58.0865C24.0009 58.3141 23.6499 58.2256 23.6318 57.9573L23.5979 57.4527C23.5898 57.3327 23.5053 57.2315 23.3886 57.2021L22.8981 57.0786Z" fill="url(#paint32_radial_492_173)"/>
</g>
<circle cx="60.0001" cy="60" r="21.0484" transform="rotate(174.899 60.0001 60)" fill="url(#paint33_linear_492_173)"/>
<circle cx="60.0004" cy="60" r="13.4854" transform="rotate(174.899 60.0004 60)" fill="#314655"/>
</g>
<path d="M64.5917 57.444L57.2456 53.2028C56.2475 52.6266 54.9998 53.3469 54.9998 54.4995L54.9998 66.2447C54.9998 67.3972 56.2475 68.1176 57.2456 67.5413L64.5917 63.3001C66.8457 61.9987 66.8457 58.7454 64.5917 57.444Z" fill="url(#paint34_linear_492_173)"/>
<path d="M57.2454 67.5412L64.5915 63.3001C66.0614 62.4514 66.5724 60.7727 66.1252 59.3465C65.8866 60.1072 65.3756 60.7963 64.5915 61.249L62.2518 62.5998L62.2518 57.3481C62.2518 57.1358 62.0796 56.9637 61.8674 56.9637L58.0982 56.9637L58.0982 55.105C58.0982 54.8945 57.9359 54.711 57.7256 54.7047C57.5079 54.6982 57.3294 54.8727 57.3294 55.0889L57.3294 61.0639L54.9996 61.0639L54.9996 61.8327L57.3294 61.8327L57.3294 64.4665C57.3294 65.2661 56.5598 65.8644 55.7958 65.6281C55.3592 65.493 54.9996 65.105 54.9996 64.1935L54.9996 66.2446C54.9996 67.3971 56.2473 68.1175 57.2454 67.5412ZM58.0982 57.7325L59.369 57.7325L59.369 59.3304C59.369 59.5408 59.5313 59.7244 59.7416 59.7307C59.9593 59.7372 60.1378 59.5627 60.1378 59.3465L60.1378 57.7325L61.483 57.7325L61.483 61.4767C61.483 62.4463 60.9657 63.3422 60.126 63.827L58.0982 64.9978L58.0982 57.7325Z" fill="url(#paint35_linear_492_173)"/>
</g>
<path d="M112.5 17C115.538 17 118 14.5376 118 11.5C118 8.46243 115.538 6 112.5 6C109.462 6 107 8.46243 107 11.5C107 14.5376 109.462 17 112.5 17Z" fill="url(#paint36_linear_492_173)"/>
<path d="M119 4C120.105 4 121 3.10457 121 2C121 0.895431 120.105 0 119 0C117.895 0 117 0.895431 117 2C117 3.10457 117.895 4 119 4Z" fill="url(#paint37_linear_492_173)"/>
<path d="M9 103C6.23858 103 4 105.239 4 108C4 110.761 6.23858 113 9 113C11.7614 113 14 110.761 14 108C14 105.239 11.7614 103 9 103Z" fill="url(#paint38_linear_492_173)"/>
<path d="M3 115C1.89543 115 1 115.895 1 117C1 118.105 1.89543 119 3 119C4.10457 119 5 118.105 5 117C5 115.895 4.10457 115 3 115Z" fill="url(#paint39_linear_492_173)"/>
<path d="M113.072 111.484C113.941 113.217 112.086 115.05 110.364 114.159L106.795 112.313C106.025 111.915 105.086 112.057 104.47 112.668L101.61 115.492C100.23 116.853 97.9124 115.656 98.2291 113.743L98.8811 109.777C99.0222 108.922 98.5961 108.072 97.826 107.674L94.2565 105.829C92.5345 104.937 92.9566 102.364 94.8748 102.073L98.8472 101.468C99.7051 101.337 100.38 100.671 100.521 99.8155L101.174 95.8489C101.489 93.9353 104.067 93.5438 104.937 95.2755L106.74 98.8673C107.128 99.6437 107.971 100.079 108.829 99.9481L112.802 99.3444C114.72 99.0518 115.889 101.384 114.51 102.747L111.652 105.57C111.035 106.18 110.88 107.117 111.27 107.893L113.072 111.484Z" fill="url(#paint40_linear_492_173)"/>
<defs>
<linearGradient id="paint0_linear_492_173" x1="18.5" y1="0" x2="18.5" y2="35" gradientUnits="userSpaceOnUse">
<stop stop-color="#F1AC44"/>
<stop offset="1" stop-color="#DA8500"/>
</linearGradient>
<linearGradient id="paint1_linear_492_173" x1="28.0673" y1="109.965" x2="69.0238" y2="7.43642" gradientUnits="userSpaceOnUse">
<stop stop-color="#497274"/>
<stop offset="1" stop-color="#395062"/>
</linearGradient>
<linearGradient id="paint2_linear_492_173" x1="40.5589" y1="109.965" x2="85.4742" y2="11.581" gradientUnits="userSpaceOnUse">
<stop stop-color="#476E72"/>
<stop offset="1" stop-color="#324858"/>
</linearGradient>
<linearGradient id="paint3_linear_492_173" x1="91.8252" y1="26.2109" x2="75.7854" y2="41.2122" gradientUnits="userSpaceOnUse">
<stop stop-color="#A55624"/>
<stop offset="1" stop-color="#E79F46"/>
</linearGradient>
<linearGradient id="paint4_linear_492_173" x1="106.72" y1="58.2841" x2="83.6805" y2="60.0441" gradientUnits="userSpaceOnUse">
<stop stop-color="#822722"/>
<stop offset="1" stop-color="#CF4C46"/>
</linearGradient>
<linearGradient id="paint5_linear_492_173" x1="93.4567" y1="92.689" x2="75.6119" y2="76.9668" gradientUnits="userSpaceOnUse">
<stop stop-color="#2E355E"/>
<stop offset="1" stop-color="#394782"/>
</linearGradient>
<linearGradient id="paint6_linear_492_173" x1="58.0411" y1="106.162" x2="59.9202" y2="82.953" gradientUnits="userSpaceOnUse">
<stop stop-color="#34475D"/>
<stop offset="1" stop-color="#487173"/>
</linearGradient>
<linearGradient id="paint7_linear_492_173" x1="41.1644" y1="73.9374" x2="25.8505" y2="90.8902" gradientUnits="userSpaceOnUse">
<stop stop-color="#5DA752"/>
<stop offset="1" stop-color="#467A3F"/>
</linearGradient>
<linearGradient id="paint8_linear_492_173" x1="36.9963" y1="58.754" x2="13.6056" y2="57.9789" gradientUnits="userSpaceOnUse">
<stop stop-color="#8C41B3"/>
<stop offset="1" stop-color="#4E326B"/>
</linearGradient>
<radialGradient id="paint9_radial_492_173" cx="0" cy="0" r="1" gradientUnits="userSpaceOnUse" gradientTransform="translate(34.6133 34.9069) rotate(40.3228) scale(2.29013 5.55182)">
<stop stop-color="#FCFF5B"/>
<stop offset="1" stop-color="#FCB922"/>
</radialGradient>
<radialGradient id="paint10_radial_492_173" cx="0" cy="0" r="1" gradientUnits="userSpaceOnUse" gradientTransform="translate(32.6376 33.2224) rotate(40.3228) scale(1.52675 4.44146)">
<stop stop-color="#FCFF5B"/>
<stop offset="1" stop-color="#FCB922"/>
</radialGradient>
<radialGradient id="paint11_radial_492_173" cx="0" cy="0" r="1" gradientUnits="userSpaceOnUse" gradientTransform="translate(31.2624 32.0548) rotate(40.3228) scale(0.832774 2.22073)">
<stop stop-color="#FCFF5B"/>
<stop offset="1" stop-color="#FCB922"/>
</radialGradient>
<linearGradient id="paint12_linear_492_173" x1="29.2195" y1="25.5133" x2="43.5008" y2="43.5982" gradientUnits="userSpaceOnUse">
<stop stop-color="#34485D"/>
<stop offset="1" stop-color="#477173"/>
</linearGradient>
<linearGradient id="paint13_linear_492_173" x1="62.9078" y1="14.1638" x2="59.9244" y2="37.1913" gradientUnits="userSpaceOnUse">
<stop stop-color="#A42B98"/>
<stop offset="1" stop-color="#EE57DF"/>
</linearGradient>
<radialGradient id="paint14_radial_492_173" cx="0" cy="0" r="1" gradientUnits="userSpaceOnUse" gradientTransform="translate(33.9532 86.4514) rotate(-49.6475) scale(2.22073 5.41303)">
<stop stop-color="#FCFF5B"/>
<stop offset="1" stop-color="#FCB922"/>
</radialGradient>
<radialGradient id="paint15_radial_492_173" cx="0" cy="0" r="1" gradientUnits="userSpaceOnUse" gradientTransform="translate(96.4451 59.4562) rotate(-178.568) scale(2.22073 5.41303)">
<stop stop-color="#FCFF5B"/>
<stop offset="1" stop-color="#FCB922"/>
</radialGradient>
<radialGradient id="paint16_radial_492_173" cx="0" cy="0" r="1" gradientUnits="userSpaceOnUse" gradientTransform="translate(60.7012 99.2061) rotate(-90.7086) scale(2.77591 2.77591)">
<stop stop-color="#FCFF5B"/>
<stop offset="1" stop-color="#FCB922"/>
</radialGradient>
<radialGradient id="paint17_radial_492_173" cx="0" cy="0" r="1" gradientUnits="userSpaceOnUse" gradientTransform="translate(60.6499 95.0425) rotate(-90.7086) scale(1.94314 4.71905)">
<stop stop-color="#FCFF5B"/>
<stop offset="1" stop-color="#FCB922"/>
</radialGradient>
<radialGradient id="paint18_radial_492_173" cx="0" cy="0" r="1" gradientUnits="userSpaceOnUse" gradientTransform="translate(59.3518 22.5435) rotate(86.9253) scale(2.29013 5.55183)">
<stop stop-color="#FCFF5B"/>
<stop offset="1" stop-color="#FCB922"/>
</radialGradient>
<radialGradient id="paint19_radial_492_173" cx="0" cy="0" r="1" gradientUnits="userSpaceOnUse" gradientTransform="translate(59.5264 25.8006) rotate(86.9253) scale(2.22073 3.60869)">
<stop stop-color="#FCFF5B"/>
<stop offset="1" stop-color="#FCB922"/>
</radialGradient>
<radialGradient id="paint20_radial_492_173" cx="0" cy="0" r="1" gradientUnits="userSpaceOnUse" gradientTransform="translate(59.1845 19.4251) rotate(86.9253) scale(2.22073 2.22073)">
<stop stop-color="#FCFF5B"/>
<stop offset="1" stop-color="#FCB922"/>
</radialGradient>
<radialGradient id="paint21_radial_492_173" cx="0" cy="0" r="1" gradientUnits="userSpaceOnUse" gradientTransform="translate(86.2675 86.4259) rotate(-134.654) scale(2.29013 5.55183)">
<stop stop-color="#FCFF5B"/>
<stop offset="1" stop-color="#FCB922"/>
</radialGradient>
<radialGradient id="paint22_radial_492_173" cx="0" cy="0" r="1" gradientUnits="userSpaceOnUse" gradientTransform="translate(83.9751 84.1055) rotate(-134.654) scale(2.22073 3.60869)">
<stop stop-color="#FCFF5B"/>
<stop offset="1" stop-color="#FCB922"/>
</radialGradient>
<radialGradient id="paint23_radial_492_173" cx="0" cy="0" r="1" gradientUnits="userSpaceOnUse" gradientTransform="translate(88.4622 88.6475) rotate(-134.654) scale(2.22073 2.22073)">
<stop stop-color="#FCFF5B"/>
<stop offset="1" stop-color="#FCB922"/>
</radialGradient>
<radialGradient id="paint24_radial_492_173" cx="0" cy="0" r="1" gradientUnits="userSpaceOnUse" gradientTransform="translate(86.0835 33.285) rotate(137.527) scale(2.29013 5.55182)">
<stop stop-color="#FCFF5B"/>
<stop offset="1" stop-color="#FCB922"/>
</radialGradient>
<radialGradient id="paint25_radial_492_173" cx="0" cy="0" r="1" gradientUnits="userSpaceOnUse" gradientTransform="translate(83.6774 35.4873) rotate(137.527) scale(2.22073 3.60869)">
<stop stop-color="#FCFF5B"/>
<stop offset="1" stop-color="#FCB922"/>
</radialGradient>
<radialGradient id="paint26_radial_492_173" cx="0" cy="0" r="1" gradientUnits="userSpaceOnUse" gradientTransform="translate(89.2059 30.4266) rotate(137.527) scale(1.66555)">
<stop stop-color="#FCFF5B"/>
<stop offset="1" stop-color="#FCB922"/>
</radialGradient>
<radialGradient id="paint27_radial_492_173" cx="0" cy="0" r="1" gradientUnits="userSpaceOnUse" gradientTransform="translate(87.2101 31.1244) rotate(137.527) scale(1.11037)">
<stop stop-color="#FCFF5B"/>
<stop offset="1" stop-color="#FCB922"/>
</radialGradient>
<radialGradient id="paint28_radial_492_173" cx="0" cy="0" r="1" gradientUnits="userSpaceOnUse" gradientTransform="translate(88.3348 32.3529) rotate(137.527) scale(1.11036)">
<stop stop-color="#FCFF5B"/>
<stop offset="1" stop-color="#FCB922"/>
</radialGradient>
<radialGradient id="paint29_radial_492_173" cx="0" cy="0" r="1" gradientUnits="userSpaceOnUse" gradientTransform="translate(19.9107 60.5644) rotate(-3.86017) scale(3.41437)">
<stop stop-color="#FCFF5B"/>
<stop offset="1" stop-color="#FCB922"/>
</radialGradient>
<radialGradient id="paint30_radial_492_173" cx="0" cy="0" r="1" gradientUnits="userSpaceOnUse" gradientTransform="translate(24.6911 63.7907) rotate(-3.86017) scale(2.14979)">
<stop stop-color="#FCFF5B"/>
<stop offset="1" stop-color="#FCB922"/>
</radialGradient>
<radialGradient id="paint31_radial_492_173" cx="0" cy="0" r="1" gradientUnits="userSpaceOnUse" gradientTransform="translate(25.967 60.1556) rotate(-3.86017) scale(2.14979)">
<stop stop-color="#FCFF5B"/>
<stop offset="1" stop-color="#FCB922"/>
</radialGradient>
<radialGradient id="paint32_radial_492_173" cx="0" cy="0" r="1" gradientUnits="userSpaceOnUse" gradientTransform="translate(24.2146 56.7251) rotate(-3.86017) scale(2.14979)">
<stop stop-color="#FCFF5B"/>
<stop offset="1" stop-color="#FCB922"/>
</radialGradient>
<linearGradient id="paint33_linear_492_173" x1="48.7979" y1="77.8788" x2="63.1657" y2="41.9112" gradientUnits="userSpaceOnUse">
<stop stop-color="#527F82"/>
<stop offset="1" stop-color="#2F4353"/>
</linearGradient>
<linearGradient id="paint34_linear_492_173" x1="60.641" y1="53.6529" x2="60.641" y2="69.0039" gradientUnits="userSpaceOnUse">
<stop stop-color="#D8ECFE"/>
<stop offset="0.5667" stop-color="#B3DAFE"/>
<stop offset="0.9955" stop-color="#8AC9FE"/>
</linearGradient>
<linearGradient id="paint35_linear_492_173" x1="60.6407" y1="46.9953" x2="60.6407" y2="63.4919" gradientUnits="userSpaceOnUse">
<stop stop-color="#D8ECFE"/>
<stop offset="0.5667" stop-color="#B3DAFE"/>
<stop offset="0.9955" stop-color="#8AC9FE"/>
</linearGradient>
<linearGradient id="paint36_linear_492_173" x1="109.573" y1="16.1718" x2="113.327" y2="6.77334" gradientUnits="userSpaceOnUse">
<stop stop-color="#497274"/>
<stop offset="1" stop-color="#395062"/>
</linearGradient>
<linearGradient id="paint37_linear_492_173" x1="117.936" y1="3.69883" x2="119.301" y2="0.281214" gradientUnits="userSpaceOnUse">
<stop stop-color="#497274"/>
<stop offset="1" stop-color="#395062"/>
</linearGradient>
<linearGradient id="paint38_linear_492_173" x1="11.6611" y1="103.753" x2="8.24801" y2="112.297" gradientUnits="userSpaceOnUse">
<stop stop-color="#497274"/>
<stop offset="1" stop-color="#395062"/>
</linearGradient>
<linearGradient id="paint39_linear_492_173" x1="4.06442" y1="115.301" x2="2.69921" y2="118.719" gradientUnits="userSpaceOnUse">
<stop stop-color="#497274"/>
<stop offset="1" stop-color="#395062"/>
</linearGradient>
<linearGradient id="paint40_linear_492_173" x1="101.229" y1="94.7433" x2="108.799" y2="115.429" gradientUnits="userSpaceOnUse">
<stop stop-color="#F1AC44"/>
<stop offset="1" stop-color="#DA8500"/>
</linearGradient>
<clipPath id="clip0_492_173">
<rect width="120" height="120" rx="60" fill="white"/>
</clipPath>
<clipPath id="clip1_492_173">
<rect width="126" height="126" fill="white" transform="translate(0 -1)"/>
</clipPath>
<clipPath id="clip2_492_173">
<rect width="93.5482" height="93.5482" fill="white" transform="translate(0 32.1498) rotate(-20.1007)"/>
</clipPath>
</defs>
</svg>
