<svg xmlns="http://www.w3.org/2000/svg" width="30" height="22" viewBox="0 0 30 22" fill="none">
  <path d="M17.4436 0.0676955C16.1237 0.253045 15.1565 0.610504 12.9999 1.6961C11.706 2.34482 10.1245 3.0465 9.47101 3.2451C8.39925 3.56282 8.09864 3.60255 6.13813 3.60255C4.0992 3.61578 3.92931 3.5893 3.10588 3.25832C2.6223 3.05975 2.008 2.75523 1.73353 2.55665L1.23687 2.22568L1.18459 2.51694C1.11924 2.98031 1.41985 4.1983 1.78581 4.92646C2.24327 5.83997 3.38036 7.01822 4.29526 7.50809C6.30806 8.59371 8.39925 8.56724 10.4251 7.45514C10.8695 7.20357 11.2355 7.04473 11.2355 7.11091C11.2355 7.33597 10.1768 8.59371 9.68012 8.95114C9.40563 9.14973 8.94821 9.42777 8.6476 9.56017C8.20319 9.77196 8.08556 9.89113 8.02022 10.2751C7.9418 10.6987 8.02022 12.0359 8.17706 13.0817L8.25549 13.5584L7.27523 14.0482C5.82444 14.7896 4.39981 15.1074 2.92291 15.0412C1.8773 15.0014 1.60283 14.9352 0.805556 14.5248C-0.0832059 14.0879 -0.109346 14.0747 0.125915 14.4057C0.570297 15.0412 2.03414 16.365 2.93597 16.9476C4.16458 17.7552 5.34086 18.2053 6.88312 18.4701C8.02022 18.6687 8.47768 18.6687 10.9741 18.5362C14.0847 18.351 14.9996 18.4304 16.176 18.9731C16.5419 19.1454 16.8555 19.3174 16.8555 19.3572C16.8555 19.3836 16.4112 19.4233 15.8623 19.4233C14.8689 19.4233 12.8039 19.8868 12.8039 20.1118C12.8039 20.3236 15.2218 21.4225 16.3328 21.7137C17.8358 22.0976 20.0055 22.0976 21.4955 21.7005C25.9132 20.5222 29.0761 16.908 29.6773 12.3669C29.8079 11.2945 29.7819 10.1824 29.5727 8.80554L29.4944 8.31567H23.3776L17.2477 11.0206V11.0297V11.0388L23.6651 13.7437L23.4299 14.1541C23.0638 14.7896 22.1098 15.5972 21.1686 16.0473C20.3714 16.4313 20.2145 16.4577 18.8814 16.4577C17.5875 16.4577 17.3653 16.418 16.6856 16.1002C15.7054 15.6369 15.0258 15.0809 14.4638 14.2998C12.8823 12.0888 13.0522 9.1762 14.8951 7.20357C16.5942 5.37658 19.3127 4.89999 21.417 6.06503L22.1227 6.46221H25.4557C29.2199 6.46221 28.9454 6.58134 28.1873 5.29716C26.2791 2.0668 22.5279 -0.0646972 18.8814 0.00149919C18.3063 0.00149919 17.6659 0.0412166 17.4436 0.0676955Z" fill="#F1AC44"/>
</svg>