<svg width="17" height="20" viewBox="0 0 17 20" fill="none" xmlns="http://www.w3.org/2000/svg">
<path d="M6.93698 20C10.5178 20 13.4206 17.0972 13.4206 13.5164C13.4206 9.93563 10.5178 7.03284 6.93698 7.03284C3.3562 7.03284 0.4534 9.93563 0.4534 13.5164C0.4534 17.0972 3.3562 20 6.93698 20Z" fill="url(#paint0_radial_492_481)"/>
<path d="M11.9281 8.58896L8.80872 6.78799L8.2695 7.72188L8.26841 7.72378C8.06944 8.06835 8.60648 8.75085 9.46792 9.24815C10.3293 9.7455 11.1889 9.86937 11.3878 9.52479L11.9281 8.58896Z" fill="url(#paint1_linear_492_481)"/>
<path d="M11.9281 8.58905C12.127 8.24447 11.59 7.56202 10.7286 7.06467C9.86718 6.56732 9.00764 6.4435 8.80868 6.78808C8.60975 7.13261 9.14679 7.81511 10.0082 8.31246C10.8696 8.80976 11.7292 8.93362 11.9281 8.58905Z" fill="url(#paint2_linear_492_481)"/>
<path d="M11.8099 4.47121C11.8225 4.4494 11.8432 4.43349 11.8676 4.42697C11.8919 4.42045 11.9178 4.42387 11.9396 4.43646L12.399 4.7017C12.4208 4.71429 12.4368 4.73503 12.4433 4.75935C12.4498 4.78368 12.4464 4.80959 12.4338 4.8314L10.7277 7.78635C10.7215 7.79715 10.7132 7.80662 10.7033 7.81421C10.6934 7.82181 10.6821 7.82738 10.6701 7.8306C10.658 7.83383 10.6455 7.83465 10.6331 7.83302C10.6207 7.83139 10.6088 7.82734 10.598 7.8211L10.1386 7.55586C10.1168 7.54326 10.1009 7.52253 10.0944 7.4982C10.0878 7.47388 10.0913 7.44796 10.1038 7.42615L11.8099 4.47121Z" fill="url(#paint3_linear_492_481)"/>
<path d="M13.5665 5.36999L14.4617 5.31192C14.7731 5.29172 14.9464 4.94264 14.7743 4.68242L14.2887 3.94796C14.2083 3.82637 14.1992 3.67103 14.2649 3.54089L14.5929 2.89046C14.7345 2.60987 14.5175 2.28172 14.2039 2.30204L13.4769 2.34918C13.3314 2.35859 13.1921 2.28942 13.1117 2.16784L12.6261 1.43338C12.454 1.17311 12.065 1.19592 11.9245 1.47451L11.5205 2.27547C11.4556 2.40397 11.3277 2.48861 11.184 2.49794L10.2888 2.55601C9.97743 2.5762 9.80412 2.92529 9.97618 3.1855L10.4618 3.91996C10.5422 4.04155 10.5513 4.19688 10.4856 4.32698L10.1575 4.97741C10.016 5.258 10.233 5.58614 10.5466 5.56582L11.2735 5.51869C11.419 5.50927 11.5584 5.57844 11.6388 5.70003L12.1244 6.43449C12.2965 6.69476 12.6855 6.67195 12.826 6.39336L13.23 5.5924C13.2949 5.46394 13.4229 5.37932 13.5665 5.36999Z" fill="url(#paint4_linear_492_481)"/>
<path d="M11.215 4.13177L10.9643 4.63917C10.8771 4.8156 11.0131 5.02043 11.2096 5.00854L11.764 4.97494C11.8558 4.96937 11.9435 5.01342 11.9939 5.09034L12.2457 5.47476C12.3543 5.6406 12.602 5.6256 12.6899 5.44787L12.8934 5.03586C12.9341 4.95341 13.0159 4.89913 13.1077 4.89356L13.6622 4.85998C13.8586 4.84808 13.9689 4.62831 13.8611 4.46366L13.551 3.99027C13.5012 3.91431 13.4954 3.81771 13.5356 3.7363L13.7863 3.2289C13.8735 3.05246 13.7374 2.84763 13.541 2.85953L12.9865 2.89311C12.8947 2.89869 12.807 2.85464 12.7566 2.77771L12.5048 2.3933C12.3962 2.22746 12.1484 2.24246 12.0606 2.42019L11.8571 2.8322C11.8163 2.91464 11.7346 2.96892 11.6428 2.97449L11.0883 3.00808C10.8919 3.01997 10.7816 3.23974 10.8894 3.40435L11.1995 3.87774C11.2493 3.95376 11.2552 4.05035 11.215 4.13177Z" fill="url(#paint5_linear_492_481)"/>
<path d="M11.4694 4.68552L11.506 5.25029C11.5187 5.44672 11.7389 5.55603 11.9031 5.4475L12.3665 5.14116C12.4432 5.09045 12.5411 5.08472 12.6233 5.1261L13.0336 5.33305C13.2106 5.42234 13.4176 5.28547 13.4048 5.08761L13.3751 4.62899C13.3691 4.53723 13.4128 4.44932 13.4895 4.3986L13.9528 4.09226C14.117 3.98369 14.1026 3.73829 13.9269 3.6496L13.4216 3.39473C13.3405 3.35385 13.2871 3.27309 13.2812 3.18246L13.2446 2.61769C13.2319 2.42126 13.0117 2.3119 12.8475 2.42048L12.3841 2.72682C12.3074 2.77753 12.2094 2.78326 12.1273 2.74188L11.717 2.53492C11.54 2.44564 11.333 2.5825 11.3458 2.78037L11.3755 3.23899C11.3815 3.33075 11.3378 3.41866 11.2611 3.46937L10.7978 3.77572C10.6336 3.88425 10.648 4.12969 10.8237 4.21837L11.329 4.47325C11.4101 4.51417 11.4635 4.59489 11.4694 4.68552Z" fill="url(#paint6_linear_492_481)"/>
<path d="M12.8769 4.53868L13.2539 4.51424C13.385 4.50572 13.458 4.35875 13.3855 4.24916L13.181 3.93987C13.1472 3.88865 13.1433 3.82327 13.171 3.76847L13.3092 3.4946C13.3688 3.37644 13.2774 3.23826 13.1453 3.24683L12.8392 3.26668C12.778 3.27064 12.7193 3.24153 12.6855 3.19031L12.481 2.88102C12.4085 2.77143 12.2446 2.78101 12.1855 2.89833L12.0154 3.23563C11.9881 3.28976 11.9342 3.32539 11.8737 3.32931L11.4967 3.35374C11.3656 3.36226 11.2926 3.50923 11.3651 3.61882L11.5696 3.92811C11.6034 3.97933 11.6073 4.04471 11.5796 4.09951L11.4415 4.37339C11.3819 4.49155 11.4733 4.62973 11.6053 4.62116L11.9114 4.60132C11.9727 4.59735 12.0314 4.62646 12.0652 4.67768L12.2697 4.98697C12.3422 5.09656 12.506 5.08698 12.5652 4.96966L12.7353 4.63237C12.7625 4.57823 12.8164 4.5426 12.8769 4.53868Z" fill="url(#paint7_linear_492_481)"/>
<path d="M13.3283 5.08288L14.0446 5.03644C14.2937 5.0203 14.4324 4.74104 14.2947 4.53279L13.9061 3.94517C13.8418 3.84786 13.8345 3.72361 13.887 3.61948L14.1495 3.09911C14.2628 2.8746 14.0892 2.61207 13.8383 2.62838L13.2567 2.66613C13.1403 2.67369 13.0288 2.61829 12.9645 2.52103L12.576 1.93341C12.4383 1.7252 12.127 1.74341 12.0146 1.96632L11.6914 2.60712C11.6395 2.70996 11.5371 2.77766 11.4222 2.78509L10.706 2.83152C10.4569 2.84766 10.3182 3.12697 10.4559 3.33517L10.8444 3.92279C10.9088 4.02005 10.9161 4.14435 10.8635 4.24848L10.601 4.76885C10.4878 4.99336 10.6614 5.25589 10.9123 5.23958L11.4939 5.20183C11.6103 5.19427 11.7217 5.24967 11.7861 5.34693L12.1746 5.93455C12.3123 6.14275 12.6235 6.12454 12.736 5.90169L13.0592 5.26085C13.111 5.15804 13.2134 5.09033 13.3283 5.08288Z" fill="url(#paint8_linear_492_481)"/>
<path d="M9.07219 2.55878C9.01893 2.81991 8.76409 2.98841 8.50296 2.93515C8.24183 2.88189 8.07334 2.62705 8.12659 2.36592C8.17985 2.1048 8.43469 1.9363 8.69582 1.98956C8.95691 2.04276 9.12545 2.29765 9.07219 2.55878Z" fill="url(#paint9_linear_492_481)"/>
<path d="M13.5521 7.79385C13.8132 7.84711 14.068 7.6786 14.1213 7.41748C14.1745 7.15637 14.006 6.90152 13.7449 6.84826C13.4838 6.795 13.229 6.96351 13.1757 7.22463C13.1224 7.48575 13.2909 7.7406 13.5521 7.79385Z" fill="url(#paint10_linear_492_481)"/>
<path d="M9.70238 1.7395C9.67576 1.87007 9.54834 1.95432 9.41777 1.92769C9.28721 1.90106 9.20296 1.77364 9.22959 1.64308C9.25622 1.51251 9.38364 1.42826 9.5142 1.45489C9.64472 1.48151 9.72901 1.60894 9.70238 1.7395Z" fill="url(#paint11_linear_492_481)"/>
<path d="M13.8833 6.0166C13.8567 6.14717 13.7292 6.23142 13.5987 6.20479C13.4681 6.17816 13.3839 6.05074 13.4105 5.92018C13.4371 5.78961 13.5645 5.70536 13.6951 5.73199C13.8257 5.75862 13.9099 5.88604 13.8833 6.0166Z" fill="url(#paint12_linear_492_481)"/>
<path d="M15.3506 3.66124C15.4811 3.68787 15.6086 3.60361 15.6352 3.47305C15.6618 3.3425 15.5776 3.21507 15.447 3.18844C15.3164 3.16181 15.189 3.24607 15.1624 3.37663C15.1358 3.50719 15.22 3.63461 15.3506 3.66124Z" fill="url(#paint13_linear_492_481)"/>
<path d="M14.0088 1.34751C13.9822 1.47807 13.8548 1.56232 13.7242 1.53569C13.5937 1.50906 13.5094 1.38164 13.536 1.25108C13.5627 1.12051 13.6901 1.03626 13.8207 1.06289C13.9512 1.08952 14.0355 1.21694 14.0088 1.34751Z" fill="url(#paint14_linear_492_481)"/>
<path d="M8.11353 12.4271C7.89663 12.3394 7.71832 12.3086 7.29549 12.2838C7.04203 12.2685 6.74022 12.2361 6.6235 12.2088C6.43277 12.1629 6.38359 12.1425 6.08554 11.9704C5.77441 11.7935 5.75089 11.7745 5.65466 11.6521C5.59852 11.5796 5.53176 11.4795 5.50741 11.4253L5.46086 11.3316L5.42743 11.3711C5.37696 11.4356 5.31611 11.6465 5.30805 11.789C5.29768 11.9676 5.36747 12.2459 5.46371 12.4004C5.67475 12.7416 5.99498 12.9211 6.40026 12.9304C6.48982 12.9313 6.55935 12.9394 6.55356 12.9494C6.53387 12.9835 6.2629 13.0811 6.15612 13.0917C6.09703 13.0977 6.00316 13.0997 5.94588 13.0934C5.85979 13.0865 5.83148 13.0942 5.78796 13.1466C5.73898 13.2039 5.63392 13.4134 5.56627 13.5857L5.5365 13.6648L5.34463 13.6529C5.05921 13.6379 4.81483 13.561 4.59609 13.4214C4.4406 13.3236 4.40467 13.2894 4.31936 13.1573C4.22246 13.0131 4.21965 13.0088 4.22646 13.0796C4.23843 13.2149 4.34516 13.544 4.4313 13.7114C4.54743 13.9416 4.68689 14.113 4.89819 14.2885C5.05369 14.4184 5.12323 14.4586 5.51434 14.6576C6.00346 14.9026 6.1356 14.9949 6.26695 15.1804C6.30753 15.2386 6.34016 15.2922 6.33669 15.2982C6.33437 15.3022 6.26334 15.2693 6.17988 15.2211C6.02887 15.1339 5.67439 15.0228 5.6547 15.0569C5.63617 15.089 5.90764 15.4678 6.05105 15.6094C6.24597 15.7995 6.57582 15.9899 6.83708 16.0605C7.61177 16.2698 8.4088 15.9998 8.89745 15.3645C9.01113 15.2135 9.10444 15.0427 9.1931 14.8157L9.22403 14.7346L8.29411 14.1977L7.12557 14.0695L7.12477 14.0709L7.12398 14.0723L7.86298 15.0454L7.79131 15.0869C7.68008 15.1511 7.46438 15.1897 7.28194 15.1753C7.12714 15.1635 7.10098 15.1538 6.89831 15.0367C6.70159 14.9232 6.67129 14.8976 6.59576 14.7898C6.48727 14.6336 6.43259 14.4897 6.41548 14.322C6.36846 13.8482 6.64909 13.4218 7.10182 13.2847C7.51996 13.157 7.97495 13.3234 8.19294 13.6846L8.26549 13.8067L8.77218 14.0993C9.34444 14.4297 9.29229 14.4236 9.28939 14.1625C9.28187 13.5056 8.89806 12.8533 8.33789 12.5433C8.25046 12.4928 8.14963 12.4426 8.11353 12.4271Z" fill="url(#paint15_linear_492_481)"/>
<defs>
<radialGradient id="paint0_radial_492_481" cx="0" cy="0" r="1" gradientUnits="userSpaceOnUse" gradientTransform="translate(6.93698 10.6348) rotate(110.171) scale(9.40145 6.71882)">
<stop stop-color="#FC5751"/>
<stop offset="1" stop-color="#7E2622"/>
</radialGradient>
<linearGradient id="paint1_linear_492_481" x1="8.26841" y1="7.42478" x2="11.6903" y2="9.40587" gradientUnits="userSpaceOnUse">
<stop stop-color="#98312C"/>
<stop offset="0.263" stop-color="#F85A55"/>
<stop offset="1" stop-color="#902D29"/>
</linearGradient>
<linearGradient id="paint2_linear_492_481" x1="9.70918" y1="8.32537" x2="10.7898" y2="7.06467" gradientUnits="userSpaceOnUse">
<stop stop-color="#F3544E"/>
<stop offset="1" stop-color="#7F2723"/>
</linearGradient>
<linearGradient id="paint3_linear_492_481" x1="12.1693" y1="4.56906" x2="10.3683" y2="7.6885" gradientUnits="userSpaceOnUse">
<stop stop-color="#EC1422"/>
<stop offset="1" stop-color="#2E2E2E"/>
</linearGradient>
<linearGradient id="paint4_linear_492_481" x1="12.6939" y1="2.33806" x2="11.8764" y2="6.34674" gradientUnits="userSpaceOnUse">
<stop stop-color="#FFD945"/>
<stop offset="0.3043" stop-color="#FFCD3E"/>
<stop offset="0.8558" stop-color="#FFAD2B"/>
<stop offset="1" stop-color="#FFA325"/>
</linearGradient>
<linearGradient id="paint5_linear_492_481" x1="11.7872" y1="3.04465" x2="13.3161" y2="5.35693" gradientUnits="userSpaceOnUse">
<stop stop-color="#FF7044" stop-opacity="0"/>
<stop offset="1" stop-color="#FFA325"/>
</linearGradient>
<linearGradient id="paint6_linear_492_481" x1="13.7402" y1="4.83329" x2="9.74879" y2="2.19784" gradientUnits="userSpaceOnUse">
<stop stop-color="#FF7044" stop-opacity="0"/>
<stop offset="1" stop-color="#FFA325"/>
</linearGradient>
<linearGradient id="paint7_linear_492_481" x1="12.5062" y1="3.25869" x2="12.1619" y2="4.94678" gradientUnits="userSpaceOnUse">
<stop stop-color="#FF7044"/>
<stop offset="1" stop-color="#F82814"/>
</linearGradient>
<linearGradient id="paint8_linear_492_481" x1="12.63" y1="4.26557" x2="10.0724" y2="0.936985" gradientUnits="userSpaceOnUse">
<stop stop-color="white" stop-opacity="0"/>
<stop offset="1" stop-color="white"/>
</linearGradient>
<linearGradient id="paint9_linear_492_481" x1="8.4898" y1="2.29661" x2="8.92429" y2="2.95379" gradientUnits="userSpaceOnUse">
<stop stop-color="#FFD945"/>
<stop offset="0.3043" stop-color="#FFCD3E"/>
<stop offset="0.8558" stop-color="#FFAD2B"/>
<stop offset="1" stop-color="#FFA325"/>
</linearGradient>
<linearGradient id="paint10_linear_492_481" x1="13.5389" y1="7.15537" x2="13.9734" y2="7.81251" gradientUnits="userSpaceOnUse">
<stop stop-color="#FFD945"/>
<stop offset="0.3043" stop-color="#FFCD3E"/>
<stop offset="0.8558" stop-color="#FFAD2B"/>
<stop offset="1" stop-color="#FFA325"/>
</linearGradient>
<linearGradient id="paint11_linear_492_481" x1="9.41119" y1="1.60842" x2="9.62841" y2="1.937" gradientUnits="userSpaceOnUse">
<stop stop-color="#FFD945"/>
<stop offset="0.3043" stop-color="#FFCD3E"/>
<stop offset="0.8558" stop-color="#FFAD2B"/>
<stop offset="1" stop-color="#FFA325"/>
</linearGradient>
<linearGradient id="paint12_linear_492_481" x1="13.5921" y1="5.88552" x2="13.8094" y2="6.21411" gradientUnits="userSpaceOnUse">
<stop stop-color="#FFD945"/>
<stop offset="0.3043" stop-color="#FFCD3E"/>
<stop offset="0.8558" stop-color="#FFAD2B"/>
<stop offset="1" stop-color="#FFA325"/>
</linearGradient>
<linearGradient id="paint13_linear_492_481" x1="15.344" y1="3.34202" x2="15.5613" y2="3.67057" gradientUnits="userSpaceOnUse">
<stop stop-color="#FFD945"/>
<stop offset="0.3043" stop-color="#FFCD3E"/>
<stop offset="0.8558" stop-color="#FFAD2B"/>
<stop offset="1" stop-color="#FFA325"/>
</linearGradient>
<linearGradient id="paint14_linear_492_481" x1="13.7176" y1="1.21647" x2="13.9349" y2="1.54502" gradientUnits="userSpaceOnUse">
<stop stop-color="#FFD945"/>
<stop offset="0.3043" stop-color="#FFCD3E"/>
<stop offset="0.8558" stop-color="#FFAD2B"/>
<stop offset="1" stop-color="#FFA325"/>
</linearGradient>
<linearGradient id="paint15_linear_492_481" x1="5.78124" y1="15.8682" x2="6.27547" y2="11.6056" gradientUnits="userSpaceOnUse">
<stop stop-color="#BF534F"/>
<stop offset="1" stop-color="#F8736E"/>
</linearGradient>
</defs>
</svg>
