<svg aria-hidden="true" style="position: absolute; width: 0; height: 0; overflow: hidden;" version="1.1" xmlns="http://www.w3.org/2000/svg" xmlns:xlink="http://www.w3.org/1999/xlink">
    <defs>

<symbol viewBox="0 0 24 24" id="keno">
<path d="M8.493 3.25H5.757A2.507 2.507 0 0 0 3.25 5.757v2.736A2.507 2.507 0 0 0 5.757 11h2.736A2.507 2.507 0 0 0 11 8.493V5.757A2.507 2.507 0 0 0 8.493 3.25ZM8.493 13H5.757a2.507 2.507 0 0 0-2.507 2.507v2.736a2.507 2.507 0 0 0 2.507 2.507h2.736A2.507 2.507 0 0 0 11 18.243v-2.736A2.507 2.507 0 0 0 8.493 13ZM18.243 13h-2.736A2.507 2.507 0 0 0 13 15.507v2.736a2.507 2.507 0 0 0 2.507 2.507h2.736a2.507 2.507 0 0 0 2.507-2.507v-2.736A2.507 2.507 0 0 0 18.243 13ZM18.243 3.25h-2.736A2.507 2.507 0 0 0 13 5.757v2.736A2.507 2.507 0 0 0 15.507 11h2.736a2.507 2.507 0 0 0 2.507-2.507V5.757a2.507 2.507 0 0 0-2.507-2.507Z"/>
</symbol>

        </defs>
    </svg>
