<svg width="121" height="121" viewBox="0 0 121 121" fill="none" xmlns="http://www.w3.org/2000/svg">
<g clip-path="url(#clip0_460_50947)">
<mask id="mask0_460_50947" style="mask-type:luminance" maskUnits="userSpaceOnUse" x="0" y="0" width="37" height="37">
<path d="M-1.22916e-06 8.88L-3.88157e-07 28.12C-1.73784e-07 33.0243 3.97571 37 8.88 37L28.12 37C33.0243 37 37 33.0243 37 28.12L37 8.88C37 3.97571 33.0243 -1.44354e-06 28.12 -1.22916e-06L8.88 -3.88157e-07C3.97571 -1.73784e-07 -1.44354e-06 3.97571 -1.22916e-06 8.88Z" fill="white"/>
</mask>
<g mask="url(#mask0_460_50947)">
<path d="M-1.29386e-06 7.4L-3.23464e-07 29.6C-1.4482e-07 33.6869 3.31309 37 7.4 37L29.6 37C33.6869 37 37 33.6869 37 29.6L37 7.4C37 3.31309 33.6869 -1.4725e-06 29.6 -1.29386e-06L7.4 -3.23464e-07C3.31309 -1.4482e-07 -1.4725e-06 3.31309 -1.29386e-06 7.4Z" fill="url(#paint0_linear_460_50947)"/>
<path d="M13.6899 26.455C13.6899 24.7181 12.2818 23.31 10.5449 23.31C8.80797 23.31 7.3999 24.7181 7.3999 26.455C7.3999 28.1919 8.80797 29.6 10.5449 29.6C12.2818 29.6 13.6899 28.1919 13.6899 26.455Z" fill="url(#paint1_linear_460_50947)"/>
<path d="M13.3199 26.64C13.3199 25.0052 11.9947 23.68 10.3599 23.68C8.72513 23.68 7.3999 25.0052 7.3999 26.64C7.3999 28.2748 8.72513 29.6 10.3599 29.6C11.9947 29.6 13.3199 28.2748 13.3199 26.64Z" fill="url(#paint2_linear_460_50947)"/>
<path d="M13.6899 10.175C13.6899 8.43807 12.2818 7.03 10.5449 7.03C8.80797 7.03 7.3999 8.43807 7.3999 10.175C7.3999 11.9119 8.80797 13.32 10.5449 13.32C12.2818 13.32 13.6899 11.9119 13.6899 10.175Z" fill="url(#paint3_linear_460_50947)"/>
<path d="M13.3199 10.36C13.3199 8.72523 11.9947 7.4 10.3599 7.4C8.72513 7.4 7.3999 8.72523 7.3999 10.36C7.3999 11.9948 8.72513 13.32 10.3599 13.32C11.9947 13.32 13.3199 11.9948 13.3199 10.36Z" fill="url(#paint4_linear_460_50947)"/>
<path d="M29.9699 26.455C29.9699 24.7181 28.5619 23.31 26.8249 23.31C25.088 23.31 23.6799 24.7181 23.6799 26.455C23.6799 28.1919 25.088 29.6 26.8249 29.6C28.5619 29.6 29.9699 28.1919 29.9699 26.455Z" fill="url(#paint5_linear_460_50947)"/>
<path d="M29.5999 26.64C29.5999 25.0052 28.2747 23.68 26.6399 23.68C25.0052 23.68 23.6799 25.0052 23.6799 26.64C23.6799 28.2748 25.0052 29.6 26.6399 29.6C28.2747 29.6 29.5999 28.2748 29.5999 26.64Z" fill="url(#paint6_linear_460_50947)"/>
</g>
</g>
<path d="M111.5 18C114.538 18 117 15.5376 117 12.5C117 9.46244 114.538 7 111.5 7C108.462 7 106 9.46244 106 12.5C106 15.5376 108.462 18 111.5 18Z" fill="url(#paint7_linear_460_50947)"/>
<path d="M118 5C119.105 5 120 4.10457 120 3C120 1.89543 119.105 1 118 1C116.895 1 116 1.89543 116 3C116 4.10457 116.895 5 118 5Z" fill="url(#paint8_linear_460_50947)"/>
<path d="M8 104C5.23858 104 3 106.239 3 109C3 111.761 5.23858 114 8 114C10.7614 114 13 111.761 13 109C13 106.239 10.7614 104 8 104Z" fill="url(#paint9_linear_460_50947)"/>
<path d="M2 116C0.89543 116 -2.7141e-07 116.895 -1.74846e-07 118C-7.8281e-08 119.105 0.89543 120 2 120C3.10457 120 4 119.105 4 118C4 116.895 3.10457 116 2 116Z" fill="url(#paint10_linear_460_50947)"/>
<g clip-path="url(#clip1_460_50947)">
<path d="M60 120C93.1371 120 120 93.1371 120 60C120 26.8629 93.1371 1.66893e-06 60 1.66893e-06C26.8629 1.66893e-06 0 26.8629 0 60C0 93.1371 26.8629 120 60 120Z" fill="url(#paint11_linear_460_50947)"/>
<path d="M60.7712 1.66893e-06C58.914 1.66893e-06 57.0788 0.0877124 55.2656 0.252171C63.3686 0.846963 66.0182 11.2764 59.3405 15.7579C55.1501 18.5674 50.657 21.2535 45.9245 23.7725C42.8567 25.4061 41.6075 29.2545 43.1621 32.3518C44.2049 34.4294 46.2877 35.619 48.4558 35.619C49.3941 35.619 50.3516 35.3942 51.243 34.9228C57.1008 31.8255 62.6395 28.476 67.7626 24.9484C70.7314 22.9009 74.7815 23.46 77.1065 26.2092C78.2235 27.5276 78.7628 29.1284 78.7628 30.7154C78.7628 32.889 77.7531 35.0407 75.8271 36.4166C73.2682 38.2421 70.5828 40.0238 67.7846 41.7478C65.3001 43.2773 64.117 46.3088 65.0827 49.0525C66.4309 52.8789 70.8882 54.3289 74.2147 52.2814C82.6699 47.0736 90.2308 41.3614 96.5233 35.4025C99.3765 32.6999 104.059 33.7195 105.548 37.3513C105.562 37.3869 105.578 37.4253 105.592 37.4609C106.404 39.4536 105.988 41.7369 104.527 43.3184C102.824 45.1631 100.642 47.4683 99.5141 48.5235C93.3894 54.2631 85.911 59.7698 77.4834 64.7611C76.2012 60.0192 71.7082 56.5875 66.4694 56.9246C61.0436 57.2782 56.7074 61.7405 56.5175 67.154C56.424 69.8401 57.3347 72.3152 58.9003 74.2339C56.9027 75.1028 54.9024 75.9306 52.9049 76.7117C49.7903 77.9287 48.0679 81.3522 49.1492 84.5043C50.2938 87.8346 53.9862 89.5313 57.2577 88.2567C60.3668 87.048 63.4759 85.7378 66.5768 84.3317C83.7457 76.5308 98.8758 66.5016 109.837 55.7323C109.939 57.1412 109.989 58.5665 109.989 60C109.989 61.4116 109.939 62.8095 109.843 64.1937C101.314 72.8716 89.5952 81.1412 76.1737 87.8867C60.5016 95.7615 44.5296 100.55 31.1053 101.4C30.888 101.413 30.6706 101.427 30.4533 101.438C24.733 101.751 19.8025 101.282 16 100.131C20.9883 105.651 26.9892 110.242 33.7137 113.616C37.9426 113.257 42.3559 112.575 46.8958 111.582C58.1051 109.135 70.0656 104.823 81.7729 98.9383C81.8554 98.8972 81.938 98.8561 82.0205 98.815C87.2757 96.1617 91.8651 103.294 87.2565 106.953C78.3143 114.047 67.3031 118.662 55.2656 119.748C57.0788 119.912 58.914 120 60.7712 120C94.036 120 121 93.1384 121 60C121 26.8616 94.036 1.66893e-06 60.7712 1.66893e-06ZM85.2259 26.5382C81.2666 26.5382 78.0585 23.3422 78.0585 19.3979C78.0585 15.4536 81.2666 12.2577 85.2259 12.2577C89.1852 12.2577 92.3962 15.4536 92.3962 19.3979C92.3962 23.3422 89.1852 26.5382 85.2259 26.5382ZM99.7342 98.6862C95.7749 98.6862 92.564 95.4902 92.564 91.5459C92.564 87.6016 95.7749 84.4029 99.7342 84.4029C103.694 84.4029 106.902 87.6016 106.902 91.5459C106.902 95.4902 103.694 98.6862 99.7342 98.6862Z" fill="url(#paint12_linear_460_50947)"/>
<g opacity="0.05" clip-path="url(#clip2_460_50947)">
<path d="M61.6917 16.4625L64.2948 11.9759L64.6946 11.2867L64.2948 10.5069L62.0404 6.1113L64.5638 1.76293L61.3364 1.66893e-06L58.6421 5.25344L58.2021 6.1113L58.6421 6.86917L61.2053 11.2867L58.9111 15.7606L58.5511 16.4625L58.9111 17.0827L61.5543 21.6382L59.1802 26.2675L58.9001 26.8135L59.1802 27.296L61.9032 31.9886L59.4489 36.7746L59.249 37.1645L59.4489 37.509L62.2522 42.3404L59.718 47.2825L59.598 47.5165L59.718 47.7233L62.6012 52.6927L59.987 57.7913L59.9469 57.8694L59.987 57.9382L62.9501 63.046L60.2959 57.8694L63.2192 52.8304L63.2991 52.6927L63.2192 52.5368L60.6448 47.5165L63.4879 42.616L63.648 42.3404L63.4879 42.0286L60.9938 37.1645L63.757 32.4022L63.997 31.9886L63.757 31.5206L61.3428 26.8135L64.0257 22.1898L64.3459 21.6384L64.026 21.0146L61.6917 16.4625Z" fill="#F2F2F2"/>
<path d="M69.1907 16.8654L72.4809 12.8552L72.9863 12.2392L72.717 11.4054L71.198 6.70457L74.3868 2.8181L71.4847 0.559507L67.9814 5.312L67.4096 6.08782L67.7219 6.9069L69.5423 11.6787L66.5592 15.7258L66.0913 16.3607L66.3469 17.0307L68.2238 21.9518L65.137 26.1395L64.7727 26.6333L64.9716 27.1546L66.9058 32.2239L63.7145 36.5533L63.4545 36.906L63.5966 37.2782L65.5872 42.4973L62.2921 46.9681L62.1362 47.1797L62.2214 47.4031L64.2687 52.771L60.8696 57.3834L60.8176 57.4541L60.8459 57.5285L62.9501 63.046L61.1618 57.5101L64.8566 53.0063L64.9576 52.8831L64.9038 52.7164L63.1693 47.348L66.7628 42.9679L66.9649 42.7216L66.8572 42.3879L65.1766 37.1864L68.669 32.9298L68.9721 32.5603L68.8104 32.0598L67.1838 27.0259L70.5747 22.8933L70.979 22.4005L70.7636 21.7334L69.1907 16.8654Z" fill="#F2F2F2"/>
<path d="M76.5278 18.4679L80.4193 15.0386L81.017 14.5118L80.8851 13.6452L80.141 8.76163L83.9128 5.43783L81.4111 2.74239L77.1901 6.87023L76.5009 7.54422L76.6776 8.4026L77.7078 13.4049L74.1133 16.9205L73.5494 17.4718L73.6942 18.1743L74.7564 23.333L71.0368 26.9702L70.5982 27.3991L70.7108 27.9455L71.8054 33.2598L67.9603 37.0202L67.6469 37.3267L67.7271 37.7169L68.8539 43.1879L64.8832 47.0712L64.6952 47.2551L64.7434 47.4891L65.9021 53.1163L61.8062 57.1228L61.7434 57.184L61.7595 57.2621L62.9501 63.046L62.0744 57.2948L66.4444 53.4432L66.5639 53.3377L66.5375 53.1643L65.688 47.587L69.9385 43.8414L70.1775 43.6306L70.1247 43.284L69.3015 37.8799L73.4323 34.2398L73.791 33.9238L73.7116 33.4039L72.9148 28.1739L76.9255 24.6399L77.4037 24.2183L77.2982 23.5253L76.5278 18.4679Z" fill="#F2F2F2"/>
<path d="M83.5123 21.2285L87.9039 18.4689L88.5786 18.045L88.5876 17.1687L88.6377 12.2287L92.8943 9.55433L90.858 6.49195L86.0288 9.88776L85.2404 10.4423L85.2768 11.318L85.4902 16.4209L81.3776 19.3131L80.7325 19.7668L80.7625 20.4833L80.9823 25.7457L76.7267 28.7382L76.225 29.0908L76.2483 29.6482L76.4751 35.0695L72.0758 38.1632L71.7174 38.4154L71.734 38.8135L71.9669 44.3943L67.4241 47.5893L67.2091 47.7405L67.2192 47.9795L67.4589 53.7196L62.7724 57.016L62.7009 57.0664L62.7041 57.146L62.9502 63.046L63.0098 57.2289L67.9416 54.1293L68.0767 54.0444L68.0785 53.8692L68.1357 48.2277L72.9325 45.2136L73.2023 45.044L73.206 44.6934L73.2617 39.2274L77.9234 36.2982L78.328 36.0439L78.3336 35.5179L78.3868 30.2278L82.9132 27.3841L83.4532 27.0451L83.4603 26.344L83.5123 21.2285Z" fill="#F2F2F2"/>
<path d="M89.9623 25.0751L94.7403 23.0571L95.4744 22.7471L95.6239 21.8838L96.4669 17.016L101.098 15.0602L99.5798 11.7103L94.2679 14.2862L93.4007 14.707L93.296 15.5773L92.687 20.6481L88.1632 22.8418L87.4537 23.1861L87.3682 23.8981L86.7397 29.1275L82.0587 31.3972L81.5069 31.6649L81.4402 32.2186L80.7931 37.6058L75.9542 39.9525L75.5599 40.1438L75.5124 40.5395L74.8458 46.0855L69.8489 48.5089L69.6126 48.6237L69.5838 48.8611L68.8985 54.5653L63.7433 57.0656L63.6645 57.1038L63.655 57.183L62.9502 63.046L63.9433 57.3138L69.3092 55.047L69.4559 54.985L69.4859 54.8123L70.4487 49.2533L75.6675 47.0491L75.961 46.9251L76.0209 46.5795L76.9538 41.1934L82.0254 39.0514L82.4659 38.8654L82.5556 38.3471L83.4582 33.1343L88.3824 31.0548L88.9698 30.8068L89.0892 30.1159L89.9623 25.0751Z" fill="#F2F2F2"/>
<path d="M95.7107 29.9086L100.751 28.6843L101.525 28.4963L101.812 27.6679L103.425 22.9988L108.31 21.8125L107.35 18.2624L101.694 19.9515L100.77 20.2271L100.527 21.0694L99.1111 25.9765L94.2938 27.415L93.5381 27.6408L93.3392 28.3298L91.879 33.3901L86.8945 34.8785L86.3066 35.0539L86.152 35.5899L84.648 40.803L79.4949 42.342L79.075 42.4673L78.9645 42.85L77.4159 48.2169L72.0946 49.8063L71.8427 49.8814L71.7762 50.1112L70.1833 55.6311L64.6937 57.2708L64.6098 57.2959L64.5876 57.3724L62.9502 63.046L64.8511 57.5478L70.5115 56.1726L70.6663 56.1349L70.7235 55.9695L72.5669 50.6375L78.0719 49.3L78.3816 49.2249L78.496 48.8935L80.282 43.7271L85.6319 42.428L86.0966 42.3151L86.2683 41.8181L87.9965 36.8179L93.191 35.5564L93.8103 35.406L94.0395 34.7434L95.7107 29.9086Z" fill="#F2F2F2"/>
<path d="M100.608 35.6026L105.78 35.204L106.574 35.1428L106.99 34.3715L109.332 30.0223L114.345 29.6361L113.967 25.9778L108.113 26.736L107.157 26.8599L106.782 27.6521L104.596 32.268L99.6102 32.9137L98.8281 33.0153L98.5211 33.6634L96.267 38.4236L91.1081 39.0915L90.4996 39.1701L90.2609 39.6745L87.939 44.5781L82.6057 45.269L82.171 45.3255L82.0006 45.6855L79.6099 50.7337L74.1026 51.4473L73.8417 51.4811L73.7394 51.6971L71.2806 56.8896L65.5989 57.6259L65.5119 57.6372L65.4778 57.7092L62.9502 63.046L65.7097 57.9248L71.5174 57.4768L71.6762 57.4647L71.7593 57.3104L74.4352 52.3437L80.0836 51.9082L80.4012 51.8839L80.5676 51.5752L83.1601 46.7629L88.6493 46.34L89.1259 46.3031L89.3754 45.8401L91.8843 41.1826L97.2139 40.7724L97.8493 40.7233L98.1819 40.1063L100.608 35.6026Z" fill="#F2F2F2"/>
<path d="M104.527 42.0096L109.696 42.4472L110.49 42.5142L111.024 41.8196L114.035 37.9034L119.044 38.3278L119.259 34.6563L113.359 34.464L112.395 34.4327L111.898 35.1541L108.999 39.359L103.974 39.1954L103.186 39.1698L102.779 39.7602L99.7895 44.0962L94.5903 43.9266L93.977 43.9068L93.6605 44.366L90.5811 48.8331L85.2059 48.658L84.768 48.6437L84.5417 48.9719L81.3713 53.5703L75.8207 53.3899L75.558 53.3812L75.4222 53.5782L72.1613 58.308L66.435 58.1221L66.3474 58.1192L66.3023 58.1846L62.9502 63.046L66.4965 58.4347L72.3005 58.9256L72.4596 58.939L72.5664 58.8L76.0051 54.3279L81.6501 54.8057L81.9677 54.8326L82.1813 54.5548L85.5132 50.2215L90.9991 50.686L91.4755 50.7264L91.796 50.3096L95.0204 46.1155L100.347 46.5669L100.982 46.6207L101.409 46.0649L104.527 42.0096Z" fill="#F2F2F2"/>
<path d="M107.367 48.9629L112.397 50.2252L113.17 50.419L113.809 49.8192L117.41 46.4379L122.286 47.6613L123.088 44.0722L117.295 42.9344L116.349 42.7485L115.742 43.3808L112.206 47.0654L107.272 46.0965L106.499 45.9446L106.002 46.4619L102.355 50.2613L97.2503 49.2586L96.6484 49.1404L96.2622 49.5427L92.5052 53.4571L87.2279 52.4207L86.7979 52.3363L86.522 52.6238L82.6542 56.6533L77.2047 55.5833L76.9467 55.5324L76.7811 55.7049L72.8027 59.8494L67.1807 58.7459L67.0947 58.7291L67.0396 58.7863L62.9502 63.046L67.1912 59.0643L72.841 60.4814L72.9956 60.5202L73.1235 60.4002L77.2361 56.5388L82.7307 57.9174L83.0399 57.9949L83.2955 57.7549L87.2801 54.0132L92.6202 55.353L93.0839 55.4694L93.4672 55.1096L97.3234 51.4882L102.508 52.7892L103.126 52.9446L103.637 52.4645L107.367 48.9629Z" fill="#F2F2F2"/>
<path d="M109.052 56.2824L113.815 58.3365L114.546 58.652L115.273 58.1627L119.37 55.4034L123.986 57.3945L125.355 53.981L119.82 51.9271L118.916 51.5919L118.215 52.1184L114.133 55.1868L109.419 53.4379L108.68 53.1635L108.107 53.5943L103.897 56.7585L99.0196 54.9486L98.4443 54.7352L97.9986 55.0705L93.6616 58.3302L88.6195 56.4594L88.2085 56.3072L87.8902 56.5464L83.4252 59.9021L78.2183 57.9704L77.9717 57.8789L77.7807 58.0226L73.1884 61.4741L67.8166 59.4814L67.7343 59.4511L67.6707 59.4988L62.9502 63.046L67.7757 59.7974L73.1245 62.104L73.2709 62.1671L73.4163 62.0692L78.0957 58.9185L83.2978 61.162L83.5903 61.2884L83.8813 61.0924L88.4151 58.0398L93.4706 60.22L93.9095 60.4094L94.3458 60.1158L98.7334 57.1611L103.642 59.2783L104.227 59.5307L104.809 59.1393L109.052 56.2824Z" fill="#F2F2F2"/>
<path d="M109.539 63.7773L113.91 66.57L114.582 66.999L115.378 66.6328L119.865 64.5678L124.101 67.2746L126 64.1252L120.867 61.2087L120.029 60.7326L119.253 61.1399L114.731 63.5124L110.359 61.0291L109.673 60.6394L109.039 60.9726L104.375 63.4193L99.8518 60.8492L99.3184 60.5461L98.8244 60.8054L94.0203 63.3259L89.344 60.6692L88.9632 60.4529L88.6103 60.6379L83.6642 63.2328L78.8352 60.4893L78.6068 60.3596L78.395 60.4706L73.3079 63.1394L68.3259 60.3097L68.2497 60.2662L68.1793 60.3034L62.9502 63.046L68.2349 60.6149L73.1438 63.7509L73.278 63.8366L73.4374 63.7635L78.562 61.4055L83.3361 64.4557L83.6046 64.6275L83.9232 64.4808L88.8885 62.1961L93.5281 65.1606L93.9308 65.4181L94.4085 65.1981L99.214 62.9867L103.719 65.8652L104.256 66.2084L104.893 65.9153L109.539 63.7773Z" fill="#F2F2F2"/>
<path d="M108.817 71.2532L112.682 74.712L113.276 75.2433L114.121 75.0096L118.881 73.6927L122.628 77.045L125.008 74.2414L120.41 70.5383L119.659 69.9337L118.828 70.2107L113.983 71.8259L110.068 68.6725L109.453 68.1776L108.773 68.4045L103.777 70.07L99.7254 66.8067L99.2475 66.4218L98.7184 66.5983L93.5716 68.3142L89.3831 64.9409L89.0418 64.666L88.6638 64.7921L83.3651 66.5584L79.0397 63.075L78.835 62.9099L78.6081 62.9856L73.1583 64.8024L68.6957 61.209L68.6274 61.1538L68.552 61.1792L62.9502 63.046L68.5567 61.4957L72.8982 65.3795L73.0169 65.4858L73.1857 65.4392L78.6227 63.9353L82.8449 67.7128L83.0823 67.9254L83.4202 67.832L88.6881 66.3748L92.7911 70.046L93.1475 70.3647L93.6542 70.2246L98.7527 68.8141L102.736 72.3788L103.211 72.804L103.887 72.617L108.817 71.2532Z" fill="#F2F2F2"/>
<path d="M106.903 78.5162L110.162 82.5509L110.663 83.1708L111.534 83.0758L116.445 82.5409L119.604 86.4516L122.403 84.0669L118.46 79.6729L117.816 78.9557L116.951 79.0955L111.91 79.9114L108.552 76.1697L108.025 75.5828L107.317 75.6973L102.118 76.5385L98.6435 72.6666L98.2339 72.2099L97.6831 72.2991L92.3277 73.1659L88.7353 69.1631L88.4425 68.8371L88.0492 68.9007L82.5358 69.7928L78.826 65.6597L78.6504 65.464L78.4145 65.5022L72.7437 66.4197L68.9162 62.1557L68.8577 62.0906L68.7791 62.1032L62.9502 63.046L68.7329 62.4166L72.3942 66.9475L72.4941 67.0715L72.6685 67.0525L78.2763 66.4418L81.8368 70.8488L82.037 71.0967L82.3855 71.0587L87.8192 70.4668L91.2793 74.7497L91.5797 75.1217L92.1025 75.0647L97.3611 74.4915L100.72 78.6499L101.121 79.1459L101.818 79.0699L106.903 78.5162Z" fill="#F2F2F2"/>
<path d="M103.847 85.3769L106.416 89.8833L106.811 90.5755L107.686 90.6216L112.619 90.8825L115.109 95.2502L118.255 93.3461L115.068 88.3757L114.548 87.5643L113.672 87.5635L108.565 87.5587L105.851 83.3259L105.426 82.662L104.709 82.6614L99.4421 82.6564L96.6347 78.2764L96.3036 77.7599L95.7458 77.7594L90.3205 77.7546L87.4178 73.2266L87.1812 72.8578L86.7829 72.8573L81.1978 72.852L78.2001 68.1765L78.0582 67.9552L77.819 67.955L72.0745 67.9494L68.9816 63.126L68.9344 63.0521H68.8548L62.9502 63.046L68.759 63.3539L71.6446 68.4142L71.7237 68.5527L71.8986 68.5619L77.5317 68.8603L80.3382 73.7819L80.4962 74.0589L80.8462 74.0773L86.3042 74.3662L89.0312 79.1493L89.2681 79.5645L89.7932 79.5925L95.0756 79.8715L97.7232 84.5159L98.0389 85.0696L98.739 85.1068L103.847 85.3769Z" fill="#F2F2F2"/>
<path d="M99.7286 91.6578L101.541 96.5182L101.819 97.265L102.675 97.4512L107.502 98.5011L109.258 103.212L112.669 101.838L110.323 96.4206L109.94 95.5361L109.075 95.3945L104.035 94.5693L102.037 89.9556L101.723 89.2317L101.015 89.1159L95.8183 88.2649L93.7507 83.4908L93.5067 82.9276L92.9563 82.8376L87.6024 81.9611L85.4646 77.0257L85.2906 76.6235L84.8973 76.5591L79.3855 75.6564L77.1778 70.5599L77.0733 70.3188L76.8375 70.28L71.1682 69.3517L68.8906 64.0941L68.8556 64.0136L68.777 64.0007L62.9502 63.046L68.634 64.2832L70.6694 69.7416L70.7251 69.8909L70.8963 69.9281L76.4084 71.1276L78.3879 76.4362L78.4992 76.7348L78.8416 76.8094L84.1825 77.9714L86.1058 83.1304L86.2728 83.5786L86.7866 83.6902L91.9555 84.8148L93.8227 89.8239L94.0453 90.4212L94.7303 90.5702L99.7286 91.6578Z" fill="#F2F2F2"/>
<path d="M94.6551 97.1954L95.6627 102.284L95.8175 103.066L96.6328 103.387L101.228 105.199L102.205 110.131L105.792 109.323L104.346 103.598L104.11 102.664L103.279 102.385L98.4378 100.761L97.2062 95.8859L97.0132 95.1214L96.3335 94.8932L91.3405 93.2182L90.0665 88.1739L89.9164 87.5791L89.3876 87.4015L84.2439 85.6763L82.9267 80.4614L82.8194 80.0367L82.4417 79.9098L77.1464 78.1334L75.7862 72.7483L75.7215 72.4935L75.495 72.4175L70.0488 70.5902L68.6451 65.0348L68.6234 64.9498L68.548 64.9245L62.9502 63.046L68.3615 65.1804L69.4936 70.8949L69.5247 71.0511L69.6877 71.1155L74.9355 73.1849L76.0365 78.7425L76.0985 79.0554L76.4245 79.1838L81.5093 81.1889L82.5788 86.5901L82.6717 87.0591L83.1609 87.252L88.0822 89.1921L89.1204 94.4364L89.2441 95.0618L89.8964 95.319L94.6551 97.1954Z" fill="#F2F2F2"/>
<path d="M88.7577 101.846L88.9349 107.03L88.9624 107.826L89.7152 108.275L93.9599 110.802L94.1316 115.826L97.8021 115.605L97.2946 109.723L97.2118 108.762L96.4363 108.354L91.9186 105.973L91.4863 100.963L91.4185 100.178L90.7842 99.8433L86.1251 97.3877L85.678 92.2041L85.6253 91.5929L85.1318 91.3328L80.3321 88.8036L79.8697 83.4449L79.832 83.0083L79.4796 82.8226L74.5386 80.2184L74.0609 74.6846L74.0382 74.4226L73.8267 74.3113L68.7448 71.6328L68.2515 65.924L68.2442 65.8367L68.1735 65.7995L62.9502 63.046L67.9485 66.0221L68.1479 71.8443L68.1534 72.0034L68.304 72.0931L73.1512 74.979L73.345 80.6413L73.3559 80.96L73.6571 81.1391L78.3539 83.9353L78.5419 89.438L78.5583 89.916L79.0101 90.1848L83.5558 92.8905L83.738 98.2334L83.7599 98.8707L84.3624 99.2292L88.7577 101.846Z" fill="#F2F2F2"/>
<path d="M82.19 105.488L81.5322 110.634L81.4312 111.424L82.1025 111.988L85.8861 115.164L85.2483 120.15L88.9067 120.522L89.3509 114.635L89.4234 113.673L88.7237 113.146L84.647 110.07L85.0249 105.056L85.0843 104.269L84.5117 103.837L80.3076 100.665L80.699 95.4773L80.7451 94.8653L80.2999 94.5295L75.9689 91.2619L76.3733 85.8984L76.4063 85.4613L76.0882 85.2215L71.6295 81.8571L72.0471 76.3188L72.0669 76.0566L71.8759 75.9125L67.2901 72.4521L67.7203 66.7383L67.7269 66.651L67.6634 66.603L62.9502 63.046L67.4054 66.7866L66.6671 72.565L66.6471 72.7233L66.7811 72.8359L71.102 76.4628L70.3838 82.0829L70.3432 82.3992L70.6117 82.6245L74.7984 86.1387L74.1002 91.6003L74.0395 92.0746L74.4423 92.4128L78.4942 95.8136L77.8161 101.116L77.7351 101.749L78.2721 102.2L82.19 105.488Z" fill="#F2F2F2"/>
<path d="M75.1225 108.029L73.6468 113.001L73.4202 113.765L73.9921 114.429L77.2165 118.172L75.7859 122.991L79.3372 123.946L80.7211 118.206L80.9472 117.269L80.3413 116.636L76.8117 112.945L77.9902 108.057L78.1751 107.29L77.6794 106.772L74.0395 102.965L75.2592 97.9076L75.4029 97.3112L75.0173 96.9081L71.2674 92.9871L72.5282 87.7582L72.6308 87.3321L72.3554 87.0443L68.4953 83.0075L69.7969 77.6079L69.8584 77.3523L69.6933 77.1795L65.7229 73.0274L67.0654 67.4569L67.086 67.3717L67.0309 67.3142L62.9502 63.046L66.7468 67.4537L65.0898 73.0388L65.0445 73.1915L65.1589 73.3242L68.8408 77.5984L67.2292 83.0299L67.1385 83.3357L67.3674 83.6011L70.9351 87.7423L69.3686 93.0208L69.2325 93.4793L69.5756 93.8776L73.0288 97.8854L71.5074 103.01L71.3262 103.622L71.7838 104.153L75.1225 108.029Z" fill="#F2F2F2"/>
<path d="M67.7388 109.4L65.4834 114.071L65.137 114.789L65.5949 115.536L68.1761 119.748L65.99 124.275L69.3419 125.788L71.6298 120.345L72.0033 119.457L71.5072 118.734L68.6163 114.524L70.5645 109.889L70.8702 109.162L70.4642 108.57L67.4829 104.229L69.4994 99.4326L69.737 98.867L69.4213 98.4072L66.3501 93.9346L68.4341 88.9761L68.6039 88.5722L68.3784 88.2438L65.2167 83.639L67.3687 78.5188L67.4708 78.2764L67.3352 78.0793L64.0836 73.3432L66.3034 68.0607L66.3374 67.98L66.2923 67.9143L62.9502 63.046L65.9895 68.0064L63.4569 73.2527L63.3875 73.3962L63.4793 73.5455L66.4268 78.3558L63.9636 83.4581L63.8251 83.7451L64.0081 84.044L66.8642 88.7047L64.4703 93.6629L64.2624 94.0934L64.5373 94.5419L67.3015 99.0522L64.9769 103.866L64.6997 104.44L65.0661 105.038L67.7388 109.4Z" fill="#F2F2F2"/>
<path d="M60.2307 109.567L57.2542 113.815L56.7971 114.468L57.1289 115.279L59 119.851L56.1152 123.968L59.1804 126L62.3128 120.996L62.8243 120.179L62.4508 119.386L60.2737 114.766L62.9411 110.504L63.3597 109.835L63.054 109.186L60.8089 104.422L63.5694 100.012L63.8949 99.4922L63.657 98.9876L61.344 94.0794L64.1977 89.5206L64.4301 89.1492L64.2602 88.7885L61.8795 83.7359L64.826 79.0277L64.9655 78.805L64.8634 78.5887L62.4147 73.3915L65.4542 68.5345L65.5007 68.4601L65.4666 68.3881L62.9501 63.046L65.153 68.4303L61.8106 73.2015L61.7194 73.3321L61.7856 73.4943L63.9223 78.7156L60.6715 83.3557L60.4887 83.6166L60.6213 83.9411L62.6916 89.0001L59.5323 93.5094L59.258 93.9011L59.4571 94.3876L61.4612 99.2838L58.3933 103.662L58.0275 104.184L58.2931 104.833L60.2307 109.567Z" fill="#F2F2F2"/>
<path d="M52.7933 108.526L49.1732 112.241L48.6172 112.811L48.8145 113.665L49.927 118.478L46.4182 122.079L49.117 124.577L53.0128 120.141L53.649 119.416L53.4074 118.574L52.0007 113.664L55.3183 109.886L55.8387 109.293L55.6412 108.604L54.1905 103.541L57.6236 99.6315L58.0285 99.1707L57.8747 98.6344L56.3802 93.4184L59.9289 89.3771L60.218 89.0479L60.1082 88.6648L58.57 83.2951L62.2344 79.1216L62.408 78.924L62.3423 78.6942L60.76 73.1712L64.5402 68.8656L64.598 68.7996L64.5761 68.7231L62.9503 63.046L64.2596 68.7144L60.1945 72.8866L60.0832 73.0008L60.1227 73.1715L61.3928 78.6684L57.439 82.7258L57.2166 82.954L57.2955 83.2956L58.5262 88.6216L54.6834 92.5645L54.3498 92.9071L54.4682 93.4194L55.6596 98.574L51.9287 102.402L51.4838 102.858L51.6415 103.542L52.7933 108.526Z" fill="#F2F2F2"/>
<path d="M45.6198 106.303L41.45 109.388L40.8093 109.862L40.8671 110.737L41.1917 115.666L37.1504 118.656L39.4129 121.555L43.9707 117.802L44.7148 117.19L44.6119 116.319L44.0122 111.247L47.8934 108.051L48.5022 107.55L48.418 106.838L47.7995 101.607L51.8158 98.3004L52.2895 97.9105L52.2241 97.3565L51.5866 91.9683L55.7385 88.5495L56.0769 88.271L56.0299 87.8753L55.3742 82.3282L59.6617 78.7979L59.8645 78.6307L59.8365 78.3932L59.1621 72.6877L63.5848 69.0455L63.6524 68.9896L63.6431 68.9104L62.9502 63.046L63.3322 68.8511L58.6496 72.316L58.5214 72.4107L58.533 72.5856L58.9036 78.2152L54.3492 81.5846L54.0931 81.7743L54.1161 82.1241L54.4753 87.5785L50.0494 90.853L49.6648 91.1374L49.6996 91.662L50.0475 96.9411L45.7498 100.12L45.2373 100.499L45.2835 101.199L45.6198 106.303Z" fill="#F2F2F2"/>
<path d="M38.8964 102.957L34.2851 105.332L33.5766 105.697L33.493 106.569L33.0219 111.487L28.5527 113.788L30.3202 117.013L35.4216 114.042L36.2546 113.557L36.2926 112.681L36.5154 107.578L40.8596 105.047L41.5411 104.65L41.5723 103.934L41.8023 98.6721L46.2976 96.0537L46.8275 95.7448L46.852 95.1876L47.0883 89.767L51.7355 87.0596L52.114 86.8391L52.1314 86.4411L52.3752 80.8605L57.174 78.0648L57.4011 77.9324L57.4117 77.6937L57.6623 71.9538L62.6128 69.0695L62.6885 69.0252L62.6919 68.9458L62.9502 63.046L62.3947 68.8371L57.2162 71.5046L57.0746 71.5776L57.0577 71.752L56.5194 77.3679L51.4831 79.962L51.1998 80.1079L51.1663 80.4569L50.6446 85.8982L45.75 88.419L45.3251 88.6379L45.275 89.1613L44.7704 94.4277L40.0179 96.8749L39.4514 97.1666L39.3844 97.8646L38.8964 102.957Z" fill="#F2F2F2"/>
<path d="M32.7978 98.574L27.865 100.177L27.1072 100.423L26.8846 101.271L25.6296 106.049L20.8486 107.603L22.0754 111.07L27.5877 108.956L28.4877 108.611L28.666 107.753L29.7055 102.753L34.3999 100.953L35.1363 100.67L35.2822 99.9681L36.3544 94.8115L41.2118 92.9494L41.7847 92.7299L41.8981 92.1836L43.0022 86.8713L48.024 84.9459L48.4331 84.7889L48.5141 84.399L49.6511 78.9301L54.8367 76.9416L55.082 76.8474L55.1308 76.6134L56.3003 70.9886L61.6497 68.9371L61.7317 68.9057L61.7478 68.8276L62.9503 63.046L61.4716 68.6727L55.9321 70.4734L55.7807 70.5227L55.7361 70.6921L54.3026 76.1486L48.915 77.8997L48.6117 77.9984L48.5228 78.3373L47.1338 83.6243L41.8979 85.326L41.4431 85.4737L41.3097 85.9823L39.9658 91.0991L34.8821 92.751L34.2757 92.948L34.0976 93.626L32.7978 98.574Z" fill="#F2F2F2"/>
<path d="M27.4823 93.268L22.3561 94.0576L21.5688 94.1789L21.2127 94.9798L19.2065 99.4941L14.238 100.259L14.8919 103.879L20.6722 102.678L21.616 102.482L21.9299 101.664L23.759 96.8954L28.6816 95.8732L29.4537 95.7129L29.7106 95.0433L31.597 90.1257L36.6905 89.0682L37.2913 88.9437L37.491 88.4227L39.4341 83.3568L44.6999 82.2634L45.1287 82.1742L45.2714 81.8022L47.2723 76.5871L52.7098 75.4575L52.9672 75.4042L53.0527 75.181L55.1105 69.8168L60.7202 68.6516L60.8059 68.6337L60.8344 68.5593L62.9501 63.046L60.587 68.362L54.8299 69.2494L54.6724 69.2737L54.6012 69.4338L52.3099 74.5891L46.711 75.452L46.3961 75.5005L46.2537 75.8207L44.0336 80.8159L38.5922 81.654L38.1198 81.7268L37.9062 82.2074L35.7578 87.042L30.4749 87.8555L29.8448 87.9526L29.5599 88.5931L27.4823 93.268Z" fill="#F2F2F2"/>
<path d="M23.0887 87.1768L17.9021 87.1327L17.1053 87.1259L16.6255 87.8592L13.9201 91.9926L8.89331 91.9496L8.9574 95.6266L14.8551 95.3707L15.8184 95.329L16.2596 94.5717L18.8311 90.1589L23.8536 89.9408L24.6415 89.9068L25.0026 89.2871L27.6547 84.7364L32.8518 84.5111L33.4646 84.4845L33.7455 84.0025L36.4772 79.3147L41.8501 79.0815L42.2879 79.0622L42.4884 78.7182L45.3009 73.8921L50.8491 73.651L51.1118 73.6397L51.2323 73.4331L54.125 68.4694L59.8489 68.2203L59.9365 68.2166L59.9766 68.1478L62.9502 63.046L59.764 67.9133L53.9391 67.8642L53.7797 67.8629L53.6837 68.0093L50.594 72.7296L44.9292 72.6816L44.6106 72.679L44.4186 72.9723L41.4249 77.5457L35.9199 77.4987L35.4417 77.4948L35.1537 77.9348L32.2568 82.3612L26.9117 82.3153L26.2741 82.31L25.8901 82.8965L23.0887 87.1768Z" fill="#F2F2F2"/>
<path d="M19.7301 80.4587L14.6181 79.5819L13.8326 79.4471L13.2413 80.0939L9.90707 83.7388L4.95257 82.8888L4.42505 86.5284L10.2874 87.2235L11.2446 87.3369L11.8019 86.6603L15.0486 82.7181L20.0413 83.3098L20.8244 83.4027L21.2802 82.8492L24.6287 78.7839L29.7947 79.3965L30.4037 79.4687L30.7585 79.038L34.2077 74.85L39.5483 75.4828L39.9833 75.5345L40.2365 75.2269L43.7878 70.9155L49.3028 71.5692L49.5639 71.6L49.7158 71.4154L53.3684 66.981L59.0577 67.655L59.1448 67.6653L59.1954 67.6038L62.9501 63.046L59.0232 67.3382L53.2821 66.3537L53.1252 66.3268L53.0068 66.4561L49.1991 70.6187L43.6155 69.6609L43.3014 69.6071L43.0648 69.8659L39.3753 73.899L33.9492 72.9681L33.4779 72.8874L33.1231 73.2754L29.5526 77.1787L24.2842 76.2747L23.6559 76.1671L23.1827 76.6844L19.7301 80.4587Z" fill="#F2F2F2"/>
<path d="M17.4946 73.2886L12.5897 71.6016L11.8364 71.3426L11.1488 71.8857L7.27227 74.9476L2.51876 73.3126L1.41333 76.8202L7.0879 78.4481L8.01449 78.714L8.67311 78.1355L12.5111 74.7664L17.3437 76.1526L18.1018 76.37L18.6407 75.897L22.5987 72.4223L27.5991 73.8571L28.1888 74.0262L28.6079 73.6582L32.6849 70.0785L37.8546 71.5615L38.2759 71.6824L38.5752 71.4193L42.7727 67.7347L48.111 69.2657L48.364 69.338L48.5436 69.1805L52.8608 65.3904L58.3682 66.9697L58.4526 66.994L58.5124 66.9412L62.9502 63.046L58.3851 66.6516L52.8767 64.7575L52.7258 64.7055L52.5884 64.8142L48.1614 68.3108L42.8041 66.4685L42.5029 66.3651L42.2278 66.5822L37.9385 69.9703L32.7321 68.1797L32.28 68.0243L31.8675 68.3501L27.7164 71.6293L22.6617 69.8907L22.059 69.6833L21.5088 70.1178L17.4946 73.2886Z" fill="#F2F2F2"/>
<path d="M16.4397 65.852L11.8695 63.399L11.1674 63.0223L10.4014 63.4478L6.08366 65.8472L1.65431 63.4697L0 66.7542L5.33933 69.2726L6.21132 69.6838L6.95434 69.219L11.2835 66.5102L15.8307 68.6548L16.5439 68.9911L17.1519 68.6107L21.6166 65.8172L26.3216 68.0367L26.8765 68.2984L27.3492 68.0024L31.9484 65.1244L36.8127 67.4187L37.2089 67.6057L37.5467 67.3944L42.2815 64.4317L47.3046 66.8006L47.5425 66.9127L47.7451 66.7861L52.6152 63.739L57.7973 66.1825L57.8767 66.22L57.9442 66.1778L62.9501 63.046L57.8651 65.8712L52.7325 63.1167L52.592 63.0413L52.4387 63.1265L47.5077 65.8665L42.516 63.1872L42.2351 63.0365L41.9289 63.2069L37.1508 65.8617L32.3 63.2578L31.8788 63.0318L31.419 63.2871L26.7953 65.8567L22.0856 63.3285L21.5237 63.027L20.911 63.3676L16.4397 65.852Z" fill="#F2F2F2"/>
<path d="M16.5931 58.3429L12.4763 55.1874L11.844 54.7028L11.0195 54.9998L6.3723 56.6741L2.38264 53.6157L0.222168 56.5918L5.08752 59.9354L5.88197 60.4814L6.69013 60.1419L11.3983 58.1637L15.542 61.0111L16.1919 61.4577L16.8529 61.18L21.7085 59.1403L25.9956 62.0869L26.5013 62.4343L27.0156 62.2182L32.0173 60.1166L36.4498 63.1624L36.8109 63.4106L37.1783 63.2563L42.3275 61.0929L46.9048 64.2381L47.1216 64.3872L47.3419 64.2946L52.6382 62.0695L57.3606 65.3139L57.4329 65.3635L57.5062 65.3328L62.9502 63.046L57.4774 65.0174L52.854 61.4741L52.7274 61.3773L52.5625 61.4366L47.2553 63.3486L42.7587 59.9024L42.5058 59.7085L42.1761 59.8272L37.0338 61.6798L32.6641 58.3307L32.2848 58.0398L31.79 58.2181L26.8133 60.0113L22.571 56.759L22.0651 56.3713L21.4054 56.6089L16.5931 58.3429Z" fill="#F2F2F2"/>
<path d="M17.9506 50.9556L14.3943 47.1799L13.8481 46.5998L12.9866 46.7605L8.13077 47.6666L4.68394 44.007L2.07349 46.5972L6.33878 50.6791L7.03511 51.3455L7.88732 51.1403L12.8521 49.9442L16.4844 53.4205L17.0544 53.9657L17.7515 53.798L22.8714 52.5647L26.6297 56.1618L27.0731 56.586L27.6154 56.4552L32.8896 55.1845L36.7753 58.9032L37.0918 59.206L37.4793 59.1126L42.9091 57.805L46.9217 61.6448L47.1118 61.8265L47.3442 61.7706L52.9291 60.4252L57.0688 64.3864L57.1322 64.447L57.2097 64.4283L62.9502 63.046L57.2319 64.1125L53.2374 59.8723L53.1283 59.7563L52.956 59.7884L47.4104 60.823L43.526 56.6989L43.3076 56.467L42.9629 56.5314L37.5898 57.5338L33.8151 53.5257L33.4872 53.1778L32.9703 53.2741L27.7702 54.2446L24.1052 50.3531L23.6682 49.8891L22.979 50.0175L17.9506 50.9556Z" fill="#F2F2F2"/>
<path d="M20.4772 43.8828L17.5737 39.5845L17.1274 38.9243L16.2515 38.9443L11.3133 39.0585L8.49923 34.8924L5.50659 37.0297L9.06052 41.7439L9.64079 42.5137L10.5149 42.448L15.6073 42.0652L18.6343 46.0799L19.109 46.7096L19.8241 46.6558L25.0756 46.2614L28.2072 50.4156L28.5768 50.9055L29.133 50.8635L34.5428 50.4568L37.7807 54.7513L38.0445 55.1014L38.4417 55.0713L44.0113 54.6529L47.355 59.0875L47.5133 59.2975L47.7517 59.2796L53.4801 58.8493L56.9298 63.424L56.9828 63.4939L57.0622 63.4881L62.9502 63.046L57.1348 63.1798L53.8734 58.3531L53.7842 58.221L53.6091 58.2249L47.9696 58.3553L44.7979 53.6605L44.6195 53.3965L44.269 53.4047L38.8047 53.5307L35.7226 48.9682L35.4549 48.5722L34.9292 48.5844L29.6411 48.7065L26.6487 44.2766L26.2918 43.7485L25.591 43.7646L20.4772 43.8828Z" fill="#F2F2F2"/>
<path d="M24.1069 37.3075L21.9314 32.5985L21.5972 31.8752L20.7294 31.7544L15.8369 31.0735L13.7287 26.5096L10.4314 28.1383L13.1822 33.3622L13.6314 34.2153L14.5044 34.2907L19.5924 34.7313L21.9348 39.1799L22.3025 39.8779L23.0168 39.9396L28.2635 40.3941L30.6872 44.9976L30.9732 45.5405L31.5289 45.5885L36.9339 46.0562L39.4399 50.8153L39.6441 51.2028L40.041 51.2373L45.6053 51.719L48.1934 56.6332L48.3158 56.8659L48.5539 56.8867L54.2773 57.3821L56.9474 62.452L56.9882 62.5295L57.0676 62.5364L62.95 63.046L57.1887 62.2438L54.7449 56.9556L54.6782 56.811L54.5047 56.7867L48.9174 56.0091L46.5412 50.8659L46.4074 50.5765L46.0603 50.5283L40.6466 49.7749L38.3374 44.7765L38.1369 44.3426L37.6163 44.27L32.3769 43.5412L30.1349 38.6879L29.8677 38.1091L29.1732 38.0126L24.1069 37.3075Z" fill="#F2F2F2"/>
<path d="M28.7461 31.4009L27.3553 26.4036L27.1416 25.6359L26.3044 25.3772L21.5847 23.9192L20.2369 19.0757L16.7212 20.1535L18.5968 25.7515L18.9033 26.6658L19.7529 26.8805L24.7037 28.1327L26.3015 32.9L26.5521 33.6479L27.2471 33.8238L32.3528 35.1151L34.0058 40.0483L34.2007 40.6299L34.7414 40.7669L40.0011 42.0969L41.71 47.1966L41.8492 47.612L42.2356 47.7099L47.6502 49.0795L49.4152 54.3456L49.4989 54.5949L49.7304 54.6537L55.2998 56.0624L57.1208 61.4952L57.1487 61.5783L57.226 61.5978L62.9502 63.046L57.3924 61.3285L55.8302 55.7165L55.7872 55.563L55.62 55.5113L50.2303 53.846L48.711 48.3878L48.6253 48.0808L48.2906 47.9771L43.0683 46.3638L41.5921 41.0594L41.4639 40.5986L40.9614 40.4434L35.9072 38.8823L34.4742 33.732L34.3033 33.1179L33.6333 32.9108L28.7461 31.4009Z" fill="#F2F2F2"/>
<path d="M34.2734 26.3163L33.7034 21.1604L33.6158 20.3685L32.8312 19.9786L28.4071 17.7812L27.8548 12.7842L24.2114 13.283L25.1636 19.1097L25.319 20.0612L26.1232 20.4097L30.8086 22.4411L31.6197 27.4034L31.7471 28.1818L32.4049 28.467L37.2368 30.5618L38.0758 35.6965L38.1747 36.3019L38.6864 36.5237L43.6641 38.6816L44.5319 43.9899L44.6026 44.4222L44.9681 44.5808L50.0922 46.8027L50.9885 52.2841L51.031 52.5436L51.2502 52.6386L56.5209 54.9238L57.4457 60.5788L57.4596 60.6653L57.533 60.697L62.9501 63.046L57.7405 60.458L57.0999 54.6677L57.0822 54.5092L56.9253 54.4313L51.8732 51.9216L51.2504 46.2904L51.2153 45.9736L50.9015 45.8174L46.0063 43.3861L45.401 37.9131L45.3485 37.438L44.8777 37.2041L40.1397 34.851L39.5526 29.5374L39.4827 28.9038L38.8547 28.592L34.2734 26.3163Z" fill="#F2F2F2"/>
<path d="M40.5459 22.1861L40.8116 17.0054L40.8522 16.2096L40.1403 15.6989L36.1266 12.8193L36.3843 7.79825L32.708 7.70514L32.712 13.6094L32.7125 14.5733L33.4502 15.0465L37.7488 17.8045L37.7522 22.8323L37.7527 23.6211L38.3562 24.0083L42.7887 26.8526L42.7921 32.0551L42.7924 32.6687L43.2619 32.9699L47.8284 35.8996L47.8321 41.2781L47.8324 41.7162L48.1676 41.9315L52.8686 44.9477L52.8726 50.5019L52.8728 50.7649L53.0741 50.8939L57.9091 53.9963L57.9133 59.7265L57.9136 59.814L57.9806 59.857L62.9501 63.046L58.224 59.6544L58.5216 53.8365L58.5297 53.6774L58.3873 53.5751L53.8039 50.2864L54.0938 44.6283L54.1102 44.3099L53.8253 44.1054L49.3843 40.9191L49.6663 35.42L49.6906 34.9426L49.2635 34.636L44.9653 31.5523L45.2391 26.2134L45.2718 25.5769L44.7023 25.168L40.5459 22.1861Z" fill="#F2F2F2"/>
<path d="M47.4004 19.1171L48.4948 14.0465L48.6628 13.2675L48.0422 12.6489L44.5431 9.1618L45.6039 4.24733L41.9904 3.5649L41.0459 9.39315L40.8918 10.3446L41.5439 10.9303L45.3434 14.343L44.5391 19.3062L44.4128 20.0847L44.9464 20.564L48.8646 24.0833L48.0321 29.2188L47.934 29.8245L48.3489 30.1972L52.3855 33.8225L51.5251 39.1319L51.4552 39.5645L51.7514 39.8307L55.9067 43.5631L55.0187 49.0457L54.9765 49.3053L55.1545 49.4649L59.4282 53.3039L58.5122 58.9601L58.4982 59.0467L58.5576 59.1L62.9502 63.046L58.8303 58.9393L60.0586 53.2445L60.0924 53.0889L59.9681 52.9652L55.9724 48.9827L57.1675 43.4444L57.2348 43.1328L56.9863 42.8854L53.1148 39.0269L54.2764 33.6447L54.3772 33.1773L54.0048 32.8061L50.2578 29.0719L51.3859 23.8461L51.5204 23.223L51.0237 22.7282L47.4004 19.1171Z" fill="#F2F2F2"/>
<path d="M54.6587 17.1893L56.5533 12.3603L56.8442 11.6185L56.331 10.9081L53.4378 6.90426L55.2741 2.22404L51.8172 0.969969L49.9487 6.57056L49.6436 7.48513L50.1932 8.16783L53.395 12.1466L51.804 16.9163L51.5545 17.6644L52.004 18.2231L55.306 22.3261L53.6593 27.2614L53.4652 27.8434L53.8149 28.2781L57.2167 32.5046L55.5149 37.6069L55.3762 38.0226L55.6259 38.3328L59.1276 42.6844L57.3705 47.9531L57.2871 48.2027L57.4369 48.3889L61.0388 52.8647L59.226 58.3001L59.1983 58.3835L59.2482 58.4455L62.9501 63.046L59.5433 58.3305L61.6706 52.9074L61.7286 52.7589L61.626 52.617L58.3218 48.0441L60.3911 42.7698L60.5074 42.4733L60.3022 42.189L57.1009 37.7586L59.1118 32.6328L59.2864 32.1878L58.9783 31.7615L55.8797 27.4738L57.8326 22.4973L58.0655 21.9038L57.6548 21.3356L54.6587 17.1893Z" fill="#F2F2F2"/>
</g>
<g filter="url(#filter0_b_460_50947)">
<g clip-path="url(#clip3_460_50947)">
<path d="M28.3459 35H22.13C19.0403 35 16.5356 37.5047 16.5356 40.5943C16.5356 43.684 19.0403 46.1886 22.13 46.1886H28.3459C31.4355 46.1886 33.9402 43.684 33.9402 40.5943C33.9402 37.5047 31.4355 35 28.3459 35Z" fill="url(#paint13_linear_460_50947)" fill-opacity="0.15"/>
<path d="M21.4635 41.0638L20.5154 39.7117H21.3504L21.873 40.4982H21.9053L22.3955 39.7117H23.2574L22.2932 41.0638L23.2574 42.4591H22.4224L21.8945 41.6564H21.8622L21.345 42.4591H20.51L21.4635 41.0638ZM24.8635 42.5453C24.5511 42.5453 24.2745 42.4627 24.0339 42.2975C23.7969 42.1322 23.6335 41.8916 23.5437 41.5756L24.2117 41.3116C24.2548 41.4876 24.332 41.6241 24.4433 41.721C24.5547 41.8144 24.6947 41.8611 24.8635 41.8611C25.018 41.8611 25.1508 41.8144 25.2622 41.721C25.3771 41.6277 25.4345 41.5092 25.4345 41.3655C25.4345 41.211 25.3735 41.089 25.2514 40.9992C25.1329 40.9058 24.9713 40.8591 24.7665 40.8591H24.4487V40.218H24.7396C24.8976 40.218 25.0305 40.1785 25.1383 40.0995C25.2496 40.0205 25.3053 39.9056 25.3053 39.7547C25.3053 39.6326 25.2604 39.5321 25.1706 39.4531C25.0808 39.374 24.9659 39.3346 24.8258 39.3346C24.6786 39.3346 24.56 39.374 24.4703 39.4531C24.3805 39.5321 24.3176 39.6308 24.2817 39.7494L23.6406 39.4854C23.7161 39.2699 23.8543 39.0832 24.0554 38.9251C24.2602 38.7671 24.5187 38.6881 24.8312 38.6881C25.0611 38.6881 25.2658 38.7312 25.4453 38.8174C25.6285 38.9036 25.7703 39.0221 25.8709 39.1729C25.9715 39.3202 26.0217 39.4872 26.0217 39.6739C26.0217 39.8715 25.975 40.0403 25.8817 40.1803C25.7919 40.3204 25.6824 40.4227 25.5531 40.4874V40.5305C25.7326 40.6023 25.8781 40.7154 25.9894 40.8699C26.1008 41.0243 26.1564 41.211 26.1564 41.4301C26.1564 41.642 26.1025 41.8324 25.9948 42.0012C25.8871 42.17 25.7344 42.3029 25.5369 42.3998C25.343 42.4968 25.1185 42.5453 24.8635 42.5453ZM28.216 42.5453C27.9071 42.5453 27.636 42.4627 27.4025 42.2975C27.1691 42.1287 26.9877 41.8988 26.8584 41.6079C26.7327 41.3134 26.6699 40.983 26.6699 40.6167C26.6699 40.2504 26.7327 39.9217 26.8584 39.6308C26.9877 39.3363 27.1691 39.1065 27.4025 38.9413C27.636 38.7725 27.9071 38.6881 28.216 38.6881C28.5248 38.6881 28.796 38.7725 29.0294 38.9413C29.2629 39.1065 29.4424 39.3363 29.5682 39.6308C29.6974 39.9217 29.7621 40.2504 29.7621 40.6167C29.7621 40.983 29.6974 41.3134 29.5682 41.6079C29.4424 41.8988 29.2629 42.1287 29.0294 42.2975C28.796 42.4627 28.5248 42.5453 28.216 42.5453ZM28.216 41.8827C28.3884 41.8827 28.5374 41.8288 28.6631 41.721C28.7924 41.6097 28.8894 41.4589 28.954 41.2685C29.0222 41.0746 29.0564 40.8573 29.0564 40.6167C29.0564 40.2432 28.981 39.9397 28.8301 39.7063C28.6793 39.4692 28.4746 39.3507 28.216 39.3507C27.961 39.3507 27.7581 39.4692 27.6072 39.7063C27.4564 39.9433 27.381 40.2468 27.381 40.6167C27.381 40.8573 27.4133 41.0746 27.478 41.2685C27.5462 41.4589 27.6431 41.6097 27.7689 41.721C27.8982 41.8288 28.0472 41.8827 28.216 41.8827Z" fill="white"/>
</g>
<g clip-path="url(#clip4_460_50947)">
<path d="M33.2815 53.8949H27.1825C24.1509 53.8949 21.6934 56.3525 21.6934 59.384C21.6934 62.4156 24.1509 64.8732 27.1825 64.8732H33.2815C36.3131 64.8732 38.7706 62.4156 38.7706 59.384C38.7706 56.3525 36.3131 53.8949 33.2815 53.8949Z" fill="url(#paint14_linear_460_50947)" fill-opacity="0.15"/>
<path d="M26.8899 59.8447L25.9596 58.518H26.7789L27.2917 59.2897H27.3234L27.8044 58.518H28.6501L27.704 59.8447L28.6501 61.2138H27.8308L27.3128 60.4262H27.2811L26.7736 61.2138H25.9543L26.8899 59.8447ZM29.856 58.5021L29.3116 58.8986L28.9627 58.3647L30.0252 57.5982H30.5485V61.2138H29.856V58.5021ZM32.7928 61.2983C32.4897 61.2983 32.2237 61.2173 31.9946 61.0552C31.7656 60.8896 31.5876 60.664 31.4608 60.3786C31.3374 60.0896 31.2758 59.7654 31.2758 59.406C31.2758 59.0466 31.3374 58.7241 31.4608 58.4387C31.5876 58.1497 31.7656 57.9242 31.9946 57.7621C32.2237 57.5965 32.4897 57.5137 32.7928 57.5137C33.0958 57.5137 33.3619 57.5965 33.5909 57.7621C33.82 57.9242 33.9962 58.1497 34.1195 58.4387C34.2464 58.7241 34.3098 59.0466 34.3098 59.406C34.3098 59.7654 34.2464 60.0896 34.1195 60.3786C33.9962 60.664 33.82 60.8896 33.5909 61.0552C33.3619 61.2173 33.0958 61.2983 32.7928 61.2983ZM32.7928 60.6482C32.9619 60.6482 33.1082 60.5953 33.2315 60.4896C33.3584 60.3803 33.4535 60.2323 33.5169 60.0456C33.5839 59.8553 33.6174 59.6421 33.6174 59.406C33.6174 59.0395 33.5434 58.7417 33.3954 58.5127C33.2474 58.2801 33.0465 58.1638 32.7928 58.1638C32.5426 58.1638 32.3435 58.2801 32.1955 58.5127C32.0475 58.7453 31.9735 59.043 31.9735 59.406C31.9735 59.6421 32.0052 59.8553 32.0686 60.0456C32.1356 60.2323 32.2307 60.3803 32.3541 60.4896C32.4809 60.5953 32.6272 60.6482 32.7928 60.6482Z" fill="white"/>
</g>
<g clip-path="url(#clip5_460_50947)">
<path d="M24.8102 70.4581H18.5943C15.5047 70.4581 13 72.9628 13 76.0524C13 79.1421 15.5047 81.6467 18.5943 81.6467H24.8102C27.8999 81.6467 30.4045 79.1421 30.4045 76.0524C30.4045 72.9628 27.8999 70.4581 24.8102 70.4581Z" fill="url(#paint15_linear_460_50947)" fill-opacity="0.15"/>
<path d="M17.7531 76.5219L16.8049 75.1698H17.64L18.1625 75.9563H18.1948L18.6851 75.1698H19.547L18.5827 76.5219L19.547 77.9172H18.712L18.184 77.1145H18.1517L17.6346 77.9172H16.7996L17.7531 76.5219ZM21.1746 78.0034C20.9807 78.0034 20.7939 77.9675 20.6143 77.8957C20.4348 77.8202 20.2768 77.7089 20.1403 77.5617C20.0074 77.4108 19.9158 77.2259 19.8655 77.0068L20.5012 76.759C20.5443 76.9421 20.6233 77.0876 20.7382 77.1953C20.8532 77.2995 20.9968 77.3516 21.1692 77.3516C21.3416 77.3516 21.4853 77.2941 21.6002 77.1792C21.7151 77.0643 21.7726 76.9188 21.7726 76.7428C21.7726 76.5704 21.7151 76.4268 21.6002 76.3119C21.4889 76.1933 21.3452 76.1341 21.1692 76.1341C21.0615 76.1341 20.9627 76.1574 20.8729 76.2041C20.7867 76.2472 20.7131 76.3065 20.6521 76.3819L19.9679 76.0748L20.178 74.2324H22.2574V74.8519H20.7652L20.6305 75.7139L20.6736 75.7247C20.8532 75.5774 21.0669 75.5038 21.3147 75.5038C21.5194 75.5038 21.7097 75.5559 21.8857 75.66C22.0653 75.7641 22.2089 75.9114 22.3167 76.1018C22.4244 76.2885 22.4783 76.5022 22.4783 76.7428C22.4783 76.987 22.4226 77.2043 22.3113 77.3947C22.2 77.585 22.0455 77.7341 21.848 77.8418C21.6505 77.9495 21.426 78.0034 21.1746 78.0034ZM24.5897 78.0034C24.2809 78.0034 24.0097 77.9208 23.7762 77.7556C23.5428 77.5868 23.3614 77.357 23.2321 77.066C23.1065 76.7715 23.0436 76.4411 23.0436 76.0748C23.0436 75.7085 23.1065 75.3799 23.2321 75.089C23.3614 74.7945 23.5428 74.5646 23.7762 74.3994C24.0097 74.2306 24.2809 74.1462 24.5897 74.1462C24.8985 74.1462 25.1697 74.2306 25.4032 74.3994C25.6366 74.5646 25.8162 74.7945 25.9419 75.089C26.0712 75.3799 26.1358 75.7085 26.1358 76.0748C26.1358 76.4411 26.0712 76.7715 25.9419 77.066C25.8162 77.357 25.6366 77.5868 25.4032 77.7556C25.1697 77.9208 24.8985 78.0034 24.5897 78.0034ZM24.5897 77.3408C24.7621 77.3408 24.9111 77.2869 25.0368 77.1792C25.1661 77.0678 25.2631 76.917 25.3277 76.7267C25.396 76.5327 25.4301 76.3155 25.4301 76.0748C25.4301 75.7013 25.3547 75.3978 25.2038 75.1644C25.053 74.9274 24.8483 74.8088 24.5897 74.8088C24.3347 74.8088 24.1318 74.9274 23.981 75.1644C23.8301 75.4014 23.7547 75.7049 23.7547 76.0748C23.7547 76.3155 23.787 76.5327 23.8517 76.7267C23.9199 76.917 24.0169 77.0678 24.1426 77.1792C24.2719 77.2869 24.4209 77.3408 24.5897 77.3408Z" fill="white"/>
</g>
</g>
<g filter="url(#filter1_b_460_50947)">
<g clip-path="url(#clip6_460_50947)">
<path d="M102.403 69.1018H96.9042C94.1709 69.1018 91.9551 71.3176 91.9551 74.0509C91.9551 76.7842 94.1709 79 96.9042 79H102.403C105.136 79 107.352 76.7842 107.352 74.0509C107.352 71.3176 105.136 69.1018 102.403 69.1018Z" fill="url(#paint16_linear_460_50947)" fill-opacity="0.15"/>
<path d="M96.3147 74.4663L95.476 73.27H96.2147L96.6769 73.9659H96.7055L97.1392 73.27H97.9018L97.0487 74.4663L97.9018 75.7006H97.1631L96.696 74.9905H96.6674L96.2099 75.7006H95.4712L96.3147 74.4663ZM99.3226 75.7769C99.0462 75.7769 98.8015 75.7038 98.5887 75.5576C98.379 75.4115 98.2344 75.1986 98.155 74.919L98.7459 74.6855C98.7841 74.8412 98.8523 74.9619 98.9509 75.0477C99.0494 75.1303 99.1733 75.1716 99.3226 75.1716C99.4592 75.1716 99.5767 75.1303 99.6753 75.0477C99.7769 74.9651 99.8278 74.8602 99.8278 74.7331C99.8278 74.5965 99.7738 74.4885 99.6657 74.4091C99.5609 74.3265 99.4179 74.2852 99.2368 74.2852H98.9556V73.718H99.213C99.3528 73.718 99.4703 73.6831 99.5656 73.6132C99.6641 73.5433 99.7134 73.4416 99.7134 73.3082C99.7134 73.2001 99.6737 73.1112 99.5942 73.0413C99.5148 72.9714 99.4131 72.9364 99.2892 72.9364C99.159 72.9364 99.0541 72.9714 98.9747 73.0413C98.8952 73.1112 98.8397 73.1986 98.8079 73.3034L98.2407 73.0699C98.3075 72.8793 98.4298 72.714 98.6077 72.5742C98.7888 72.4344 99.0176 72.3645 99.294 72.3645C99.4973 72.3645 99.6784 72.4027 99.8373 72.4789C99.9993 72.5552 100.125 72.66 100.214 72.7935C100.303 72.9237 100.347 73.0715 100.347 73.2367C100.347 73.4114 100.306 73.5608 100.223 73.6847C100.144 73.8086 100.047 73.8991 99.9326 73.9563V73.9945C100.091 74.058 100.22 74.1581 100.319 74.2947C100.417 74.4313 100.466 74.5965 100.466 74.7903C100.466 74.9778 100.419 75.1462 100.323 75.2955C100.228 75.4448 100.093 75.5624 99.9183 75.6482C99.7467 75.734 99.5482 75.7769 99.3226 75.7769ZM102.288 75.7769C102.015 75.7769 101.775 75.7038 101.569 75.5576C101.362 75.4083 101.202 75.205 101.087 74.9476C100.976 74.6871 100.921 74.3948 100.921 74.0707C100.921 73.7466 100.976 73.4559 101.087 73.1986C101.202 72.938 101.362 72.7347 101.569 72.5885C101.775 72.4392 102.015 72.3645 102.288 72.3645C102.562 72.3645 102.802 72.4392 103.008 72.5885C103.215 72.7347 103.373 72.938 103.485 73.1986C103.599 73.4559 103.656 73.7466 103.656 74.0707C103.656 74.3948 103.599 74.6871 103.485 74.9476C103.373 75.205 103.215 75.4083 103.008 75.5576C102.802 75.7038 102.562 75.7769 102.288 75.7769ZM102.288 75.1907C102.441 75.1907 102.573 75.143 102.684 75.0477C102.798 74.9492 102.884 74.8157 102.941 74.6474C103.002 74.4758 103.032 74.2836 103.032 74.0707C103.032 73.7403 102.965 73.4718 102.832 73.2653C102.698 73.0556 102.517 72.9507 102.288 72.9507C102.063 72.9507 101.883 73.0556 101.75 73.2653C101.616 73.475 101.55 73.7434 101.55 74.0707C101.55 74.2836 101.578 74.4758 101.636 74.6474C101.696 74.8157 101.782 74.9492 101.893 75.0477C102.007 75.143 102.139 75.1907 102.288 75.1907Z" fill="white"/>
</g>
<g clip-path="url(#clip7_460_50947)">
<path d="M100.536 37.4213H94.4643C91.4464 37.4213 89 39.8677 89 42.8856C89 45.9034 91.4464 48.3499 94.4643 48.3499H100.536C103.554 48.3499 106 45.9034 106 42.8856C106 39.8677 103.554 37.4213 100.536 37.4213Z" fill="url(#paint17_linear_460_50947)" fill-opacity="0.15"/>
<path d="M94.5835 43.3442L93.6574 42.0234H94.473L94.9834 42.7917H95.0149L95.4938 42.0234H96.3357L95.3938 43.3442L96.3357 44.707H95.5201L95.0044 43.923H94.9728L94.4677 44.707H93.6521L94.5835 43.3442ZM97.5361 42.0076L96.9941 42.4023L96.6468 41.8708L97.7045 41.1079H98.2254V44.707H97.5361V42.0076ZM100.258 44.7912C100.069 44.7912 99.8865 44.7561 99.7111 44.686C99.5358 44.6123 99.3814 44.5035 99.2481 44.3597C99.1183 44.2124 99.0288 44.0317 98.9797 43.8177L99.6006 43.5757C99.6427 43.7546 99.7199 43.8967 99.8322 44.0019C99.9444 44.1036 100.085 44.1545 100.253 44.1545C100.421 44.1545 100.562 44.0984 100.674 43.9861C100.786 43.8739 100.842 43.7318 100.842 43.5599C100.842 43.3915 100.786 43.2512 100.674 43.139C100.565 43.0232 100.425 42.9653 100.253 42.9653C100.148 42.9653 100.051 42.9881 99.9637 43.0337C99.8795 43.0758 99.8076 43.1337 99.748 43.2074L99.0797 42.9074L99.2849 41.1079H101.316V41.713H99.8585L99.7269 42.5549L99.769 42.5654C99.9444 42.4216 100.153 42.3497 100.395 42.3497C100.595 42.3497 100.781 42.4005 100.953 42.5023C101.128 42.604 101.269 42.7478 101.374 42.9337C101.479 43.1162 101.532 43.3249 101.532 43.5599C101.532 43.7984 101.477 44.0107 101.369 44.1966C101.26 44.3825 101.109 44.5281 100.916 44.6333C100.723 44.7386 100.504 44.7912 100.258 44.7912Z" fill="white"/>
</g>
<g clip-path="url(#clip8_460_50947)">
<path d="M92.8906 54.1969H87.685C85.0976 54.1969 83 56.2944 83 58.8819C83 61.4694 85.0976 63.5669 87.685 63.5669H92.8906C95.4781 63.5669 97.5757 61.4694 97.5757 58.8819C97.5757 56.2944 95.4781 54.1969 92.8906 54.1969Z" fill="url(#paint18_linear_460_50947)" fill-opacity="0.15"/>
<path d="M87.3606 59.2751L86.5665 58.1427H87.2658L87.7034 58.8014H87.7305L88.141 58.1427H88.8629L88.0553 59.2751L88.8629 60.4436H88.1636L87.7215 59.7714H87.6944L87.2613 60.4436H86.562L87.3606 59.2751ZM89.1568 59.9067C89.256 59.8075 89.447 59.6165 89.7297 59.3338C90.0154 59.048 90.1989 58.8615 90.2801 58.7743C90.3884 58.657 90.4621 58.5593 90.5012 58.4811C90.5433 58.4029 90.5644 58.3141 90.5644 58.2149C90.5644 58.1096 90.5252 58.0209 90.4471 57.9487C90.3688 57.8765 90.2651 57.8404 90.1358 57.8404C90.0094 57.8404 89.9072 57.8765 89.829 57.9487C89.7508 58.0209 89.6951 58.1111 89.662 58.2194L89.1297 57.9983C89.1628 57.881 89.2229 57.7683 89.3102 57.66C89.4004 57.5487 89.5162 57.4585 89.6575 57.3893C89.7989 57.3201 89.9613 57.2855 90.1448 57.2855C90.3493 57.2855 90.5283 57.3261 90.6817 57.4073C90.835 57.4855 90.9538 57.5938 91.0381 57.7322C91.1223 57.8675 91.1644 58.0194 91.1644 58.1878C91.1644 58.5217 91.002 58.848 90.6771 59.1668C90.5448 59.2962 90.2997 59.5398 89.9418 59.8977L89.9553 59.9248H91.205V60.4436H89.1568V59.9067ZM92.7329 60.5158C92.5705 60.5158 92.414 60.4857 92.2637 60.4255C92.1133 60.3624 91.9809 60.2691 91.8667 60.1458C91.7554 60.0195 91.6787 59.8646 91.6366 59.6811L92.1689 59.4736C92.205 59.627 92.2712 59.7488 92.3674 59.839C92.4637 59.9263 92.584 59.9699 92.7284 59.9699C92.8727 59.9699 92.993 59.9217 93.0893 59.8255C93.1855 59.7293 93.2336 59.6075 93.2336 59.4601C93.2336 59.3157 93.1855 59.1954 93.0893 59.0992C92.996 58.9999 92.8757 58.9503 92.7284 58.9503C92.6381 58.9503 92.5554 58.9698 92.4802 59.0089C92.408 59.045 92.3464 59.0946 92.2952 59.1578L91.7223 58.9006L91.8982 57.3577H93.6397V57.8765H92.39L92.2772 58.5984L92.3133 58.6074C92.4637 58.4841 92.6426 58.4224 92.8502 58.4224C93.0216 58.4224 93.181 58.466 93.3284 58.5533C93.4788 58.6405 93.5991 58.7638 93.6893 58.9232C93.7795 59.0796 93.8247 59.2585 93.8247 59.4601C93.8247 59.6646 93.778 59.8466 93.6848 60.006C93.5915 60.1654 93.4622 60.2902 93.2968 60.3804C93.1314 60.4707 92.9434 60.5158 92.7329 60.5158Z" fill="white"/>
</g>
</g>
<g opacity="0.85">
<g clip-path="url(#clip9_460_50947)">
<mask id="mask1_460_50947" style="mask-type:luminance" maskUnits="userSpaceOnUse" x="37" y="38" width="50" height="50">
<path d="M87 76L87 50C87 43.3726 81.6274 38 75 38L49 38C42.3726 38 37 43.3726 37 50L37 76C37 82.6274 42.3726 88 49 88L75 88C81.6274 88 87 82.6274 87 76Z" fill="white"/>
</mask>
<g mask="url(#mask1_460_50947)">
<path d="M87 78L87 48C87 42.4772 82.5228 38 77 38L47 38C41.4772 38 37 42.4772 37 48L37 78C37 83.5228 41.4772 88 47 88L77 88C82.5228 88 87 83.5228 87 78Z" fill="url(#paint19_linear_460_50947)"/>
<path d="M68.5 52.25C68.5 54.5972 70.4028 56.5 72.75 56.5C75.0972 56.5 77 54.5972 77 52.25C77 49.9028 75.0972 48 72.75 48C70.4028 48 68.5 49.9028 68.5 52.25Z" fill="url(#paint20_linear_460_50947)"/>
<path d="M69 52C69 54.2091 70.7908 56 73 56C75.2091 56 77 54.2091 77 52C77 49.7908 75.2092 48 73 48C70.7909 48 69 49.7908 69 52Z" fill="url(#paint21_linear_460_50947)"/>
<path d="M68.5 74.25C68.5 76.5972 70.4028 78.5 72.75 78.5C75.0972 78.5 77 76.5972 77 74.25C77 71.9028 75.0972 70 72.75 70C70.4028 70 68.5 71.9028 68.5 74.25Z" fill="url(#paint22_linear_460_50947)"/>
<path d="M69 74C69 76.2091 70.7908 78 73 78C75.2091 78 77 76.2091 77 74C77 71.7908 75.2092 70 73 70C70.7909 70 69 71.7908 69 74Z" fill="url(#paint23_linear_460_50947)"/>
<path d="M46.5 52.25C46.5 54.5972 48.4028 56.5 50.75 56.5C53.0972 56.5 55 54.5972 55 52.25C55 49.9028 53.0972 48 50.75 48C48.4028 48 46.5 49.9028 46.5 52.25Z" fill="url(#paint24_linear_460_50947)"/>
<path d="M47 52C47 54.2091 48.7908 56 51 56C53.2091 56 55 54.2091 55 52C55 49.7908 53.2092 48 51 48C48.7909 48 47 49.7908 47 52Z" fill="url(#paint25_linear_460_50947)"/>
<path d="M57.5 63.25C57.5 65.5972 59.4028 67.5 61.75 67.5C64.0972 67.5 66 65.5972 66 63.25C66 60.9028 64.0972 59 61.75 59C59.4028 59 57.5 60.9028 57.5 63.25Z" fill="url(#paint26_linear_460_50947)"/>
<path d="M58 63C58 65.2091 59.7908 67 62 67C64.2091 67 66 65.2091 66 63C66 60.7908 64.2092 59 62 59C59.7909 59 58 60.7908 58 63Z" fill="url(#paint27_linear_460_50947)"/>
<path d="M46.5 74.25C46.5 76.5972 48.4028 78.5 50.75 78.5C53.0972 78.5 55 76.5972 55 74.25C55 71.9028 53.0972 70 50.75 70C48.4028 70 46.5 71.9028 46.5 74.25Z" fill="url(#paint28_linear_460_50947)"/>
<path d="M47 74C47 76.2091 48.7908 78 51 78C53.2091 78 55 76.2091 55 74C55 71.7908 53.2092 70 51 70C48.7909 70 47 71.7908 47 74Z" fill="url(#paint29_linear_460_50947)"/>
</g>
</g>
</g>
<g filter="url(#filter2_d_460_50947)">
<g clip-path="url(#clip10_460_50947)">
<mask id="mask2_460_50947" style="mask-type:luminance" maskUnits="userSpaceOnUse" x="35" y="35" width="50" height="50">
<path d="M85 73L85 47C85 40.3726 79.6274 35 73 35L47 35C40.3726 35 35 40.3726 35 47L35 73C35 79.6274 40.3726 85 47 85L73 85C79.6274 85 85 79.6274 85 73Z" fill="white"/>
</mask>
<g mask="url(#mask2_460_50947)">
<path d="M85 75L85 45C85 39.4772 80.5228 35 75 35L45 35C39.4772 35 35 39.4772 35 45L35 75C35 80.5228 39.4772 85 45 85L75 85C80.5228 85 85 80.5228 85 75Z" fill="url(#paint30_linear_460_50947)"/>
<path d="M66.5 49.25C66.5 51.5972 68.4028 53.5 70.75 53.5C73.0972 53.5 75 51.5972 75 49.25C75 46.9028 73.0972 45 70.75 45C68.4028 45 66.5 46.9028 66.5 49.25Z" fill="url(#paint31_linear_460_50947)"/>
<path d="M67 49C67 51.2091 68.7908 53 71 53C73.2091 53 75 51.2091 75 49C75 46.7908 73.2092 45 71 45C68.7909 45 67 46.7908 67 49Z" fill="url(#paint32_linear_460_50947)"/>
<path d="M66.5 71.25C66.5 73.5972 68.4028 75.5 70.75 75.5C73.0972 75.5 75 73.5972 75 71.25C75 68.9028 73.0972 67 70.75 67C68.4028 67 66.5 68.9028 66.5 71.25Z" fill="url(#paint33_linear_460_50947)"/>
<path d="M67 71C67 73.2091 68.7908 75 71 75C73.2091 75 75 73.2091 75 71C75 68.7908 73.2092 67 71 67C68.7909 67 67 68.7908 67 71Z" fill="url(#paint34_linear_460_50947)"/>
<path d="M44.5 49.25C44.5 51.5972 46.4028 53.5 48.75 53.5C51.0972 53.5 53 51.5972 53 49.25C53 46.9028 51.0972 45 48.75 45C46.4028 45 44.5 46.9028 44.5 49.25Z" fill="url(#paint35_linear_460_50947)"/>
<path d="M45 49C45 51.2091 46.7908 53 49 53C51.2091 53 53 51.2091 53 49C53 46.7908 51.2092 45 49 45C46.7909 45 45 46.7908 45 49Z" fill="url(#paint36_linear_460_50947)"/>
<path d="M55.5 60.25C55.5 62.5972 57.4028 64.5 59.75 64.5C62.0972 64.5 64 62.5972 64 60.25C64 57.9028 62.0972 56 59.75 56C57.4028 56 55.5 57.9028 55.5 60.25Z" fill="url(#paint37_linear_460_50947)"/>
<path d="M56 60C56 62.2091 57.7908 64 60 64C62.2091 64 64 62.2091 64 60C64 57.7908 62.2092 56 60 56C57.7909 56 56 57.7908 56 60Z" fill="url(#paint38_linear_460_50947)"/>
<path d="M44.5 71.25C44.5 73.5972 46.4028 75.5 48.75 75.5C51.0972 75.5 53 73.5972 53 71.25C53 68.9028 51.0972 67 48.75 67C46.4028 67 44.5 68.9028 44.5 71.25Z" fill="url(#paint39_linear_460_50947)"/>
<path d="M45 71C45 73.2091 46.7908 75 49 75C51.2091 75 53 73.2091 53 71C53 68.7908 51.2092 67 49 67C46.7909 67 45 68.7908 45 71Z" fill="url(#paint40_linear_460_50947)"/>
</g>
</g>
</g>
</g>
<g clip-path="url(#clip11_460_50947)">
<mask id="mask3_460_50947" style="mask-type:luminance" maskUnits="userSpaceOnUse" x="87" y="87" width="31" height="31">
<path d="M106.859 116.186L116.186 106.859C118.564 104.482 118.564 100.627 116.186 98.2497L106.859 88.9227C104.482 86.5453 100.627 86.5453 98.2497 88.9227L88.9228 98.2497C86.5453 100.627 86.5453 104.482 88.9228 106.859L98.2497 116.186C100.627 118.564 104.482 118.564 106.859 116.186Z" fill="white"/>
</mask>
<g mask="url(#mask3_460_50947)">
<path d="M106.142 116.904L116.904 106.142C118.885 104.161 118.885 100.948 116.904 98.9672L106.142 88.2053C104.161 86.2241 100.948 86.2241 98.9672 88.2053L88.2053 98.9672C86.2241 100.948 86.2241 104.161 88.2053 106.142L98.9672 116.904C100.948 118.885 104.161 118.885 106.142 116.904Z" fill="url(#paint41_linear_460_50947)"/>
<path d="M108.743 101.03C107.901 101.872 107.901 103.237 108.743 104.079C109.585 104.921 110.95 104.921 111.792 104.079C112.634 103.237 112.634 101.872 111.792 101.03C110.95 100.188 109.585 100.188 108.743 101.03Z" fill="url(#paint42_linear_460_50947)"/>
<path d="M109.012 101.12C108.219 101.912 108.219 103.197 109.012 103.989C109.804 104.782 111.089 104.782 111.881 103.989C112.674 103.197 112.674 101.912 111.881 101.12C111.089 100.327 109.804 100.327 109.012 101.12Z" fill="url(#paint43_linear_460_50947)"/>
<path d="M100.851 108.922C100.009 109.764 100.009 111.129 100.851 111.971C101.693 112.813 103.058 112.813 103.9 111.971C104.742 111.129 104.742 109.764 103.9 108.922C103.058 108.08 101.693 108.08 100.851 108.922Z" fill="url(#paint44_linear_460_50947)"/>
<path d="M101.12 109.012C100.327 109.804 100.327 111.089 101.12 111.881C101.912 112.674 103.197 112.674 103.989 111.881C104.782 111.089 104.782 109.804 103.989 109.012C103.197 108.219 101.912 108.219 101.12 109.012Z" fill="url(#paint45_linear_460_50947)"/>
<path d="M100.851 93.1378C100.009 93.9798 100.009 95.345 100.851 96.187C101.693 97.029 103.058 97.029 103.9 96.187C104.742 95.345 104.742 93.9798 103.9 93.1378C103.058 92.2958 101.693 92.2958 100.851 93.1378Z" fill="url(#paint46_linear_460_50947)"/>
<path d="M101.12 93.2275C100.327 94.02 100.327 95.3048 101.12 96.0973C101.912 96.8898 103.197 96.8898 103.989 96.0973C104.782 95.3048 104.782 94.02 103.989 93.2275C103.197 92.435 101.912 92.435 101.12 93.2275Z" fill="url(#paint47_linear_460_50947)"/>
<path d="M92.9584 101.03C92.1164 101.872 92.1164 103.237 92.9584 104.079C93.8004 104.921 95.1656 104.921 96.0076 104.079C96.8496 103.237 96.8496 101.872 96.0076 101.03C95.1656 100.188 93.8004 100.188 92.9584 101.03Z" fill="url(#paint48_linear_460_50947)"/>
<path d="M93.2275 101.12C92.435 101.912 92.435 103.197 93.2275 103.989C94.02 104.782 95.3048 104.782 96.0973 103.989C96.8898 103.197 96.8898 101.912 96.0973 101.12C95.3048 100.327 94.02 100.327 93.2275 101.12Z" fill="url(#paint49_linear_460_50947)"/>
</g>
</g>
<defs>
<filter id="filter0_b_460_50947" x="-2" y="20" width="55.7708" height="76.6467" filterUnits="userSpaceOnUse" color-interpolation-filters="sRGB">
<feFlood flood-opacity="0" result="BackgroundImageFix"/>
<feGaussianBlur in="BackgroundImageFix" stdDeviation="7.5"/>
<feComposite in2="SourceAlpha" operator="in" result="effect1_backgroundBlur_460_50947"/>
<feBlend mode="normal" in="SourceGraphic" in2="effect1_backgroundBlur_460_50947" result="shape"/>
</filter>
<filter id="filter1_b_460_50947" x="68" y="22.4213" width="54.3523" height="71.5787" filterUnits="userSpaceOnUse" color-interpolation-filters="sRGB">
<feFlood flood-opacity="0" result="BackgroundImageFix"/>
<feGaussianBlur in="BackgroundImageFix" stdDeviation="7.5"/>
<feComposite in2="SourceAlpha" operator="in" result="effect1_backgroundBlur_460_50947"/>
<feBlend mode="normal" in="SourceGraphic" in2="effect1_backgroundBlur_460_50947" result="shape"/>
</filter>
<filter id="filter2_d_460_50947" x="20" y="35" width="80" height="110" filterUnits="userSpaceOnUse" color-interpolation-filters="sRGB">
<feFlood flood-opacity="0" result="BackgroundImageFix"/>
<feColorMatrix in="SourceAlpha" type="matrix" values="0 0 0 0 0 0 0 0 0 0 0 0 0 0 0 0 0 0 127 0" result="hardAlpha"/>
<feOffset dy="45"/>
<feGaussianBlur stdDeviation="7.5"/>
<feComposite in2="hardAlpha" operator="out"/>
<feColorMatrix type="matrix" values="0 0 0 0 0 0 0 0 0 0 0 0 0 0 0 0 0 0 0.25 0"/>
<feBlend mode="normal" in2="BackgroundImageFix" result="effect1_dropShadow_460_50947"/>
<feBlend mode="normal" in="SourceGraphic" in2="effect1_dropShadow_460_50947" result="shape"/>
</filter>
<linearGradient id="paint0_linear_460_50947" x1="18.5" y1="37" x2="18.5" y2="-0.000371315" gradientUnits="userSpaceOnUse">
<stop stop-color="#EAF6FF"/>
<stop offset="0.5213" stop-color="#D8ECFE"/>
<stop offset="1" stop-color="#B3DAFE"/>
</linearGradient>
<linearGradient id="paint1_linear_460_50947" x1="10.5449" y1="53.7355" x2="10.5449" y2="23.0132" gradientUnits="userSpaceOnUse">
<stop stop-color="#EAF6FF"/>
<stop offset="0.5213" stop-color="#D8ECFE"/>
<stop offset="1" stop-color="#7CA8D0"/>
</linearGradient>
<linearGradient id="paint2_linear_460_50947" x1="10.3599" y1="52.3157" x2="10.3599" y2="23.4007" gradientUnits="userSpaceOnUse">
<stop stop-color="#EAF6FF"/>
<stop offset="0.5213" stop-color="#D8ECFE"/>
<stop offset="1" stop-color="#94BEE4"/>
</linearGradient>
<linearGradient id="paint3_linear_460_50947" x1="10.5449" y1="37.4555" x2="10.5449" y2="6.73319" gradientUnits="userSpaceOnUse">
<stop stop-color="#EAF6FF"/>
<stop offset="0.5213" stop-color="#D8ECFE"/>
<stop offset="1" stop-color="#82ACD3"/>
</linearGradient>
<linearGradient id="paint4_linear_460_50947" x1="10.3599" y1="36.0357" x2="10.3599" y2="7.12065" gradientUnits="userSpaceOnUse">
<stop stop-color="#EAF6FF"/>
<stop offset="0.5213" stop-color="#D8ECFE"/>
<stop offset="1" stop-color="#94BEE4"/>
</linearGradient>
<linearGradient id="paint5_linear_460_50947" x1="26.8249" y1="53.7355" x2="26.8249" y2="23.0132" gradientUnits="userSpaceOnUse">
<stop stop-color="#EAF6FF"/>
<stop offset="0.5213" stop-color="#D8ECFE"/>
<stop offset="1" stop-color="#81ACD3"/>
</linearGradient>
<linearGradient id="paint6_linear_460_50947" x1="26.6399" y1="52.3157" x2="26.6399" y2="23.4006" gradientUnits="userSpaceOnUse">
<stop stop-color="#EAF6FF"/>
<stop offset="0.5213" stop-color="#D8ECFE"/>
<stop offset="1" stop-color="#94BEE4"/>
</linearGradient>
<linearGradient id="paint7_linear_460_50947" x1="106" y1="12.5" x2="117" y2="12.5" gradientUnits="userSpaceOnUse">
<stop stop-color="#60B97C"/>
<stop offset="0.5857" stop-color="#337247"/>
<stop offset="1" stop-color="#2A4F48"/>
</linearGradient>
<linearGradient id="paint8_linear_460_50947" x1="116" y1="3" x2="120" y2="3" gradientUnits="userSpaceOnUse">
<stop stop-color="#60B97C"/>
<stop offset="0.5857" stop-color="#337247"/>
<stop offset="1" stop-color="#2A4F48"/>
</linearGradient>
<linearGradient id="paint9_linear_460_50947" x1="13" y1="109" x2="3" y2="109" gradientUnits="userSpaceOnUse">
<stop stop-color="#60B97C"/>
<stop offset="0.5857" stop-color="#337247"/>
<stop offset="1" stop-color="#2A4F48"/>
</linearGradient>
<linearGradient id="paint10_linear_460_50947" x1="3.99999" y1="118" x2="-2.51427e-07" y2="118" gradientUnits="userSpaceOnUse">
<stop stop-color="#60B97C"/>
<stop offset="0.5857" stop-color="#337247"/>
<stop offset="1" stop-color="#2A4F48"/>
</linearGradient>
<linearGradient id="paint11_linear_460_50947" x1="0.000274094" y1="60" x2="120" y2="60" gradientUnits="userSpaceOnUse">
<stop stop-color="#60B97C"/>
<stop offset="0.5857" stop-color="#337247"/>
<stop offset="1" stop-color="#2A4F48"/>
</linearGradient>
<linearGradient id="paint12_linear_460_50947" x1="16.0002" y1="60" x2="121" y2="60" gradientUnits="userSpaceOnUse">
<stop stop-color="#60B97C"/>
<stop offset="0.5857" stop-color="#337247"/>
<stop offset="1" stop-color="#2A4F48"/>
</linearGradient>
<linearGradient id="paint13_linear_460_50947" x1="25.2379" y1="35" x2="25.2379" y2="46.1886" gradientUnits="userSpaceOnUse">
<stop stop-color="white"/>
<stop offset="1" stop-color="white" stop-opacity="0"/>
</linearGradient>
<linearGradient id="paint14_linear_460_50947" x1="30.232" y1="53.8949" x2="30.232" y2="64.8732" gradientUnits="userSpaceOnUse">
<stop stop-color="white"/>
<stop offset="1" stop-color="white" stop-opacity="0"/>
</linearGradient>
<linearGradient id="paint15_linear_460_50947" x1="21.7023" y1="70.4581" x2="21.7023" y2="81.6467" gradientUnits="userSpaceOnUse">
<stop stop-color="white"/>
<stop offset="1" stop-color="white" stop-opacity="0"/>
</linearGradient>
<linearGradient id="paint16_linear_460_50947" x1="99.6537" y1="69.1018" x2="99.6537" y2="79" gradientUnits="userSpaceOnUse">
<stop stop-color="white"/>
<stop offset="1" stop-color="white" stop-opacity="0"/>
</linearGradient>
<linearGradient id="paint17_linear_460_50947" x1="97.5" y1="37.4213" x2="97.5" y2="48.3499" gradientUnits="userSpaceOnUse">
<stop stop-color="white"/>
<stop offset="1" stop-color="white" stop-opacity="0"/>
</linearGradient>
<linearGradient id="paint18_linear_460_50947" x1="90.2878" y1="54.1969" x2="90.2878" y2="63.5669" gradientUnits="userSpaceOnUse">
<stop stop-color="white"/>
<stop offset="1" stop-color="white" stop-opacity="0"/>
</linearGradient>
<linearGradient id="paint19_linear_460_50947" x1="62" y1="38" x2="62" y2="88.0005" gradientUnits="userSpaceOnUse">
<stop stop-color="#EAF6FF"/>
<stop offset="0.5213" stop-color="#D8ECFE"/>
<stop offset="1" stop-color="#B3DAFE"/>
</linearGradient>
<linearGradient id="paint20_linear_460_50947" x1="72.75" y1="15.3845" x2="72.75" y2="56.9011" gradientUnits="userSpaceOnUse">
<stop stop-color="#EAF6FF"/>
<stop offset="0.5213" stop-color="#D8ECFE"/>
<stop offset="1" stop-color="#7CA8D0"/>
</linearGradient>
<linearGradient id="paint21_linear_460_50947" x1="73" y1="17.3031" x2="73" y2="56.3775" gradientUnits="userSpaceOnUse">
<stop stop-color="#EAF6FF"/>
<stop offset="0.5213" stop-color="#D8ECFE"/>
<stop offset="1" stop-color="#94BEE4"/>
</linearGradient>
<linearGradient id="paint22_linear_460_50947" x1="72.75" y1="37.3845" x2="72.75" y2="78.9011" gradientUnits="userSpaceOnUse">
<stop stop-color="#EAF6FF"/>
<stop offset="0.5213" stop-color="#D8ECFE"/>
<stop offset="1" stop-color="#82ACD3"/>
</linearGradient>
<linearGradient id="paint23_linear_460_50947" x1="73" y1="39.3031" x2="73" y2="78.3775" gradientUnits="userSpaceOnUse">
<stop stop-color="#EAF6FF"/>
<stop offset="0.5213" stop-color="#D8ECFE"/>
<stop offset="1" stop-color="#94BEE4"/>
</linearGradient>
<linearGradient id="paint24_linear_460_50947" x1="50.75" y1="15.3845" x2="50.75" y2="56.9011" gradientUnits="userSpaceOnUse">
<stop stop-color="#EAF6FF"/>
<stop offset="0.5213" stop-color="#D8ECFE"/>
<stop offset="1" stop-color="#81ACD3"/>
</linearGradient>
<linearGradient id="paint25_linear_460_50947" x1="51" y1="17.3031" x2="51" y2="56.3775" gradientUnits="userSpaceOnUse">
<stop stop-color="#EAF6FF"/>
<stop offset="0.5213" stop-color="#D8ECFE"/>
<stop offset="1" stop-color="#94BEE4"/>
</linearGradient>
<linearGradient id="paint26_linear_460_50947" x1="61.75" y1="26.3845" x2="61.75" y2="67.9011" gradientUnits="userSpaceOnUse">
<stop stop-color="#EAF6FF"/>
<stop offset="0.5213" stop-color="#D8ECFE"/>
<stop offset="1" stop-color="#86AFD6"/>
</linearGradient>
<linearGradient id="paint27_linear_460_50947" x1="62" y1="28.3031" x2="62" y2="67.3775" gradientUnits="userSpaceOnUse">
<stop stop-color="#EAF6FF"/>
<stop offset="0.5213" stop-color="#D8ECFE"/>
<stop offset="1" stop-color="#94BEE4"/>
</linearGradient>
<linearGradient id="paint28_linear_460_50947" x1="50.75" y1="37.3845" x2="50.75" y2="78.9011" gradientUnits="userSpaceOnUse">
<stop stop-color="#EAF6FF"/>
<stop offset="0.5213" stop-color="#D8ECFE"/>
<stop offset="1" stop-color="#81ABD3"/>
</linearGradient>
<linearGradient id="paint29_linear_460_50947" x1="51" y1="39.3031" x2="51" y2="78.3775" gradientUnits="userSpaceOnUse">
<stop stop-color="#EAF6FF"/>
<stop offset="0.5213" stop-color="#D8ECFE"/>
<stop offset="1" stop-color="#94BEE4"/>
</linearGradient>
<linearGradient id="paint30_linear_460_50947" x1="60" y1="35" x2="60" y2="85.0005" gradientUnits="userSpaceOnUse">
<stop stop-color="#EAF6FF"/>
<stop offset="0.5213" stop-color="#D8ECFE"/>
<stop offset="1" stop-color="#B3DAFE"/>
</linearGradient>
<linearGradient id="paint31_linear_460_50947" x1="70.75" y1="12.3845" x2="70.75" y2="53.9011" gradientUnits="userSpaceOnUse">
<stop stop-color="#EAF6FF"/>
<stop offset="0.5213" stop-color="#D8ECFE"/>
<stop offset="1" stop-color="#7CA8D0"/>
</linearGradient>
<linearGradient id="paint32_linear_460_50947" x1="71" y1="14.3031" x2="71" y2="53.3775" gradientUnits="userSpaceOnUse">
<stop stop-color="#EAF6FF"/>
<stop offset="0.5213" stop-color="#D8ECFE"/>
<stop offset="1" stop-color="#94BEE4"/>
</linearGradient>
<linearGradient id="paint33_linear_460_50947" x1="70.75" y1="34.3845" x2="70.75" y2="75.9011" gradientUnits="userSpaceOnUse">
<stop stop-color="#EAF6FF"/>
<stop offset="0.5213" stop-color="#D8ECFE"/>
<stop offset="1" stop-color="#82ACD3"/>
</linearGradient>
<linearGradient id="paint34_linear_460_50947" x1="71" y1="36.3031" x2="71" y2="75.3775" gradientUnits="userSpaceOnUse">
<stop stop-color="#EAF6FF"/>
<stop offset="0.5213" stop-color="#D8ECFE"/>
<stop offset="1" stop-color="#94BEE4"/>
</linearGradient>
<linearGradient id="paint35_linear_460_50947" x1="48.75" y1="12.3845" x2="48.75" y2="53.9011" gradientUnits="userSpaceOnUse">
<stop stop-color="#EAF6FF"/>
<stop offset="0.5213" stop-color="#D8ECFE"/>
<stop offset="1" stop-color="#81ACD3"/>
</linearGradient>
<linearGradient id="paint36_linear_460_50947" x1="49" y1="14.3031" x2="49" y2="53.3775" gradientUnits="userSpaceOnUse">
<stop stop-color="#EAF6FF"/>
<stop offset="0.5213" stop-color="#D8ECFE"/>
<stop offset="1" stop-color="#94BEE4"/>
</linearGradient>
<linearGradient id="paint37_linear_460_50947" x1="59.75" y1="23.3845" x2="59.75" y2="64.9011" gradientUnits="userSpaceOnUse">
<stop stop-color="#EAF6FF"/>
<stop offset="0.5213" stop-color="#D8ECFE"/>
<stop offset="1" stop-color="#86AFD6"/>
</linearGradient>
<linearGradient id="paint38_linear_460_50947" x1="60" y1="25.3031" x2="60" y2="64.3775" gradientUnits="userSpaceOnUse">
<stop stop-color="#EAF6FF"/>
<stop offset="0.5213" stop-color="#D8ECFE"/>
<stop offset="1" stop-color="#94BEE4"/>
</linearGradient>
<linearGradient id="paint39_linear_460_50947" x1="48.75" y1="34.3845" x2="48.75" y2="75.9011" gradientUnits="userSpaceOnUse">
<stop stop-color="#EAF6FF"/>
<stop offset="0.5213" stop-color="#D8ECFE"/>
<stop offset="1" stop-color="#81ABD3"/>
</linearGradient>
<linearGradient id="paint40_linear_460_50947" x1="49" y1="36.3031" x2="49" y2="75.3775" gradientUnits="userSpaceOnUse">
<stop stop-color="#EAF6FF"/>
<stop offset="0.5213" stop-color="#D8ECFE"/>
<stop offset="1" stop-color="#94BEE4"/>
</linearGradient>
<linearGradient id="paint41_linear_460_50947" x1="111.523" y1="93.5862" x2="93.5861" y2="111.523" gradientUnits="userSpaceOnUse">
<stop stop-color="#EAF6FF"/>
<stop offset="0.5213" stop-color="#D8ECFE"/>
<stop offset="1" stop-color="#B3DAFE"/>
</linearGradient>
<linearGradient id="paint42_linear_460_50947" x1="123.492" y1="89.3297" x2="108.599" y2="104.223" gradientUnits="userSpaceOnUse">
<stop stop-color="#EAF6FF"/>
<stop offset="0.5213" stop-color="#D8ECFE"/>
<stop offset="1" stop-color="#7CA8D0"/>
</linearGradient>
<linearGradient id="paint43_linear_460_50947" x1="122.893" y1="90.1076" x2="108.876" y2="104.125" gradientUnits="userSpaceOnUse">
<stop stop-color="#EAF6FF"/>
<stop offset="0.5213" stop-color="#D8ECFE"/>
<stop offset="1" stop-color="#94BEE4"/>
</linearGradient>
<linearGradient id="paint44_linear_460_50947" x1="115.6" y1="97.2218" x2="100.707" y2="112.115" gradientUnits="userSpaceOnUse">
<stop stop-color="#EAF6FF"/>
<stop offset="0.5213" stop-color="#D8ECFE"/>
<stop offset="1" stop-color="#82ACD3"/>
</linearGradient>
<linearGradient id="paint45_linear_460_50947" x1="115.001" y1="97.9997" x2="100.984" y2="112.017" gradientUnits="userSpaceOnUse">
<stop stop-color="#EAF6FF"/>
<stop offset="0.5213" stop-color="#D8ECFE"/>
<stop offset="1" stop-color="#94BEE4"/>
</linearGradient>
<linearGradient id="paint46_linear_460_50947" x1="115.6" y1="81.4377" x2="100.707" y2="96.3309" gradientUnits="userSpaceOnUse">
<stop stop-color="#EAF6FF"/>
<stop offset="0.5213" stop-color="#D8ECFE"/>
<stop offset="1" stop-color="#81ACD3"/>
</linearGradient>
<linearGradient id="paint47_linear_460_50947" x1="115.001" y1="82.2156" x2="100.984" y2="96.2327" gradientUnits="userSpaceOnUse">
<stop stop-color="#EAF6FF"/>
<stop offset="0.5213" stop-color="#D8ECFE"/>
<stop offset="1" stop-color="#94BEE4"/>
</linearGradient>
<linearGradient id="paint48_linear_460_50947" x1="107.708" y1="89.3297" x2="92.8145" y2="104.223" gradientUnits="userSpaceOnUse">
<stop stop-color="#EAF6FF"/>
<stop offset="0.5213" stop-color="#D8ECFE"/>
<stop offset="1" stop-color="#81ABD3"/>
</linearGradient>
<linearGradient id="paint49_linear_460_50947" x1="107.109" y1="90.1076" x2="93.0921" y2="104.125" gradientUnits="userSpaceOnUse">
<stop stop-color="#EAF6FF"/>
<stop offset="0.5213" stop-color="#D8ECFE"/>
<stop offset="1" stop-color="#94BEE4"/>
</linearGradient>
<clipPath id="clip0_460_50947">
<rect width="37" height="37" fill="white" transform="translate(0 37) rotate(-90)"/>
</clipPath>
<clipPath id="clip1_460_50947">
<rect y="1" width="120" height="120" rx="60" fill="white"/>
</clipPath>
<clipPath id="clip2_460_50947">
<rect width="126" height="126" fill="white"/>
</clipPath>
<clipPath id="clip3_460_50947">
<rect width="17.4045" height="11.1886" fill="white" transform="translate(16.5356 35)"/>
</clipPath>
<clipPath id="clip4_460_50947">
<rect width="17.0773" height="10.9783" fill="white" transform="translate(21.6934 53.8949)"/>
</clipPath>
<clipPath id="clip5_460_50947">
<rect width="17.4045" height="11.1886" fill="white" transform="translate(13 70.4581)"/>
</clipPath>
<clipPath id="clip6_460_50947">
<rect width="15.3972" height="9.8982" fill="white" transform="translate(91.9551 69.1018)"/>
</clipPath>
<clipPath id="clip7_460_50947">
<rect width="17" height="10.9286" fill="white" transform="translate(89 37.4213)"/>
</clipPath>
<clipPath id="clip8_460_50947">
<rect width="14.5757" height="9.37008" fill="white" transform="translate(83 54.1969)"/>
</clipPath>
<clipPath id="clip9_460_50947">
<rect x="87" y="38" width="50" height="50" rx="12" transform="rotate(90 87 38)" fill="white"/>
</clipPath>
<clipPath id="clip10_460_50947">
<rect x="85" y="35" width="50" height="50" rx="12" transform="rotate(90 85 35)" fill="white"/>
</clipPath>
<clipPath id="clip11_460_50947">
<rect width="25.366" height="25.366" fill="white" transform="translate(120.491 102.554) rotate(135)"/>
</clipPath>
</defs>
</svg>
